<svg width="1454" height="1208" viewBox="0 0 1454 1208" fill="none" xmlns="http://www.w3.org/2000/svg">
<g opacity="0.1">
<path d="M160.167 557.658L155.825 566.342C155.317 567.358 154.278 568 153.142 568H147.9C146.738 568 145.68 567.329 145.185 566.277L142.658 560.906C142.243 560.024 142.282 558.996 142.763 558.148L152.249 541.435C152.413 541.147 152.623 540.888 152.871 540.669L164.645 530.253C165.193 529.768 165.9 529.5 166.633 529.5H182.4C182.794 529.5 183.183 529.577 183.547 529.728L196.535 535.102C197.158 535.36 197.675 535.819 198.005 536.407L207.478 553.293C208.308 554.773 207.747 556.646 206.24 557.426L182.498 569.706C181.091 570.433 179.362 569.943 178.547 568.585L171.87 557.457C171.328 556.553 170.351 556 169.298 556H162.85C161.714 556 160.675 556.642 160.167 557.658Z" fill="#6F27D4" fill-opacity="0.75"/>
<path d="M179.118 579.743L167.347 569.596C166.269 568.667 164.687 568.622 163.559 569.49L153.305 577.378C152.78 577.781 152.137 578 151.476 578H143.307C142.471 578 141.673 577.651 141.106 577.038L129.996 565.04C129.668 564.685 129.258 564.415 128.803 564.253L123.499 562.358C122.85 562.126 122.141 562.125 121.492 562.354L107.279 567.371C106.19 567.755 104.976 567.48 104.159 566.663L103.175 565.679C102.442 564.946 101.382 564.643 100.372 564.879L90.1627 567.261C88.4566 567.659 87.4532 569.428 87.9871 571.097L90.8534 580.054C90.9479 580.35 90.9961 580.658 90.9961 580.968V590.781C90.9961 591.846 91.5604 592.831 92.4789 593.369L104.013 600.131C104.932 600.669 105.496 601.654 105.496 602.719V611.62C105.496 612.496 105.113 613.328 104.448 613.898L102.456 615.606C102.152 615.866 101.904 616.184 101.725 616.542L97.6434 624.705C97.5455 624.901 97.4265 625.086 97.2884 625.256L90.9961 633L82.4628 642.387C81.5883 643.349 81.4329 644.764 82.0779 645.893L86.3186 653.314C86.749 654.068 87.4844 654.598 88.335 654.768L101.705 657.442C101.899 657.48 102.096 657.5 102.293 657.5H121.788C122.254 657.5 122.713 657.392 123.13 657.183L134.091 651.702C134.36 651.568 134.606 651.395 134.823 651.187L144.822 641.623C145.555 640.922 146.591 640.639 147.578 640.869L160.66 643.922C160.883 643.974 161.112 644 161.341 644H178.111C179.263 644 180.314 643.34 180.814 642.301L185.957 631.62C186.302 630.903 186.348 630.078 186.086 629.327L183.165 620.981C183.053 620.663 182.996 620.328 182.996 619.99V605L180.137 581.651C180.046 580.91 179.683 580.23 179.118 579.743Z" fill="#6F27D4" fill-opacity="0.75"/>
<path d="M160.167 557.658L155.825 566.342C155.317 567.358 154.278 568 153.142 568H147.9C146.738 568 145.68 567.329 145.185 566.277L142.658 560.906C142.243 560.024 142.282 558.996 142.763 558.148L152.249 541.435C152.413 541.147 152.623 540.888 152.871 540.669L164.645 530.253C165.193 529.768 165.9 529.5 166.633 529.5H182.4C182.794 529.5 183.183 529.577 183.547 529.728L196.535 535.102C197.158 535.36 197.675 535.819 198.005 536.407L207.478 553.293C208.308 554.773 207.747 556.646 206.24 557.426L182.498 569.706C181.091 570.433 179.362 569.943 178.547 568.585L171.87 557.457C171.328 556.553 170.351 556 169.298 556H162.85C161.714 556 160.675 556.642 160.167 557.658Z" stroke="#6F27D4" stroke-opacity="0.75" stroke-width="4"/>
<path d="M179.118 579.743L167.347 569.596C166.269 568.667 164.687 568.622 163.559 569.49L153.305 577.378C152.78 577.781 152.137 578 151.476 578H143.307C142.471 578 141.673 577.651 141.106 577.038L129.996 565.04C129.668 564.685 129.258 564.415 128.803 564.253L123.499 562.358C122.85 562.126 122.141 562.125 121.492 562.354L107.279 567.371C106.19 567.755 104.976 567.48 104.159 566.663L103.175 565.679C102.442 564.946 101.382 564.643 100.372 564.879L90.1627 567.261C88.4566 567.659 87.4532 569.428 87.9871 571.097L90.8534 580.054C90.9479 580.35 90.9961 580.658 90.9961 580.968V590.781C90.9961 591.846 91.5604 592.831 92.4789 593.369L104.013 600.131C104.932 600.669 105.496 601.654 105.496 602.719V611.62C105.496 612.496 105.113 613.328 104.448 613.898L102.456 615.606C102.152 615.866 101.904 616.184 101.725 616.542L97.6434 624.705C97.5455 624.901 97.4265 625.086 97.2884 625.256L90.9961 633L82.4628 642.387C81.5883 643.349 81.4329 644.764 82.0779 645.893L86.3186 653.314C86.749 654.068 87.4844 654.598 88.335 654.768L101.705 657.442C101.899 657.48 102.096 657.5 102.293 657.5H121.788C122.254 657.5 122.713 657.392 123.13 657.183L134.091 651.702C134.36 651.568 134.606 651.395 134.823 651.187L144.822 641.623C145.555 640.922 146.591 640.639 147.578 640.869L160.66 643.922C160.883 643.974 161.112 644 161.341 644H178.111C179.263 644 180.314 643.34 180.814 642.301L185.957 631.62C186.302 630.903 186.348 630.078 186.086 629.327L183.165 620.981C183.053 620.663 182.996 620.328 182.996 619.99V605L180.137 581.651C180.046 580.91 179.683 580.23 179.118 579.743Z" stroke="#6F27D4" stroke-opacity="0.75" stroke-width="4"/>
</g>
<g opacity="0.07">
<path d="M174.996 974H318.996L323.496 978.5H329.496L340.496 967.5V929.5L347.496 922.5V878.5L340.496 871.5H327.996L317.996 861.5V846L307.496 835.5H282.996L271.496 824H252.996L246.996 818V808.5L242.996 804.5V799.5L248.496 794H269.496L273.996 789.5H284.496L291.996 797H312.996H322.996L330.496 789.5V775.5L321.496 766.5V760L325.996 755.5H335.996L354.496 774H369.996L375.496 768.5V757.5L384.996 748H409.496L420.496 737V718.5L425.996 713H452.996L468.496 697.5L488.996 677V663.5L498.496 654V645L501.496 642H507.496L513.996 648.5H526.996V642L522.996 638V630.5L532.496 621H554.496L560.496 627H569.996L573.496 623.5V610H591.996L598.996 617H610.496L614.996 612.5H626.996L629.496 610V599L618.996 588.5V569.5L610.496 561V544.5L596.496 530.5V489L611.996 473.5H627.496L647.496 453.5H656.996L661.496 458V473.5L655.996 479V492L669.996 506V510L667.496 512.5H662.496L645.496 529.5V536L648.996 539.5H662.496L667.496 544.5V555L664.496 558H651.996L642.996 549H639.996L637.496 551.5V556.5L644.496 563.5V576L648.996 580.5H667.496L672.496 585.5V594L679.496 601H693.496L713.996 580.5H732.996L737.996 585.5V592H753.496L759.496 598H764.996L773.996 589H808.996L836.496 561.5H864.996L868.996 565.5V575L876.996 583H886.996L894.996 575H908.496L918.996 585.5H983.996L987.496 582V565.5L977.496 555.5H958.996L952.996 549.5H933.996L931.496 547V541.5L941.496 531.5V512.5L935.996 507V494L948.996 481V472L965.996 455H974.996L998.496 478.5H1018.5L1028.5 468.5V442L1034 436.5V432L1028.5 426.5H1014.5L1005.5 417.5V406.5L999.996 401V396.5L1004 392.5H1023L1036 379.5H1095.5L1100.5 384.5H1125.5V391.5L1109.5 407.5V428.5L1117.5 436.5V442L1108 451.5V459L1117.5 468.5V485L1131.5 499V516.5L1137 522H1145H1153.5L1163 531.5H1171L1174.5 528H1191.5L1203.5 540V569.5L1248 614V619.5L1239 628.5H1231.5L1226.5 623.5H1221L1217 627.5V658.5L1226.5 668H1239L1247 660H1282L1288 666V693L1298.5 703.5H1312L1324.5 716V726.5L1329 731H1342.5L1351.5 740H1364L1370.5 733.5H1374.5L1397 756H1442.5L1447 760.5V765L1442.5 769.5V773.5L1447 778V783L1442.5 787.5V793.5L1451 802V808L1445.5 813.5H1440L1436 809.5H1410L1402 817.5L1386.5 833H1372.5L1353.5 852H1338L1336.5 853.5H1333L1331.5 855H1327.5H1319L1314.5 859.5H1309.5L1306.5 856.5H1299.5L1296 853H1292.5L1290.5 855H1286L1283 852L1274 843H1264.5L1259 848.5H1249.5L1244.5 853.5H1236.5H1207.5L1199.5 861.5V871.5L1170.5 900.5V922L1166.5 926H1155.5L1140 941.5V960.5L1111.5 989V999L1121 1008.5V1013.5L1118.5 1016H1089.5L1085.5 1020V1039.5L1074 1051H1022.5L1013.5 1060V1072L1009 1076.5H998.996L985.496 1063H978.996L969.996 1072V1081L991.496 1102.5L983.496 1110.5V1116.5L987.496 1120.5H1012L1024 1132.5V1142L1019 1147H1000.5H987.496L983.996 1150.5V1154L986.996 1157H1001.5L1003.5 1159V1163L1001 1165.5H980.496L976.496 1169.5V1174.5L991.496 1189.5V1193L988.996 1195.5H982.496L969.996 1183H955.496L949.996 1177.5V1164.5L940.496 1155V1151L943.496 1148H969.996L974.496 1143.5V1136L961.496 1123H949.996L945.496 1127.5H934.496V1111.5L920.996 1098L894.996 1072V1034L849.996 989H836.496L745.496 898H727.496L712.496 913V936.5L747.996 972V991L785.996 1029H808.496L826.996 1047.5H836.496L868.496 1079.5V1084L864.996 1087.5H858.996L843.496 1072H826.996L821.496 1077.5V1089L834.496 1102V1109.5L829.996 1114H822.996L813.996 1123V1133L798.996 1148V1127.5L806.496 1120V1105.5L798.996 1098V1089L790.996 1081H781.996L743.496 1042.5H720.496L661.496 983.5V970L657.996 966.5L632.996 941.5H609.996L594.996 956.5H584.496L578.996 962H559.496L551.496 970V981.5L546.496 986.5H528.496L511.996 970H505.496H472.496L458.996 983.5V1013L432.996 1039H404.496L391.996 1051.5V1063L364.496 1090.5V1111L368.996 1115.5V1125.5L351.996 1142.5V1160L346.496 1165.5H336.496L312.996 1189H255.996L246.496 1198.5H231.496L224.496 1205.5H219.996L185.996 1171.5H164.996L157.496 1179H140.496L132.996 1171.5V1138.5L113.996 1119.5V1108L138.496 1083.5V1042L129.996 1033.5V1001.5L116.996 988.5V983L124.496 975.5H138.496L152.496 961.5H162.496L174.996 974Z" fill="#6F27D4" fill-opacity="0.75"/>
<path d="M1249 907.5V900.5L1250.5 899V883.5L1247 880H1234.5L1231 876.5H1225.5L1224.5 875.5V873L1233.5 864H1242L1244.5 861.5L1249.5 857.5L1253 854H1270.5L1272 855.5L1284.5 868H1301L1303 870V874L1297.5 879.5L1292.5 884.5H1282L1259 907.5H1249Z" fill="#6F27D4" fill-opacity="0.75"/>
<path d="M1179 33.5L1170.5 15L1163 10L1162.5 9.5H1089L1023 3L1005.5 15L1010 33.5L1019.5 51.5V81L1012.5 89.5L1028 102L1042 106L1058.5 122.5V137.5L1052 144H1042L1034 152V161L1008 187H994.996L974.996 207V219.5L970.496 224H949.496L934.496 239V251L946.496 263V280.5L956.496 290.5V309.5L942.996 323V332.5L953.496 343H970.496L983.996 356.5H1069L1089 336.5H1125.5L1185 277L1211 251V239L1179 207V199L1189.5 188.5V182.5L1177.5 170.5V159L1170.5 152V146.5L1174.5 142.5V137.5L1170.5 133.5V127.5L1186.5 111.5V95L1156 64.5V56.5L1179 33.5Z" fill="#6F27D4" fill-opacity="0.75"/>
<path d="M842.996 3L892.496 17.5H997.996L1001.5 21V28L1004 30.5V37.5L1011.5 60.5V76.5L989.996 98H975.996L972.996 101V110L967.496 115.5H960.996L950.496 126V135L940.996 144.5V152.5L949.496 161V169L931.496 187H914.996L880.496 221.5H875.996L846.496 251V285L833.996 297.5V335L837.496 338.5H848.996L859.996 349.5V403L845.496 417.5H772.996L734.496 379V295.5L722.996 284V264L718.996 260V213L744.996 187H758.496L763.996 181.5V171.5L758.496 166V139.5L770.496 127.5V95L784.496 81H794.996L811.496 64.5V44L818.996 36.5V27L830.996 15L842.996 3Z" fill="#6F27D4" fill-opacity="0.75"/>
<path d="M800.996 9.5H822.496L803.996 49.5L796.996 56.5H791.996L783.496 65H774.996L753.996 86V119.5L741.996 131.5V137.5L734.496 145V152.5L728.996 158V167.5L721.496 175H716.496L687.996 203.5V239L692.996 244V252L697.496 256.5V273L703.496 279V285L714.496 296V303.5L711.996 306V310.5L682.996 339.5V350.5L679.496 354H675.496L660.996 339.5H655.496L640.996 354V361.5H594.996L575.996 342.5H568.996L545.496 319H523.496L522.496 320H510.496L504.996 314.5V295L513.496 286.5V280V270L510.496 267V263.5L522.496 251.5H527.496V248L540.996 234.5V232L543.496 229.5H568.996L573.996 224.5V213.5L592.496 195H612.996L618.996 201H625.496L628.496 198L624.496 194V191C627.829 187.833 634.396 181.5 633.996 181.5C633.596 181.5 647.496 167.833 654.496 161H675.496L682.996 153.5L676.996 147.5V141L706.496 111.5V103L715.996 93.5V88L726.996 77V72.5L744.996 54.5V48L748.996 44H754.996L789.496 9.5H800.996Z" fill="#6F27D4" fill-opacity="0.75"/>
<path d="M174.996 974H318.996L323.496 978.5H329.496L340.496 967.5V929.5L347.496 922.5V878.5L340.496 871.5H327.996L317.996 861.5V846L307.496 835.5H282.996L271.496 824H252.996L246.996 818V808.5L242.996 804.5V799.5L248.496 794H269.496L273.996 789.5H284.496L291.996 797H312.996H322.996L330.496 789.5V775.5L321.496 766.5V760L325.996 755.5H335.996L354.496 774H369.996L375.496 768.5V757.5L384.996 748H409.496L420.496 737V718.5L425.996 713H452.996L468.496 697.5L488.996 677V663.5L498.496 654V645L501.496 642H507.496L513.996 648.5H526.996V642L522.996 638V630.5L532.496 621H554.496L560.496 627H569.996L573.496 623.5V610H591.996L598.996 617H610.496L614.996 612.5H626.996L629.496 610V599L618.996 588.5V569.5L610.496 561V544.5L596.496 530.5V489L611.996 473.5H627.496L647.496 453.5H656.996L661.496 458V473.5L655.996 479V492L669.996 506V510L667.496 512.5H662.496L645.496 529.5V536L648.996 539.5H662.496L667.496 544.5V555L664.496 558H651.996L642.996 549H639.996L637.496 551.5V556.5L644.496 563.5V576L648.996 580.5H667.496L672.496 585.5V594L679.496 601H693.496L713.996 580.5H732.996L737.996 585.5V592H753.496L759.496 598H764.996L773.996 589H808.996L836.496 561.5H864.996L868.996 565.5V575L876.996 583H886.996L894.996 575H908.496L918.996 585.5H983.996L987.496 582V565.5L977.496 555.5H958.996L952.996 549.5H933.996L931.496 547V541.5L941.496 531.5V512.5L935.996 507V494L948.996 481V472L965.996 455H974.996L998.496 478.5H1018.5L1028.5 468.5V442L1034 436.5V432L1028.5 426.5H1014.5L1005.5 417.5V406.5L999.996 401V396.5L1004 392.5H1023L1036 379.5H1095.5L1100.5 384.5H1125.5V391.5L1109.5 407.5V428.5L1117.5 436.5V442L1108 451.5V459L1117.5 468.5V485L1131.5 499V516.5L1137 522H1145H1153.5L1163 531.5H1171L1174.5 528H1191.5L1203.5 540V569.5L1248 614V619.5L1239 628.5H1231.5L1226.5 623.5H1221L1217 627.5V658.5L1226.5 668H1239L1247 660H1282L1288 666V693L1298.5 703.5H1312L1324.5 716V726.5L1329 731H1342.5L1351.5 740H1364L1370.5 733.5H1374.5L1397 756H1442.5L1447 760.5V765L1442.5 769.5V773.5L1447 778V783L1442.5 787.5V793.5L1451 802V808L1445.5 813.5H1440L1436 809.5H1410L1402 817.5L1386.5 833H1372.5L1353.5 852H1338L1336.5 853.5H1333L1331.5 855H1327.5H1319L1314.5 859.5H1309.5L1306.5 856.5H1299.5L1296 853H1292.5L1290.5 855H1286L1283 852L1274 843H1264.5L1259 848.5H1249.5L1244.5 853.5H1236.5H1207.5L1199.5 861.5V871.5L1170.5 900.5V922L1166.5 926H1155.5L1140 941.5V960.5L1111.5 989V999L1121 1008.5V1013.5L1118.5 1016H1089.5L1085.5 1020V1039.5L1074 1051H1022.5L1013.5 1060V1072L1009 1076.5H998.996L985.496 1063H978.996L969.996 1072V1081L991.496 1102.5L983.496 1110.5V1116.5L987.496 1120.5H1012L1024 1132.5V1142L1019 1147H1000.5H987.496L983.996 1150.5V1154L986.996 1157H1001.5L1003.5 1159V1163L1001 1165.5H980.496L976.496 1169.5V1174.5L991.496 1189.5V1193L988.996 1195.5H982.496L969.996 1183H955.496L949.996 1177.5V1164.5L940.496 1155V1151L943.496 1148H969.996L974.496 1143.5V1136L961.496 1123H949.996L945.496 1127.5H934.496V1111.5L920.996 1098L894.996 1072V1034L849.996 989H836.496L745.496 898H727.496L712.496 913V936.5L747.996 972V991L785.996 1029H808.496L826.996 1047.5H836.496L868.496 1079.5V1084L864.996 1087.5H858.996L843.496 1072H826.996L821.496 1077.5V1089L834.496 1102V1109.5L829.996 1114H822.996L813.996 1123V1133L798.996 1148V1127.5L806.496 1120V1105.5L798.996 1098V1089L790.996 1081H781.996L743.496 1042.5H720.496L661.496 983.5V970L657.996 966.5L632.996 941.5H609.996L594.996 956.5H584.496L578.996 962H559.496L551.496 970V981.5L546.496 986.5H528.496L511.996 970H505.496H472.496L458.996 983.5V1013L432.996 1039H404.496L391.996 1051.5V1063L364.496 1090.5V1111L368.996 1115.5V1125.5L351.996 1142.5V1160L346.496 1165.5H336.496L312.996 1189H255.996L246.496 1198.5H231.496L224.496 1205.5H219.996L185.996 1171.5H164.996L157.496 1179H140.496L132.996 1171.5V1138.5L113.996 1119.5V1108L138.496 1083.5V1042L129.996 1033.5V1001.5L116.996 988.5V983L124.496 975.5H138.496L152.496 961.5H162.496L174.996 974Z" stroke="#6F27D4" stroke-opacity="0.75" stroke-width="5"/>
<path d="M1249 907.5V900.5L1250.5 899V883.5L1247 880H1234.5L1231 876.5H1225.5L1224.5 875.5V873L1233.5 864H1242L1244.5 861.5L1249.5 857.5L1253 854H1270.5L1272 855.5L1284.5 868H1301L1303 870V874L1297.5 879.5L1292.5 884.5H1282L1259 907.5H1249Z" stroke="#6F27D4" stroke-opacity="0.75" stroke-width="5"/>
<path d="M1179 33.5L1170.5 15L1163 10L1162.5 9.5H1089L1023 3L1005.5 15L1010 33.5L1019.5 51.5V81L1012.5 89.5L1028 102L1042 106L1058.5 122.5V137.5L1052 144H1042L1034 152V161L1008 187H994.996L974.996 207V219.5L970.496 224H949.496L934.496 239V251L946.496 263V280.5L956.496 290.5V309.5L942.996 323V332.5L953.496 343H970.496L983.996 356.5H1069L1089 336.5H1125.5L1185 277L1211 251V239L1179 207V199L1189.5 188.5V182.5L1177.5 170.5V159L1170.5 152V146.5L1174.5 142.5V137.5L1170.5 133.5V127.5L1186.5 111.5V95L1156 64.5V56.5L1179 33.5Z" stroke="#6F27D4" stroke-opacity="0.75" stroke-width="5"/>
<path d="M842.996 3L892.496 17.5H997.996L1001.5 21V28L1004 30.5V37.5L1011.5 60.5V76.5L989.996 98H975.996L972.996 101V110L967.496 115.5H960.996L950.496 126V135L940.996 144.5V152.5L949.496 161V169L931.496 187H914.996L880.496 221.5H875.996L846.496 251V285L833.996 297.5V335L837.496 338.5H848.996L859.996 349.5V403L845.496 417.5H772.996L734.496 379V295.5L722.996 284V264L718.996 260V213L744.996 187H758.496L763.996 181.5V171.5L758.496 166V139.5L770.496 127.5V95L784.496 81H794.996L811.496 64.5V44L818.996 36.5V27L830.996 15L842.996 3Z" stroke="#6F27D4" stroke-opacity="0.75" stroke-width="5"/>
<path d="M800.996 9.5H822.496L803.996 49.5L796.996 56.5H791.996L783.496 65H774.996L753.996 86V119.5L741.996 131.5V137.5L734.496 145V152.5L728.996 158V167.5L721.496 175H716.496L687.996 203.5V239L692.996 244V252L697.496 256.5V273L703.496 279V285L714.496 296V303.5L711.996 306V310.5L682.996 339.5V350.5L679.496 354H675.496L660.996 339.5H655.496L640.996 354V361.5H594.996L575.996 342.5H568.996L545.496 319H523.496L522.496 320H510.496L504.996 314.5V295L513.496 286.5V280V270L510.496 267V263.5L522.496 251.5H527.496V248L540.996 234.5V232L543.496 229.5H568.996L573.996 224.5V213.5L592.496 195H612.996L618.996 201H625.496L628.496 198L624.496 194V191C627.829 187.833 634.396 181.5 633.996 181.5C633.596 181.5 647.496 167.833 654.496 161H675.496L682.996 153.5L676.996 147.5V141L706.496 111.5V103L715.996 93.5V88L726.996 77V72.5L744.996 54.5V48L748.996 44H754.996L789.496 9.5H800.996Z" stroke="#6F27D4" stroke-opacity="0.75" stroke-width="5"/>
</g>
<path opacity="0.1" d="M272.996 492.068V498C272.996 499.657 274.339 501 275.996 501H281.154C281.381 501 281.608 501.026 281.829 501.077L293.716 503.82C294.227 503.938 294.698 504.188 295.083 504.545L301.167 510.195C301.385 510.397 301.632 510.566 301.9 510.696L316.601 517.823C317.476 518.248 318.091 519.07 318.251 520.03L320.896 535.901C320.962 536.296 321.107 536.674 321.321 537.013L330.038 550.776C330.337 551.249 330.763 551.629 331.268 551.873L343.766 557.906C344.547 558.283 345.126 558.977 345.355 559.815C346.956 565.681 349.755 575.907 350.496 578.5C351.242 581.111 352.915 589.721 353.814 594.521C353.933 595.157 354.253 595.737 354.729 596.177L359.531 600.609C360.146 601.177 360.496 601.976 360.496 602.813V608.432C360.496 609.414 360.977 610.334 361.783 610.895L370.319 616.833C371.331 617.537 372.67 617.55 373.696 616.867L377.28 614.477C377.748 614.165 378.29 613.991 378.852 613.976C384.803 613.812 395.949 613.619 398.996 614C401.835 614.355 406.457 622.867 409.093 628.508C409.646 629.69 409.332 631.085 408.352 631.947L377.68 658.957C376.939 659.61 376.566 660.586 376.684 661.566L377.691 669.96C377.865 671.409 379.095 672.5 380.554 672.5C383.442 672.5 384.537 676.274 382.097 677.819L361.231 691.034C360.751 691.339 360.194 691.5 359.626 691.5H318.586C318.196 691.5 317.814 691.425 317.452 691.279C313.596 689.725 306.283 687 303.996 687C302.316 687 301.191 689.288 300.553 691.461C300.132 692.893 298.888 694 297.395 694H272.996C264.496 694 262.496 700.5 259.496 701.5C257.519 702.159 253.824 705.125 251.371 707.268C250.518 708.013 249.327 708.249 248.266 707.851L243.026 705.886C242.361 705.637 241.629 705.632 240.96 705.871L219.508 713.562C217.554 714.262 215.496 712.814 215.496 710.738V706.743C215.496 705.947 215.812 705.184 216.375 704.621L233.552 687.444C233.845 687.151 234.195 686.922 234.58 686.771L244.969 682.706C245.317 682.57 245.687 682.5 246.061 682.5H259.496H271.61C272.49 682.5 273.325 682.114 273.895 681.443L281.104 672.962C281.363 672.657 281.558 672.304 281.679 671.922L283.263 666.903C283.874 664.97 282.43 663 280.403 663H277.496L269.996 662H264.996H254.857C253.992 662 253.169 661.627 252.6 660.976L250.893 659.024C250.323 658.373 249.5 658 248.635 658H245.496H240.239C239.553 658 238.996 657.443 238.996 656.757C238.996 655.899 238.148 655.299 237.339 655.585L230.92 657.85C230.644 657.948 230.345 657.96 230.061 657.887L221.757 655.72C221.341 655.612 221.42 655 221.849 655C221.943 655 222.031 654.966 222.1 654.901C226.15 651.031 235.03 643.19 238.996 642C242.163 641.05 244.076 639.619 244.984 638.651C245.356 638.254 245.483 637.711 245.566 637.173C245.836 635.424 246.948 632.532 249.996 630.5C253.339 628.271 249.18 624.721 246.167 622.89C245.731 622.626 245.229 622.5 244.719 622.5H236.164C233.755 622.5 232.329 619.805 233.683 617.813L238.714 610.414C238.901 610.14 239.041 609.837 239.128 609.517L240.616 604.061C241.146 602.117 243.731 601.726 244.812 603.425C245.238 604.095 245.977 604.5 246.77 604.5H259.496H267.834C269.125 604.5 270.272 603.674 270.68 602.449L272.901 595.786C272.964 595.596 273.008 595.4 273.033 595.201L275.41 575.704C275.467 575.241 275.414 574.771 275.258 574.332L272.996 568L270.314 559.507C270.108 558.855 269.686 558.293 269.117 557.914L262.693 553.631C261.069 552.549 260.895 550.228 262.339 548.915L264.434 547.011C264.803 546.676 265.082 546.254 265.247 545.784C266.507 542.207 268.876 535.614 269.996 533C271.08 530.47 267.892 531.56 265.668 532.654C265.223 532.873 264.736 533 264.24 533H256.496C254.839 533 253.496 534.343 253.496 536V537.5C253.496 539.157 252.153 540.5 250.496 540.5H222.107C219.53 540.5 218.152 537.464 219.85 535.524L225.996 528.5L232.864 519.916C233.56 519.045 233.716 517.86 233.269 516.839L230.748 511.075C230.582 510.696 230.496 510.286 230.496 509.872V498.847C230.496 497.99 230.13 497.174 229.489 496.605L228.11 495.379C226.923 494.324 225.119 494.377 223.996 495.5L222.34 497.156C222.112 497.384 221.923 497.647 221.778 497.935L216.325 508.842C215.817 509.858 214.778 510.5 213.642 510.5H207.887C207.005 510.5 206.167 510.111 205.597 509.438L202.03 505.222C201.384 504.458 201.161 503.423 201.436 502.46L203.881 493.904C203.957 493.636 203.996 493.359 203.996 493.08V484.296C203.996 483.19 203.388 482.174 202.413 481.652L191.579 475.848C190.605 475.326 189.996 474.31 189.996 473.204V470.167C189.996 469.416 190.277 468.693 190.785 468.14L200.582 457.451C200.855 457.154 201.065 456.804 201.2 456.423L203.654 449.471C203.876 448.842 203.882 448.156 203.671 447.523L201.509 441.039C201.189 440.079 201.375 439.022 202.003 438.228L210.496 427.5L214.801 422.334C215.25 421.795 215.496 421.116 215.496 420.414V409.88C215.496 409.004 215.879 408.172 216.544 407.602L225.153 400.222C225.697 399.756 226.39 399.5 227.106 399.5H252.372C253.097 399.5 253.797 399.238 254.343 398.761L263.948 390.388C266.302 388.336 269.835 390.799 268.723 393.717L265.247 402.842C265.082 403.275 264.819 403.664 264.478 403.978L245.899 421.128C245.633 421.374 245.413 421.666 245.251 421.991L243.428 425.635C242.868 426.756 243.063 428.108 243.919 429.024L248.29 433.708C249.034 434.505 250.153 434.836 251.211 434.571L259.05 432.612C259.346 432.538 259.651 432.509 259.955 432.527L297.501 434.762C299.498 434.881 300.822 436.884 300.148 438.768L284.82 481.596C284.609 482.184 284.221 482.692 283.708 483.048L274.283 489.605C273.477 490.166 272.996 491.086 272.996 492.068Z" fill="#6F27D4" fill-opacity="0.75" stroke="#6F27D4" stroke-opacity="0.75" stroke-width="4"/>
<path d="M1216.11 838.806C1213.09 840.016 1195.71 839.31 1187.4 838.806L1109.58 917.463H1089.94L1024.21 852.419C1022.7 845.613 1020.58 831.848 1024.21 831.243C1028.74 830.486 1089.94 769.981 1089.94 766.956C1089.94 764.535 1089.94 717.543 1089.94 694.349L1109.58 676.197H1160.2L1216.11 732.921M1010.61 931.077L975.1 965.111H956.212L898.038 908.387V890.235L883.683 876.622H768.089M996.254 897.042L961.501 863.764H933.547L913.903 843.344H811.154M1056.7 922.001L996.254 863.764H981.899L969.811 849.394V823.679L910.881 763.174H877.639L830.797 809.309M383.534 1201.08V1007.46L361.624 985.531H347.27L311.005 949.228M327.626 980.994V994.607L361.624 1030.91V1133.77C354.825 1141.84 340.47 1158.12 337.448 1158.73C334.426 1159.33 302.946 1158.98 287.584 1158.73L243.009 1205.62H200.7M298.917 994.607L255.097 1038.47H234.698L212.788 1060.41V1136.8L145.548 1205.62H200.7M239.231 1053.6V1097.47L249.808 1107.3V1158.73L200.7 1205.62M714.448 1002.93L752.979 965.111V931.833L738.624 918.219V875.109L768.089 845.613V664.853M560.323 949.228C580.47 927.799 621.671 884.941 625.298 884.941C628.924 884.941 650.985 884.941 661.562 884.941L714.448 833.512V812.335L738.624 785.863V734.434M738.624 685.273L698.582 727.627L698.582 779.057L534.636 943.178V1047.55M403.177 820.654L378.246 794.939V761.661L319.316 703.425H292.117L270.207 723.089H206.744L149.325 779.813V805.528L2.00037 953.766V900.068L82.0846 824.436V769.981L114.572 738.972V723.089L193.901 642.919H218.832L270.207 695.862M390.334 738.972L283.051 631.575V612.667L233.943 562.75H144.037L123.638 581.658H48.8422L2.75598 537.791M224.877 103.664L363.135 246.609H447.752L471.928 221.65H625.298L711.426 306.358M819.464 306.358H764.312L711.426 254.928V211.062L687.249 186.859H507.438L467.395 149.043H363.135L318.56 103.664M681.961 103.664L625.298 161.145H525.57L494.594 130.892M951.397 683.56L1008.82 623.811V537.59L974.818 505.069V437C997.958 437 1039.42 437 1066.23 437M1050.37 588.264V560.28L1077.57 532.296H1099.48L1128.94 505.069V468.765C1119.88 458.177 1101.29 437 1099.48 437C1098.73 437 1084.95 437 1066.23 437M998.239 492.968C1001.87 493.573 1015.36 493.22 1021.66 492.968L1050.37 520.951H1068.5L1097.21 492.968V468.765L1066.23 437M983.9 372L951.4 404.5V437L850.609 537.791H801.9L738.624 601.067M886.4 332H794.9L734.9 392V448L673.9 509V570L620.4 623.5M775.497 153.5V115.5L808.997 82H847.497L896.388 130.892H904.997M989.997 322V306.358L1008.82 287.538H1045M1045 287.538L1068.5 264.034M1045 287.538H1120L1132.03 275.5V240C1138.71 231.45 1152.47 215.08 1154.03 218" stroke="#07001B" stroke-opacity="0.5" stroke-width="3"/>
</svg>
