<svg width="1751" height="773" viewBox="0 0 1751 773" fill="none" xmlns="http://www.w3.org/2000/svg">
<path d="M1528.22 77.584L1536 89.7134V180.879H1571.89L1605.19 180.879L1748 180.879V199.497V232V254.438V391.122L1735.44 404.306L1704.62 436.65V718.224L1654.91 770.394H1571.89L1546.54 770.394H1229.87L1204.52 770.394H884.878H859.526H733.259L689 736L624.5 689.603H461.338L434.991 688.631H357.939L333 666L306.723 643.861H294.308H71.1048L49.5 599.5L33.3242 564.132L3 535.775V335.444L33.3239 303.621V77.584L33.3242 45L184.837 45.0001L287.078 45L331.592 77.584L1528.22 77.584Z" fill="#42019B" fill-opacity="0.5" stroke="#FFB800" stroke-width="5" stroke-miterlimit="16"/>
<path d="M479.469 2.00005L442.281 33.0001L383.219 33.0001L418.219 2.00006L479.469 2.00005Z" fill="#FFB904" fill-opacity="0.5"/>
<path d="M383.219 2.00006L346.031 33.0001L334 33.0001L334 2.00006L383.219 2.00006Z" fill="#FFB904" fill-opacity="0.5"/>
<path d="M479.469 2.00005L442.281 33.0001L383.219 33.0001L418.219 2.00006L479.469 2.00005Z" stroke="#FFB904" stroke-opacity="0.5" stroke-width="3"/>
<path d="M383.219 2.00006L346.031 33.0001L334 33.0001L334 2.00006L383.219 2.00006Z" stroke="#FFB904" stroke-opacity="0.5" stroke-width="3"/>
<path d="M576.219 2.00005L539.031 33.0001L479.969 33.0001L514.969 2.00006L576.219 2.00005Z" fill="#FFB904" fill-opacity="0.5" stroke="#FFB904" stroke-opacity="0.5" stroke-width="3"/>
<path d="M672.219 2.00005L635.031 33.0001L575.969 33.0001L610.969 2.00006L672.219 2.00005Z" fill="#FFB904" fill-opacity="0.5" stroke="#FFB904" stroke-opacity="0.5" stroke-width="3"/>
<path d="M768.219 2.00005L731.031 33.0001L671.969 33.0001L706.969 2.00006L768.219 2.00005Z" fill="#FFB904" fill-opacity="0.5" stroke="#FFB904" stroke-opacity="0.5" stroke-width="3"/>
<path d="M864.219 2.00005L827.031 33.0001L767.969 33.0001L802.969 2.00006L864.219 2.00005Z" fill="#FFB904" fill-opacity="0.5" stroke="#FFB904" stroke-opacity="0.5" stroke-width="3"/>
<path d="M960.219 2.00005L923.031 33.0001L863.969 33.0001L898.969 2.00006L960.219 2.00005Z" fill="#FFB904" fill-opacity="0.5" stroke="#FFB904" stroke-opacity="0.5" stroke-width="3"/>
<path d="M1056.22 2.00005L1019.03 33.0001L959.969 33.0001L994.969 2.00006L1056.22 2.00005Z" fill="#FFB904" fill-opacity="0.5" stroke="#FFB904" stroke-opacity="0.5" stroke-width="3"/>
<path d="M1152.22 2.00005L1115.03 33.0001L1055.97 33.0001L1090.97 2.00006L1152.22 2.00005Z" fill="#FFB904" fill-opacity="0.5" stroke="#FFB904" stroke-opacity="0.5" stroke-width="3"/>
<path d="M1248.22 2.00005L1211.03 33.0001L1151.97 33.0001L1186.97 2.00006L1248.22 2.00005Z" fill="#FFB904" fill-opacity="0.5" stroke="#FFB904" stroke-opacity="0.5" stroke-width="3"/>
<path d="M1344.22 2.00005L1307.03 33.0001L1247.97 33.0001L1282.97 2.00006L1344.22 2.00005Z" fill="#FFB904" fill-opacity="0.5" stroke="#FFB904" stroke-opacity="0.5" stroke-width="3"/>
<path d="M1403.03 2.00005L1403.03 33.0001L1343.97 33.0001L1378.97 2.00005L1403.03 2.00005Z" fill="#FFB904" fill-opacity="0.5" stroke="#FFB904" stroke-opacity="0.5" stroke-width="3"/>
</svg>
