<svg width="1925" height="1314" viewBox="0 0 1925 1314" fill="none" xmlns="http://www.w3.org/2000/svg">
<g opacity="0.07">
<path d="M1024.65 279.477L801.621 500.218V822.163L740.455 880.832H606.934L518.915 954.5V967.368L541.5 989.953H565L584.5 1009.45L603.047 1028V1047L618 1061.95H643L652.5 1075.5V1141.5L436.118 1141V1085V795.758L391.987 752.494H355.951L340.647 735.442H303.343L258.207 775.488L255.839 847.693L303.343 801.629H352.574L399.567 845.63C399.734 892.773 399.945 1010.66 399.887 1085C399.858 1121.68 399.764 1147.76 399.567 1149.5L96.7817 1116L119.63 1085L194.438 983.502V907.233L255.839 847.693L258.207 775.488L303.343 735.442H340.647L355.951 752.494H391.987L436.118 795.758V752.494L302.597 621.956H242.923L10.9402 849.297V708.492L53.4579 666.691V647.623L169.076 533.953V506.085L143.715 481.151H119.845L107.165 494.351H42.269L10.9402 462.817V368.213L68.3765 423.949H260.825L343.623 504.618V544.22L421.945 621.956V710.692L442.831 731.96V680.624L462.225 661.557V590.421L272.76 403.414H68.3765L10.9402 348.412V239.142L65.3928 290.477V315.703V353.546L107.165 393.147H345.861L417.469 464.283V533.219L483.111 599.221H521.899L586.794 535.419V489.951L568.892 473.084V393.147L674.814 291.21V252.915V195.874L612.902 135.738H493.554L467.446 162.873H417.469H327.213L266.793 101.27H230.988L129.542 3H708.38V66.069L853.09 207.607H970.2L1011.23 249.409H1082.12H1227.54L1257.45 220.285L1305.12 173.873V115.938L1277.52 88.8031V5.2002H1461.76L1483.4 27.9343V52.1351L1323.02 210.541V238.408L1455.8 108.604H1520.69C1522.48 108.604 1590.56 39.6681 1624.38 5.2002H1654.21L1624.38 34.9659V157.006L1598.48 181.723H1560.47L1514.56 227.207H1373.2L1320.04 279.477H1266.25H1024.65Z" fill="#6F27D4" fill-opacity="0.75"/>
<path fill-rule="evenodd" clip-rule="evenodd" d="M1701.65 598.001L1685.43 582.675L1639.29 629.289H1610.95V676.958L1670.62 737.093H1693L1699.68 730.527L1680.92 713.194V636.069L1701.65 613.822V598.001Z" fill="#6F27D4" fill-opacity="0.75"/>
<path d="M1881.72 885.232L1921.25 922.633L1922 923.366V908.699L1887.69 874.965H1829.51L1735.52 966.635L1693.75 968.101V922.633L1743.72 874.965H1816.08L1829.51 861.764H1899.62L1922 885.232V646.89L1880.23 602.155L1807.13 603.622L1780.27 628.556V676.958L1747.45 709.959H1720.6L1699.68 730.527L1693 737.093H1670.62L1610.95 676.958V629.289H1639.29L1685.43 582.675L1693 575.021V550.086L1710.77 532.247L1763.86 478.951H1794.45L1809.37 465.75H1922V451.816H1763.86L1594.54 616.822V674.758L1480 787.933L1446.85 820.696L1295.42 822.163L1235 880.832L1233.51 968.101L1183.92 1017.25L1138.78 1061.97H1169.36L1264.09 968.101V886.698L1306.61 843.43H1411.88H1584.84L1666.89 922.633V966.635L1693.75 990.836H1730.3L1839.2 885.232H1881.72Z" fill="#6F27D4" fill-opacity="0.75"/>
<path d="M1455.8 108.604L1323.02 238.408V210.541L1483.4 52.1351V27.9343L1461.76 5.2002H1277.52V88.8031L1305.12 115.938V173.873L1257.45 220.285M1455.8 108.604C1476.68 108.604 1518.9 108.604 1520.69 108.604M1455.8 108.604H1520.69M1520.69 108.604C1522.48 108.604 1590.56 39.6681 1624.38 5.2002H1654.21L1624.38 34.9659M1699.68 730.527L1693 737.093H1670.62L1610.95 676.958V629.289H1639.29L1685.43 582.675M1699.68 730.527L1720.6 709.959H1747.45L1780.27 676.958V628.556L1807.13 603.622L1880.23 602.155L1922 646.89V885.232L1899.62 861.764H1829.51L1816.08 874.965H1743.72L1693.75 922.633V968.101L1735.52 966.635L1829.51 874.965H1887.69L1922 908.699V923.366L1921.25 922.633L1881.72 885.232H1839.2L1730.3 990.836H1693.75L1666.89 966.635V922.633L1584.84 843.43H1411.88M1699.68 730.527L1680.92 713.194V636.069L1701.65 613.822V598.001L1685.43 582.675M1685.43 582.675L1693 575.021V550.086L1710.77 532.247M1710.77 532.247L1763.86 478.951H1794.45L1809.37 465.75H1922V451.816H1763.86L1594.54 616.822V674.758L1480 787.933M1710.77 532.247H1830.5L1867.52 496.156H1890.23L1922 528.292M1922 979.672L1900.6 954.952H1882.33L1873.45 943.087H1845.31L1782.12 1005.38V1064.21H1695.24L1659.2 1028.62H1636L1596.51 988.571V954.952L1537.76 895.131H1496.79M1284.02 1083L1340.3 1029.61H1366.46L1411.88 988.571V843.43M1411.88 843.43H1306.61L1264.09 886.698V968.101L1169.36 1061.97H1138.78L1183.92 1017.25M1922 338.939H1781.63L1747.07 308.781H1674.5L1567.87 415.076V532.247L1480 616.822V787.933M1480 787.933L1446.85 820.696L1295.42 822.163L1235 880.832L1233.51 968.101L1183.92 1017.25M1409.9 554L1331.41 625.193V713.194L1297.35 743.352H1175.42L1130 785.376V972.256L1183.92 1017.25M790.367 972.256L911.806 851.13V517.415L996.715 428.919V393.147L1024.65 365.637H1179.37L1266.25 279.477M1266.25 279.477H1320.04L1373.2 227.207M1266.25 279.477H1024.65L801.621 500.218V822.163L740.455 880.832H606.934L518.915 954.5V967.368L541.5 989.953H565M1624.38 34.9659L1502.04 157.006H1444.61L1373.2 227.207M1624.38 34.9659V157.006L1598.48 181.723H1560.47L1514.56 227.207H1373.2M1261.81 5.2002V52.1351L1196.64 115.938V157.006L1257.45 220.285M1257.45 220.285L1227.54 249.409H1082.12M1196.64 5.2002L1131.48 70.9788H1106.31L1070.76 108.604H938.463L862.441 35.3824M743.964 3L841.214 99.1592V127.339L896.503 181.228H1011.23L1082.12 249.409M1082.12 249.409H1011.23L970.2 207.607H853.09L708.38 66.069V3H129.542L230.988 101.27H266.793L327.213 162.873H417.469M27.1765 3L129.542 101.27V135.738L175.273 178.756H230.988L285.852 233.139H345.861L417.469 162.873M417.469 162.873H467.446L493.554 135.738H612.902L674.814 195.874V252.915M353.482 315.703C320.243 314.879 252.974 313.725 249.815 315.703C246.655 317.681 222.499 341.756 210.816 353.546H161.451L119.845 315.703H65.3928M65.3928 315.703V290.477L10.9402 239.142V348.412L68.3765 403.414H272.76L462.225 590.421V661.557L442.831 680.624V731.96L421.945 710.692V621.956L343.623 544.22V504.618L260.825 423.949H68.3765L10.9402 368.213V462.817L42.269 494.351H107.165L119.845 481.151H143.715L169.076 506.085V533.953L53.4579 647.623V666.691L10.9402 708.492V849.297L242.923 621.956H302.597L436.118 752.494V795.758M65.3928 315.703V353.546L107.165 393.147H345.861L417.469 464.283V533.219L483.111 599.221H521.899L586.794 535.419V489.951L568.892 473.084V393.147L674.814 291.21V252.915M509.971 558.45L462.225 513.954V315.703L490.719 291.21H525.768L548.97 315.703H568.892L636.347 252.915H674.814M115.541 517.909L64.2006 567.843V595.035L10.9402 647.623M279.928 662.272H245.866L187.614 720.116V789.331L126.401 849.297H96.7817L2 943.581M436.118 795.758L391.987 752.494H355.951L340.647 735.442H303.343L258.207 775.488L255.839 847.693M436.118 795.758V1085V1141L652.5 1141.5V1075.5L643 1061.95H618L603.047 1047V1028M255.839 847.693L303.343 801.629H352.574L399.567 845.63C399.734 892.773 399.945 1010.66 399.887 1085C399.858 1121.68 399.764 1147.76 399.567 1149.5L96.7817 1116L119.63 1085L194.438 983.502V907.233L255.839 847.693ZM603.047 1028L584.5 1009.45L565 989.953M603.047 1028L565 989.953M618 972.256L643 997.256L675.349 1029.61H711L731.153 1009.45H769L831 1071.45H928L947 1090.45V1119.5L986 1158.5M986 1158.5V1190L964.5 1211.5C950 1229 919.2 1264 912 1264C904.8 1264 837 1264 804 1264L756 1312M986 1158.5H1031.5L1063 1190H1130L1178.5 1141.5" stroke="#6F27D4" stroke-opacity="0.75" stroke-width="5"/>
</g>
<path d="M1922 802.524C1919.01 803.69 1901.81 803.01 1893.58 802.524L1836.2 858.6H1797.09L1732.02 815.633C1730.52 809.079 1728.43 795.825 1732.02 795.242C1736.51 794.514 1797.09 736.253 1797.09 733.34C1797.09 731.01 1797.09 685.761 1797.09 663.428L1816.54 645.95H1866.65L1922 700.569M1718.56 891.371L1683.4 924.143H1664.7L1607.11 869.524V852.046L1592.9 838.937H1478.46M1704.35 858.6L1669.94 826.557H1642.26L1622.82 806.894H1521.1M1764.18 882.632L1704.35 826.557H1690.13L1678.17 812.72V787.959L1619.83 729.699H1586.92L1540.54 774.123M379.717 1083.63V897.197L358.027 876.078H343.815L307.914 841.122M324.369 871.709V884.817L358.027 919.773V1018.82C351.295 1026.58 337.084 1042.27 334.092 1042.85C331.1 1043.43 299.935 1043.09 284.727 1042.85L240.598 1088M295.946 884.817L252.565 927.056H232.37L210.68 948.175V1021.73L144.111 1088L125.5 1106.61V1136.5L150 1161M236.858 941.621V983.86L247.329 993.327V1042.85L198.712 1088M707.322 892.828L745.467 856.415V824.372L731.256 811.264V769.753L760.426 741.351V567.299M554.739 841.122C574.684 820.488 615.473 779.22 619.063 779.22C622.653 779.22 644.493 779.22 654.965 779.22L707.322 729.699V709.308L731.256 683.819V634.298M731.256 586.961L691.614 627.744V677.265L529.308 835.296V935.795L519.103 946H501L488.5 958.5L477.5 969.5V1041.5L529.308 1093.31V1128.5L554.739 1153.93H573.5M399.164 717.319L374.482 692.558V660.515L316.141 604.44H289.215L267.524 623.374H204.696L147.851 677.993V702.754L2 845.491V793.785L81.2833 720.96V668.526L113.445 638.667V623.374L191.981 546.179H216.663L267.524 597.157M386.449 638.667L280.239 535.255V517.049L231.622 468.984H142.616L122.421 487.191H48.3733L2.74805 444.952M219.212 23.4999L359.523 164.574H443.293L467.228 140.542H619.063L704.33 222.106M811.287 222.106H756.687L704.33 172.585V130.346L680.395 107.042H502.382L462.74 70.6296H359.523L315.393 26.9344M675.159 26.9344L619.063 82.2817H520.333L489.667 53.1515M1265.3 265.073L1322.14 207.541V124.52L1288.48 93.2056V27.6627C1311.39 27.6627 1352.44 27.6627 1378.98 27.6627M1311.67 81.5535C1315.26 82.1361 1328.62 81.7962 1334.86 81.5535L1363.28 108.499H1381.23L1409.65 81.5535V58.2493L1378.98 27.6627M1378.98 27.6627C1397.51 27.6627 1411.16 27.6627 1411.89 27.6627C1413.69 27.6627 1432.09 48.0537 1441.07 58.2493V93.2056L1411.89 119.423H1390.2L1363.28 146.368V169.5L1354.28 178.5M1237 978L1160 1055" stroke="#07001B" stroke-opacity="0.5" stroke-width="3"/>
</svg>
