<svg width="488" height="337" viewBox="0 0 488 337" fill="none" xmlns="http://www.w3.org/2000/svg">
<path d="M484.5 23.2971L465.155 3H384.798L352.06 35.7877H244.173H136.286L103.548 3H23.1905L3.84521 23.2971V309.019L28.3988 334H103.548L128.101 309.019H244.173H360.244L384.798 334H459.946L484.5 309.019V23.2971Z" stroke="#41009C" stroke-width="6"/>
<path d="M460.5 333H381.5L374.5 321H470L460.5 333Z" fill="#41009C"/>
<path d="M460.5 333H381.5L374.5 321H470L460.5 333Z" fill="#41009C"/>
<path d="M105 333H26L19 321H114.5L105 333Z" fill="#41009C"/>
<path d="M242.995 13L213.835 22.6875L167.522 22.6875L194.967 13L242.995 13Z" fill="#FFB904" fill-opacity="0.5"/>
<path d="M172.594 13L143.434 22.6875L134 22.6875L134 13L172.594 13Z" fill="#FFB904" fill-opacity="0.5"/>
<path d="M242.995 13L213.835 22.6875L167.522 22.6875L194.967 13L242.995 13Z" stroke="#FFB904" stroke-opacity="0.5" stroke-width="3"/>
<path d="M172.594 13L143.434 22.6875L134 22.6875L134 13L172.594 13Z" stroke="#FFB904" stroke-opacity="0.5" stroke-width="3"/>
<path d="M315.332 13.3125L286.171 23L239.858 23L267.303 13.3125L315.332 13.3125Z" fill="#FFB904" fill-opacity="0.5" stroke="#FFB904" stroke-opacity="0.5" stroke-width="3"/>
<path d="M354 13.3125L354 23L307.686 23L335.131 13.3125L354 13.3125Z" fill="#FFB904" fill-opacity="0.5" stroke="#FFB904" stroke-opacity="0.5" stroke-width="3"/>
<path d="M247.995 323L218.835 332.688L172.522 332.688L199.967 323L247.995 323Z" fill="#FFB904" fill-opacity="0.5"/>
<path d="M177.594 323L148.434 332.687L139 332.687L139 323L177.594 323Z" fill="#FFB904" fill-opacity="0.5"/>
<path d="M247.995 323L218.835 332.688L172.522 332.688L199.967 323L247.995 323Z" stroke="#FFB904" stroke-opacity="0.5" stroke-width="3"/>
<path d="M177.594 323L148.434 332.687L139 332.687L139 323L177.594 323Z" stroke="#FFB904" stroke-opacity="0.5" stroke-width="3"/>
<path d="M320.332 323.312L291.171 333L244.858 333L272.303 323.312L320.332 323.312Z" fill="#FFB904" fill-opacity="0.5" stroke="#FFB904" stroke-opacity="0.5" stroke-width="3"/>
<path d="M359 323.312L359 333L312.686 333L340.131 323.312L359 323.312Z" fill="#FFB904" fill-opacity="0.5" stroke="#FFB904" stroke-opacity="0.5" stroke-width="3"/>
</svg>
