<svg width="332" height="337" viewBox="0 0 332 337" fill="none" xmlns="http://www.w3.org/2000/svg">
<path d="M2.04245 291.243L2.04245 313.469L51.1002 313.468L53.4351 313.469L73.3222 313.44L109.322 313.469L134.976 334.244L158.725 334.259L163.493 334.262L223.613 334.302L228.381 334.305L287.94 334.344L292.708 334.347L316.43 309.744L316.43 199.741L329.764 168.211L329.822 80.7436L309.322 54.7436L309.322 12.4932L299.024 2.19534L265.322 2.19531L58.3175 2.1953L30.7272 2.15838L15.164 2.15838L8.6912 8.63118L8.6912 36.9932L2.1912 43.4932L2.13663 126.409L2.13641 143.898L2.06393 254.018L2.04245 269.609L2.04245 291.243Z" fill="#42019B" fill-opacity="0.5" stroke="#FFB800" stroke-width="4" stroke-miterlimit="16"/>
</svg>
