<svg width="2029" height="9602" viewBox="0 0 2029 9602" fill="none" xmlns="http://www.w3.org/2000/svg">
<path d="M496.788 16C497.954 18.9918 497.274 36.1948 496.788 44.4223L572.527 121.462V140.908L509.897 205.981C503.343 207.476 490.088 209.571 489.506 205.981C488.778 201.493 430.517 140.908 427.604 140.908C425.274 140.908 380.025 140.908 357.692 140.908L340.214 121.462V71.3486L394.833 16M585.635 219.444L618.407 254.598V273.296L563.788 330.889H546.31L533.201 345.1V459.537M552.864 233.655L520.821 268.061V295.735L501.158 315.182V416.904M576.896 173.818L520.821 233.655V247.866L506.984 259.833H482.223L423.963 318.174V351.084L468.386 397.457M351.214 1141L395.343 1184.7L439.778 1229.13H440.023H543.241L582.883 1265.54H760.896L784.831 1288.85V1331.09L837.188 1380.61H891.788M351.214 1141H261.214L202.214 1082L178.714 1058.5V1036.5M351.214 1141L371.714 1120.5V1087.5L342.714 1058.5L320.714 1036.5H281.214L253.214 1064.5M1058.21 814.5V890L1004.21 944V966.5L937.714 1033H874.964M874.964 1033H822.214L769.714 1085.5H693.714L680.714 1098.5H613.714H438.214L425.214 1085.5V1070L387.714 1032.5L357.714 1002.5H326.714L317.214 993H297.714L249.714 993L231.714 1011L219.714 1023L215.714 1027M874.964 1033L915.714 992.25V922L942.714 895L977.714 895M1518.21 707V752.5L1547.21 781.5V806L1594.71 853.5H1629.71L1652.71 876.5M1768.71 944L1740.21 915.5H1691.71L1652.71 876.5M1649.21 960.5L1699.21 1005.5H1725.71L1740.21 991H1779.71L1794.21 1005.5M1563.71 675L1575.21 686.5H1608.71L1636.71 714.5V739L1661.21 763.5V769.5V791L1649.21 803V815.5L1672.71 839V856.5L1652.71 876.5M1768.71 751L1789.21 730.5H1832.21L1861.21 701.5L1874.71 688M1874.71 688V656M1874.71 688V712L1884.71 722V742.5M1874.71 656L1861.21 642.5V604.5L1888.21 577.5H1927.71L1967.21 617H1995.71M1874.71 656L1893.71 675M1939.71 1086L1970.21 1055.5V996L1924.71 950.5M1924.71 950.5V885.5L1884.71 845.5H1836.71L1802.21 880M1924.71 950.5L1909.21 935H1878.71L1853.71 910V880M1893.71 675H1929.21L1949.71 695.5M1893.71 675L1904.71 686V701.5L1915.21 712V730.5L1907.21 738.5H1888.71L1884.71 742.5M1884.71 742.5L1874.71 752.5L1844.21 783V806L1821.71 828.5M1993.21 885.5L1970.21 862.5V815.5L1942.71 788M2002.5 1961.03C1999.51 1962.19 1982.31 1961.51 1974.08 1961.03L1916.7 2017.1H1877.59L1812.52 1974.13C1811.02 1967.58 1808.93 1954.33 1812.52 1953.74C1817.01 1953.01 1877.59 1894.75 1877.59 1891.84V1821.93L1897.04 1804.45H1947.15L2002.5 1859.07M1799.06 2049.87L1763.9 2082.64H1745.2L1687.61 2028.02V2010.55L1673.4 1997.44H1558.96M1784.85 2017.1L1750.44 1985.06H1722.77L1703.32 1965.39H1601.6M1844.68 2041.13L1784.85 1985.06H1770.64L1758.67 1971.22L1758.67 1946.46L1700.33 1888.2H1667.42L1621.04 1932.62M460.218 2242.13L460.218 2055.7L438.528 2034.58H424.316L388.415 1999.62M404.87 2030.21V2043.32L438.528 2078.27L438.528 2177.32C431.796 2185.08 417.585 2200.77 414.593 2201.35C411.601 2201.93 380.436 2201.59 365.228 2201.35L321.099 2246.5M376.447 2043.32L333.066 2085.56H312.871L291.181 2106.68L291.181 2180.23L224.612 2246.5L206.001 2265.11M317.359 2100.12L317.359 2142.36L327.83 2151.83V2201.35L279.213 2246.5M787.823 2051.33L825.968 2014.92V1982.87L811.757 1969.76V1928.25L840.927 1899.85V1725.8M635.24 1999.62C655.185 1978.99 695.974 1937.72 699.564 1937.72H735.466L787.823 1888.2V1867.81L811.757 1842.32V1792.8M811.757 1745.46L772.115 1786.24V1835.77L609.809 1993.8V2094.3L599.604 2104.5H581.501L569.001 2117L558.001 2128L558.001 2200L609.809 2251.81V2287L635.24 2312.43H654.001M479.665 1875.82L454.982 1851.06V1819.02L396.642 1762.94H369.716L348.025 1781.87H285.197L228.352 1836.49V1861.25L82.5009 2003.99V1952.29L161.784 1879.46V1827.03L193.946 1797.17V1781.87L272.481 1704.68H297.164L348.025 1755.66M466.95 1797.17L360.74 1693.76V1675.55L312.123 1627.48H223.117L202.922 1645.69H128.874L83.2489 1603.45M299.713 1182L440.023 1323.07H523.794L547.729 1299.04H699.564L784.831 1380.61M755.66 1185.43L699.564 1240.78H600.834L570.167 1211.65M1345.8 1423.57L1402.64 1366.04V1283.02L1368.98 1251.71V1186.16H1459.49M1392.17 1240.05C1395.76 1240.64 1409.12 1240.3 1415.36 1240.05L1443.78 1267H1461.73L1490.15 1240.05V1216.75L1459.49 1186.16M1459.49 1186.16H1492.4C1494.19 1186.16 1512.59 1206.55 1521.57 1216.75V1251.71L1492.4 1277.92H1470.71L1443.78 1304.87V1328L1434.78 1337M206.001 2265.11V2295L230.501 2319.5M206.001 2265.11L203.496 2267.62V2278.89V2293L193.996 2302.5V2322L221.996 2350H236.496L250.996 2335.5H292.996L317.996 2310.5V2296.5M1317.5 2136.5L1240.5 2213.5M621.996 2375.5L647.496 2350V2324L683.496 2288V2254M770.996 2523H840.996L890.496 2572.5H976.996L1002 2597.5H1230.5L1252 2576H1309.5L1345 2540.5M820.496 2597.5L860.996 2638H930.496M1683.5 2529L1640.5 2486H1593.5L1508.5 2401M1508.5 2401H1437.5L1392.5 2446V2470L1361.5 2501M1508.5 2401H1527L1546 2382M1587 2576L1521 2510H1437.5L1411.5 2536M48.996 2818L100.496 2869.5M100.496 2869.5V2887L110.996 2897.5V2923.5L139.996 2952.5M100.496 2869.5L107.996 2877H119.496L127.496 2885H143.496L149.496 2879H151.496L160.996 2869.5L168.996 2861.5L176.996 2853.5H249.496M340.496 2897.5L296.496 2853.5H249.496M140.996 3117.5L110.996 3147.5V3164.5L98.496 3177L82.496 3193M140.996 3117.5H203.496L227.996 3093H257.996L290.496 3125.5H305.496M140.996 3117.5L152.996 3129.5H163.996L179.996 3145.5H216.996M444.996 3220.5H415.496L320.496 3125.5H305.496M345.496 2963.5L320.496 2988.5H290.496L276.996 3002H236.496L215.996 2981.5H168.996L139.996 2952.5M293.996 3090.5L271.496 3068H241.496L216.996 3092.5H202.996L194.996 3100.5H142.996L134.996 3092.5H123.996H114.496L105.996 3084H82.496M305.496 3125.5L312.996 3133V3145.5L331.996 3164.5H342.496L357.996 3180V3197M139.996 2952.5H152.996L169.996 2969.5H186.496M263.496 2913H246.996L238.496 2921.5H224.496L197.496 2894.5H178.996L168.996 2904.5H151.496L143.496 2896.5H123.496L117.996 2902V2917.5M249.496 2853.5L257.496 2861.5H289.996L299.996 2871.5M552.496 3184L582.496 3214M936.582 2917.6L972.092 2883.56H990.979L1049.15 2940.29V2958.44L1063.51 2972.05H1179.1M950.937 2951.63L985.691 2984.91H1013.64L1033.29 3005.33H1136.04L1158 3027.29V3042.5L1169.5 3054H1188H1204M890.496 2926.67L950.937 2984.91H965.292L977.38 2999.28V3025L1036.31 3085.5H1053L1073 3065.5H1108L1167 3124.5V3147.5M1484.5 3273.5H1541.5L1564.5 3250.5V3207L1583.5 3188M1508.5 3170.5V3207L1486.5 3229M1801 3047V2978L1828 2951V2897.5M1628.5 2626V2586L1660 2554.5M2018.5 2810L1953.5 2745V2732M1934.5 2659V2685.5L1953.5 2704.5V2732M1953.5 2732L1943.5 2722H1924.5M49.0953 3636.36C52.1174 3635.15 69.4942 3635.85 77.8048 3636.36L155.623 3557.7H175.266L240.995 3622.74C242.507 3629.55 244.622 3643.31 240.995 3643.92C236.462 3644.68 175.266 3705.18 175.266 3708.21V3780.81L155.623 3798.97H105.003L49.0953 3742.24M254.595 3544.09L290.104 3510.05H308.992L367.166 3566.78V3584.93L381.521 3598.54H497.114M268.95 3578.12L303.703 3611.4H331.657L351.3 3631.82H454.05M208.508 3553.16L268.95 3611.4H283.304L295.392 3625.77V3651.48L354.322 3711.99H387.565L434.407 3665.85M1606.96 3344.42V3538.04L1628.87 3559.97H1643.23L1679.49 3596.27M1662.87 3564.51V3550.89L1628.87 3514.59V3411.73C1635.67 3403.66 1650.03 3387.38 1653.05 3386.77C1656.07 3386.17 1687.55 3386.52 1702.91 3386.77L1747.49 3339.88H1789.8M1691.58 3550.89L1735.4 3507.03H1755.8L1777.71 3485.09V3408.71L1844.95 3339.88L1789.8 3339.88M1751.27 3491.9V3448.03L1740.69 3438.2V3386.77L1789.8 3339.88M1276.05 3542.57L1237.52 3580.39V3613.67L1251.87 3627.28V3670.39L1222.41 3699.89V3880.65M1430.17 3596.27C1410.03 3617.7 1368.82 3660.56 1365.2 3660.56H1328.93L1276.05 3711.99V3733.17L1251.87 3759.64V3811.07M1251.87 3860.23L1291.91 3817.87V3766.44L1455.86 3602.32V3497.95M1587.32 3724.85L1612.25 3750.56V3783.84L1671.18 3842.08H1698.38L1720.29 3822.41H1783.75L1841.17 3765.69V3739.97L1988.5 3591.73V3645.43L1908.41 3721.06V3775.52L1875.92 3806.53V3822.41L1796.6 3902.58H1771.66L1720.29 3849.64M1600.16 3806.53L1707.45 3913.93V3932.83L1756.55 3982.75H1846.46L1866.86 3963.84H1941.65L1987.74 4007.71M1765.62 4441.84L1627.36 4298.89H1542.74L1518.57 4323.85H1365.2L1279.07 4239.14M1171.03 4239.14H1226.18L1279.07 4290.57V4334.44L1303.25 4358.64H1483.06L1523.1 4396.46H1627.36L1671.94 4441.84M1308.53 4441.84L1365.2 4384.36H1464.93L1495.9 4414.61M712.435 4194.52L655.016 4254.27V4340.49L689.015 4373.01V4441.08H597.597M613.463 4289.82V4317.8L586.265 4345.78H564.355L534.89 4373.01V4409.31C543.956 4419.9 562.542 4441.08 564.355 4441.08H597.597M665.594 4385.11C661.967 4384.51 648.469 4384.86 642.173 4385.11L613.463 4357.13H595.331L566.621 4385.11V4409.31L597.597 4441.08M1006.6 4173.5L1039.1 4141V4108.5L1139.89 4007.71H1188.6L1251.87 3944.43M1104.1 4213.5H1195.6L1255.6 4153.5V4097.5L1316.6 4036.5V3975.5L1370.1 3922M1966 5293.02C1963.01 5294.19 1945.81 5293.51 1937.58 5293.02L1880.2 5349.1H1841.09L1776.02 5306.13C1774.52 5299.58 1772.43 5286.32 1776.02 5285.74C1780.51 5285.01 1841.09 5226.75 1841.09 5223.84V5153.93L1860.54 5136.45H1910.65L1966 5191.07M1762.56 5381.87L1727.4 5414.64H1708.7L1651.11 5360.02V5342.55L1636.9 5329.44H1522.46M1748.35 5349.1L1713.94 5317.06H1686.26L1666.82 5297.39H1565.1M1808.18 5373.13L1748.35 5317.06H1734.13L1722.17 5303.22V5278.46L1663.83 5220.2H1630.92L1584.54 5264.62M423.717 5574.13V5387.7L402.027 5366.58H387.815L351.914 5331.62M368.369 5362.21V5375.32L402.027 5410.27V5509.32C395.295 5517.08 381.084 5532.77 378.092 5533.35C375.1 5533.93 343.935 5533.59 328.727 5533.35L284.598 5578.5M339.946 5375.32L296.565 5417.56H276.37L254.68 5438.68V5512.23L188.111 5578.5L169.5 5597.11V5627L194 5651.5M280.858 5432.12V5474.36L291.329 5483.83V5533.35L242.712 5578.5M751.322 5383.33L789.467 5346.92V5314.87L775.256 5301.76V5260.25L804.426 5231.85V5057.8M598.739 5331.62C618.684 5310.99 659.473 5269.72 663.063 5269.72H698.965L751.322 5220.2V5199.81L775.256 5174.32V5124.8M775.256 5077.46L735.614 5118.24V5167.76L573.308 5325.8V5426.29L563.103 5436.5H545L532.5 5449L521.5 5460V5532L573.308 5583.81V5619L598.739 5644.43H617.5M443.164 5207.82L418.482 5183.06V5151.02L360.141 5094.94H333.215L311.524 5113.87H248.696L191.851 5168.49V5193.25L46 5335.99V5284.29L125.283 5211.46V5159.03L157.445 5129.17V5113.87L235.98 5036.68H260.663L311.524 5087.66M430.449 5129.17L324.239 5025.76V5007.55L275.622 4959.48H186.616L166.421 4977.69H92.3733L46.748 4935.45M263.212 4514L403.523 4655.07H487.293L511.228 4631.04H663.063L748.33 4712.61M855.287 4712.61H800.687L748.33 4663.08V4620.85L724.395 4597.54H546.382L506.74 4561.13H403.523L359.393 4517.43M719.159 4517.43L663.063 4572.78H564.333L533.667 4543.65M1309.3 4755.57L1366.14 4698.04V4615.02L1332.48 4583.71V4518.16H1422.98M1355.67 4572.05C1359.26 4572.64 1372.62 4572.3 1378.86 4572.05L1407.28 4599H1425.23L1453.65 4572.05V4548.75L1422.98 4518.16M1422.98 4518.16H1455.89C1457.69 4518.16 1476.09 4538.55 1485.07 4548.75V4583.71L1455.89 4609.92H1434.2L1407.28 4636.87V4660L1398.28 4669M1281 5468.5L1204 5545.5M1747.5 6627.5V6597.61V6583.5L1757 6574L1757 6554.5L1729 6526.5H1714.5L1700 6541H1658L1633 6566V6580M1419 6599.5L1393.5 6625V6651L1357.5 6687V6721M1843.5 6495.5H1773.5L1724 6446H1637.5L1612.5 6421H1384L1362.5 6442.5H1305L1269.5 6478M1794 6421L1753.5 6380.5H1684M934.5 6467.5L977.5 6510.5H1024.5L1109.5 6595.5M1109.5 6595.5H1180.5L1225.5 6550.5V6526.5L1256.5 6495.5M1109.5 6595.5H1091L1072 6614.5M1031 6420.5L1097 6486.5H1180.5L1206.5 6460.5M1992 6157L1940.5 6105.5M1940.5 6105.5V6088L1930 6077.5V6051.5L1901 6022.5M1940.5 6105.5L1933 6098H1921.5L1913.5 6090H1897.5L1891.5 6096H1889.5L1880 6105.5L1872 6113.5L1864 6121.5H1791.5M1700.5 6077.5L1744.5 6121.5H1791.5M1900 5857.5L1930 5827.5V5810.5L1942.5 5798L1958.5 5782M1900 5857.5H1837.5L1813 5882H1783L1750.5 5849.5H1735.5M1900 5857.5L1888 5845.5H1877L1861 5829.5H1824M1596 5754.5H1625.5L1720.5 5849.5H1735.5M1695.5 6011.5L1720.5 5986.5H1750.5L1764 5973H1804.5L1825 5993.5H1872L1901 6022.5M1747 5884.5L1769.5 5907H1799.5L1824 5882.5H1838L1846 5874.5H1898L1906 5882.5H1917H1926.5L1935 5891H1958.5M1735.5 5849.5L1728 5842V5829.5L1709 5810.5H1698.5L1683 5795V5778M1901 6022.5H1888L1871 6005.5H1854.5M1777.5 6062H1794L1802.5 6053.5H1816.5L1843.5 6080.5H1862L1872 6070.5H1889.5L1897.5 6078.5H1917.5L1923 6073V6057.5M1791.5 6121.5L1783.5 6113.5H1751L1741 6103.5M1458.5 5761L1488.5 5791H1522.5L1559 5827.5H1579L1601.5 5805H1625.5M1104.41 6057.4L1068.9 6091.44H1050.02L991.842 6034.71V6016.56L977.488 6002.95H861.894M1090.06 6023.37L1055.31 5990.09H1027.35L1007.71 5969.67H904.958L883 5947.71V5932.5L871.5 5921H853H837M1150.5 6048.33L1090.06 5990.09H1075.7L1063.62 5975.72V5950.01L1004.69 5889.5H988L968 5909.5H933L874 5850.5V5827.5M989.5 6370.5L989.5 6410.5L958 6442M22.5 6165L54.5432 6197.04M54.5432 6197.04L87.5 6230V6243V6270.5M54.5432 6197.04V6061.52L30.5107 6037.58V5953.81L132.821 5851.5M54.5432 6197.04V6213.35M1244.5 5950.01L1278.5 5916.01V5891L1348 5821.5H1393M1269.5 5973H1305L1330.29 5947.71H1407.5L1488.5 6028.71M1377.5 5927H1403L1422.5 5946.5H1452L1493.5 5905H1556.5L1579 5882.5M1601.5 5838.5V5860L1579 5882.5M1579 5882.5H1608.5L1637.5 5911.5H1698.5L1712.5 5897.5M22.5 6298.62H64.7388L88.043 6274.68V6096.67L124.456 6057.03V5953.81L168.151 5909.68M112.803 6213.35V6114.62L141.934 6083.95M531 5714.5H578.5L603.5 5689.5M603.5 5689.5L643.5 5729.5H689L769.5 5810V5827.5L792.5 5850.5H813M603.5 5689.5V5677L612 5668.5V5660.5M616 6972.5L646 6942.5V6925.5L658.5 6913L674.5 6897M616 6972.5H553.5L529 6997H499L466.5 6964.5H451.5M616 6972.5L604 6960.5H593L577 6944.5H540M312 6869.5H341.5L436.5 6964.5H451.5M411.5 7126.5L436.5 7101.5H466.5L480 7088H520.5L541 7108.5H588L617 7137.5H604L587 7120.5H570.5M463 6999.5L485.5 7022H515.5L540 6997.5H554L562 6989.5H614L622 6997.5H633H642.5L651 7006H674.5M451.5 6964.5L444 6957V6944.5L425 6925.5H414.5L399 6910V6893M204.5 6906L174.5 6876M1582.11 8025.69C1579.09 8026.9 1561.71 8026.19 1553.4 8025.69L1475.58 8104.34H1455.94L1390.21 8039.3C1388.7 8032.49 1386.58 8018.73 1390.21 8018.12C1394.74 8017.37 1455.94 7956.86 1455.94 7953.84V7881.23L1475.58 7863.08H1526.2L1582.11 7919.8M1376.61 8117.96L1341.1 8151.99H1322.21L1264.04 8095.27V8077.12L1249.68 8063.5H1134.09M1362.25 8083.92L1327.5 8050.64H1299.55L1279.9 8030.22H1177.15M1422.69 8108.88L1362.25 8050.64H1347.9L1335.81 8036.27V8010.56L1276.88 7950.05H1243.64L1196.8 7996.19M749.534 8244.5V8194.34L727.624 8172.41H713.269L677.005 8136.11M693.626 8167.87V8181.49L727.624 8217.79V8320.65C720.824 8328.72 706.47 8345 703.448 8345.61C700.425 8346.21 668.946 8345.86 653.584 8345.61L609.009 8392.5H566.7L615.808 8345.61V8294.18L605.231 8284.35V8240.48M578.788 8323.67V8247.29L600.698 8225.35H621.097L664.917 8181.49M1080.45 8189.81L1118.98 8151.99V8118.71L1104.62 8105.1V8061.99L1134.09 8032.49V7851.73M926.323 8136.11C946.47 8114.68 987.671 8071.82 991.297 8071.82H1027.56L1080.45 8020.39V7999.21L1104.62 7972.74V7921.31M1104.62 7872.15L1064.58 7914.51V7965.94L900.636 8130.06M769.177 8007.53L744.245 7981.82V7948.54L685.315 7890.3H658.117L636.207 7909.97H572.744L515.325 7966.69V7992.41L368 8140.65V8086.95L448.084 8011.32V7956.86L480.571 7925.85V7909.97L559.9 7829.8H584.832L636.207 7882.74M756.333 7925.85L649.051 7818.45V7799.55L599.942 7749.63H510.036L489.637 7768.54H414.842L368.756 7724.67M590.876 7290.54L729.135 7433.49H813.752L837.928 7408.53H991.297L1077.43 7493.24M1185.46 7493.24H1130.31L1077.43 7441.81L1077.43 7397.94L1053.25 7373.74H873.437L833.395 7335.92H729.135L684.56 7290.54M1047.96 7290.54L991.297 7348.02H891.57L860.594 7317.77M1317.4 7870.44L1374.82 7810.69V7724.47L1340.82 7691.95V7623.88H1432.23M1416.37 7775.14V7747.16L1443.57 7719.18H1465.48L1494.94 7691.95V7655.65C1485.88 7645.06 1467.29 7623.88 1465.48 7623.88H1432.23M1364.24 7679.85C1367.86 7680.45 1381.36 7680.1 1387.66 7679.85L1416.37 7707.83H1434.5L1463.21 7679.85V7655.65L1432.23 7623.88M1349.9 7558.88L1317.4 7591.38V7623.88L1216.61 7724.67H1167.9L1104.62 7787.95M1252.4 7518.88H1160.9L1100.9 7578.88V7634.88L1039.9 7695.88V7756.88L986.4 7810.38M1141.5 7340.38V7302.38L1175 7268.88H1213.5L1262.39 7317.77H1271M1356 7508.88V7493.24L1374.82 7474.42H1411M1411 7474.42L1434.5 7450.91M1411 7474.42H1486L1498.03 7462.38L1498.03 7426.88C1504.71 7418.33 1518.47 7401.96 1520.03 7404.88M1075.66 7851.88L1036.85 7866.57L1019.7 7904.6L987.43 7916.81L949.766 7904.87M38 8795.36C41.0221 8794.15 58.3988 8794.85 66.7095 8795.36L144.527 8716.7H164.171L229.9 8781.74C231.411 8788.55 233.527 8802.31 229.9 8802.92C225.367 8803.68 164.171 8864.18 164.171 8867.21V8939.81L144.527 8957.96H93.908L38 8901.24M243.5 8703.09L279.009 8669.05H297.896L356.071 8725.78V8743.93L370.426 8757.54H486.019M257.854 8737.12L292.608 8770.4H320.562L340.205 8790.82H442.955M197.413 8712.16L257.854 8770.4H272.209L284.297 8784.77V8810.48L343.227 8870.99H376.469L423.311 8824.85M1595.87 8503.42V8697.04L1617.78 8718.97H1632.13L1668.4 8755.27M1651.77 8723.51V8709.89L1617.78 8673.59V8570.73C1624.58 8562.66 1638.93 8546.38 1641.95 8545.77C1644.98 8545.17 1676.45 8545.52 1691.82 8545.77L1736.39 8498.88H1778.7M1680.48 8709.89L1724.3 8666.03H1744.7L1766.61 8644.09V8567.71L1833.85 8498.88H1778.7M1740.17 8650.9V8607.03L1729.59 8597.2V8545.77L1778.7 8498.88M1264.95 8701.57L1226.42 8739.39V8772.67L1240.78 8786.28V8829.39L1211.31 8858.89V9039.65M1419.08 8755.27C1398.93 8776.7 1357.73 8819.56 1354.1 8819.56H1317.84L1264.95 8870.99V8892.17L1240.78 8918.64V8970.07M1240.78 9019.23L1280.82 8976.87V8925.44L1444.76 8761.32V8656.95M1576.22 8883.85L1601.16 8909.56V8942.84L1660.09 9001.08H1687.28L1709.19 8981.41H1772.66L1830.08 8924.69V8898.97L1977.4 8750.73V8804.43L1897.32 8880.06V8934.52L1864.83 8965.53V8981.41L1785.5 9061.58H1760.57L1709.19 9008.64M1589.07 8965.53L1696.35 9072.93V9091.83L1745.46 9141.75H1835.36L1855.76 9122.84H1930.56L1976.65 9166.71M1754.52 9600.84L1616.27 9457.89H1531.65L1507.47 9482.85H1354.1L1267.97 9398.14M1159.94 9398.14H1215.09L1267.97 9449.57V9493.44L1292.15 9517.64H1471.96L1512.01 9555.46H1616.27L1660.84 9600.84M1297.44 9600.84L1354.1 9543.36H1453.83L1484.81 9573.61M701.34 9353.52L643.921 9413.27V9499.49L677.919 9532.01V9600.08H586.502M602.368 9448.82V9476.8L575.169 9504.78H553.26L523.794 9532.01V9568.31C532.861 9578.9 551.446 9600.08 553.26 9600.08H586.502M654.498 9544.11C650.872 9543.51 637.373 9543.86 631.077 9544.11L602.368 9516.13H584.236L555.526 9544.11V9568.31L586.502 9600.08M995.5 9332.5L1028 9300V9267.5L1128.79 9166.71H1177.5L1240.78 9103.43M1093 9372.5H1184.5L1244.5 9312.5V9256.5L1305.5 9195.5V9134.5L1359 9081" stroke="#07001B" stroke-opacity="0.5" stroke-width="3"/>
<g opacity="0.07">
<path d="M1922.46 1127.71L1814.46 1019.71L1674.46 1019.71L1624.96 970.21L1624.96 896.711L1573.96 845.711L1499.96 771.71V687.96L1558.71 629.21L1646.96 629.211L1698.96 681.211L1698.96 794.211L1787.46 882.711L1787.46 844.711L1725.96 783.211L1725.96 732.211L1814.46 643.71L1814.46 563.711L1883.96 494.211L1940.46 494.211L2009.96 563.711L2009.96 882.71L2026.46 882.711L2026.46 1127.71H1922.46Z" fill="#6F27D4" fill-opacity="0.75"/>
<path d="M611.265 43.5597L648.666 4.02559L649.399 3.27965L634.732 3.27969L600.998 37.5922L600.998 95.7744L692.668 189.761L694.134 231.533L648.666 231.533L600.997 181.556L600.998 109.201L587.797 95.7744L587.797 25.6574L611.265 3.27965L372.923 3.27969L328.188 45.0516L329.655 118.152L354.589 145.005L402.991 145.005L435.992 177.826L435.992 204.679L456.56 225.6L463.126 232.279L463.126 254.656L402.991 314.33L355.322 314.33L355.322 285.985L308.708 239.854L301.053 232.279L276.119 232.279L258.28 214.508L204.983 161.416V130.833L191.783 115.914L191.783 3.27973L177.849 3.27966L177.849 161.416L342.855 330.741L400.79 330.741L513.966 445.277L546.729 478.434L548.196 629.857L606.864 690.277L694.134 691.768L743.279 741.364L788.004 786.501L788.004 755.918L694.134 661.185L612.731 661.185L569.463 618.668L569.463 513.401L569.463 340.438L648.666 258.386L692.668 258.386L716.868 231.533V194.982L611.265 86.0774L611.265 43.5597Z" fill="#6F27D4" fill-opacity="0.75"/>
<path fill-rule="evenodd" clip-rule="evenodd" d="M1770.62 1765.71L1754.39 1750.39L1708.26 1797L1679.91 1797L1679.91 1844.67L1739.59 1904.8H1761.96L1768.64 1898.24L1749.88 1880.91L1749.88 1803.78L1770.62 1781.53V1765.71Z" fill="#6F27D4" fill-opacity="0.75"/>
<path d="M1950.68 2052.94L1990.22 2090.34L1990.96 2091.08L1990.96 2076.41L1956.65 2042.68L1898.47 2042.68L1804.48 2134.35L1762.71 2135.81V2090.34L1812.69 2042.68L1885.04 2042.68L1898.47 2029.47L1968.58 2029.48L1990.96 2052.94V1814.6L1949.19 1769.87L1876.09 1771.33L1849.24 1796.27V1844.67L1816.42 1877.67L1789.56 1877.67L1768.64 1898.24L1761.96 1904.8H1739.59L1679.91 1844.67L1679.91 1797L1708.26 1797L1754.39 1750.39L1761.96 1742.73L1761.96 1717.8L1779.73 1699.96L1832.83 1646.66L1863.41 1646.66L1878.33 1633.46H1990.96V1619.53H1832.83L1663.5 1784.53L1663.5 1842.47L1548.97 1955.64L1515.81 1988.41L1364.39 1989.87L1303.97 2048.54L1302.47 2135.81L1252.88 2184.96L1207.74 2229.68L1238.32 2229.68L1333.06 2135.81L1333.06 2054.41L1375.57 2011.14H1480.84L1653.8 2011.14L1735.86 2090.34L1735.86 2134.35L1762.71 2158.55H1799.26L1908.16 2052.94L1950.68 2052.94Z" fill="#6F27D4" fill-opacity="0.75"/>
<path d="M1392.5 2355.66L1350 2398.16L1350 2479.05L1266.5 2562.55L1006 2562.55L941.116 2497.66L751.998 2497.66L728.998 2520.66L728.998 2555.16L860.998 2687.16L984.498 2687.16L1052.5 2619.16H1156L1224 2687.16H1288L1350 2625.16V2582.66L1377.5 2555.16L1472.5 2555.16L1539.5 2633.66L1683 2633.66L1761.5 2555.16L1761.5 2456.66L1703 2398.16L1626.5 2398.16L1546.5 2318.16L1466.5 2318.16L1430 2318.16L1392.5 2355.66Z" fill="#6F27D4" fill-opacity="0.75"/>
<path d="M49.9981 2737.16L155.498 2842.66H491.498L595.498 2946.66H786.498L860.998 2872.16L1099 2872.16L1238.5 3011.66L1238.5 3104.66L1344.5 3210.66L1365.5 3231.66H1451.5V3225.66L1396.5 3170.66V2824.66L1783.5 2824.66L1859.5 2900.66V2972.16L1819.5 3012.16V3059.66L1758 3121.16L1656 3121.16L1606.5 3170.66V3245.66L1561 3291.16L1514 3291.16L1468 3291.16L1451.5 3274.66V3242.66H1307L1296.5 3242.66L1264.5 3210.66H1198L1134.5 3147.16H1122L1075 3100.16L1050 3099.66L1041 3108.66H1025.5L1015 3098.16L990.498 3073.66L929.998 3073.66L897.498 3041.16H821.498L633.498 3229.16H564.498L526.498 3191.16L491.498 3191.16L439.998 3242.66H316.998L239.28 3164.95H155.498L86.9541 3233.49L49.9983 3233.49L49.9981 2737.16Z" fill="#6F27D4" fill-opacity="0.75"/>
<path d="M2000 2836.66L1888 2724.66V2661.66L1916 2633.66H1928.5L1982 2687.16H2007L2000 2836.66Z" fill="#6F27D4" fill-opacity="0.75"/>
<path d="M1025.5 2690.66L1015.5 2690.66L991.498 2714.66V2724.66L1025.5 2690.66Z" fill="#6F27D4" fill-opacity="0.75"/>
<path d="M468.529 2013.34L421.536 1969.34H372.305L324.801 2015.4L263.4 2074.94V2151.21L188.592 2252.71L165.744 2283.71V2284.66L165.744 2318.13L165.78 2318.16L208.998 2361.38L239.28 2391.66H271.498L298.998 2364.16H347.498L439.998 2456.66H491.498L521.498 2426.66V2404.66L494.498 2377.66L468.565 2377.66L439.998 2349.1L439.998 2318.16L468.786 2289.38C468.818 2279.22 468.838 2266.74 468.849 2252.71C468.907 2178.37 468.696 2060.48 468.529 2013.34Z" fill="#6F27D4" fill-opacity="0.75"/>
<path d="M195.626 1098.21L196.962 1143.21L225.462 1170.71L323.733 1268.98H335.755L396.175 1330.58L486.432 1330.58L536.409 1330.58L562.516 1303.45H681.864L743.776 1363.58V1420.63L743.776 1458.92L637.854 1560.86V1640.79L655.757 1657.66V1703.13L590.861 1766.93L552.073 1766.93L486.432 1700.93V1631.99L414.823 1560.86L176.127 1560.86L134.355 1521.26V1483.41V1458.19L79.9024 1406.85V1516.12L137.339 1571.13L341.722 1571.13L531.187 1758.13L531.187 1829.27L511.793 1848.34V1899.67L490.907 1878.4L490.907 1789.67L412.585 1711.93L412.585 1672.33L329.787 1591.66L137.339 1591.66L79.9025 1535.92V1630.53L111.231 1662.06L176.127 1662.06L188.808 1648.86L212.677 1648.86L238.039 1673.8V1701.66L122.42 1815.33L122.42 1834.4L79.9024 1876.2V2017.01L311.885 1789.67L371.559 1789.67L505.08 1920.2L505.08 1963.47L505.08 2252.71L505.08 2286.13L505.116 2286.16L531.616 2312.66L554.498 2335.55V2379.66L572.998 2398.16V2437.66L531.616 2479.05H540.998H550.998L595.498 2434.55L595.498 2402.16L605.998 2391.66L619.998 2391.66L636.498 2375.16L655.998 2355.66L655.998 2335.55L687.881 2303.66L711.498 2303.66L721.498 2293.66L721.498 2266.16V2243.21L707.951 2229.66L686.962 2229.66L672.009 2214.71V2195.71L653.462 2177.16L633.962 2157.66L610.462 2157.66L587.877 2135.08L587.877 2122.21L675.897 2048.54H809.417L870.583 1989.87L870.583 1667.93L1093.61 1447.19L1335.21 1447.19L1389 1447.19L1442.17 1394.92L1513.57 1324.72H1571.01L1693.34 1202.68L1723.18 1172.91L1693.34 1172.91C1659.52 1207.38 1591.44 1276.31 1589.65 1276.31L1524.76 1276.31L1391.98 1406.12V1378.25L1552.36 1219.85V1195.64L1530.73 1172.91H1346.48V1256.51L1374.08 1283.65V1341.58L1326.42 1388L1296.51 1417.12H1151.08H1080.19L1039.16 1375.32H922.052L777.342 1233.78L775.963 1232.4V1170.21L775.962 1107.14L832.962 1050.14L946.463 1050.14L1094.96 901.642L1094.96 776.71L1085.46 767.211L1046.96 767.211L1030.96 783.211H987.963L926.462 844.711L888.462 882.711L888.463 945.211L844.463 989.211L790.963 1042.71L658.962 1042.71L474.299 1042.71L399.462 967.874L190.962 967.874L140.126 1018.71L140.126 1042.71L195.626 1098.21Z" fill="#6F27D4" fill-opacity="0.75"/>
<path fill-rule="evenodd" clip-rule="evenodd" d="M90.7959 3532.15L50.7539 3493.58L49.9983 3492.82L49.9984 3507.95L84.7518 3542.74H143.682L238.876 3448.2L281.185 3446.69V3493.58L230.566 3542.74H157.281L143.682 3556.35H72.6638L49.9984 3532.15V3777.95L92.3069 3824.09L166.347 3822.58L193.546 3796.86V3746.94L226.788 3712.91H253.987L275.177 3691.7L281.941 3684.93H304.606L365.047 3746.94L365.047 3796.1H336.337L289.613 3844.18L281.941 3852.07L281.941 3877.79L263.941 3896.18L210.167 3951.15H179.191L164.081 3964.76H49.9983V3979.13H210.167L381.668 3808.96V3749.21L497.676 3632.49L531.26 3598.71L684.629 3597.19L745.825 3536.69L747.336 3446.69L797.57 3396L843.286 3349.88H812.31L716.36 3446.69V3530.64L673.296 3575.26L566.676 3575.26L391.49 3575.26L308.383 3493.58V3448.2L281.185 3423.24H244.165L133.86 3532.15H90.7959Z" fill="#6F27D4" fill-opacity="0.75"/>
<path d="M1592 3348.36C1592 3348.36 1591.75 3500.38 1592 3572.99L1639.6 3618.37H1689.46L1737.58 3570.86L1799.77 3509.46V3434.26L1885.66 3348.36L1860.49 3330.19L1820.99 3330.19H1613.99H1610.17L1592 3348.36Z" fill="#6F27D4" fill-opacity="0.75"/>
<path d="M533.526 4283.17H475.352L351.448 4409.03L321.227 4439.73L351.448 4439.73C385.698 4404.18 454.651 4333.09 456.464 4333.09L522.194 4333.09L656.675 4199.22L656.675 4227.96L494.24 4391.33V4416.29L516.15 4439.73L530.987 4454.57L585.487 4454.57L612.025 4481.11L640.487 4481.11L648.487 4489.11L641.487 4496.61L543.987 4594.11H560.987L691.487 4463.61L702.761 4463.61L713.487 4452.88L713.487 4450.46L713.487 4445.61L702.761 4434.88L702.761 4353.51L674.807 4325.53L674.807 4265.78L723.086 4217.91L753.38 4187.88H900.677L972.479 4187.88L1014.03 4230.99H1132.65L1279.22 4376.96V4424.11L1321.22 4466.11L1360.99 4466.11L1371.49 4455.61L1443.49 4455.61L1460.99 4438.11L1606.49 4438.11L1632.99 4464.61L1738.99 4464.61L1776.99 4502.61L1845.99 4502.61L1870.99 4477.61H1900.99L1857.5 4434.12L1857.49 4434.11L1762.75 4340.65L1726.48 4340.65L1665.28 4277.12H1573.87L1523.25 4277.12L1496.8 4305.11L1375.92 4305.11L1313.22 4243.09V4184.26L1313.22 4144.77L1420.5 4039.64V3957.2L1402.37 3939.8L1402.37 3892.91L1468.1 3827.11H1507.38L1573.87 3895.18V3966.28L1646.4 4039.64L1888.16 4039.64L1930.47 4080.48L1930.47 4119.51V4145.52L1985.62 4198.47L1985.62 4085.77L1927.45 4029.05H1720.44L1528.54 3836.19V3762.83L1548.18 3743.16V3690.22L1569.33 3712.15L1569.33 3803.67L1648.66 3883.84L1648.66 3924.68L1732.52 4007.87L1927.45 4007.87L1985.62 4065.35L1985.62 3967.79L1953.89 3935.27L1888.16 3935.27L1875.32 3948.88H1851.14L1825.45 3923.17V3894.43L1942.56 3777.2L1942.56 3757.53L1985.62 3714.42V3569.21L1750.66 3803.67H1690.22L1554.98 3669.04L1554.98 3624.42L1554.98 3348.36L1500.44 3348.36L1471.12 3377.69V3447.44L1381.97 3536.69H1246.73L1184.78 3597.19V3929.22L958.88 4156.87H714.176L659.697 4156.87L605.848 4210.77L533.526 4283.17Z" fill="#6F27D4" fill-opacity="0.75"/>
<path fill-rule="evenodd" clip-rule="evenodd" d="M1744.66 5100.11L1728.43 5084.78L1682.3 5131.4H1653.95L1653.95 5179.06L1713.62 5239.2L1736 5239.2L1742.68 5232.63L1723.92 5215.3V5138.18L1744.66 5115.93L1744.66 5100.11Z" fill="#6F27D4" fill-opacity="0.75"/>
<path d="M1924.72 5387.34L1964.26 5424.74L1965 5425.47L1965 5410.81L1930.69 5377.07L1872.51 5377.07L1778.52 5468.74L1736.75 5470.21V5424.74L1786.72 5377.07H1859.08L1872.51 5363.87L1942.62 5363.87L1965 5387.34V5149L1923.23 5104.26L1850.13 5105.73L1823.28 5130.66V5179.06L1790.45 5212.07H1763.6L1742.68 5232.63L1736 5239.2L1713.62 5239.2L1653.95 5179.06L1653.95 5131.4H1682.3L1728.43 5084.78L1736 5077.13L1736 5052.19L1753.77 5034.35L1806.87 4981.06L1837.45 4981.06L1852.37 4967.86L1965 4967.86L1965 4953.92L1806.87 4953.92L1637.54 5118.93L1637.54 5176.86L1523 5290.04L1489.85 5322.8L1338.42 5324.27L1278 5382.94L1276.51 5470.21L1226.92 5519.35L1181.78 5564.08L1212.36 5564.08L1307.1 5470.21V5388.81L1349.61 5345.54L1454.88 5345.54L1627.84 5345.54L1709.89 5424.74L1709.89 5468.74L1736.75 5492.94L1773.3 5492.94L1882.2 5387.34H1924.72Z" fill="#6F27D4" fill-opacity="0.75"/>
<path d="M442.568 5347.74L395.575 5303.74H346.344L298.84 5349.8L237.439 5409.34V5485.61V5492.5L170.829 5559.11V5575.98L204.452 5609.61H269.002L397.521 5609.61L408.021 5599.11L442.568 5559.11C442.626 5484.77 442.735 5394.88 442.568 5347.74Z" fill="#6F27D4" fill-opacity="0.75"/>
<path d="M622.5 7134.49L665 7091.99L665 7011.11L748.5 6927.61L1009 6927.61L1073.88 6992.49H1263L1286 6969.49L1286 6934.99L1154 6802.99H1030.5L962.5 6870.99H859L791 6802.99H727L665 6864.99V6907.49L637.5 6934.99H542.5L475.5 6856.49H332L253.5 6934.99V7033.49L312 7091.99H388.5L468.5 7171.99H548.5L585 7171.99L622.5 7134.49Z" fill="#6F27D4" fill-opacity="0.75"/>
<path d="M9.99996 6384.49L122 6496.49V6559.49L93.9996 6587.49H81.5003L28.0001 6533.99H3.00001L9.99996 6384.49Z" fill="#6F27D4" fill-opacity="0.75"/>
<path d="M989.5 6799.49L999.5 6799.49L1023.5 6775.49L1023.5 6765.49L989.5 6799.49Z" fill="#6F27D4" fill-opacity="0.75"/>
<path d="M1204.5 6200.99L1157.5 6200.99L1112 6246.49V6321.49L1062.5 6370.99H960.5L899 6432.49L899 6479.99L859 6519.99V6591.49L935 6667.49H1246L1322 6591.49L1366 6591.49L1442 6667.49L1497.19 6667.49L1554.69 6609.99L1645.38 6700.68H1730L1820.69 6609.99V6535.11L1893.81 6461.99V6400.99L1800 6307.18L1684.81 6307.18L1580.5 6411.49L1501.5 6411.49L1452 6361.99H1362.5L1322 6321.49L1267 6266.49V6260.49V6249.49V6217.49L1250.5 6200.99L1204.5 6200.99Z" fill="#6F27D4" fill-opacity="0.75"/>
<path d="M5.50009 5976.87V5894.07V5752.99V5747.99L18.0001 5760.49L45.5003 5760.49L55.5003 5770.49V5794.11L87.3826 5825.99H107.5L127 5845.49L143.5 5861.99L143.5 5875.99L154 5886.49H186.383L230.882 5930.99V5940.99V5950.37L189.5 5908.99H150L131.5 5927.49H87.3826L64.5003 5950.37L38.0001 5976.87H5.50009Z" fill="#6F27D4" fill-opacity="0.75"/>
<path d="M5.50009 6293.36L36.4999 6316.21L70.0001 6316.21L113.218 6272.99L143.5 6242.71V6210.49L116 6182.99V6134.49L208.5 6041.99V5990.49L178.5 5960.49H156.5L129.5 5987.49L129.5 6013.42L100.933 6041.99L70.0001 6041.99L41.1738 6013.16C31.1991 6013.13 19.0758 6013.11 5.50009 6013.1V6293.36Z" fill="#6F27D4" fill-opacity="0.75"/>
<path d="M1487.61 4659.11L1545.05 4659.11L1667.38 4537.07L1697.21 4507.31L1667.38 4507.31C1633.56 4541.78 1565.48 4610.71 1563.69 4610.71L1498.8 4610.71L1366.02 4740.52L1366.02 4712.65L1526.4 4554.24L1526.4 4530.04L1504.77 4507.31L1320.52 4507.31L1320.52 4590.91L1348.12 4618.04V4675.98L1300.46 4722.39L1270.55 4751.52L1125.12 4751.52L1054.23 4751.52L1013.2 4709.71H896.091L767.001 4709.71L763.122 4709.71L717.815 4755.02V4793.32L611.893 4895.25V4975.19L629.796 4992.06V5037.53L564.9 5101.33H526.112L460.471 5035.33V4966.39L388.862 4895.25L150.166 4895.25L108.394 4855.65L108.394 4817.81V4792.58L53.9412 4741.25L53.9416 4850.52L111.378 4905.52L315.761 4905.52L505.226 5092.53L505.226 5163.66L485.832 5182.73L485.832 5234.07L464.946 5212.8V5124.06L386.624 5046.33V5006.72L303.826 4926.06L111.378 4926.06L53.9414 4870.32V4964.92L85.2702 4996.46H150.166L162.847 4983.26H186.716L212.077 5008.19L212.077 5036.06L96.459 5149.73L96.4591 5168.8L53.9416 5210.6L53.9414 5351.4L285.924 5124.06L345.598 5124.06L479.119 5254.6L479.119 5297.86L479.119 5559.11L493.572 5573.56H521.119L572.548 5624.99H613.501L617.909 5629.4L563.806 5683.5H563.5H538.5H517L497.5 5703L461 5739.5L475.5 5739.5L493 5722H534H615L655.5 5762.5H687.5L793.5 5868.5V5961.5L933 6101L1171 6101L1245.5 6026.5H1436.5L1540.5 6130.5L1876.5 6130.5L1982 6236L1982 5739.67L1945.04 5739.67L1876.5 5808.22H1792.72L1715 5730.5H1592L1540.5 5782H1505.5L1467.5 5744L1398.5 5744L1210.5 5932L1134.5 5932L1102 5899.5H1041.5L1017 5875L1006.5 5864.5H990.999L982 5873.5L957 5873L910 5826H897.5L842.304 5770.8L834 5762.5L767.5 5762.5L735.5 5730.5H721L669 5678.5H642.001L622 5658.5L621.554 5658.05L654.619 5624.99L695.501 5584.11V5577.61L686.001 5564.06H661.001L646.048 5549.11V5530.11L627.501 5511.56L608.001 5492.06H584.501L561.916 5469.47L561.916 5456.61L649.936 5382.94L783.456 5382.94L844.622 5324.27L844.622 5002.32L1067.65 4781.58H1309.25L1363.04 4781.58L1416.21 4729.31L1487.61 4659.11Z" fill="#6F27D4" fill-opacity="0.75"/>
<path d="M525.171 7749.16L520.829 7757.84C520.321 7758.86 519.283 7759.5 518.146 7759.5L512.904 7759.5C511.742 7759.5 510.684 7758.83 510.189 7757.78L507.662 7752.41C507.247 7751.52 507.286 7750.5 507.767 7749.65L517.253 7732.93C517.417 7732.65 517.627 7732.39 517.875 7732.17L529.649 7721.75C530.197 7721.27 530.904 7721 531.637 7721H547.404C547.798 7721 548.187 7721.08 548.551 7721.23L561.539 7726.6C562.161 7726.86 562.679 7727.32 563.009 7727.91L572.482 7744.79C573.312 7746.27 572.751 7748.15 571.244 7748.93L547.502 7761.21C546.095 7761.93 544.365 7761.44 543.551 7760.08L536.874 7748.96C536.332 7748.05 535.355 7747.5 534.302 7747.5L527.854 7747.5C526.718 7747.5 525.679 7748.14 525.171 7749.16Z" fill="#6F27D4" fill-opacity="0.75"/>
<path d="M544.122 7771.24L532.351 7761.1C531.273 7760.17 529.691 7760.12 528.563 7760.99L518.309 7768.88C517.784 7769.28 517.141 7769.5 516.48 7769.5L508.311 7769.5C507.475 7769.5 506.678 7769.15 506.11 7768.54L495 7756.54C494.671 7756.18 494.262 7755.91 493.807 7755.75L488.503 7753.86C487.855 7753.63 487.146 7753.63 486.496 7753.85L472.283 7758.87C471.194 7759.26 469.98 7758.98 469.163 7758.16L468.179 7757.18C467.446 7756.45 466.386 7756.14 465.376 7756.38L455.167 7758.76C453.461 7759.16 452.457 7760.93 452.991 7762.6L455.857 7771.55C455.952 7771.85 456 7772.16 456 7772.47L456 7782.28C456 7783.35 456.564 7784.33 457.483 7784.87L469.018 7791.63C469.936 7792.17 470.5 7793.15 470.5 7794.22L470.5 7803.12C470.5 7804 470.117 7804.83 469.452 7805.4L467.46 7807.11C467.156 7807.37 466.908 7807.68 466.729 7808.04L462.647 7816.2C462.549 7816.4 462.43 7816.59 462.292 7816.76L456 7824.5L447.467 7833.89C446.592 7834.85 446.437 7836.26 447.082 7837.39L451.323 7844.81C451.753 7845.57 452.488 7846.1 453.339 7846.27L466.709 7848.94C466.902 7848.98 467.1 7849 467.297 7849L486.792 7849C487.258 7849 487.717 7848.89 488.134 7848.68L499.095 7843.2C499.363 7843.07 499.61 7842.89 499.827 7842.69L509.826 7833.12C510.559 7832.42 511.595 7832.14 512.582 7832.37L525.664 7835.42C525.887 7835.47 526.116 7835.5 526.346 7835.5L543.115 7835.5C544.267 7835.5 545.318 7834.84 545.818 7833.8L550.961 7823.12C551.306 7822.4 551.352 7821.58 551.09 7820.83L548.169 7812.48C548.057 7812.16 548 7811.83 548 7811.49L548 7796.5L545.141 7773.15C545.05 7772.41 544.687 7771.73 544.122 7771.24Z" fill="#6F27D4" fill-opacity="0.75"/>
<path d="M638 7683.57L638 7689.5C638 7691.16 639.343 7692.5 641 7692.5H646.158C646.385 7692.5 646.612 7692.53 646.833 7692.58L658.72 7695.32C659.231 7695.44 659.702 7695.69 660.086 7696.04L666.171 7701.69C666.389 7701.9 666.636 7702.07 666.904 7702.2L681.605 7709.32C682.48 7709.75 683.095 7710.57 683.255 7711.53L685.9 7727.4C685.966 7727.8 686.11 7728.17 686.324 7728.51L695.041 7742.28C695.341 7742.75 695.767 7743.13 696.272 7743.37L708.77 7749.41C709.551 7749.78 710.13 7750.48 710.358 7751.32C711.96 7757.18 714.759 7767.41 715.5 7770C716.246 7772.61 717.919 7781.22 718.818 7786.02C718.937 7786.66 719.257 7787.24 719.733 7787.68L724.535 7792.11C725.15 7792.68 725.5 7793.48 725.5 7794.31V7799.93C725.5 7800.91 725.98 7801.83 726.786 7802.4L735.323 7808.33C736.335 7809.04 737.674 7809.05 738.7 7808.37L742.284 7805.98C742.752 7805.67 743.294 7805.49 743.856 7805.48C749.807 7805.31 760.954 7805.12 764.001 7805.5C766.839 7805.85 771.461 7814.37 774.098 7820.01C774.65 7821.19 774.336 7822.59 773.357 7823.45L742.684 7850.46C741.943 7851.11 741.57 7852.09 741.688 7853.07L742.695 7861.46C742.869 7862.91 744.099 7864 745.558 7864C748.446 7864 749.541 7867.77 747.101 7869.32L726.235 7882.53C725.755 7882.84 725.199 7883 724.63 7883H683.589C683.2 7883 682.817 7882.93 682.456 7882.78C678.6 7881.23 671.288 7878.5 669 7878.5C667.32 7878.5 666.194 7880.79 665.557 7882.96C665.136 7884.39 663.892 7885.5 662.4 7885.5H638C629.5 7885.5 627.5 7892 624.5 7893C622.523 7893.66 618.828 7896.62 616.375 7898.77C615.522 7899.51 614.331 7899.75 613.27 7899.35L608.03 7897.39C607.365 7897.14 606.633 7897.13 605.964 7897.37L584.512 7905.06C582.558 7905.76 580.5 7904.31 580.5 7902.24L580.5 7898.24C580.5 7897.45 580.816 7896.68 581.378 7896.12L598.556 7878.94C598.849 7878.65 599.199 7878.42 599.584 7878.27L609.973 7874.21C610.321 7874.07 610.691 7874 611.065 7874L624.5 7874L636.614 7874C637.494 7874 638.328 7873.61 638.898 7872.94L646.107 7864.46C646.366 7864.16 646.562 7863.8 646.682 7863.42L648.267 7858.4C648.878 7856.47 647.435 7854.5 645.407 7854.5H642.5L635 7853.5L630 7853.5H619.862C618.997 7853.5 618.173 7853.13 617.604 7852.48L615.896 7850.52C615.327 7849.87 614.504 7849.5 613.639 7849.5L610.5 7849.5L605.243 7849.5C604.557 7849.5 604 7848.94 604 7848.26C604 7847.4 603.152 7846.8 602.343 7847.08L595.924 7849.35C595.648 7849.45 595.349 7849.46 595.065 7849.39L586.761 7847.22C586.345 7847.11 586.424 7846.5 586.853 7846.5C586.948 7846.5 587.035 7846.47 587.103 7846.4C591.153 7842.53 600.034 7834.69 604 7833.5C607.166 7832.55 609.08 7831.12 609.988 7830.15C610.36 7829.75 610.488 7829.21 610.57 7828.67C610.84 7826.92 611.952 7824.03 615 7822C618.343 7819.77 614.184 7816.22 611.171 7814.39C610.735 7814.13 610.232 7814 609.722 7814L601.168 7814C598.759 7814 597.333 7811.3 598.687 7809.31L603.719 7801.91C603.905 7801.64 604.044 7801.34 604.132 7801.02L605.62 7795.56C606.15 7793.62 608.735 7793.23 609.816 7794.93C610.242 7795.59 610.98 7796 611.774 7796L624.5 7796L632.838 7796C634.129 7796 635.276 7795.17 635.684 7793.95L637.905 7787.29C637.968 7787.1 638.012 7786.9 638.036 7786.7L640.414 7767.2C640.471 7766.74 640.419 7766.27 640.262 7765.83L638 7759.5L635.318 7751.01C635.112 7750.36 634.69 7749.79 634.121 7749.41L627.697 7745.13C626.073 7744.05 625.899 7741.73 627.343 7740.41L629.438 7738.51C629.807 7738.18 630.086 7737.75 630.252 7737.28C631.511 7733.71 633.88 7727.11 635 7724.5C636.084 7721.97 632.896 7723.06 630.672 7724.15C630.227 7724.37 629.74 7724.5 629.244 7724.5H621.5C619.843 7724.5 618.5 7725.84 618.5 7727.5V7729C618.5 7730.66 617.157 7732 615.5 7732L587.112 7732C584.534 7732 583.156 7728.96 584.854 7727.02L591 7720L597.867 7711.41C598.564 7710.54 598.721 7709.36 598.274 7708.34L595.752 7702.57C595.586 7702.2 595.5 7701.79 595.5 7701.37L595.5 7690.35C595.5 7689.49 595.133 7688.67 594.493 7688.1L593.114 7686.88C591.927 7685.82 590.123 7685.88 589 7687L587.344 7688.66C587.116 7688.88 586.927 7689.15 586.783 7689.44L581.329 7700.34C580.821 7701.36 579.782 7702 578.646 7702L572.891 7702C572.009 7702 571.171 7701.61 570.601 7700.94L567.035 7696.72C566.388 7695.96 566.165 7694.92 566.44 7693.96L568.885 7685.4C568.961 7685.14 569 7684.86 569 7684.58V7675.8C569 7674.69 568.392 7673.67 567.417 7673.15L556.583 7667.35C555.608 7666.83 555 7665.81 555 7664.7V7661.67C555 7660.92 555.281 7660.19 555.788 7659.64L565.586 7648.95C565.859 7648.65 566.07 7648.3 566.204 7647.92L568.657 7640.97C568.879 7640.34 568.886 7639.66 568.675 7639.02L566.513 7632.54C566.193 7631.58 566.379 7630.52 567.007 7629.73L575.5 7619L579.805 7613.83C580.254 7613.29 580.5 7612.62 580.5 7611.91L580.5 7601.38C580.5 7600.5 580.883 7599.67 581.548 7599.1L590.157 7591.72C590.701 7591.26 591.394 7591 592.11 7591L617.376 7591C618.101 7591 618.801 7590.74 619.347 7590.26L628.952 7581.89C631.306 7579.84 634.838 7582.3 633.726 7585.22L630.251 7594.34C630.086 7594.77 629.823 7595.16 629.482 7595.48L610.903 7612.63C610.636 7612.87 610.417 7613.17 610.255 7613.49L608.433 7617.13C607.872 7618.26 608.067 7619.61 608.922 7620.52L613.294 7625.21C614.038 7626 615.156 7626.34 616.215 7626.07L624.053 7624.11C624.349 7624.04 624.655 7624.01 624.959 7624.03L662.504 7626.26C664.501 7626.38 665.825 7628.38 665.151 7630.27L649.823 7673.1C649.612 7673.68 649.224 7674.19 648.712 7674.55L639.287 7681.1C638.48 7681.67 638 7682.59 638 7683.57Z" fill="#6F27D4" fill-opacity="0.75"/>
<path d="M683.999 8165.5L540 8165.5L527.5 8153L517.5 8153L503.5 8167H489.5L482 8174.5L482 8180L495 8193L495 8225L503.5 8233.5V8275L479 8299.5V8311L498 8330L498 8363L505.5 8370.5L522.5 8370.5L530 8363L551 8363L585 8397L589.5 8397L596.5 8390L611.5 8390L621 8380.5H677.999L701.5 8357H711.5L717 8351.5V8334L734 8317L734 8307L729.499 8302.5L729.5 8282L757 8254.5V8243L769.5 8230.5H798L824 8204.5L824 8175L837.5 8161.5H870.5H877L893.5 8178L911.5 8178L916.5 8173V8161.5L924.5 8153.5L944 8153.5L949.499 8148H960L975 8133L998 8133L1023 8158L1026.5 8161.5V8175L1085.5 8234L1108.5 8234L1147 8272.5H1156L1164 8280.5V8289.5L1171.5 8297V8311.5L1164 8319V8339.5L1179 8324.5V8314.5L1188 8305.5L1195 8305.5L1199.5 8301L1199.5 8293.5L1186.5 8280.5V8269L1192 8263.5H1208.5L1224 8279L1230 8279L1233.5 8275.5L1233.5 8271L1201.5 8239H1192L1173.5 8220.5L1151 8220.5L1113 8182.5V8163.5L1077.5 8128V8104.5L1092.5 8089.5H1110.5L1201.5 8180.5H1215L1260 8225.5V8263.5L1286 8289.5L1299.5 8303L1299.5 8319H1310.5L1315 8314.5L1326.5 8314.5L1339.5 8327.5V8335L1335 8339.5H1308.5L1305.5 8342.5V8346.5L1315 8356V8369L1320.5 8374.5H1335L1347.5 8387H1354L1356.5 8384.5V8381L1341.5 8366L1341.5 8361L1345.5 8357L1366 8357L1368.5 8354.5L1368.5 8350.5L1366.5 8348.5H1352L1349 8345.5L1349 8342L1352.5 8338.5H1365.5L1384 8338.5L1389 8333.5V8324L1377 8312H1352.5L1348.5 8308L1348.5 8302L1356.5 8294L1335 8272.5L1335 8263.5L1344 8254.5L1350.5 8254.5L1364 8268H1374L1378.5 8263.5V8251.5L1387.5 8242.5H1439L1450.5 8231L1450.5 8211.5L1454.5 8207.5H1483.5L1486 8205V8200L1476.5 8190.5V8180.5L1505 8152V8133L1520.5 8117.5H1531.5L1535.5 8113.5V8092L1564.5 8063V8053L1572.5 8045H1601.5L1609.5 8045L1614.5 8040L1624 8040L1629.5 8034.5H1639L1648 8043.5L1651 8046.5H1655.5L1657.5 8044.5H1661L1664.5 8048H1671.5L1674.5 8051H1679.5L1684 8046.5H1692.5H1696.5L1698 8045H1701.5L1703 8043.5H1718.5L1737.5 8024.5H1751.5L1767 8009L1775 8001H1801L1805 8005H1810.5L1816 7999.5V7993.5L1807.5 7985L1807.5 7979L1812 7974.5L1812 7969.5L1807.5 7965L1807.5 7961L1812 7956.5V7952L1807.5 7947.5H1762L1739.5 7925L1735.5 7925L1729 7931.5H1716.5L1707.5 7922.5H1694L1689.5 7918V7907.5L1677 7895H1663.5L1653 7884.5V7857.5L1647 7851.5H1612L1604 7859.5H1591.5L1582 7850L1582 7819L1586 7815L1591.5 7815L1596.5 7820L1604 7820L1613 7811L1613 7805.5L1568.5 7761L1568.5 7731.5L1556.5 7719.5L1539.5 7719.5L1536 7723H1528L1518.5 7713.5H1510H1502L1496.5 7708L1496.5 7690.5L1482.5 7676.5V7660L1473 7650.5L1473 7643L1482.5 7633.5V7628L1474.5 7620V7599L1490.5 7583V7576H1465.5L1460.5 7571L1401 7571L1388 7584H1369L1365 7588V7592.5L1370.5 7598L1370.5 7609L1379.5 7618H1393.5L1399 7623.5L1399 7628L1393.5 7633.5L1393.5 7660L1383.5 7670H1363.5L1340 7646.5L1331 7646.5L1314 7663.5V7672.5L1301 7685.5V7698.5L1306.5 7704V7723L1296.5 7733L1296.5 7738.5L1299 7741H1318L1324 7747H1342.5L1352.5 7757L1352.5 7773.5L1349 7777H1284L1273.5 7766.5H1260L1252 7774.5H1242L1234 7766.5V7757L1230 7753H1201.5L1174 7780.5L1139 7780.5L1130 7789.5L1124.5 7789.5L1118.5 7783.5L1103 7783.5L1103 7777L1098 7772H1079L1058.5 7792.5H1044.5L1037.5 7785.5L1037.5 7777L1032.5 7772H1014L1009.5 7767.5V7755L1002.5 7748V7743L1005 7740.5H1008L1017 7749.5H1029.5L1032.5 7746.5V7736L1027.5 7731H1014L1010.5 7727.5L1010.5 7721L1027.5 7704H1032.5L1035 7701.5V7697.5L1021 7683.5V7670.5L1026.5 7665V7649.5L1022 7645H1012.5L992.5 7665H977L961.499 7680.5V7722L975.5 7736V7752.5L984 7761L984.001 7780L994.5 7790.5V7801.5L992 7804H980L975.5 7808.5H964L957 7801.5L938.5 7801.5V7815L935 7818.5H925.5L919.5 7812.5H897.499L888 7822V7829.5L892 7833.5V7840H879L872.5 7833.5L866.5 7833.5L863.5 7836.5L863.5 7845.5L854 7855V7868.5L833.499 7889L818 7904.5H791L785.5 7910L785.5 7928.5L774.5 7939.5H750L740.5 7949V7960L735 7965.5H719.5L701 7947H691L686.5 7951.5V7958L695.5 7967V7981L688 7988.5L678 7988.5H657L649.5 7981H638.999L634.5 7985.5L613.5 7985.5L608 7991L608 7996L612 8000V8009.5L618 8015.5H636.5L648 8027H672.5L683 8037.5V8053L693 8063H705.5L712.5 8070V8114L705.5 8121V8159L694.5 8170L688.5 8170L683.999 8165.5Z" fill="#6F27D4" fill-opacity="0.75"/>
<path d="M1257.5 7209L1208 7194.5L1196 7206.5L1184 7218.5V7228L1176.5 7235.5V7256L1160 7272.5L1149.5 7272.5L1135.5 7286.5L1135.5 7319L1123.5 7331V7357.5L1129 7363L1129 7373L1123.5 7378.5H1110L1084 7404.5L1084 7451.5L1088 7455.5L1088 7475.5L1099.5 7487V7570.5L1138 7609L1210.5 7609L1225 7594.5L1225 7541L1214 7530H1202.5L1199 7526.5V7489L1211.5 7476.5L1211.5 7442.5L1241 7413H1245.5L1280 7378.5H1296.5L1314.5 7360.5L1314.5 7352.5L1306 7344V7336L1315.5 7326.5V7317.5L1326 7307L1332.5 7307L1338 7301.5V7292.5L1341 7289.5H1355L1376.5 7268L1376.5 7252L1369 7229L1369 7222L1366.5 7219.5V7212.5L1363 7209H1257.5Z" fill="#6F27D4" fill-opacity="0.75"/>
<path d="M1187.5 7201H1166H1154.5L1120 7235.5H1114L1110 7239.5V7246L1092 7264L1092 7268.5L1081 7279.5V7285L1071.5 7294.5L1071.5 7303L1042 7332.5V7339L1048 7345L1040.5 7352.5H1019.5C1012.5 7359.33 998.6 7373 999 7373C999.4 7373 992.833 7379.33 989.5 7382.5V7385.5L993.5 7389.5L990.5 7392.5L984 7392.5L978 7386.5L957.5 7386.5L939 7405V7416L934 7421H908.5L906 7423.5V7426L892.5 7439.5L892.499 7443H887.5L875.5 7455V7458.5L878.5 7461.5V7471.5V7478L870 7486.5L870 7506L875.5 7511.5H887.5L888.5 7510.5H910.5L934 7534H941L960 7553H1006L1006 7545.5L1020.5 7531L1026 7531L1040.5 7545.5H1044.5L1048 7542V7531L1077 7502L1077 7497.5L1079.5 7495V7487.5L1068.5 7476.5L1068.5 7470.5L1062.5 7464.5V7448L1058 7443.5L1058 7435.5L1053 7430.5V7395L1081.5 7366.5L1086.5 7366.5L1094 7359L1094 7349.5L1099.5 7344V7336.5L1107 7329V7323L1119 7311V7277.5L1140 7256.5H1148.5L1157 7248H1162L1169 7241L1187.5 7201Z" fill="#6F27D4" fill-opacity="0.75"/>
<path d="M1535.5 7206.5L1544 7225L1521 7248L1521 7256L1551.5 7286.5V7303L1535.5 7319L1535.5 7325L1539.5 7329V7334L1535.5 7338L1535.5 7343.5L1542.5 7350.5V7362L1554.5 7374L1554.5 7380L1544 7390.5L1544 7398.5L1576 7430.5V7442.5L1550 7468.5L1490.5 7528H1454L1434 7548H1349L1335.5 7534.5H1318.5L1308 7524V7514.5L1321.5 7501L1321.5 7482L1311.5 7472V7454.5L1299.5 7442.5V7430.5L1314.5 7415.5H1335.5L1340 7411V7398.5L1360 7378.5H1373L1399 7352.5L1399 7343.5L1407 7335.5L1417 7335.5L1423.5 7329L1423.5 7314L1407 7297.5L1393 7293.5L1377.5 7281L1384.5 7272.5V7243L1375 7225L1370.5 7206.5L1388 7194.5L1454 7201L1527.5 7201L1528 7201.5L1535.5 7206.5Z" fill="#6F27D4" fill-opacity="0.75"/>
<path d="M1614 8092V8099L1624 8099L1647 8076H1657.5L1662.5 8071L1668 8065.5V8061.5L1666 8059.5L1649.5 8059.5L1637 8047L1635.5 8045.5L1618 8045.5L1614.5 8049L1609.5 8053L1607 8055.5H1598.5L1589.5 8064.5V8067L1590.5 8068L1596 8068L1599.5 8071.5H1612L1615.5 8075V8090.5L1614 8092Z" fill="#6F27D4" fill-opacity="0.75"/>
<path fill-rule="evenodd" clip-rule="evenodd" d="M64.2973 8682.65L24.2557 8644.08L23.4999 8643.32L23.5002 8658.45L58.2534 8693.24H117.184L212.378 8598.7L254.687 8597.18L254.687 8644.08L204.067 8693.24L130.783 8693.24L117.184 8706.85H46.1656L23.4999 8682.65L23.5002 8928.45L65.8086 8974.59L139.849 8973.08L167.047 8947.36L167.047 8897.44L200.29 8863.41H227.488L248.678 8842.2L255.442 8835.43H278.108L338.549 8897.44V8946.6H309.839L263.114 8994.68L255.442 9002.57V9028.29L237.443 9046.68L183.669 9101.65H152.693L137.582 9115.26H23.4999V9129.63H183.669L355.17 8959.46V8899.71L471.178 8782.99L504.762 8749.2L658.131 8747.69L719.327 8687.19L720.838 8597.18L771.071 8546.5L816.788 8500.38H785.812L689.862 8597.18V8681.14L646.798 8725.76H540.178H364.992L281.885 8644.08L281.885 8598.7L254.687 8573.74H217.667L107.362 8682.65H64.2973Z" fill="#6F27D4" fill-opacity="0.75"/>
<path d="M1565.5 8498.86C1565.5 8498.86 1565.25 8650.88 1565.5 8723.49L1613.1 8768.87L1662.96 8768.87L1711.08 8721.36L1773.27 8659.96L1773.27 8584.76L1859.16 8498.86L1833.99 8480.69H1794.49H1587.49L1583.68 8480.69L1565.5 8498.86Z" fill="#6F27D4" fill-opacity="0.75"/>
<path d="M1975.23 9328.75L1951 9308.5L1920.08 9275.81L1905.18 9260H1858L1806.68 9230.98L1756.68 9230.98C1744.84 9243.14 1720.38 9267.97 1717.18 9270.01C1713.98 9272.05 1645.84 9270.86 1612.18 9270.01H1502.04L1425 9218.51L1393.1 9195.43L1374 9183.5H1349.42L1328.5 9193L1336.5 9250.5L1457.5 9328.75H1598.5H1736.25H1806.68L1877.77 9411.24L1975.23 9491.15L1975.23 9328.75Z" fill="#6F27D4" fill-opacity="0.75"/>
<path d="M948.49 9287.16L1174.39 9059.5L1174.39 8727.48L1236.34 8666.97H1371.58L1460.73 8577.73V8507.98L1490.05 8478.65H1544.59L1504.16 8671.5L1499.56 8693.47L1411.47 8781.55L1328.5 8785.63H1256L1246.5 9079.17L1169.68 9153.25L1062.18 9250.5L1000 9287.15L962.09 9318.16L890.287 9318.16L742.991 9318.16L703.787 9287.15L948.49 9287.16Z" fill="#6F27D4" fill-opacity="0.75"/>
<path d="M140.126 1042.71L195.626 1098.21L196.962 1143.21L225.462 1170.71L323.733 1268.98H335.755L396.175 1330.58L486.432 1330.58M140.126 1042.71L99.4622 1042.71L70.9623 1071.21M140.126 1042.71L140.126 1018.71L190.962 967.874M190.962 967.874L399.462 967.874L474.299 1042.71L658.962 1042.71L790.963 1042.71L844.463 989.211L888.463 945.211L888.462 882.711L926.462 844.711L987.963 783.211H1030.96L1046.96 767.211L1085.46 767.211L1094.96 776.71M190.962 967.874L225.462 933.374L431.462 933.374L482.126 882.711L586.462 882.711M1094.96 776.71L1094.96 901.642L946.463 1050.14L832.962 1050.14L775.962 1107.14L775.963 1170.21V1232.4L777.342 1233.78L922.052 1375.32H1039.16L1080.19 1417.12H1151.08M1094.96 776.71L1146.96 724.71L1197.96 724.711M736.462 846.711L641.962 941.211V972.211L658.962 989.211L718.462 989.211L747.962 1018.71M1499.96 687.96V771.71L1573.96 845.711L1624.96 896.711L1624.96 970.21L1674.46 1019.71L1814.46 1019.71L1922.46 1127.71H2026.46L2026.46 882.711L2009.96 882.71L2009.96 563.711L1940.46 494.211L1883.96 494.211L1814.46 563.711L1814.46 643.71L1725.96 732.211L1725.96 783.211L1787.46 844.711L1787.46 882.711L1698.96 794.211L1698.96 681.211L1646.96 629.211L1558.71 629.21L1499.96 687.96ZM1499.96 687.96L1499.96 604.211L1558.71 545.461M1725.96 1050.14L1646.96 1050.14L1558.71 961.892L1558.71 919.211M456.56 225.6L463.126 232.279L463.126 254.656L402.991 314.33L355.322 314.33L355.322 285.985L308.708 239.854M456.56 225.6L435.992 204.679L435.992 177.826L402.991 145.005L354.589 145.005L329.655 118.152L328.188 45.0516L372.923 3.27969L611.265 3.27965L587.797 25.6574L587.797 95.7744L600.998 109.201L600.997 181.556L648.666 231.533L694.134 231.533L692.668 189.761L600.998 95.7744L600.998 37.5922L634.732 3.27969L649.399 3.27965L648.666 4.02559L611.265 43.5597L611.265 86.0774L716.868 194.982V231.533L692.668 258.386L648.666 258.386L569.463 340.438L569.463 513.401M456.56 225.6L439.227 244.359L362.102 244.359L339.854 223.626H324.034L308.708 239.854M308.708 239.854L301.053 232.279L276.119 232.279L258.28 214.508M258.28 214.508L204.983 161.416V130.833L191.783 115.914L191.783 3.27973L177.849 3.27966L177.849 161.416L342.855 330.741L400.79 330.741L513.966 445.277M258.28 214.508L258.28 94.7818L222.189 57.7578L222.189 35.0496L254.325 3.27969M705.705 3.27962L680.985 24.6828L680.985 42.948L669.12 51.8338L669.12 79.9722L731.413 143.16H790.246L790.246 230.043L754.65 266.08V289.282L714.604 328.774H680.985L621.164 387.519V428.492M809.033 641.258L755.638 584.981L755.639 558.817L714.604 513.401L569.463 513.401M569.463 513.401L569.463 618.668L612.731 661.185L694.134 661.185L788.004 755.918L788.004 786.501L743.279 741.364M64.9723 3.27962L64.9723 143.654L34.8144 178.21M141.109 357.406L258.28 357.406L342.855 445.277L513.966 445.277M513.966 445.277L546.729 478.434L548.196 629.857L606.864 690.277L694.134 691.768L743.279 741.364M280.033 515.376L351.225 593.867L439.227 593.867L469.385 627.929L469.385 749.862L511.409 795.278L698.289 795.278L743.279 741.364M91.6694 900.627L91.6695 745.913M1524.76 1276.31L1391.98 1406.12V1378.25L1552.36 1219.85V1195.64L1530.73 1172.91H1346.48V1256.51L1374.08 1283.65V1341.58L1326.42 1388M1524.76 1276.31C1545.65 1276.31 1587.86 1276.31 1589.65 1276.31M1524.76 1276.31L1589.65 1276.31M1589.65 1276.31C1591.44 1276.31 1659.52 1207.38 1693.34 1172.91L1723.18 1172.91L1693.34 1202.68M165.744 2283.71L188.592 2252.71L263.4 2151.21V2074.94L324.801 2015.4M165.744 2283.71V2284.66L165.744 2318.13M165.744 2283.71L165.744 2318.13M1768.64 1898.24L1761.96 1904.8H1739.59L1679.91 1844.67L1679.91 1797L1708.26 1797L1754.39 1750.39M1768.64 1898.24L1789.56 1877.67L1816.42 1877.67L1849.24 1844.67V1796.27L1876.09 1771.33L1949.19 1769.87L1990.96 1814.6V2052.94L1968.58 2029.48L1898.47 2029.47L1885.04 2042.68L1812.69 2042.68L1762.71 2090.34V2135.81L1804.48 2134.35L1898.47 2042.68L1956.65 2042.68L1990.96 2076.41L1990.96 2091.08L1990.22 2090.34L1950.68 2052.94L1908.16 2052.94L1799.26 2158.55H1762.71L1735.86 2134.35L1735.86 2090.34L1653.8 2011.14L1480.84 2011.14M1768.64 1898.24L1749.88 1880.91L1749.88 1803.78L1770.62 1781.53V1765.71L1754.39 1750.39M1754.39 1750.39L1761.96 1742.73L1761.96 1717.8L1779.73 1699.96M1779.73 1699.96L1832.83 1646.66L1863.41 1646.66L1878.33 1633.46H1990.96V1619.53H1832.83L1663.5 1784.53L1663.5 1842.47L1548.97 1955.64M1779.73 1699.96H1899.46L1936.48 1663.87H1959.19L1990.96 1696M1990.96 2147.38L1969.56 2122.66L1951.29 2122.66L1942.41 2110.8H1914.27L1851.08 2173.09L1851.08 2231.92H1764.2L1728.16 2196.33L1704.96 2196.33L1665.47 2156.28V2122.66L1606.72 2062.84L1565.75 2062.84M1352.98 2250.71L1409.26 2197.32L1435.42 2197.32L1480.84 2156.28L1480.84 2011.14M1480.84 2011.14H1375.57L1333.06 2054.41L1333.06 2135.81L1238.32 2229.68L1207.74 2229.68L1252.88 2184.96M1990.96 1506.65L1850.59 1506.65L1816.03 1476.49H1743.47L1636.84 1582.79L1636.84 1699.96L1548.97 1784.53L1548.97 1955.64M1548.97 1955.64L1515.81 1988.41L1364.39 1989.87L1303.97 2048.54L1302.47 2135.81L1252.88 2184.96M1478.87 1721.71L1400.37 1792.9L1400.38 1880.91L1366.31 1911.06H1244.38L1198.96 1953.09L1198.96 2139.97L1252.88 2184.96M859.329 2139.97L980.768 2018.84L980.768 1685.13L1065.68 1596.63V1560.86L1093.61 1533.35H1248.33L1335.21 1447.19M1335.21 1447.19L1389 1447.19L1442.17 1394.92M1335.21 1447.19L1093.61 1447.19L870.583 1667.93L870.583 1989.87L809.417 2048.54H675.897L587.877 2122.21L587.877 2135.08L610.462 2157.66L633.962 2157.66M1693.34 1202.68L1571.01 1324.72H1513.57L1442.17 1394.92M1693.34 1202.68L1693.34 1324.72L1667.44 1349.43H1629.43L1583.52 1394.92L1442.17 1394.92M1330.77 1172.91L1330.77 1219.85L1265.61 1283.65V1324.72L1326.42 1388M1326.42 1388L1296.51 1417.12H1151.08M1265.61 1172.91L1200.44 1238.69H1175.27L1139.73 1276.31L1007.43 1276.31L931.403 1203.09M812.926 1170.71L910.176 1266.87L910.176 1295.05L965.465 1348.94H1080.19L1151.08 1417.12M96.1387 1170.71L198.505 1268.98V1303.45L244.235 1346.47H299.95L354.814 1400.85H414.823L486.432 1330.58M486.432 1330.58L536.409 1330.58L562.516 1303.45H681.864L743.776 1363.58V1420.63M422.445 1483.41C389.205 1482.59 321.936 1481.44 318.777 1483.41C315.618 1485.39 291.462 1509.47 279.778 1521.26H230.413L188.808 1483.41H134.355M134.355 1483.41V1458.19L79.9024 1406.85V1516.12L137.339 1571.13L341.722 1571.13L531.187 1758.13L531.187 1829.27L511.793 1848.34V1899.67L490.907 1878.4L490.907 1789.67L412.585 1711.93L412.585 1672.33L329.787 1591.66L137.339 1591.66L79.9025 1535.92V1630.53L111.231 1662.06L176.127 1662.06L188.808 1648.86L212.677 1648.86L238.039 1673.8V1701.66L122.42 1815.33L122.42 1834.4L79.9024 1876.2V2017.01L311.885 1789.67L371.559 1789.67L505.08 1920.2L505.08 1963.47M134.355 1483.41V1521.26L176.127 1560.86L414.823 1560.86L486.432 1631.99V1700.93L552.073 1766.93L590.861 1766.93L655.757 1703.13V1657.66L637.854 1640.79V1560.86L743.776 1458.92L743.776 1420.63M578.933 1726.16L531.187 1681.67L531.187 1483.41L559.681 1458.92H594.73L617.932 1483.41L637.854 1483.41L705.309 1420.63H743.776M184.503 1685.62L133.163 1735.55V1762.75L79.9024 1815.33M348.89 1829.98L314.828 1829.98L256.577 1887.83V1957.04L195.363 2017.01H165.744L70.9623 2111.29M505.08 1963.47L460.95 1920.2L424.913 1920.2L409.61 1903.15L372.305 1903.15L327.169 1943.2L324.801 2015.4M505.08 1963.47L505.08 2252.71L505.08 2286.13L505.116 2286.16L531.616 2312.66L554.498 2335.55V2379.66L572.998 2398.16V2437.66L531.616 2479.05H540.998H550.998L595.498 2434.55L595.498 2402.16L605.998 2391.66L619.998 2391.66L636.498 2375.16L655.998 2355.66L655.998 2335.55L687.881 2303.66L711.498 2303.66L721.498 2293.66L721.498 2266.16V2243.21L707.951 2229.66L686.962 2229.66L672.009 2214.71V2195.71M324.801 2015.4L372.305 1969.34H421.536L468.529 2013.34C468.696 2060.48 468.907 2178.37 468.849 2252.71M672.009 2195.71L653.462 2177.16L633.962 2157.66M672.009 2195.71L633.962 2157.66M468.849 2252.71L468.885 2253.66C468.874 2267.24 468.855 2279.36 468.824 2289.34L468.786 2289.38M468.849 2252.71C468.838 2266.74 468.818 2279.22 468.786 2289.38M686.962 2139.97L711.962 2164.97L744.312 2197.32H779.962L800.115 2177.16L837.962 2177.16L899.962 2239.16H996.962L1015.96 2258.16L1015.96 2287.21L1054.96 2326.21M1054.96 2326.21L1054.96 2357.71L1033.46 2379.21C1018.96 2396.71 988.162 2431.71 980.962 2431.71C973.762 2431.71 905.962 2431.71 872.962 2431.71L824.962 2479.71M1054.96 2326.21H1100.46L1131.96 2357.71L1198.96 2357.71L1247.46 2309.21M860.998 2872.16L786.498 2946.66H595.498L491.498 2842.66H155.498L49.9981 2737.16L49.9983 3233.49L86.9541 3233.49L155.498 3164.95H239.28L316.998 3242.66H439.998L491.498 3191.16L526.498 3191.16L564.498 3229.16H633.498L821.498 3041.16H897.498L929.998 3073.66L990.498 3073.66L1015 3098.16L1025.5 3108.66H1041L1050 3099.66L1075 3100.16L1122 3147.16H1134.5L1198 3210.66H1264.5L1296.5 3242.66L1307 3242.66H1451.5V3274.66L1468 3291.16L1514 3291.16L1561 3291.16L1606.5 3245.66V3170.66L1656 3121.16L1758 3121.16L1819.5 3059.66V3012.16L1859.5 2972.16V2900.66L1783.5 2824.66L1396.5 2824.66V3170.66L1451.5 3225.66V3231.66H1365.5L1344.5 3210.66L1238.5 3104.66L1238.5 3011.66L1099 2872.16L860.998 2872.16ZM860.998 2872.16L925.498 2807.66L972.498 2807.66L989.498 2824.66H1042.5L1084 2783.16M49.9981 2497.66H132.998L188.628 2442.03H221.998L259.011 2479.05H316.998L367.498 2529.55V2582.66L439.998 2655.16M1238.5 2717.66H1128.5L1084.5 2673.66H1042.5L1025.5 2690.66M1025.5 2690.66L1015.5 2690.66L991.498 2714.66V2724.66L1025.5 2690.66ZM526.498 3245.66L665.498 3245.66L775.498 3135.66L1020 3135.66L1041 3156.66L1075.5 3191.16H1108.5L1143 3225.66V3264.66M959.809 3285.97H901.688L892.998 3294.66H868.688L859.998 3285.97H831.998L778.309 3339.66M714.998 3359.16L721.998 3352.16L765.809 3352.16L778.309 3339.66M778.309 3339.66H798.998L814.998 3323.66H831.998L856.498 3348.16L874.998 3348.16M899.997 2239.16L996.997 2239.16L1016 2258.16L1016 2287.21L1055 2326.21M1055 2326.21V2357.71L1033.5 2379.21C1019 2396.71 988.197 2431.71 980.997 2431.71L872.997 2431.71L824.997 2479.71M1055 2326.21H1100.5L1132 2357.71L1199 2357.71L1247.5 2309.21M1962 2633.66L1939.5 2611.16L1859.5 2611.16L1837 2633.66L1783.5 2633.66M165.744 2318.13L165.78 2318.16L208.998 2361.38L239.28 2391.66H271.498L298.998 2364.16H347.498L439.998 2456.66H491.498L521.498 2426.66V2404.66L494.498 2377.66L468.565 2377.66L439.998 2349.1L439.998 2318.16L468.786 2289.38M1726.48 4340.65L1665.28 4277.12H1573.87M1726.48 4340.65L1762.75 4340.65M1726.48 4340.65L1718.92 4333.09M1762.75 4340.65L1857.49 4434.11L1857.5 4434.12M1762.75 4340.65L1857.5 4434.12M1865.49 4442L1857.5 4434.12M1279.22 4442V4376.96M1279.22 4376.96L1132.65 4230.99H1014.03L972.479 4187.88L900.677 4187.88M1279.22 4376.96L1235.35 4333.09M1279.22 4376.96V4424.11L1321.22 4466.11L1360.99 4466.11L1371.49 4455.61L1443.49 4455.61L1460.99 4438.11L1606.49 4438.11L1632.99 4464.61L1738.99 4464.61L1776.99 4502.61L1845.99 4502.61L1870.99 4477.61H1900.99L1857.5 4434.12M702.761 4353.51L674.807 4325.53L674.807 4265.78L723.086 4217.91M702.761 4353.51L702.761 4439.73V4434.88M702.761 4353.51L682.34 4333.09M702.761 4353.51L702.761 4434.88M494.24 4391.33V4416.29L516.15 4439.73L530.987 4454.57L585.487 4454.57L612.025 4481.11L640.487 4481.11L648.487 4489.11L641.487 4496.61L543.987 4594.11H560.987L691.487 4463.61L702.761 4463.61L713.487 4452.88L713.487 4450.46L713.487 4445.61L702.761 4434.88M494.24 4391.33L656.675 4227.96L656.675 4199.22L522.194 4333.09M494.24 4391.33L552.476 4333.09M522.194 4333.09C501.039 4333.09 458.277 4333.09 456.464 4333.09M522.194 4333.09L456.464 4333.09M456.464 4333.09C454.651 4333.09 385.698 4404.18 351.448 4439.73L321.227 4439.73L351.448 4409.03M275.177 3691.7L281.941 3684.93H304.606L365.047 3746.94L365.047 3796.1H336.337L289.613 3844.18M275.177 3691.7L253.987 3712.91H226.788L193.546 3746.94V3796.86L166.347 3822.58L92.3069 3824.09L49.9984 3777.95V3532.15L72.6638 3556.35H143.682L157.281 3542.74H230.566L281.185 3493.58V3446.69L238.876 3448.2L143.682 3542.74H84.7518L49.9984 3507.95L49.9983 3492.82L50.7539 3493.58L90.7959 3532.15H133.86L244.165 3423.24H281.185L308.383 3448.2V3493.58L391.49 3575.26L566.676 3575.26M275.177 3691.7L294.176 3709.57V3789.11L273.177 3812.06V3828.37L289.613 3844.18M289.613 3844.18L281.941 3852.07L281.941 3877.79L263.941 3896.18M263.941 3896.18L210.167 3951.15H179.191L164.081 3964.76H49.9983V3979.13H210.167L381.668 3808.96V3749.21L497.676 3632.49M263.941 3896.18H142.677L105.176 3933.41H82.1765L49.9983 3900.26M49.9983 3434.75L71.6766 3460.25L90.1765 3460.25L99.1765 3472.48L127.676 3472.48L191.677 3408.24V3347.56L279.677 3347.56L316.177 3384.28H339.677L379.676 3425.57L379.677 3460.25L439.177 3521.94L480.677 3521.94M566.676 3575.26L673.296 3575.26L716.36 3530.64V3446.69L812.31 3349.88H843.286L797.57 3396M566.676 3575.26V3425.57L612.677 3383.26H639.177L696.177 3328.19H739.987L806.177 3262L933.987 3262M49.9983 4095.54L192.177 4095.54L227.177 4126.65H300.677L408.677 4017.02L408.676 3896.18L497.676 3808.96V3632.49M497.676 3632.49L531.26 3598.71L684.629 3597.19L745.825 3536.69L747.336 3446.69L797.57 3396M568.676 3873.75L648.177 3800.33V3709.57L682.677 3678.47L806.177 3678.47L852.177 3635.13V3442.4L797.57 3396M1196.18 3442.4L1073.18 3567.32V3911.48L987.176 4002.75L987.177 4039.64L958.88 4068.01H802.176L714.176 4156.87M714.176 4156.87L659.697 4156.87L605.848 4210.77M714.176 4156.87H958.88L1184.78 3929.22V3597.19L1246.73 3536.69H1381.97L1471.12 3447.44V3377.69L1500.44 3348.36L1554.98 3348.36L1554.98 3624.42M351.448 4409.03L475.352 4283.17H533.526L605.848 4210.77M351.448 4409.03L351.448 4283.17L377.676 4257.68H416.177L462.677 4210.77H605.848M351.448 4409.03L427.391 4333.09M718.676 4439.73V4391.33M718.676 4391.33L784.677 4325.53M718.676 4391.33L777.09 4333.09L784.677 4325.53M784.677 4325.53V4283.17L723.086 4217.91M723.086 4217.91L753.38 4187.88H900.677M784.677 4439.73L850.677 4371.89H876.177L912.177 4333.09L1046.18 4333.09L1123.18 4408.6M1243.18 4442L1144.68 4342.83M1144.68 4342.83V4313.77L1088.68 4258.19L972.479 4258.19L900.677 4187.88M1144.68 4342.83V4333.09M1969.18 4442L1865.5 4340.65M1865.5 4340.65L1865.49 4305.11M1865.5 4340.65L1865.49 4333.09V4305.11M1865.49 4305.11L1819.18 4260.74L1762.75 4260.74L1707.18 4204.66L1646.4 4204.66L1573.87 4277.12M1573.87 4277.12L1523.25 4277.12L1496.8 4305.11L1375.92 4305.11L1313.22 4243.09V4184.26M1638.68 4119.51C1672.34 4120.36 1740.48 4121.55 1743.68 4119.51C1746.88 4117.47 1771.34 4092.64 1783.18 4080.48H1833.18L1875.32 4119.51L1930.47 4119.51M1930.47 4119.51V4145.52L1985.62 4198.47L1985.62 4085.77L1927.45 4029.05H1720.44L1528.54 3836.19V3762.83L1548.18 3743.16V3690.22L1569.33 3712.15L1569.33 3803.67L1648.66 3883.84L1648.66 3924.68L1732.52 4007.87L1927.45 4007.87L1985.62 4065.35L1985.62 3967.79L1953.89 3935.27L1888.16 3935.27L1875.32 3948.88H1851.14L1825.45 3923.17V3894.43L1942.56 3777.2L1942.56 3757.53L1985.62 3714.42V3569.21L1750.66 3803.67H1690.22L1554.98 3669.04L1554.98 3624.42M1930.47 4119.51L1930.47 4080.48L1888.16 4039.64L1646.4 4039.64L1573.87 3966.28V3895.18L1507.38 3827.11H1468.1L1402.37 3892.91L1402.37 3939.8L1420.5 3957.2V4039.64L1313.22 4144.77L1313.22 4184.26M1480.18 3869.16L1528.54 3915.05L1528.54 4119.51L1499.68 4144.77L1464.18 4144.77L1440.68 4119.51H1420.5L1352.18 4184.26H1313.22M1879.68 3910.97L1931.68 3859.47V3831.43L1985.62 3777.2M1713.18 3762.09H1747.68L1806.68 3702.43V3631.05L1868.68 3569.21L1898.68 3569.21L1994.68 3471.97M1554.98 3624.42L1599.68 3669.04H1636.18L1651.68 3686.63H1689.46L1735.18 3645.33L1737.58 3570.86M1737.58 3570.86L1689.46 3618.37H1639.6L1592 3572.99C1591.75 3500.38 1592 3348.36 1592 3348.36L1610.17 3330.19H1613.99H1820.99L1860.49 3330.19L1885.66 3348.36L1799.77 3434.26V3509.46L1737.58 3570.86ZM1498.8 4610.71L1366.02 4740.52L1366.02 4712.65L1526.4 4554.24L1526.4 4530.04L1504.77 4507.31L1320.52 4507.31L1320.52 4590.91L1348.12 4618.04V4675.98L1300.46 4722.39M1498.8 4610.71C1519.68 4610.71 1561.9 4610.71 1563.69 4610.71M1498.8 4610.71L1563.69 4610.71M1563.69 4610.71C1565.48 4610.71 1633.56 4541.78 1667.38 4507.31L1697.21 4507.31L1667.38 4537.07M1742.68 5232.63L1736 5239.2L1713.62 5239.2L1653.95 5179.06L1653.95 5131.4H1682.3L1728.43 5084.78M1742.68 5232.63L1763.6 5212.07H1790.45L1823.28 5179.06V5130.66L1850.13 5105.73L1923.23 5104.26L1965 5149V5387.34L1942.62 5363.87L1872.51 5363.87L1859.08 5377.07H1786.72L1736.75 5424.74V5470.21L1778.52 5468.74L1872.51 5377.07L1930.69 5377.07L1965 5410.81L1965 5425.47L1964.26 5424.74L1924.72 5387.34H1882.2L1773.3 5492.94L1736.75 5492.94L1709.89 5468.74L1709.89 5424.74L1627.84 5345.54L1454.88 5345.54M1742.68 5232.63L1723.92 5215.3V5138.18L1744.66 5115.93L1744.66 5100.11L1728.43 5084.78M1728.43 5084.78L1736 5077.13L1736 5052.19L1753.77 5034.35M1753.77 5034.35L1806.87 4981.06L1837.45 4981.06L1852.37 4967.86L1965 4967.86L1965 4953.92L1806.87 4953.92L1637.54 5118.93L1637.54 5176.86L1523 5290.04M1753.77 5034.35L1873.5 5034.35L1910.52 4998.26H1933.23L1965 5030.4M1965 5481.78L1943.6 5457.06H1925.33L1916.45 5445.19L1888.31 5445.19L1825.12 5507.49L1825.12 5566.32H1738.24L1702.2 5530.72H1679L1639.51 5490.68V5457.06L1580.76 5397.24L1539.79 5397.24M1327.02 5585.11L1383.3 5531.71H1409.46L1454.88 5490.68L1454.88 5345.54M1454.88 5345.54L1349.61 5345.54L1307.1 5388.81V5470.21L1212.36 5564.08L1181.78 5564.08L1226.92 5519.35M1965 4841.05H1824.63L1790.07 4810.89L1717.5 4810.89L1610.87 4917.18L1610.87 5034.35L1523 5118.93L1523 5290.04M1523 5290.04L1489.85 5322.8L1338.42 5324.27L1278 5382.94L1276.51 5470.21L1226.92 5519.35M1452.91 5056.11L1374.41 5127.3L1374.41 5215.3L1340.35 5245.46L1218.42 5245.46L1173 5287.48V5474.36L1226.92 5519.35M833.368 5474.36L954.808 5353.24L954.807 5019.52L1039.72 4931.03L1039.72 4895.25L1067.65 4867.74H1222.37L1309.25 4781.58M1309.25 4781.58L1363.04 4781.58L1416.21 4729.31M1309.25 4781.58H1067.65L844.622 5002.32L844.622 5324.27L783.456 5382.94L649.936 5382.94L561.916 5456.61L561.916 5469.47L584.501 5492.06H608.001M1667.38 4537.07L1545.05 4659.11L1487.61 4659.11L1416.21 4729.31M1667.38 4537.07L1667.38 4659.11L1641.48 4683.83L1603.47 4683.83L1557.56 4729.31H1416.21M1304.81 4507.31L1304.81 4554.24L1239.65 4618.04L1239.65 4659.11L1300.46 4722.39M1300.46 4722.39L1270.55 4751.52L1125.12 4751.52M1239.65 4507.31L1174.48 4573.09L1149.31 4573.09L1113.76 4610.71H981.465L905.442 4537.49M786.965 4505.11L884.215 4601.27L884.215 4629.45L939.504 4683.34H1054.23L1125.12 4751.52M1125.12 4751.52L1054.23 4751.52L1013.2 4709.71H896.091L767.001 4709.71L763.122 4709.71L717.815 4755.02M328.853 4735.25H388.862L407.001 4717.11L460.471 4717.11L513.001 4664.58M396.484 4817.81C363.244 4816.99 295.975 4815.83 292.816 4817.81C289.657 4819.79 265.501 4843.86 253.817 4855.65H204.452L162.846 4817.81L108.394 4817.81M108.394 4817.81V4792.58L53.9412 4741.25L53.9416 4850.52L111.378 4905.52L315.761 4905.52L505.226 5092.53L505.226 5163.66L485.832 5182.73L485.832 5234.07L464.946 5212.8V5124.06L386.624 5046.33V5006.72L303.826 4926.06L111.378 4926.06L53.9414 4870.32V4964.92L85.2702 4996.46H150.166L162.847 4983.26H186.716L212.077 5008.19L212.077 5036.06L96.459 5149.73L96.4591 5168.8L53.9416 5210.6L53.9414 5351.4L285.924 5124.06L345.598 5124.06L479.119 5254.6L479.119 5297.86M108.394 4817.81L108.394 4855.65L150.166 4895.25L388.862 4895.25L460.471 4966.39V5035.33L526.112 5101.33H564.9L629.796 5037.53V4992.06L611.893 4975.19V4895.25L717.815 4793.32V4755.02M552.972 5060.56L505.226 5016.06V4817.81L533.72 4793.32H568.769L591.971 4817.81L611.893 4817.81L679.348 4755.02L717.815 4755.02M158.542 5020.02L107.202 5069.95L107.202 5097.14L53.9414 5149.73M322.929 5164.38L288.867 5164.38L230.616 5222.22V5291.44L169.402 5351.4L139.783 5351.4L45.0011 5445.69M479.119 5297.86L434.989 5254.6H398.952L383.649 5237.55L346.344 5237.55L301.208 5277.59L298.84 5349.8M479.119 5297.86L479.119 5559.11M298.84 5349.8L346.344 5303.74H395.575L442.568 5347.74C442.735 5394.88 442.626 5484.77 442.568 5559.11L408.021 5599.11L397.521 5609.61L269.002 5609.61H204.452L170.829 5575.98V5559.11L237.439 5492.5V5485.61V5409.34L298.84 5349.8ZM646.048 5530.11L627.501 5511.56L608.001 5492.06M646.048 5530.11V5549.11L661.001 5564.06H686.001L695.501 5577.61V5584.11L654.619 5624.99L621.554 5658.05L622 5658.5L642.001 5678.5H669L721 5730.5H735.5L767.5 5762.5L834 5762.5L842.304 5770.8M646.048 5530.11L608.001 5492.06M661.001 5474.36L686.001 5499.36L718.351 5531.71L754.001 5531.71L774.154 5511.56L812.001 5511.56L874.002 5573.56H971.002L990.001 5592.56V5621.61L1029 5660.61M1029 5660.61V5692.11L1007.5 5713.61C993.001 5731.11 962.201 5766.11 955.001 5766.11C947.801 5766.11 880.001 5766.11 847.001 5766.11L842.304 5770.8M1029 5660.61H1074.5L1106 5692.11H1173L1221.5 5643.61M799.001 5814.11L842.304 5770.8M479.119 5569.11V5587.11V5609.61M479.119 5569.11V5609.61M479.119 5569.11L479.119 5559.11M479.119 5609.61L494.501 5624.99L521.119 5651.61L521.119 5665.61L494.501 5692.22M479.119 5559.11L493.572 5573.56H521.119L572.548 5624.99H613.501L617.909 5629.4L563.806 5683.5H563.5H538.5H517L497.5 5703L461 5739.5L475.5 5739.5L493 5722H534H615L655.5 5762.5H687.5L793.5 5868.5V5961.5L933 6101L1171 6101M1171 6101L1245.5 6026.5H1436.5L1540.5 6130.5L1876.5 6130.5L1982 6236L1982 5739.67L1945.04 5739.67L1876.5 5808.22H1792.72L1715 5730.5H1592L1540.5 5782H1505.5L1467.5 5744L1398.5 5744L1210.5 5932L1134.5 5932L1102 5899.5H1041.5L1017 5875L1006.5 5864.5H990.999L982 5873.5L957 5873L910 5826H897.5L842.304 5770.8M1171 6101L1089.5 6176.49H1042.5L1025.5 6159.49H972.5L951.75 6180.24L931 6200.99M1965 6992.49H1882L1826.37 7048.12H1793L1755.99 7011.11H1698L1647.5 6960.61V6907.49L1575 6834.99M776.5 6772.49H886.5L930.5 6816.49H972.5L989.5 6799.49M989.5 6799.49L999.5 6799.49L1023.5 6775.49L1023.5 6765.49L989.5 6799.49ZM1488.5 5738.49L1349.5 5738.49L1300 5787.99L1300 5811.99L1267.5 5844.49L1243.5 5844.49L1239.5 5848.49H995L974 5827.49L939.5 5792.99H906.5L872 5758.49V5719.49M1055.19 5698.18L1113.31 5698.18L1122 5689.49H1146.31L1155 5698.18H1183L1236.69 5644.49L1249.19 5631.99H1293L1300 5624.99M1295 7188.99L1180 7188.99L1120.5 7181.37L1079 7160.07L960.002 7163.94M960.002 7163.94V7132.44L981.502 7110.94C996.002 7093.44 1026.8 7058.44 1034 7058.44L1142 7058.44L1190 7010.44M960.002 7163.94H914.502L883.002 7132.44L816 7132.44L767.5 7180.94M48.0004 6587.49L70.5004 6609.99H150.5L173 6587.49H199.75M226.5 6587.49H199.75M150.5 6359.49L216.63 6293.36M216.63 6293.36L216.63 6210.49L186.38 6180.24V6120.99L276 6031.37M216.63 6293.36H240.5L276 6328.86L350 6328.86L388 6366.86M199.75 6587.49L221.5 6565.74V6519.99L261.5 6479.99M448.854 9433.67L507.028 9433.67L579.35 9361.27M1544.59 8478.65H1490.05L1460.73 8507.98V8577.73L1371.58 8666.97H1236.34L1174.39 8727.48L1174.39 9059.5L948.49 9287.16L703.787 9287.15M1544.59 8478.65L1499.56 8693.47M1544.59 8478.65L1504.16 8671.5L1499.56 8693.47M1975.23 9195.64L1975.23 9098.08L1943.5 9065.55L1877.77 9065.55L1864.93 9079.17H1840.75L1815.06 9053.45V9024.71L1932.17 8907.48V8887.82L1975.23 8844.71V8699.5L1740.27 8933.95L1679.83 8933.95L1544.59 8799.33H1517.5L1497.29 8819.54H1417L1371.58 8864.97M1975.23 9216.06V9328.75M1975.23 9328.75L1975.23 9491.15L1877.77 9411.24L1806.68 9328.75H1736.25H1598.5H1457.5L1336.5 9250.5L1328.5 9193L1349.42 9183.5H1374L1393.1 9195.43L1425 9218.51L1502.04 9270.01H1612.18C1645.84 9270.86 1713.98 9272.05 1717.18 9270.01C1720.38 9267.97 1744.84 9243.14 1756.68 9230.98L1806.68 9230.98L1858 9260H1905.18L1920.08 9275.81L1951 9308.5L1975.23 9328.75ZM1246.5 9079.17L1286.72 9334.76V9393.59L1349.42 9455.61L1470.31 9455.61L1496.75 9427.62H1547.37M1246.5 9079.17L1256 8785.63H1328.5L1411.47 8781.55L1499.56 8693.47M1246.5 9079.17L1169.68 9153.25L1062.18 9250.5M1394 9509L1262.99 9443L1062.18 9250.5M1062.18 9250.5L1000 9287.15L962.09 9318.16L890.287 9318.16M742.991 9318.16L696.587 9368.41M742.991 9318.16L890.287 9318.16M742.991 9318.16L703.787 9287.15M648.309 9416.28L696.587 9368.41M630.176 9378.46V9349.72M248.678 8842.2L255.442 8835.43H278.108L338.549 8897.44V8946.6H309.839L263.114 8994.68M248.678 8842.2L227.488 8863.41H200.29L167.047 8897.44L167.047 8947.36L139.849 8973.08L65.8086 8974.59L23.5002 8928.45L23.4999 8682.65L46.1656 8706.85H117.184L130.783 8693.24L204.067 8693.24L254.687 8644.08L254.687 8597.18L212.378 8598.7L117.184 8693.24H58.2534L23.5002 8658.45L23.4999 8643.32L24.2557 8644.08L64.2973 8682.65H107.362L217.667 8573.74H254.687L281.885 8598.7L281.885 8644.08L364.992 8725.76H540.178M248.678 8842.2L267.678 8860.07V8939.61L246.678 8962.56V8978.87L263.114 8994.68M263.114 8994.68L255.442 9002.57V9028.29L237.443 9046.68M237.443 9046.68L183.669 9101.65H152.693L137.582 9115.26H23.4999V9129.63H183.669L355.17 8959.46V8899.71L471.178 8782.99M237.443 9046.68H116.178L78.678 9083.9L55.6781 9083.91L23.4999 9050.76M23.4999 8585.25L45.1782 8610.75L63.6779 8610.75L72.6783 8622.98H101.178L165.178 8558.74V8498.06H253.178L289.678 8534.77L313.178 8534.78L353.178 8576.07V8610.75L412.678 8672.44L454.178 8672.44M540.178 8725.76H646.798L689.862 8681.14V8597.18L785.812 8500.38H816.788L771.071 8546.5M540.178 8725.76V8576.07L586.178 8533.76H612.678L669.678 8478.69H713.489L779.678 8412.5H907.489M23.5002 9246.04H165.678L200.678 9277.15L274.178 9277.15L382.178 9167.52V9046.68L471.178 8959.46L471.178 8782.99M471.178 8782.99L504.762 8749.2L658.131 8747.69L719.327 8687.19L720.838 8597.18L771.071 8546.5M542.178 9024.25L621.678 8950.83V8860.07L656.178 8828.97H779.678L825.678 8785.63V8592.9L771.071 8546.5M1169.68 8592.9L1046.68 8717.82V9061.98L960.678 9153.25L960.678 9190.14L932.382 9218.51H775.678L703.787 9287.15M703.787 9287.15L633.199 9307.37L579.35 9361.27M324.95 9433.67L351.178 9408.18L389.678 9408.18L436.178 9361.27L579.35 9361.27M758.178 9476.03V9433.67L696.587 9368.41M758.178 9590.23L824.178 9522.39H849.678L885.678 9483.59H1019.68L1096.68 9559.1M1216.68 9592.5L1118.18 9493.33V9464.27L1062.18 9408.69L945.981 9408.69L890.287 9318.16M1942.68 9592.5L1839 9491.15V9455.61L1792.68 9411.24H1736.25L1680.68 9355.16H1619.9L1547.37 9427.62M1547.37 9427.62H1638.79V9433.67V9476.03L1567.49 9493.33M1853.18 9061.47L1905.18 9009.97L1905.18 8981.93L1959.12 8927.7M1686.68 8912.59L1721.18 8912.59L1780.18 8852.93V8781.55L1842.18 8719.71H1872.18L1968.18 8622.47M1583.68 8795.83L1609.68 8819.54L1625.18 8837.13H1662.96L1708.68 8795.83L1711.08 8721.36M1711.08 8721.36L1662.96 8768.87L1613.1 8768.87L1565.5 8723.49C1565.25 8650.88 1565.5 8498.86 1565.5 8498.86L1583.68 8480.69L1587.49 8480.69H1794.49H1833.99L1859.16 8498.86L1773.27 8584.76L1773.27 8659.96L1711.08 8721.36ZM1392.5 2355.66L1350 2398.16L1350 2479.05L1266.5 2562.55L1006 2562.55L941.116 2497.66L751.998 2497.66L728.998 2520.66L728.998 2555.16L860.998 2687.16L984.498 2687.16L1052.5 2619.16H1156L1224 2687.16H1288L1350 2625.16V2582.66L1377.5 2555.16L1472.5 2555.16L1539.5 2633.66L1683 2633.66L1761.5 2555.16L1761.5 2456.66L1703 2398.16L1626.5 2398.16L1546.5 2318.16L1466.5 2318.16L1430 2318.16L1392.5 2355.66ZM2000 2836.66L1888 2724.66V2661.66L1916 2633.66H1928.5L1982 2687.16H2007L2000 2836.66ZM622.5 7134.49L665 7091.99L665 7011.11L748.5 6927.61L1009 6927.61L1073.88 6992.49H1263L1286 6969.49L1286 6934.99L1154 6802.99H1030.5L962.5 6870.99H859L791 6802.99H727L665 6864.99V6907.49L637.5 6934.99H542.5L475.5 6856.49H332L253.5 6934.99V7033.49L312 7091.99H388.5L468.5 7171.99H548.5L585 7171.99L622.5 7134.49ZM1204.5 6200.99L1157.5 6200.99L1112 6246.49V6321.49L1062.5 6370.99H960.5L899 6432.49L899 6479.99L859 6519.99V6591.49L935 6667.49H1246L1322 6591.49L1366 6591.49L1442 6667.49L1497.19 6667.49L1554.69 6609.99L1645.38 6700.68H1730L1820.69 6609.99V6535.11L1893.81 6461.99V6400.99L1800 6307.18L1684.81 6307.18L1580.5 6411.49L1501.5 6411.49L1452 6361.99H1362.5L1322 6321.49L1267 6266.49V6260.49V6249.49V6217.49L1250.5 6200.99L1204.5 6200.99ZM9.99996 6384.49L122 6496.49V6559.49L93.9996 6587.49H81.5003L28.0001 6533.99H3.00001L9.99996 6384.49ZM36.4999 6316.21L5.50009 6293.36V6013.1C19.0758 6013.11 31.1991 6013.13 41.1738 6013.16L70.0001 6041.99L100.933 6041.99L129.5 6013.42L129.5 5987.49L156.5 5960.49H178.5L208.5 5990.49V6041.99L116 6134.49V6182.99L143.5 6210.49V6242.71L113.218 6272.99L70.0001 6316.21L36.4999 6316.21ZM5.50009 5894.07V5976.87H38.0001L64.5003 5950.37L87.3826 5927.49H131.5L150 5908.99H189.5L230.882 5950.37V5940.99V5930.99L186.383 5886.49H154L143.5 5875.99L143.5 5861.99L127 5845.49L107.5 5825.99H87.3826L55.5003 5794.11V5770.49L45.5003 5760.49L18.0001 5760.49L5.50009 5747.99V5752.99V5894.07ZM683.999 8165.5L540 8165.5L527.5 8153L517.5 8153L503.5 8167H489.5L482 8174.5L482 8180L495 8193L495 8225L503.5 8233.5V8275L479 8299.5V8311L498 8330L498 8363L505.5 8370.5L522.5 8370.5L530 8363L551 8363L585 8397L589.5 8397L596.5 8390L611.5 8390L621 8380.5H677.999L701.5 8357H711.5L717 8351.5V8334L734 8317L734 8307L729.499 8302.5L729.5 8282L757 8254.5V8243L769.5 8230.5H798L824 8204.5L824 8175L837.5 8161.5H870.5H877L893.5 8178L911.5 8178L916.5 8173V8161.5L924.5 8153.5L944 8153.5L949.499 8148H960L975 8133L998 8133L1023 8158L1026.5 8161.5V8175L1085.5 8234L1108.5 8234L1147 8272.5H1156L1164 8280.5V8289.5L1171.5 8297V8311.5L1164 8319V8339.5L1179 8324.5V8314.5L1188 8305.5L1195 8305.5L1199.5 8301L1199.5 8293.5L1186.5 8280.5V8269L1192 8263.5H1208.5L1224 8279L1230 8279L1233.5 8275.5L1233.5 8271L1201.5 8239H1192L1173.5 8220.5L1151 8220.5L1113 8182.5V8163.5L1077.5 8128V8104.5L1092.5 8089.5H1110.5L1201.5 8180.5H1215L1260 8225.5V8263.5L1286 8289.5L1299.5 8303L1299.5 8319H1310.5L1315 8314.5L1326.5 8314.5L1339.5 8327.5V8335L1335 8339.5H1308.5L1305.5 8342.5V8346.5L1315 8356V8369L1320.5 8374.5H1335L1347.5 8387H1354L1356.5 8384.5V8381L1341.5 8366L1341.5 8361L1345.5 8357L1366 8357L1368.5 8354.5L1368.5 8350.5L1366.5 8348.5H1352L1349 8345.5L1349 8342L1352.5 8338.5H1365.5L1384 8338.5L1389 8333.5V8324L1377 8312H1352.5L1348.5 8308L1348.5 8302L1356.5 8294L1335 8272.5L1335 8263.5L1344 8254.5L1350.5 8254.5L1364 8268H1374L1378.5 8263.5V8251.5L1387.5 8242.5H1439L1450.5 8231L1450.5 8211.5L1454.5 8207.5H1483.5L1486 8205V8200L1476.5 8190.5V8180.5L1505 8152V8133L1520.5 8117.5H1531.5L1535.5 8113.5V8092L1564.5 8063V8053L1572.5 8045H1601.5L1609.5 8045L1614.5 8040L1624 8040L1629.5 8034.5H1639L1648 8043.5L1651 8046.5H1655.5L1657.5 8044.5H1661L1664.5 8048H1671.5L1674.5 8051H1679.5L1684 8046.5H1692.5H1696.5L1698 8045H1701.5L1703 8043.5H1718.5L1737.5 8024.5H1751.5L1767 8009L1775 8001H1801L1805 8005H1810.5L1816 7999.5V7993.5L1807.5 7985L1807.5 7979L1812 7974.5L1812 7969.5L1807.5 7965L1807.5 7961L1812 7956.5V7952L1807.5 7947.5H1762L1739.5 7925L1735.5 7925L1729 7931.5H1716.5L1707.5 7922.5H1694L1689.5 7918V7907.5L1677 7895H1663.5L1653 7884.5V7857.5L1647 7851.5H1612L1604 7859.5H1591.5L1582 7850L1582 7819L1586 7815L1591.5 7815L1596.5 7820L1604 7820L1613 7811L1613 7805.5L1568.5 7761L1568.5 7731.5L1556.5 7719.5L1539.5 7719.5L1536 7723H1528L1518.5 7713.5H1510H1502L1496.5 7708L1496.5 7690.5L1482.5 7676.5V7660L1473 7650.5L1473 7643L1482.5 7633.5V7628L1474.5 7620V7599L1490.5 7583V7576H1465.5L1460.5 7571L1401 7571L1388 7584H1369L1365 7588V7592.5L1370.5 7598L1370.5 7609L1379.5 7618H1393.5L1399 7623.5L1399 7628L1393.5 7633.5L1393.5 7660L1383.5 7670H1363.5L1340 7646.5L1331 7646.5L1314 7663.5V7672.5L1301 7685.5V7698.5L1306.5 7704V7723L1296.5 7733L1296.5 7738.5L1299 7741H1318L1324 7747H1342.5L1352.5 7757L1352.5 7773.5L1349 7777H1284L1273.5 7766.5H1260L1252 7774.5H1242L1234 7766.5V7757L1230 7753H1201.5L1174 7780.5L1139 7780.5L1130 7789.5L1124.5 7789.5L1118.5 7783.5L1103 7783.5L1103 7777L1098 7772H1079L1058.5 7792.5H1044.5L1037.5 7785.5L1037.5 7777L1032.5 7772H1014L1009.5 7767.5V7755L1002.5 7748V7743L1005 7740.5H1008L1017 7749.5H1029.5L1032.5 7746.5V7736L1027.5 7731H1014L1010.5 7727.5L1010.5 7721L1027.5 7704H1032.5L1035 7701.5V7697.5L1021 7683.5V7670.5L1026.5 7665V7649.5L1022 7645H1012.5L992.5 7665H977L961.499 7680.5V7722L975.5 7736V7752.5L984 7761L984.001 7780L994.5 7790.5V7801.5L992 7804H980L975.5 7808.5H964L957 7801.5L938.5 7801.5V7815L935 7818.5H925.5L919.5 7812.5H897.499L888 7822V7829.5L892 7833.5V7840H879L872.5 7833.5L866.5 7833.5L863.5 7836.5L863.5 7845.5L854 7855V7868.5L833.499 7889L818 7904.5H791L785.5 7910L785.5 7928.5L774.5 7939.5H750L740.5 7949V7960L735 7965.5H719.5L701 7947H691L686.5 7951.5V7958L695.5 7967V7981L688 7988.5L678 7988.5H657L649.5 7981H638.999L634.5 7985.5L613.5 7985.5L608 7991L608 7996L612 8000V8009.5L618 8015.5H636.5L648 8027H672.5L683 8037.5V8053L693 8063H705.5L712.5 8070V8114L705.5 8121V8159L694.5 8170L688.5 8170L683.999 8165.5ZM1609.5 8053L1614.5 8049L1618 8045.5L1635.5 8045.5L1637 8047L1649.5 8059.5L1666 8059.5L1668 8061.5V8065.5L1662.5 8071L1657.5 8076H1647L1624 8099L1614 8099V8092L1615.5 8090.5V8075L1612 8071.5H1599.5L1596 8068L1590.5 8068L1589.5 8067V8064.5L1598.5 8055.5H1607L1609.5 8053ZM1527.5 7201L1528 7201.5L1535.5 7206.5L1544 7225L1521 7248L1521 7256L1551.5 7286.5V7303L1535.5 7319L1535.5 7325L1539.5 7329V7334L1535.5 7338L1535.5 7343.5L1542.5 7350.5V7362L1554.5 7374L1554.5 7380L1544 7390.5L1544 7398.5L1576 7430.5V7442.5L1550 7468.5L1490.5 7528H1454L1434 7548H1349L1335.5 7534.5H1318.5L1308 7524V7514.5L1321.5 7501L1321.5 7482L1311.5 7472V7454.5L1299.5 7442.5V7430.5L1314.5 7415.5H1335.5L1340 7411V7398.5L1360 7378.5H1373L1399 7352.5L1399 7343.5L1407 7335.5L1417 7335.5L1423.5 7329L1423.5 7314L1407 7297.5L1393 7293.5L1377.5 7281L1384.5 7272.5V7243L1375 7225L1370.5 7206.5L1388 7194.5L1454 7201L1527.5 7201ZM1257.5 7209L1208 7194.5L1196 7206.5L1184 7218.5V7228L1176.5 7235.5V7256L1160 7272.5L1149.5 7272.5L1135.5 7286.5L1135.5 7319L1123.5 7331V7357.5L1129 7363L1129 7373L1123.5 7378.5H1110L1084 7404.5L1084 7451.5L1088 7455.5L1088 7475.5L1099.5 7487V7570.5L1138 7609L1210.5 7609L1225 7594.5L1225 7541L1214 7530H1202.5L1199 7526.5V7489L1211.5 7476.5L1211.5 7442.5L1241 7413H1245.5L1280 7378.5H1296.5L1314.5 7360.5L1314.5 7352.5L1306 7344V7336L1315.5 7326.5V7317.5L1326 7307L1332.5 7307L1338 7301.5V7292.5L1341 7289.5H1355L1376.5 7268L1376.5 7252L1369 7229L1369 7222L1366.5 7219.5V7212.5L1363 7209H1257.5ZM1187.5 7201H1166H1154.5L1120 7235.5H1114L1110 7239.5V7246L1092 7264L1092 7268.5L1081 7279.5V7285L1071.5 7294.5L1071.5 7303L1042 7332.5V7339L1048 7345L1040.5 7352.5H1019.5C1012.5 7359.33 998.6 7373 999 7373C999.4 7373 992.833 7379.33 989.5 7382.5V7385.5L993.5 7389.5L990.5 7392.5L984 7392.5L978 7386.5L957.5 7386.5L939 7405V7416L934 7421H908.5L906 7423.5V7426L892.5 7439.5L892.499 7443H887.5L875.5 7455V7458.5L878.5 7461.5V7471.5V7478L870 7486.5L870 7506L875.5 7511.5H887.5L888.5 7510.5H910.5L934 7534H941L960 7553H1006L1006 7545.5L1020.5 7531L1026 7531L1040.5 7545.5H1044.5L1048 7542V7531L1077 7502L1077 7497.5L1079.5 7495V7487.5L1068.5 7476.5L1068.5 7470.5L1062.5 7464.5V7448L1058 7443.5L1058 7435.5L1053 7430.5V7395L1081.5 7366.5L1086.5 7366.5L1094 7359L1094 7349.5L1099.5 7344V7336.5L1107 7329V7323L1119 7311V7277.5L1140 7256.5H1148.5L1157 7248H1162L1169 7241L1187.5 7201ZM520.829 7757.84L525.171 7749.16C525.679 7748.14 526.718 7747.5 527.854 7747.5L534.302 7747.5C535.355 7747.5 536.332 7748.05 536.874 7748.96L543.551 7760.08C544.365 7761.44 546.095 7761.93 547.502 7761.21L571.244 7748.93C572.751 7748.15 573.312 7746.27 572.482 7744.79L563.009 7727.91C562.679 7727.32 562.161 7726.86 561.539 7726.6L548.551 7721.23C548.187 7721.08 547.798 7721 547.404 7721H531.637C530.904 7721 530.197 7721.27 529.649 7721.75L517.875 7732.17C517.627 7732.39 517.417 7732.65 517.253 7732.93L507.767 7749.65C507.286 7750.5 507.247 7751.52 507.662 7752.41L510.189 7757.78C510.684 7758.83 511.742 7759.5 512.904 7759.5L518.146 7759.5C519.283 7759.5 520.321 7758.86 520.829 7757.84ZM532.351 7761.1L544.122 7771.24C544.687 7771.73 545.05 7772.41 545.141 7773.15L548 7796.5L548 7811.49C548 7811.83 548.057 7812.16 548.169 7812.48L551.09 7820.83C551.352 7821.58 551.306 7822.4 550.961 7823.12L545.818 7833.8C545.318 7834.84 544.267 7835.5 543.115 7835.5L526.346 7835.5C526.116 7835.5 525.887 7835.47 525.664 7835.42L512.582 7832.37C511.595 7832.14 510.559 7832.42 509.826 7833.12L499.827 7842.69C499.61 7842.89 499.363 7843.07 499.095 7843.2L488.134 7848.68C487.717 7848.89 487.258 7849 486.792 7849L467.297 7849C467.1 7849 466.902 7848.98 466.709 7848.94L453.339 7846.27C452.488 7846.1 451.753 7845.57 451.323 7844.81L447.082 7837.39C446.437 7836.26 446.592 7834.85 447.467 7833.89L456 7824.5L462.292 7816.76C462.43 7816.59 462.549 7816.4 462.647 7816.2L466.729 7808.04C466.908 7807.68 467.156 7807.37 467.46 7807.11L469.452 7805.4C470.117 7804.83 470.5 7804 470.5 7803.12L470.5 7794.22C470.5 7793.15 469.936 7792.17 469.018 7791.63L457.483 7784.87C456.564 7784.33 456 7783.35 456 7782.28L456 7772.47C456 7772.16 455.952 7771.85 455.857 7771.55L452.991 7762.6C452.457 7760.93 453.461 7759.16 455.167 7758.76L465.376 7756.38C466.386 7756.14 467.446 7756.45 468.179 7757.18L469.163 7758.16C469.98 7758.98 471.194 7759.26 472.283 7758.87L486.496 7753.85C487.146 7753.63 487.855 7753.63 488.503 7753.86L493.807 7755.75C494.262 7755.91 494.671 7756.18 495 7756.54L506.11 7768.54C506.678 7769.15 507.475 7769.5 508.311 7769.5L516.48 7769.5C517.141 7769.5 517.784 7769.28 518.309 7768.88L528.563 7760.99C529.691 7760.12 531.273 7760.17 532.351 7761.1ZM638 7689.5L638 7683.57C638 7682.59 638.48 7681.67 639.287 7681.1L648.712 7674.55C649.224 7674.19 649.612 7673.68 649.823 7673.1L665.151 7630.27C665.825 7628.38 664.501 7626.38 662.504 7626.26L624.959 7624.03C624.655 7624.01 624.349 7624.04 624.053 7624.11L616.215 7626.07C615.156 7626.34 614.038 7626 613.294 7625.21L608.922 7620.52C608.067 7619.61 607.872 7618.26 608.433 7617.13L610.255 7613.49C610.417 7613.17 610.636 7612.87 610.903 7612.63L629.482 7595.48C629.823 7595.16 630.086 7594.77 630.251 7594.34L633.726 7585.22C634.838 7582.3 631.306 7579.84 628.952 7581.89L619.347 7590.26C618.801 7590.74 618.101 7591 617.376 7591L592.11 7591C591.394 7591 590.701 7591.26 590.157 7591.72L581.548 7599.1C580.883 7599.67 580.5 7600.5 580.5 7601.38L580.5 7611.91C580.5 7612.62 580.254 7613.29 579.805 7613.83L575.5 7619L567.007 7629.73C566.379 7630.52 566.193 7631.58 566.513 7632.54L568.675 7639.02C568.886 7639.66 568.879 7640.34 568.657 7640.97L566.204 7647.92C566.07 7648.3 565.859 7648.65 565.586 7648.95L555.788 7659.64C555.281 7660.19 555 7660.92 555 7661.67V7664.7C555 7665.81 555.608 7666.83 556.583 7667.35L567.417 7673.15C568.392 7673.67 569 7674.69 569 7675.8V7684.58C569 7684.86 568.961 7685.14 568.885 7685.4L566.44 7693.96C566.165 7694.92 566.388 7695.96 567.035 7696.72L570.601 7700.94C571.171 7701.61 572.009 7702 572.891 7702L578.646 7702C579.782 7702 580.821 7701.36 581.329 7700.34L586.783 7689.44C586.927 7689.15 587.116 7688.88 587.344 7688.66L589 7687C590.123 7685.88 591.927 7685.82 593.114 7686.88L594.493 7688.1C595.133 7688.67 595.5 7689.49 595.5 7690.35L595.5 7701.37C595.5 7701.79 595.586 7702.2 595.752 7702.57L598.274 7708.34C598.721 7709.36 598.564 7710.54 597.867 7711.41L591 7720L584.854 7727.02C583.156 7728.96 584.534 7732 587.112 7732L615.5 7732C617.157 7732 618.5 7730.66 618.5 7729V7727.5C618.5 7725.84 619.843 7724.5 621.5 7724.5H629.244C629.74 7724.5 630.227 7724.37 630.672 7724.15C632.896 7723.06 636.084 7721.97 635 7724.5C633.88 7727.11 631.511 7733.71 630.252 7737.28C630.086 7737.75 629.807 7738.18 629.438 7738.51L627.343 7740.41C625.899 7741.73 626.073 7744.05 627.697 7745.13L634.121 7749.41C634.69 7749.79 635.112 7750.36 635.318 7751.01L638 7759.5L640.262 7765.83C640.419 7766.27 640.471 7766.74 640.414 7767.2L638.036 7786.7C638.012 7786.9 637.968 7787.1 637.905 7787.29L635.684 7793.95C635.276 7795.17 634.129 7796 632.838 7796L624.5 7796L611.774 7796C610.98 7796 610.242 7795.59 609.816 7794.93C608.735 7793.23 606.15 7793.62 605.62 7795.56L604.132 7801.02C604.044 7801.34 603.905 7801.64 603.719 7801.91L598.687 7809.31C597.333 7811.3 598.759 7814 601.168 7814L609.722 7814C610.232 7814 610.735 7814.13 611.171 7814.39C614.184 7816.22 618.343 7819.77 615 7822C611.952 7824.03 610.84 7826.92 610.57 7828.67C610.488 7829.21 610.36 7829.75 609.988 7830.15C609.08 7831.12 607.166 7832.55 604 7833.5C600.034 7834.69 591.153 7842.53 587.103 7846.4C587.035 7846.47 586.948 7846.5 586.853 7846.5C586.424 7846.5 586.345 7847.11 586.761 7847.22L595.065 7849.39C595.349 7849.46 595.648 7849.45 595.924 7849.35L602.343 7847.08C603.152 7846.8 604 7847.4 604 7848.26C604 7848.94 604.557 7849.5 605.243 7849.5L610.5 7849.5L613.639 7849.5C614.504 7849.5 615.327 7849.87 615.896 7850.52L617.604 7852.48C618.173 7853.13 618.997 7853.5 619.862 7853.5H630L635 7853.5L642.5 7854.5H645.407C647.435 7854.5 648.878 7856.47 648.267 7858.4L646.682 7863.42C646.562 7863.8 646.366 7864.16 646.107 7864.46L638.898 7872.94C638.328 7873.61 637.494 7874 636.614 7874L624.5 7874L611.065 7874C610.691 7874 610.321 7874.07 609.973 7874.21L599.584 7878.27C599.199 7878.42 598.849 7878.65 598.556 7878.94L581.378 7896.12C580.816 7896.68 580.5 7897.45 580.5 7898.24L580.5 7902.24C580.5 7904.31 582.558 7905.76 584.512 7905.06L605.964 7897.37C606.633 7897.13 607.365 7897.14 608.03 7897.39L613.27 7899.35C614.331 7899.75 615.522 7899.51 616.375 7898.77C618.828 7896.62 622.523 7893.66 624.5 7893C627.5 7892 629.5 7885.5 638 7885.5H662.4C663.892 7885.5 665.136 7884.39 665.557 7882.96C666.194 7880.79 667.32 7878.5 669 7878.5C671.288 7878.5 678.6 7881.23 682.456 7882.78C682.817 7882.93 683.2 7883 683.589 7883H724.63C725.199 7883 725.755 7882.84 726.235 7882.53L747.101 7869.32C749.541 7867.77 748.446 7864 745.558 7864C744.099 7864 742.869 7862.91 742.695 7861.46L741.688 7853.07C741.57 7852.09 741.943 7851.11 742.684 7850.46L773.357 7823.45C774.336 7822.59 774.65 7821.19 774.098 7820.01C771.461 7814.37 766.839 7805.85 764.001 7805.5C760.954 7805.12 749.807 7805.31 743.856 7805.48C743.294 7805.49 742.752 7805.67 742.284 7805.98L738.7 7808.37C737.674 7809.05 736.335 7809.04 735.323 7808.33L726.786 7802.4C725.98 7801.83 725.5 7800.91 725.5 7799.93V7794.31C725.5 7793.48 725.15 7792.68 724.535 7792.11L719.733 7787.68C719.257 7787.24 718.937 7786.66 718.818 7786.02C717.919 7781.22 716.246 7772.61 715.5 7770C714.759 7767.41 711.96 7757.18 710.358 7751.32C710.13 7750.48 709.551 7749.78 708.77 7749.41L696.272 7743.37C695.767 7743.13 695.341 7742.75 695.041 7742.28L686.324 7728.51C686.11 7728.17 685.966 7727.8 685.9 7727.4L683.255 7711.53C683.095 7710.57 682.48 7709.75 681.605 7709.32L666.904 7702.2C666.636 7702.07 666.389 7701.9 666.171 7701.69L660.086 7696.04C659.702 7695.69 659.231 7695.44 658.72 7695.32L646.833 7692.58C646.612 7692.53 646.385 7692.5 646.158 7692.5H641C639.343 7692.5 638 7691.16 638 7689.5Z" stroke="#6F27D4" stroke-opacity="0.75" stroke-width="5"/>
</g>
</svg>
