<svg width="103" height="107" viewBox="0 0 103 107" fill="none" xmlns="http://www.w3.org/2000/svg">
<g filter="url(#filter0_f_1085_203)">
<path d="M78.7544 47.1221V37.5089L62.2455 21L53.0959 21L48.1538 25.9421M78.7544 47.1221L82 50.3677L82 57.6543L76.7066 62.9477M78.7544 47.1221V53.2314L76.7066 55.2792V62.9477M76.7066 62.9477V70.2343L60.9409 86H52.4722L51.935 85.4628M41.6 77.4915H40.4182L20.8645 57.9378V48.1993L30.8562 38.2076M41.6 77.4915H43.9637L51.935 85.4628M41.6 77.4915L49.5713 85.4628H51.935M48.1538 25.9421L38.8067 35.2893H33.7746L30.8562 38.2076M48.1538 25.9421L45.038 25.9421L37.8397 33.1405H33.005L30.8562 35.2893L30.8562 38.2076" stroke="#FFB904"/>
</g>
<g filter="url(#filter1_f_1085_203)">
<path d="M78.7544 47.1221V37.5089L62.2455 21L53.0959 21L48.1538 25.9421M78.7544 47.1221L82 50.3677L82 57.6543L76.7066 62.9477M78.7544 47.1221V53.2314L76.7066 55.2792V62.9477M76.7066 62.9477V70.2343L60.9409 86H52.4722L51.935 85.4628M41.6 77.4915H40.4182L20.8645 57.9378V48.1993L30.8562 38.2076M41.6 77.4915H43.9637L51.935 85.4628M41.6 77.4915L49.5713 85.4628H51.935M48.1538 25.9421L38.8067 35.2893H33.7746L30.8562 38.2076M48.1538 25.9421L45.038 25.9421L37.8397 33.1405H33.005L30.8562 35.2893L30.8562 38.2076" stroke="#FFB904"/>
</g>
<path d="M76.7066 62.9477L82 57.6543L82 50.3677L78.7544 47.1221V53.2314L76.7066 55.2792V62.9477Z" fill="#FFB904" fill-opacity="0.4"/>
<path d="M43.9637 77.4915H41.6L49.5713 85.4628H51.935L43.9637 77.4915Z" fill="#FFB904" fill-opacity="0.4"/>
<path d="M33.7746 35.2893H38.8067L48.1538 25.9421L45.038 25.9421L37.8397 33.1405H33.005L30.8562 35.2893V38.2076L33.7746 35.2893Z" fill="#FFB904" fill-opacity="0.4"/>
<path d="M76.7066 62.9477L82 57.6543L82 50.3677L78.7544 47.1221V53.2314L76.7066 55.2792V62.9477Z" fill="#FFB904" fill-opacity="0.4"/>
<path d="M43.9637 77.4915H41.6L49.5713 85.4628H51.935L43.9637 77.4915Z" fill="#FFB904" fill-opacity="0.4"/>
<path d="M33.7746 35.2893H38.8067L48.1538 25.9421L45.038 25.9421L37.8397 33.1405H33.005L30.8562 35.2893V38.2076L33.7746 35.2893Z" fill="#FFB904" fill-opacity="0.4"/>
<path d="M78.7544 47.1221V37.5089L62.2455 21L53.0959 21L48.1538 25.9421L38.8067 35.2893H33.7746L30.8562 38.2076L20.8645 48.1993V57.9378L40.4182 77.4915H41.6H43.9637L51.935 85.4628L52.4722 86H60.9409L76.7066 70.2343V62.9477V55.2792L78.7544 53.2314V47.1221Z" fill="#41009C" fill-opacity="0.4"/>
<path d="M78.7544 47.1221V37.5089L62.2455 21L53.0959 21L48.1538 25.9421M78.7544 47.1221L82 50.3677L82 57.6543L76.7066 62.9477M78.7544 47.1221V53.2314L76.7066 55.2792V62.9477M76.7066 62.9477V70.2343L60.9409 86H52.4722L51.935 85.4628M41.6 77.4915H40.4182L20.8645 57.9378V48.1993L30.8562 38.2076M41.6 77.4915H43.9637L51.935 85.4628M41.6 77.4915L49.5713 85.4628H51.935M48.1538 25.9421L38.8067 35.2893H33.7746L30.8562 38.2076M48.1538 25.9421L45.038 25.9421L37.8397 33.1405H33.005L30.8562 35.2893L30.8562 38.2076" stroke="#FFB904"/>
<path d="M52.7585 46.8246V42.9387C59.4902 40.3277 62.67 33.5014 63.131 28.1721V27.728C66.819 33.9455 66.9054 45.3796 61.1089 56.494L57.6514 54.6066L52.7585 46.8246Z" fill="white"/>
<path d="M47.2434 55.1702L43.819 57.2336C38.3856 52.8453 31.0119 53.5861 26.2129 55.8767L25.8312 56.1001C29.4279 49.8484 39.5579 43.9302 51.857 43.2485L51.857 47.0725L47.2434 55.1702Z" fill="white"/>
<path d="M57.1735 56.3227L60.536 58.2367C59.6728 65.2631 64.1047 71.337 68.5024 74.355L68.8867 74.5738C61.7959 74.6562 51.457 68.9378 44.5283 58.5205L47.9683 56.36L57.1735 56.3227Z" fill="white"/>
<path d="M54.3284 52.824C54.3284 53.9418 53.5575 54.848 52.6066 54.848C51.6556 54.848 50.8848 53.9418 50.8848 52.824C50.8848 51.7062 51.6556 50.8 52.6066 50.8C53.5575 50.8 54.3284 51.7062 54.3284 52.824Z" fill="white"/>
<defs>
<filter id="filter0_f_1085_203" x="10.3645" y="10.5" width="82.1355" height="86" filterUnits="userSpaceOnUse" color-interpolation-filters="sRGB">
<feFlood flood-opacity="0" result="BackgroundImageFix"/>
<feBlend mode="normal" in="SourceGraphic" in2="BackgroundImageFix" result="shape"/>
<feGaussianBlur stdDeviation="5" result="effect1_foregroundBlur_1085_203"/>
</filter>
<filter id="filter1_f_1085_203" x="0.364502" y="0.5" width="102.135" height="106" filterUnits="userSpaceOnUse" color-interpolation-filters="sRGB">
<feFlood flood-opacity="0" result="BackgroundImageFix"/>
<feBlend mode="normal" in="SourceGraphic" in2="BackgroundImageFix" result="shape"/>
<feGaussianBlur stdDeviation="10" result="effect1_foregroundBlur_1085_203"/>
</filter>
</defs>
</svg>
