<svg width="60vw" height="670" viewBox="0 0 677 670" fill="none" xmlns="http://www.w3.org/2000/svg">
<path d="M19.2562 103.013L26.595 94.3438L329.321 92.4174L344.916 74.1167H410.048L420.139 61.5951H434.817L425.643 74.1167H443.073L452.246 61.5951H464.172L455.916 74.1167H478.85L487.106 61.5951H499.949L493.527 74.1167H511.874L518.296 61.5951H532.973L527.469 74.1167H546.734L552.238 61.5951H565.998L561.411 74.1167H583.428H602.831L660.485 133.835L661.403 633.399L635.717 661.331H225.661L217.405 650.736H105.488L31.1823 573.68V512.999L19.2567 497.588L19.2562 103.013Z" fill="#07001B"/>
<path fill-rule="evenodd" clip-rule="evenodd" d="M11 103.013L26.595 85.675H312.809L344.916 51H592.601L676.998 138.651L676.998 629.546L638.47 670H99.9837L11.0005 578.497L11 103.013ZM26.595 94.3438L19.2562 103.013L19.2567 497.588L31.1823 512.999V573.68L105.488 650.736H217.405L225.661 661.331H635.717L661.403 633.399L660.485 133.835L602.831 74.1167H583.428H561.411L565.998 61.5951H552.238L546.734 74.1167H527.469L532.973 61.5951H518.296L511.874 74.1167H493.527L499.949 61.5951H487.106L478.85 74.1167H455.916L464.172 61.5951H452.246L443.073 74.1167H425.643L434.817 61.5951H420.139L410.048 74.1167H344.916L329.321 92.4174L26.595 94.3438Z" fill="#41009C"/>
<path d="M174.96 505.065C174.96 505.065 202.554 505.065 202.554 474.731C202.554 470.34 201.953 466.585 200.928 463.374M174.96 505.065C104.48 505.065 98.4563 578.822 98.0295 596.644C97.9778 598.8 99.7285 600.485 101.885 600.485H115.366C117.576 600.485 119.362 598.695 119.35 596.486C119.292 586.583 119.261 573.802 122.541 562.275C123.636 558.425 128.009 559.459 128.009 563.461V596.485C128.009 598.695 129.8 600.485 132.009 600.485H156.741M174.96 505.065C174.96 505.065 147.323 505.065 147.323 474.731C147.323 469.675 148.123 465.461 149.447 461.95M174.96 505.065C194.407 505.065 208.938 511.01 219.794 519.931M149.447 461.95C154.613 462.899 160.266 465.119 167.99 464.797C176.408 464.446 180.433 458.923 188.83 459.578C194.174 459.995 197.064 462.108 200.928 463.374M149.447 461.95C153.02 452.483 160.148 448.121 165.957 446.112M200.928 463.374C194.87 444.396 174.919 444.396 174.919 444.396V444.396C174.919 444.396 170.919 444.396 165.957 446.112M165.957 446.112V298C165.957 295.791 167.748 294 169.957 294H246.2M238.428 543.553C249.197 564.295 251.337 587.454 251.758 596.533C251.859 598.723 250.094 600.485 247.902 600.485H234.511C232.302 600.485 230.515 598.695 230.528 596.486C230.585 586.583 230.617 573.802 227.338 562.275C226.243 558.425 221.87 559.459 221.87 563.461V596.485C221.87 598.695 220.079 600.485 217.87 600.485H174.96H163.208M238.428 543.553H610.276C612.485 543.553 614.276 541.762 614.276 539.553V488.442M238.428 543.553C234.976 536.904 230.637 530.503 225.183 524.894M614.276 479.399V298C614.276 295.791 612.485 294 610.276 294H255.362" stroke="#FFB904" stroke-width="3" stroke-linecap="round"/>
<path d="M280.789 409.867H287.786C288.792 409.867 289.607 410.683 289.607 411.688V411.688C289.607 412.694 288.792 413.51 287.786 413.51H284.316M280.789 409.867C280.789 390.763 300.63 396.511 300.63 366.56C300.63 361.976 299.754 357.655 298.044 353.79C297.341 352.201 296.497 350.689 295.515 349.268C290.034 341.33 280.251 336.205 266.679 336.205C244.762 336.205 232.728 349.57 232.728 366.56C232.728 396.511 252.569 390.763 252.569 409.867M280.789 409.867H271.426C268.946 409.867 267.012 407.626 267.137 405.149C267.583 396.332 266.741 382.912 266.682 381.99C266.68 381.954 266.678 381.922 266.677 381.886L266.444 375.806C266.287 371.693 271.806 370.209 273.734 373.845V373.845M284.316 413.51V419.628C284.316 421.837 282.525 423.628 280.316 423.628H266.679H252.569C250.621 423.628 249.042 422.179 249.042 420.39V413.51M284.316 413.51H266.679H249.042M252.569 409.867H245.735C244.639 409.867 243.751 410.683 243.751 411.688C243.751 412.694 244.639 413.51 245.735 413.51H249.042M252.569 409.867H262.551C264.718 409.867 266.403 408.089 266.275 406.103C265.707 397.259 266.631 382.689 266.677 381.968C266.679 381.941 266.679 381.927 266.68 381.9L266.977 374.138C267.064 371.853 264.89 370.558 262.907 370.812C261.855 370.947 260.858 371.518 260.28 372.608L259.624 373.845" stroke="#FFB904" stroke-width="2.5"/>
<path d="M304.987 345.98L314.202 337.389" stroke="#FFB904" stroke-linecap="round"/>
<path d="M228.19 345.98L218.975 337.389" stroke="#FFB904" stroke-linecap="round"/>
<path d="M218.975 388.824L230.261 382.749" stroke="#FFB904" stroke-linecap="round"/>
<path d="M267.218 327.161V315.102" stroke="#FFB904" stroke-linecap="round"/>
<path d="M303.249 382.749L307.097 384.82L308.355 385.497L309.614 386.175L314.535 388.824" stroke="#FFB904" stroke-linecap="round"/>
<mask id="path-9-inside-1_572_71" fill="white">
<path d="M470.876 427.652C472.838 428.874 473.368 431.51 471.872 433.272C466.761 439.29 460.265 444.188 452.843 447.59C444.083 451.605 434.342 453.396 424.602 452.781C414.862 452.166 405.469 449.168 397.369 444.088C389.27 439.008 382.75 432.026 378.468 423.847C374.187 415.668 372.294 406.581 372.982 397.502C373.67 388.424 376.914 379.675 382.386 372.138C387.858 364.602 395.366 358.544 404.151 354.576C411.721 351.156 420.009 349.393 428.386 349.398C430.611 349.399 432.281 351.348 432.106 353.566L431.357 363.068C431.184 365.254 429.28 366.872 427.088 366.943C421.988 367.106 416.965 368.261 412.346 370.347C406.536 372.971 401.571 376.978 397.952 381.962C394.332 386.947 392.187 392.733 391.732 398.737C391.277 404.741 392.529 410.751 395.361 416.161C398.192 421.57 402.504 426.187 407.861 429.547C413.218 432.907 419.43 434.89 425.872 435.297C432.313 435.703 438.756 434.519 444.55 431.863C449.168 429.746 453.244 426.754 456.525 423.092C457.933 421.522 460.264 421.038 462.053 422.153L470.876 427.652Z"/>
</mask>
<path d="M470.876 427.652C472.838 428.874 473.368 431.51 471.872 433.272C466.761 439.29 460.265 444.188 452.843 447.59C444.083 451.605 434.342 453.396 424.602 452.781C414.862 452.166 405.469 449.168 397.369 444.088C389.27 439.008 382.75 432.026 378.468 423.847C374.187 415.668 372.294 406.581 372.982 397.502C373.67 388.424 376.914 379.675 382.386 372.138C387.858 364.602 395.366 358.544 404.151 354.576C411.721 351.156 420.009 349.393 428.386 349.398C430.611 349.399 432.281 351.348 432.106 353.566L431.357 363.068C431.184 365.254 429.28 366.872 427.088 366.943C421.988 367.106 416.965 368.261 412.346 370.347C406.536 372.971 401.571 376.978 397.952 381.962C394.332 386.947 392.187 392.733 391.732 398.737C391.277 404.741 392.529 410.751 395.361 416.161C398.192 421.57 402.504 426.187 407.861 429.547C413.218 432.907 419.43 434.89 425.872 435.297C432.313 435.703 438.756 434.519 444.55 431.863C449.168 429.746 453.244 426.754 456.525 423.092C457.933 421.522 460.264 421.038 462.053 422.153L470.876 427.652Z" stroke="#FFB904" stroke-width="4" mask="url(#path-9-inside-1_572_71)"/>
<mask id="path-10-inside-2_572_71" fill="white">
<path d="M433.61 353.59C433.85 351.416 435.795 349.825 437.953 350.178C445.884 351.476 453.433 354.371 460.067 358.677C467.783 363.685 474.009 370.439 478.159 378.305C482.309 386.17 484.249 394.89 483.795 403.646C483.405 411.17 481.259 418.51 477.525 425.157C476.49 426.999 474.14 427.541 472.311 426.486L463.267 421.274C461.268 420.121 460.679 417.527 461.701 415.458C463.661 411.488 464.793 407.192 465.02 402.8C465.32 397.009 464.038 391.243 461.293 386.04C458.548 380.838 454.431 376.372 449.327 373.059C445.339 370.471 440.851 368.653 436.128 367.699C433.941 367.257 432.317 365.288 432.562 363.07L433.61 353.59Z"/>
</mask>
<path d="M433.61 353.59C433.85 351.416 435.795 349.825 437.953 350.178C445.884 351.476 453.433 354.371 460.067 358.677C467.783 363.685 474.009 370.439 478.159 378.305C482.309 386.17 484.249 394.89 483.795 403.646C483.405 411.17 481.259 418.51 477.525 425.157C476.49 426.999 474.14 427.541 472.311 426.486L463.267 421.274C461.268 420.121 460.679 417.527 461.701 415.458C463.661 411.488 464.793 407.192 465.02 402.8C465.32 397.009 464.038 391.243 461.293 386.04C458.548 380.838 454.431 376.372 449.327 373.059C445.339 370.471 440.851 368.653 436.128 367.699C433.941 367.257 432.317 365.288 432.562 363.07L433.61 353.59Z" fill="#FFB904" stroke="#FFB904" stroke-width="4" mask="url(#path-10-inside-2_572_71)"/>
<path d="M373.124 474.815L372.518 469.225L367.737 472.685L373.124 474.815ZM376.683 439.273C376.307 438.955 376.307 438.955 376.307 438.955C376.307 438.955 376.307 438.955 376.307 438.955C376.307 438.955 376.307 438.955 376.307 438.955C376.307 438.955 376.306 438.955 376.306 438.955C376.306 438.955 376.306 438.956 376.305 438.956C376.305 438.957 376.304 438.958 376.303 438.959C376.301 438.961 376.297 438.965 376.293 438.969C376.285 438.978 376.273 438.991 376.258 439.008C376.227 439.042 376.182 439.091 376.125 439.156C376.009 439.286 375.843 439.477 375.636 439.726L376.428 440.319C376.627 440.079 376.787 439.896 376.895 439.773C376.95 439.712 376.991 439.666 377.019 439.636C377.033 439.62 377.043 439.609 377.05 439.602C377.053 439.598 377.055 439.596 377.057 439.594C377.058 439.593 377.058 439.593 377.058 439.592C377.059 439.592 377.059 439.592 377.059 439.592C377.059 439.592 377.059 439.592 377.059 439.592C377.059 439.592 377.059 439.592 377.059 439.592C377.059 439.592 377.059 439.592 377.059 439.592C377.059 439.592 377.059 439.592 376.683 439.273ZM374.384 441.322C374.024 441.808 373.63 442.362 373.219 442.977L374.075 443.483C374.476 442.883 374.86 442.343 375.211 441.87L374.384 441.322ZM372.143 444.674C371.813 445.222 371.481 445.804 371.154 446.416L372.061 446.838C372.38 446.241 372.703 445.674 373.025 445.139L372.143 444.674ZM370.254 448.209C369.978 448.798 369.71 449.409 369.457 450.039L370.409 450.363C370.655 449.75 370.915 449.157 371.184 448.583L370.254 448.209ZM368.767 451.912C368.56 452.532 368.37 453.167 368.199 453.816L369.19 454.024C369.355 453.396 369.54 452.781 369.74 452.181L368.767 451.912ZM367.762 455.753C367.641 456.395 367.542 457.049 367.468 457.711L368.484 457.782C368.555 457.144 368.651 456.515 368.768 455.895L367.762 455.753ZM367.328 459.68C367.308 460.331 367.315 460.988 367.351 461.652L368.372 461.569C368.337 460.932 368.331 460.301 368.35 459.676L367.328 459.68ZM367.544 463.613C367.635 464.253 367.756 464.896 367.908 465.543L368.906 465.298C368.76 464.678 368.644 464.062 368.557 463.449L367.544 463.613ZM368.443 467.43C368.645 468.039 368.877 468.65 369.141 469.262L370.088 468.864C369.834 468.276 369.612 467.69 369.418 467.106L368.443 467.43ZM369.993 471.029C370.295 471.593 370.625 472.158 370.986 472.722L371.862 472.191C371.515 471.648 371.197 471.104 370.906 470.561L369.993 471.029Z" fill="#FFB904"/>
<path d="M512.307 353.794L506.44 353.08L509.843 348.581L512.307 353.794ZM474.104 356.18C473.776 355.794 473.776 355.794 473.776 355.794C473.776 355.794 473.776 355.794 473.776 355.794C473.777 355.794 473.777 355.794 473.777 355.794C473.777 355.794 473.777 355.794 473.777 355.794C473.777 355.794 473.777 355.793 473.778 355.793C473.779 355.793 473.78 355.792 473.781 355.791C473.783 355.789 473.787 355.786 473.792 355.782C473.801 355.775 473.815 355.765 473.833 355.751C473.87 355.724 473.923 355.684 473.993 355.633C474.132 355.532 474.337 355.385 474.604 355.202L475.216 356.005C474.958 356.182 474.76 356.324 474.628 356.42C474.562 356.468 474.512 356.505 474.479 356.53C474.463 356.542 474.451 356.552 474.443 356.558C474.439 356.561 474.436 356.563 474.434 356.564C474.433 356.565 474.433 356.565 474.432 356.566C474.432 356.566 474.432 356.566 474.432 356.566C474.432 356.566 474.432 356.566 474.432 356.566C474.432 356.566 474.432 356.566 474.432 356.566C474.432 356.566 474.432 356.566 474.432 356.566C474.432 356.566 474.432 356.566 474.104 356.18ZM476.314 354.096C476.833 353.779 477.424 353.433 478.08 353.072L478.611 353.925C477.968 354.279 477.39 354.617 476.883 354.927L476.314 354.096ZM479.886 352.129C480.47 351.841 481.089 351.55 481.739 351.264L482.19 352.157C481.554 352.437 480.949 352.721 480.378 353.003L479.886 352.129ZM483.642 350.48C484.265 350.241 484.911 350.009 485.577 349.79L485.937 350.717C485.288 350.931 484.658 351.157 484.05 351.391L483.642 350.48ZM487.558 349.195C488.214 349.016 488.886 348.852 489.572 348.707L489.825 349.663C489.159 349.805 488.505 349.964 487.867 350.137L487.558 349.195ZM491.62 348.335C492.302 348.233 492.995 348.151 493.698 348.091L493.822 349.067C493.143 349.124 492.472 349.204 491.812 349.303L491.62 348.335ZM495.793 347.986C496.487 347.975 497.189 347.988 497.897 348.029L497.872 349.006C497.19 348.967 496.514 348.954 495.845 348.965L495.793 347.986ZM500.001 348.229C500.694 348.322 501.39 348.443 502.09 348.594L501.899 349.549C501.228 349.404 500.559 349.288 499.894 349.199L500.001 348.229ZM504.144 349.123C504.811 349.324 505.479 349.554 506.147 349.816L505.79 350.721C505.149 350.47 504.508 350.249 503.869 350.057L504.144 349.123ZM508.089 350.665C508.713 350.968 509.336 351.3 509.957 351.662L509.449 352.494C508.851 352.145 508.253 351.827 507.654 351.536L508.089 350.665Z" fill="#FFB904"/>
<rect x="345.899" y="483.046" width="72.214" height="5.02435" rx="2.51218" fill="#FFB904"/>
<rect x="355.599" y="497.114" width="72.214" height="4.01948" rx="2.00974" fill="#FFB904"/>
<rect x="366.377" y="511.182" width="72.214" height="4.01948" rx="2.00974" fill="#FFB904"/>
<rect x="500.027" y="362.461" width="72.214" height="9.04383" rx="3" fill="#FFB904"/>
<rect x="510.805" y="383.563" width="71.1362" height="10.0487" rx="3" fill="#FFB904"/>
<rect x="520.506" y="405.671" width="72.214" height="9.04383" rx="3" fill="#FFB904"/>
<path d="M167.104 191H161.948L154.155 183.236V159.887L161.948 152.123H167.104V191ZM169.155 159.887V152.123H182.954L190.717 159.887V167.709H177.768V159.887H169.155ZM169.155 191V183.236H177.768V177.553H190.717V183.236L182.954 191H169.155ZM217.055 191V167.65H198.627V163.783L202.524 159.887H221.948L229.711 167.65V191H217.055ZM215.004 172.895V178.285H208.325V183.734H215.004V187.162L211.137 191H201.235L196.02 185.873V178.08L201.235 172.895H215.004ZM242.338 159.887H247.524V170.873H262.29L269.028 177.67V183.734L261.792 191H256.079V179.252H242.075L235.336 172.777V166.859L242.338 159.887ZM248.286 185.287H254.028V191L240.698 190.971L235.307 184.584V182.094H248.286V185.287ZM256.079 165.6H249.575V159.887H263.344L267.973 164.516V168.031H256.079V165.6ZM286.811 191H281.626L273.862 183.236V167.65L281.626 159.887H286.811V191ZM288.862 178.52V173.1H295.688V167.65H288.862V159.887H299.848L307.612 167.65V178.52H288.862ZM288.862 191V183.734H306.264V187.104L302.397 191H288.862ZM335.444 159.887H340.629V170.873H355.395L362.133 177.67V183.734L354.897 191H349.184V179.252H335.18L328.442 172.777V166.859L335.444 159.887ZM341.391 185.287H347.133V191L333.803 190.971L328.413 184.584V182.094H341.391V185.287ZM349.184 165.6H342.68V159.887H356.45L361.079 164.516V168.031H349.184V165.6ZM380.532 183.236H389.086V191H375.376L367.583 183.236V167.65H365.004V159.887H367.583V156.518L380.532 152.123V183.236ZM382.583 167.65V159.887H389.555V167.65H382.583ZM427.524 159.887V191H414.575V159.887H427.524ZM406.752 183.236H412.524V187.104L408.774 191H401.596L393.803 183.236V159.887H406.752V183.236ZM467.544 148.021V191H454.594V148.021H467.544ZM446.303 183.734H452.544V187.924L449.467 191H440.356L433.354 183.998V166.889L440.356 159.887H452.544V167.65H446.303V183.734ZM490.981 201.84H478.559L494.321 159.887H506.772L490.981 201.84ZM470.18 159.887H483.1L487.465 172.543L481.665 188.393L470.18 159.887Z" fill="white"/>
<g filter="url(#filter0_f_572_71)">
<path d="M153.104 183H147.948L140.155 175.236V151.887L147.948 144.123H153.104V183ZM155.155 151.887V144.123H168.954L176.717 151.887V159.709H163.768V151.887H155.155ZM155.155 183V175.236H163.768V169.553H176.717V175.236L168.954 183H155.155ZM203.055 183V159.65H184.627V155.783L188.524 151.887H207.948L215.711 159.65V183H203.055ZM201.004 164.895V170.285H194.325V175.734H201.004V179.162L197.137 183H187.235L182.02 177.873V170.08L187.235 164.895H201.004ZM228.338 151.887H233.524V162.873H248.29L255.028 169.67V175.734L247.792 183H242.079V171.252H228.075L221.336 164.777V158.859L228.338 151.887ZM234.286 177.287H240.028V183L226.698 182.971L221.307 176.584V174.094H234.286V177.287ZM242.079 157.6H235.575V151.887H249.344L253.973 156.516V160.031H242.079V157.6ZM272.811 183H267.626L259.862 175.236V159.65L267.626 151.887H272.811V183ZM274.862 170.52V165.1H281.688V159.65H274.862V151.887H285.848L293.612 159.65V170.52H274.862ZM274.862 183V175.734H292.264V179.104L288.397 183H274.862ZM321.444 151.887H326.629V162.873H341.395L348.133 169.67V175.734L340.897 183H335.184V171.252H321.18L314.442 164.777V158.859L321.444 151.887ZM327.391 177.287H333.133V183L319.803 182.971L314.413 176.584V174.094H327.391V177.287ZM335.184 157.6H328.68V151.887H342.45L347.079 156.516V160.031H335.184V157.6ZM366.532 175.236H375.086V183H361.376L353.583 175.236V159.65H351.004V151.887H353.583V148.518L366.532 144.123V175.236ZM368.583 159.65V151.887H375.555V159.65H368.583ZM413.524 151.887V183H400.575V151.887H413.524ZM392.752 175.236H398.524V179.104L394.774 183H387.596L379.803 175.236V151.887H392.752V175.236ZM453.544 140.021V183H440.594V140.021H453.544ZM432.303 175.734H438.544V179.924L435.467 183H426.356L419.354 175.998V158.889L426.356 151.887H438.544V159.65H432.303V175.734ZM476.981 193.84H464.559L480.321 151.887H492.772L476.981 193.84ZM456.18 151.887H469.1L473.465 164.543L467.665 180.393L456.18 151.887Z" fill="white" fill-opacity="0.3"/>
</g>
<defs>
<filter id="filter0_f_572_71" x="0.154785" y="0.0214844" width="632.617" height="333.818" filterUnits="userSpaceOnUse" color-interpolation-filters="sRGB">
<feFlood flood-opacity="0" result="BackgroundImageFix"/>
<feBlend mode="normal" in="SourceGraphic" in2="BackgroundImageFix" result="shape"/>
<feGaussianBlur stdDeviation="70" result="effect1_foregroundBlur_572_71"/>
</filter>
</defs>
</svg>
