<svg width="1973" height="1125" viewBox="0 0 1973 1125" fill="none" xmlns="http://www.w3.org/2000/svg">
<g opacity="0.07">
<path d="M1354.5 119L1312 161.5V242.382L1228.5 325.883H968L903.117 261H714L691 284V318.5L823 450.5H946.5L1014.5 382.5H1118L1186 450.5H1250L1312 388.5V346L1339.5 318.5H1434.5L1501.5 397H1645L1723.5 318.5V220L1665 161.5H1588.5L1508.5 81.5H1428.5H1392L1354.5 119Z" fill="#6F27D4" fill-opacity="0.75"/>
<path d="M150.63 17L127.782 48V81.5L171 124.718L201.282 155H233.5L261 127.5H309.5L402 220H453.5L483.5 190V168L456.5 141H430.567L402 112.433V81.5L430.826 52.6737C430.857 42.699 430.876 30.5757 430.887 17H150.63Z" fill="#6F27D4" fill-opacity="0.75"/>
<path d="M12 500.5L117.5 606H453.5L557.5 710H748.5L823 635.5H1061L1200.5 775V868L1306.5 974L1327.5 995H1413.5V989L1358.5 934V588H1745.5L1821.5 664V735.5L1781.5 775.5V823L1720 884.5H1618L1568.5 934V1009L1523 1054.5H1476H1430L1413.5 1038V1006H1269H1258.5L1226.5 974H1160L1096.5 910.5H1084L1037 863.5L1012 863L1003 872H987.5L977 861.5L952.5 837H892L859.5 804.5H783.5L595.5 992.5H526.5L488.5 954.5H453.5L402 1006H279L201.282 928.282H117.5L48.9558 996.826H12V500.5Z" fill="#6F27D4" fill-opacity="0.75"/>
<path d="M1962 600L1850 488V425L1878 397H1890.5L1944 450.5H1969L1962 600Z" fill="#6F27D4" fill-opacity="0.75"/>
<path d="M987.5 454H977.5L953.5 478V488L987.5 454Z" fill="#6F27D4" fill-opacity="0.75"/>
<path d="M467.118 17H549.915H683.5V29.5001V57.0001L673.5 67.0001H649.882L618 98.8824V119L598.5 138.5L582 155H568L557.5 165.5V197.882L513 242.382H503H493.618L535 201V161.5L516.5 143V98.8824L493.618 76L467.118 49.5V17Z" fill="#6F27D4" fill-opacity="0.75"/>
<path d="M823 635.5L748.5 710H557.5L453.5 606H117.5L12 500.5V996.826H48.9558L117.5 928.282H201.282L279 1006H402L453.5 954.5H488.5L526.5 992.5H595.5L783.5 804.5H859.5L892 837H952.5L977 861.5L987.5 872H1003L1012 863L1037 863.5L1084 910.5H1096.5L1160 974H1226.5L1258.5 1006H1269H1413.5V1038L1430 1054.5H1476H1523L1568.5 1009V934L1618 884.5H1720L1781.5 823V775.5L1821.5 735.5V664L1745.5 588H1358.5V934L1413.5 989V995H1327.5L1306.5 974L1200.5 868V775L1061 635.5H823ZM823 635.5L887.5 571H934.5L951.5 588H1004.5L1046 546.5M12 261H95L150.63 205.37H184L221.012 242.382H279L329.5 292.882V346L402 418.5M1200.5 481H1090.5L1046.5 437H1004.5L987.5 454M987.5 454H977.5L953.5 478V488L987.5 454ZM488.5 1009H627.5L737.5 899H982L1003 920L1037.5 954.5H1070.5L1105 989V1028M921.811 1049.31H863.689L855 1058H830.689L822 1049.31H794L740.311 1103M677 1122.5L684 1115.5H727.811L740.311 1103M740.311 1103H761L777 1087H794L818.5 1111.5H837M861.999 2.5H958.998L977.998 21.5V50.5471L1017 89.5471M1017 89.5471V121.047L995.498 142.547C980.998 160.047 950.199 195.047 942.999 195.047H834.999L786.999 243.047M1017 89.5471H1062.5L1094 121.047H1161L1209.5 72.5471M1924 397L1901.5 374.5H1821.5L1799 397H1745.5M127.782 48L150.63 17H430.887C430.876 30.5757 430.857 42.699 430.826 52.6737L402 81.5V112.433L430.567 141H456.5L483.5 168V190L453.5 220H402L309.5 127.5H261L233.5 155H201.282L171 124.718L127.782 81.5V48ZM549.915 17H467.118V49.5L493.618 76L516.5 98.8824V143L535 161.5V201L493.618 242.382H503H513L557.5 197.882V165.5L568 155H582L598.5 138.5L618 119V98.8824L649.882 67.0001H673.5L683.5 57.0001V29.5001V17H549.915ZM1354.5 119L1312 161.5V242.382L1228.5 325.883H968L903.117 261H714L691 284V318.5L823 450.5H946.5L1014.5 382.5H1118L1186 450.5H1250L1312 388.5V346L1339.5 318.5H1434.5L1501.5 397H1645L1723.5 318.5V220L1665 161.5H1588.5L1508.5 81.5H1428.5H1392L1354.5 119ZM1962 600L1850 488V425L1878 397H1890.5L1944 450.5H1969L1962 600Z" stroke="#6F27D4" stroke-opacity="0.75" stroke-width="5"/>
</g>
<path d="M156.5 13V42.8887V57L147 66.5V86L175 114H189.5L204 99.5H246L271 74.5V60.5M575 139.5L600.5 114V88L636.5 52V18M724 287H794L843.5 336.5H930L955 361.5H1183.5L1205 340H1262.5L1298 304.5M773.5 361.5L814 402H883.5M1636.5 293L1593.5 250H1546.5L1461.5 165M1461.5 165H1390.5L1345.5 210V234L1314.5 265M1461.5 165H1480L1499 146M1540 340L1474 274H1390.5L1364.5 300M2 582L53.5 633.5M53.5 633.5V651L64 661.5V687.5L93 716.5M53.5 633.5L61 641H72.5L80.5 649H96.5L102.5 643H104.5L114 633.5L122 625.5L130 617.5H202.5M293.5 661.5L249.5 617.5H202.5M94 881.5L64 911.5V928.5L51.5 941L35.5 957M94 881.5H156.5L181 857H211L243.5 889.5H258.5M94 881.5L106 893.5H117L133 909.5H170M398 984.5H368.5L273.5 889.5H258.5M298.5 727.5L273.5 752.5H243.5L230 766H189.5L169 745.5H122L93 716.5M247 854.5L224.5 832H194.5L170 856.5H156L148 864.5H96L88 856.5H77H67.5L59 848H35.5M258.5 889.5L266 897V909.5L285 928.5H295.5L311 944V961M93 716.5H106L123 733.5H139.5M216.5 677H200L191.5 685.5H177.5L150.5 658.5H132L122 668.5H104.5L96.5 660.5H76.5L71 666V681.5M202.5 617.5L210.5 625.5H243L253 635.5M505.5 948L535.5 978M889.586 681.597L925.095 647.563H943.983L1002.16 704.287V722.439L1016.51 736.052H1132.11M903.941 715.632L938.695 748.91H966.649L986.292 769.33H1089.04L1111 791.289V806.5L1122.5 818H1141H1157M843.5 690.673L903.941 748.91H918.296L930.384 763.28V788.995L989.314 849.5H1006L1026 829.5H1061L1120 888.5V911.5M1437.5 1037.5H1494.5L1517.5 1014.5V971L1536.5 952M1461.5 934.5V971L1439.5 993M1754 811V742L1781 715V661.5M1581.5 390V350L1613 318.5M1971.5 574L1906.5 509V496M1887.5 423V449.5L1906.5 468.5V496M1906.5 496L1896.5 486H1877.5" stroke="#07001B" stroke-opacity="0.5" stroke-width="3"/>
</svg>
