<svg width="533" height="128" viewBox="0 0 533 128" fill="none" xmlns="http://www.w3.org/2000/svg">
<path d="M514.5 2.5H18.8964V7.55715H514.5V2.5Z" fill="#FFB904"/>
<path d="M514.5 121.11L19 120.91V126H514.5V121.11Z" fill="#FFB904"/>
<path d="M500.263 97.8882V102.779H41.9042V97.8882H500.263Z" fill="#FFB904"/>
<path d="M500.263 25.1206V30.0117H41.9042V25.1206H500.263Z" fill="#FFB904"/>
<path d="M514.5 2.5H18.8964V7.55715H514.5V2.5Z" fill="#FFB904"/>
<path d="M514.5 121.11L19 120.91V126H514.5V121.11Z" fill="#FFB904"/>
<path d="M500.263 97.8882V102.779H41.9042V97.8882H500.263Z" fill="#FFB904"/>
<path d="M500.263 25.1206V30.0117H41.9042V25.1206H500.263Z" fill="#FFB904"/>
<path d="M19 6.85714V2H2V19H6V6.85714H19Z" fill="white" stroke="white" stroke-width="3"/>
<path d="M514 121.143V126H531V109H527V121.143H514Z" fill="white" stroke="white" stroke-width="3"/>
<path d="M514 7.85714V3H531V20H527V7.85714H514Z" fill="white" stroke="white" stroke-width="3"/>
<path d="M19 121.143V126H2V109H6V121.143H19Z" fill="white" stroke="white" stroke-width="3"/>
</svg>
