<svg width="266" height="186" viewBox="0 0 266 186" fill="none" xmlns="http://www.w3.org/2000/svg">
<g clip-path="url(#clip0_25_418)">
<path d="M263.228 15.29C257.221 4.25598 248.133 -8.94899e-06 236.427 -9.97235e-06C191.914 -1.38638e-05 147.555 -1.77418e-05 103.042 -2.16333e-05C78.398 -2.37877e-05 53.754 -2.59422e-05 29.111 -2.80965e-05C16.635 -2.91872e-05 7.85497 5.20197 3.07996 15.605C12.784 23.171 22.642 30.737 32.345 38.303C59.761 59.583 87.332 80.863 114.748 101.985C126.916 111.442 139.238 111.442 151.252 101.985C187.139 74.558 222.873 46.815 258.607 19.231C260.147 17.969 261.533 16.708 263.228 15.29Z" fill="white"/>
<path d="M86.87 98.5169C59.145 123.737 31.883 148.485 4.31296 173.547C10.474 182.532 18.791 186 28.803 186C72.699 186 116.442 186 160.339 186C185.907 186 211.475 186 237.043 186C247.055 186 255.372 182.375 261.533 173.548C234.117 148.485 206.855 123.58 179.13 98.5169C172.507 103.561 166.192 108.605 159.723 113.492C142.164 126.89 123.682 126.89 105.969 113.492C99.962 108.605 93.647 103.719 86.87 98.5169Z" fill="white"/>
<path d="M266 31.368C240.586 51.071 215.942 70.144 190.682 89.6898C215.788 112.546 240.432 135.086 266 158.415C266 115.698 266 74.085 266 31.368Z" fill="white"/>
<path d="M-7.62939e-06 158.258C25.414 135.086 50.058 112.546 75.318 89.5322C50.212 70.144 25.414 50.914 3.47746e-06 31.21C-2.5698e-07 73.927 -3.89496e-06 115.541 -7.62939e-06 158.258Z" fill="white"/>
</g>
<defs>
<clipPath id="clip0_25_418">
<rect width="266" height="186" fill="white"/>
</clipPath>
</defs>
</svg>
