<svg width="51" height="51" viewBox="0 0 51 51" fill="none" xmlns="http://www.w3.org/2000/svg">
<path d="M6.4853 0.0238419C6.37556 0.0437737 6.03634 0.113537 5.73703 0.173332C3.57203 0.611835 1.45692 2.40572 0.529059 4.59824C-0.0296506 5.92372 0.00028031 4.71783 0.00028031 25.477C0.00028031 46.2362 -0.0296506 45.0304 0.529059 46.3558C1.28731 48.1298 2.81378 49.6646 4.5398 50.3921C5.89666 50.9601 5.34793 50.9302 15.0954 50.9601L24.0946 51V41.921V32.8519H21.1015H18.1085V29.8621V26.8723H21.0916H24.0847L24.1246 22.4573C24.1645 17.7633 24.1645 17.7733 24.6933 16.5076C25.4116 14.8034 26.968 13.2487 28.684 12.5212C29.9511 11.993 29.9411 11.993 34.6503 11.9532L39.0601 11.9133V14.9031V17.8929L35.6978 17.9228C31.8767 17.9527 31.8068 17.9726 30.9787 18.7998C30.1506 19.627 30.1307 19.6968 30.1008 23.5038L30.0708 26.8723H34.4208C38.4914 26.8723 38.7608 26.8822 38.7508 27.0417C38.7508 27.1414 38.5413 28.4768 38.2819 30.0116L37.803 32.8021L33.9419 32.832L30.0808 32.8519V41.9309V51L37.4937 50.9601C45.4753 50.9302 45.1061 50.9502 46.443 50.3921C48.5581 49.5051 50.2642 47.5019 50.8429 45.2097C51.0524 44.3925 51.0524 6.56155 50.8429 5.74434C50.2542 3.45215 48.5781 1.46891 46.443 0.562008C45.0462 -0.0259895 46.6326 0.0238419 25.7907 0.00391006C15.285 -0.00605774 6.59505 0.00391006 6.4853 0.0238419ZM44.3578 3.05351C46.1537 3.39236 47.6004 4.83743 47.9396 6.63131C48.0792 7.36879 48.0792 43.5853 47.9396 44.3228C47.6004 46.1167 46.1537 47.5617 44.3578 47.9006C44.0386 47.9604 41.684 48.0002 38.4515 48.0002H33.0739V41.921V35.8417H36.6955H40.3271L41.3248 29.8621L42.3225 23.8825H37.6932H33.0739V22.3876V20.8927H37.5635H42.0532V14.9131V8.93346H36.4561C32.9841 8.93346 30.5996 8.97332 30.1506 9.04308C25.4914 9.7407 21.9097 13.3185 21.2113 17.9726C21.1514 18.3613 21.1015 19.8562 21.1015 21.2813V23.8825H18.1085H15.1154V29.8621V35.8417H18.1085H21.1015V41.921V48.0002H14.1277C9.80763 48.0002 6.95422 47.9604 6.62498 47.9006C4.82913 47.5617 3.38247 46.1167 3.04325 44.3228C2.90358 43.5853 2.90358 7.36879 3.04325 6.63131C3.37249 4.87729 4.82913 3.40232 6.54516 3.06348C7.19367 2.93392 43.6894 2.93392 44.3578 3.05351Z" fill="#FFB904"/>
</svg>
