<svg width="1959" height="1185" viewBox="0 0 1959 1185" fill="none" xmlns="http://www.w3.org/2000/svg">
<g opacity="0.07">
<path fill-rule="evenodd" clip-rule="evenodd" d="M44.7977 273.149L4.75551 234.577L4 233.82V248.947L38.7536 283.737H97.6836L192.878 189.198L235.187 187.685V234.577L184.567 283.737H111.283L97.6836 297.351H26.6654L4 273.149V518.953L46.3087 565.088L120.349 563.575L147.547 537.86V487.943L180.79 453.909H207.988L229.178 432.697L235.942 425.925H258.608L319.049 487.943V537.104H290.339L243.615 585.178L235.942 593.072V618.786L217.943 637.185L164.169 692.149H133.193L118.082 705.763H4V720.133H164.169L335.67 549.962V490.212L451.678 373.494L485.261 339.705L638.631 338.192L699.827 277.687L701.338 187.685L751.571 137.002L797.288 90.8763H766.312L670.362 187.685V271.636L627.298 316.259H520.678H345.492L262.385 234.577V189.198L235.187 164.239H198.167L87.8619 273.149H44.7977Z" fill="#6F27D4" fill-opacity="0.75"/>
<path d="M1546 89.3637C1546 89.3637 1545.75 241.384 1546 313.99L1593.6 359.369H1643.46L1691.58 311.863L1753.77 250.459V175.26L1839.66 89.3637L1814.49 71.1895H1774.99H1567.99H1564.18L1546 89.3637Z" fill="#6F27D4" fill-opacity="0.75"/>
<path d="M1955.73 919.253L1931.5 899L1900.58 866.31L1885.68 850.5H1838.5L1787.18 821.48H1737.18C1725.34 833.639 1700.88 858.468 1697.68 860.508C1694.48 862.547 1626.34 861.357 1592.68 860.508H1482.54L1405.5 809.011L1373.6 785.933L1354.5 774H1329.92L1309 783.5L1317 841L1438 919.253H1579H1716.75H1787.18L1858.27 1001.74L1955.73 1081.65V919.253Z" fill="#6F27D4" fill-opacity="0.75"/>
<path d="M928.991 877.655L1154.89 650.003V317.979L1216.84 257.474H1352.08L1441.23 168.228V98.4766L1470.55 69.1508H1525.09L1484.66 262L1480.06 283.966L1391.97 372.052L1309 376.131H1236.5L1227 669.668L1150.18 743.747L1042.68 841L980.5 877.655L942.59 908.664H870.787H723.491L684.287 877.655H928.991Z" fill="#6F27D4" fill-opacity="0.75"/>
<path d="M429.354 1024.17H487.528L559.85 951.774M1525.09 69.1508H1470.55L1441.23 98.4766V168.228L1352.08 257.474H1216.84L1154.89 317.979V650.003L928.991 877.655H684.287M1525.09 69.1508L1480.06 283.966M1525.09 69.1508L1484.66 262L1480.06 283.966M1955.73 786.141V688.575L1924 656.054H1858.27L1845.43 669.668H1821.25L1795.56 643.953V615.213L1912.67 497.983V478.319L1955.73 435.209V289.996L1720.77 524.454H1660.33L1525.09 389.83H1498L1477.79 410.043H1397.5L1352.08 455.465M1955.73 806.561V919.253M1955.73 919.253V1081.65L1858.27 1001.74L1787.18 919.253H1716.75H1579H1438L1317 841L1309 783.5L1329.92 774H1354.5L1373.6 785.933L1405.5 809.011L1482.54 860.508H1592.68C1626.34 861.357 1694.48 862.547 1697.68 860.508C1700.88 858.468 1725.34 833.639 1737.18 821.48H1787.18L1838.5 850.5H1885.68L1900.58 866.31L1931.5 899L1955.73 919.253ZM1227 669.668L1267.22 925.261V984.088L1329.92 1046.11H1450.81L1477.25 1018.12H1527.87M1227 669.668L1236.5 376.131H1309L1391.97 372.052L1480.06 283.966M1227 669.668L1150.18 743.747L1042.68 841M1374.5 1099.5L1243.49 1033.5L1042.68 841M1042.68 841L980.5 877.655L942.59 908.664H870.787M723.491 908.664L677.087 958.912M723.491 908.664H870.787M723.491 908.664L684.287 877.655M628.809 1006.78L677.087 958.912M610.677 968.962V940.222M229.178 432.697L235.942 425.925H258.608L319.049 487.943V537.104H290.339L243.615 585.178M229.178 432.697L207.988 453.909H180.79L147.547 487.943V537.86L120.349 563.575L46.3087 565.088L4 518.953V273.149L26.6654 297.351H97.6836L111.283 283.737H184.567L235.187 234.577V187.685L192.878 189.198L97.6836 283.737H38.7536L4 248.947V233.82L4.75551 234.577L44.7977 273.149H87.8619L198.167 164.239H235.187L262.385 189.198V234.577L345.492 316.259H520.678M229.178 432.697L248.178 450.572V530.112L227.178 553.056V569.372L243.615 585.178M243.615 585.178L235.942 593.072V618.786L217.943 637.185M217.943 637.185L164.169 692.149H133.193L118.082 705.763H4V720.133H164.169L335.67 549.962V490.212L451.678 373.494M217.943 637.185H96.6782L59.1782 674.405H36.1782L4 641.263M4 175.752L25.6782 201.246H44.1782L53.1782 213.483H81.6782L145.678 149.239V88.5645H233.678L270.178 125.275H293.678L333.678 166.575V201.246L393.178 262.94H434.678M520.678 316.259H627.298L670.362 271.636V187.685L766.312 90.8763H797.288L751.571 137.002M520.678 316.259V166.575L566.678 124.255H593.178L650.178 69.1895H693.989L760.178 3H887.989M4 836.544H146.178L181.178 867.646H254.678L362.678 758.024V637.185L451.678 549.962V373.494M451.678 373.494L485.261 339.705L638.631 338.192L699.827 277.687L701.338 187.685L751.571 137.002M522.678 614.75L602.178 541.329V450.572L636.678 419.47H760.178L806.178 376.131V183.4L751.571 137.002M1150.18 183.4L1027.18 308.318V652.481L941.178 743.747V780.639L912.882 809.011H756.178L684.287 877.655M684.287 877.655L613.699 897.868L559.85 951.774M305.449 1024.17L331.678 998.682H370.178L416.678 951.774H559.85M738.678 1066.53V1024.17L677.087 958.912M738.678 1180.73L804.678 1112.89H830.178L866.178 1074.09H1000.18L1077.18 1149.6M1197.18 1183L1098.68 1083.83V1054.77L1042.68 999.192H926.481L870.787 908.664M1923.18 1183L1819.5 1081.65V1046.11L1773.18 1001.74H1716.75L1661.18 945.656H1600.4L1527.87 1018.12M1527.87 1018.12H1619.29V1024.17V1066.53L1547.99 1083.83M1833.68 651.971L1885.68 600.474V572.431L1939.62 518.196M1667.18 503.089H1701.68L1760.68 443.434V372.052L1822.68 310.209H1852.68L1948.68 212.973M1564.18 386.329L1590.18 410.043L1605.68 427.628H1643.46L1689.18 386.329L1691.58 311.863M1691.58 311.863L1643.46 359.369H1593.6L1546 313.99C1545.75 241.384 1546 89.3637 1546 89.3637L1564.18 71.1895H1567.99H1774.99H1814.49L1839.66 89.3637L1753.77 175.26V250.459L1691.58 311.863Z" stroke="#6F27D4" stroke-opacity="0.75" stroke-width="5"/>
</g>
<path d="M2 377.666C5.02205 376.456 22.3988 377.162 30.7095 377.666L108.527 299.009H128.171L193.9 364.052C195.411 370.859 197.527 384.624 193.9 385.229C189.367 385.986 128.171 446.491 128.171 449.516C128.171 451.937 128.171 498.929 128.171 522.123L108.527 540.275H57.9079L2 483.551M207.499 285.395L243.008 251.361H261.896L320.071 308.085V326.237L334.426 339.85H450.019M221.854 319.43L256.608 352.708H284.562L304.205 373.128H406.955M161.413 294.471L221.854 352.708H236.209L248.297 367.078V392.793L307.227 453.298H340.47L387.311 407.163M1559.87 85.7274V279.345L1581.78 301.278H1596.13L1632.4 337.581M1615.77 305.816V292.202L1581.78 255.899V153.04C1588.58 144.972 1602.93 128.686 1605.95 128.081C1608.98 127.476 1640.45 127.829 1655.82 128.081L1700.39 81.1895H1742.7M1644.48 292.202L1688.3 248.336H1708.7L1730.61 226.403V150.014L1797.85 81.1895H1742.7M1704.17 233.209V189.343L1693.59 179.511V128.081L1742.7 81.1895M1228.95 283.883L1190.42 321.699V354.977L1204.78 368.59V411.701L1175.31 441.197V621.957M1383.08 337.581C1362.93 359.01 1321.73 401.868 1318.1 401.868C1314.48 401.868 1292.42 401.868 1281.84 401.868L1228.95 453.298V474.475L1204.78 500.946V552.376M1204.78 601.536L1244.82 559.183V507.753L1408.76 343.632V239.26M1540.22 466.155L1565.16 491.87V525.148L1624.09 583.385H1651.28L1673.19 563.721H1736.66L1794.08 506.997V481.282L1941.4 333.043V386.742L1861.32 462.374V516.829L1828.83 547.838V563.721L1749.5 643.89H1724.57L1673.19 590.948M1553.07 547.838L1660.35 655.235V674.143L1709.46 724.06H1799.36L1819.76 705.152H1894.56L1940.65 749.018M1718.52 1183.15L1580.27 1040.2H1495.65L1471.47 1065.16H1318.1L1231.97 980.452M1123.94 980.452H1179.09L1231.97 1031.88V1075.75L1256.15 1099.95H1435.96L1476.01 1137.77H1580.27L1624.84 1183.15M1261.44 1183.15L1318.1 1125.67H1417.83L1448.81 1155.92M665.34 935.829L607.921 995.578V1081.8L641.919 1114.32V1182.39C618.779 1182.39 577.318 1182.39 550.502 1182.39M566.368 1031.13V1059.11L539.169 1087.09H517.26L487.795 1114.32V1150.62C496.861 1161.21 515.446 1182.39 517.26 1182.39C518.005 1182.39 531.792 1182.39 550.502 1182.39M618.498 1126.42C614.872 1125.82 601.373 1126.17 595.077 1126.42L566.368 1098.44H548.236L519.526 1126.42V1150.62L550.502 1182.39M959.5 914.81L992 882.31V849.81L1092.79 749.018H1141.5L1204.78 685.743M1057 954.81H1148.5L1208.5 894.81V838.81L1269.5 777.81V716.81L1323 663.31" stroke="#07001B" stroke-opacity="0.5" stroke-width="5"/>
</svg>
