<svg width="1045" height="123" viewBox="0 0 1045 123" fill="none" xmlns="http://www.w3.org/2000/svg">
<path d="M67.6382 116.949L74.4213 120H121.902L128.685 116.949H67.6382Z" fill="#41009C"/>
<path d="M318.61 116.949L325.393 120H427.937L434.72 116.949H318.61Z" fill="#41009C"/>
<path d="M672.924 116.949L679.707 120H916.314L923.098 116.949H672.924Z" fill="#41009C"/>
<path d="M997.711 7.30675L988.135 3H768.285L758.709 7.30675H997.711Z" fill="#41009C"/>
<path d="M565.592 7.30675L556.016 3H337.363L327.787 7.30675H565.592Z" fill="#41009C"/>
<path d="M208.486 7.30675L198.91 3H109.932L100.356 7.30675H208.486Z" fill="#41009C"/>
<path d="M67.6382 116.949H16.1671V111.028L3 105.106V66.3451L16.1671 60.4233V7.30675H100.356M67.6382 116.949L74.4213 120H121.902L128.685 116.949M67.6382 116.949H128.685M128.685 116.949H318.61M318.61 116.949L325.393 120H427.937L434.72 116.949M318.61 116.949H434.72M434.72 116.949H672.924M672.924 116.949L679.707 120H916.314L923.098 116.949M672.924 116.949H923.098M923.098 116.949H1029.63V55.9371L1042 50.3742V17.8942L1029.63 12.3313V7.30675H997.711M997.711 7.30675L988.135 3H768.285L758.709 7.30675M997.711 7.30675H758.709M758.709 7.30675H565.592M565.592 7.30675L556.016 3H337.363L327.787 7.30675M565.592 7.30675H327.787M327.787 7.30675H208.486M208.486 7.30675L198.91 3H109.932L100.356 7.30675M208.486 7.30675H100.356M22.5511 114.617V10.5368H487.388H948.634H1019.66V114.617H22.5511Z" stroke="#41009C" stroke-width="5"/>
</svg>
