<svg width="280" height="280" viewBox="0 0 280 280" fill="none" xmlns="http://www.w3.org/2000/svg">
<g clip-path="url(#clip0_723_188)">
<circle cx="140" cy="140" r="140" fill="#07001B"/>
<path fill-rule="evenodd" clip-rule="evenodd" d="M55.0969 197.762L52.5002 193.916L52.9158 188C61.3572 202.966 75.6774 213.68 90.3198 222.321C104.962 230.961 123.089 233.102 140 233.097V233.066C156.911 233.071 175.175 230.961 189.817 222.321C204.46 213.681 218.78 202.966 227.221 188L227.637 193.916L225.04 197.762C217.729 208.593 208.33 217.917 197.416 225.163L193.549 227.73L194.466 229.16L202.927 241.904C202.357 242.253 201.784 242.597 201.208 242.937C190.861 249.043 179.739 253.54 168.209 256.329L165.236 241.179L164.343 236.624L159.789 237.518C153.495 238.753 146.666 239.5 140 239.5C133.334 239.5 126.642 238.752 120.348 237.518L115.794 236.624L114.901 241.178L111.928 256.329C100.398 253.54 89.2764 249.043 78.9293 242.937C78.3533 242.597 77.7803 242.252 77.2104 241.903L85.6712 229.16L86.5878 227.73L82.7213 225.163C71.8075 217.917 62.4084 208.593 55.0969 197.762ZM52.9158 199.865L43.2992 206.357L33.6826 212.849C43.0349 226.702 55.0442 238.613 68.9841 247.868L73.3141 241.346L79.253 232.402L81.8201 228.536C80.2534 227.495 78.716 226.414 77.2104 225.294C67.744 218.248 59.5174 209.644 52.9158 199.865ZM119.455 242.072L117.221 253.458L114.987 264.843C123.037 266.423 131.525 267.279 140 267.279V267.269C148.475 267.269 157.1 266.423 165.15 264.843L162.916 253.458L160.682 242.072C154.096 243.364 146.968 244 140 244C133.033 244 126.041 243.364 119.455 242.072ZM227.221 199.865L236.838 206.357L246.454 212.849C237.102 226.703 225.093 238.613 211.153 247.868L206.823 241.347L200.884 232.402L198.317 228.536C199.884 227.496 201.421 226.414 202.927 225.294C212.393 218.248 220.62 209.644 227.221 199.865Z" fill="#30D9F5" fill-opacity="0.15" style="mix-blend-mode:lighten"/>
<path fill-rule="evenodd" clip-rule="evenodd" d="M246.976 161.502L242.425 160.594L242.425 160.594C243.738 154.011 244.427 147.204 244.427 140.237C244.427 133.27 243.738 126.463 242.425 119.879L246.976 118.971L253.804 117.61L258.522 116.668L265.182 115.34C266.792 123.41 267.633 131.737 267.633 140.237C267.633 148.737 266.792 157.064 265.182 165.134L260.43 164.186L253.804 162.864L246.976 161.502ZM226.732 82.3245L236.349 75.8325L245.966 69.3405C236.613 55.487 224.604 43.5767 210.664 34.3215L206.334 40.8431C206.334 40.843 206.334 40.843 206.334 40.8429L200.395 49.7873L197.828 53.6539C197.828 53.6539 197.828 53.6539 197.828 53.654C199.395 54.6942 200.932 55.7754 202.438 56.8959C211.904 63.9417 220.13 72.5452 226.732 82.3241L226.732 82.3243L226.732 82.3242C226.732 82.3243 226.732 82.3244 226.732 82.3245ZM160.178 38.175L162.412 26.7893L164.646 15.4036C156.595 13.8242 148.291 13 139.816 13C131.342 13 123.037 13.8242 114.987 15.4036L116.439 22.8034C116.439 22.8035 116.439 22.8035 116.439 22.8035L118.561 33.6206L119.454 38.1749C119.454 38.1749 119.454 38.1748 119.455 38.1748L119.455 38.175C126.041 36.8829 132.849 36.2056 139.816 36.2056C146.784 36.2056 153.592 36.8829 160.178 38.175ZM81.8043 53.654L75.3865 43.9877L68.9688 34.3215C55.0289 43.5767 43.0195 55.487 33.6672 69.3406L39.6532 73.3816C39.6532 73.3816 39.6532 73.3816 39.6532 73.3816L49.0534 79.7275L52.9 82.3243C52.9 82.3243 52.9 82.3243 52.9 82.3242L52.9004 82.3245C60.552 70.9901 70.3862 61.2349 81.8043 53.654ZM37.2075 119.88C35.8942 126.463 35.2056 133.27 35.2056 140.237C35.2056 147.204 35.8942 154.011 37.2075 160.594L32.6557 161.502L25.829 162.864L19.024 164.221L18.6389 164.298L14.4504 165.134C12.8405 157.064 12 148.737 12 140.237C12 131.737 12.8405 123.41 14.4504 115.34L20.5565 116.558L25.829 117.61L32.6557 118.971L37.2071 119.879L37.2075 119.88ZM236.965 164.237L237.873 159.686C239.127 153.4 239.786 146.897 239.786 140.237C239.786 133.576 239.127 127.073 237.873 120.787L236.965 116.236L241.517 115.328L257.389 112.162C254.65 102.046 250.662 92.2801 245.488 83.1077C244.419 81.2128 243.304 79.3498 242.143 77.5205L229.329 86.171L225.482 88.7678L222.885 84.9211C215.574 74.0906 206.175 64.7664 195.261 57.5204L191.394 54.9532L193.962 51.0867L202.422 38.3434C201.852 37.9943 201.279 37.6498 200.704 37.31C190.356 31.2041 179.235 26.7069 167.704 23.9183L164.732 39.0684L163.839 43.6227L159.284 42.7292C152.991 41.4945 146.482 40.8465 139.816 40.8465C133.15 40.8465 126.641 41.4945 120.348 42.7292L115.793 43.6227L114.9 39.0684L111.902 23.7858C100.149 26.5695 88.8134 31.126 78.2822 37.3495C77.8674 37.5946 77.4543 37.8421 77.0427 38.0919L85.6704 51.0867L88.2375 54.9532L84.371 57.5204C73.4572 64.7664 64.0581 74.0906 56.7466 84.9211L54.1498 88.7678L50.3032 86.171L37.084 77.2469C35.8463 79.186 34.6596 81.163 33.5257 83.1761C28.3893 92.2957 24.4242 102.001 21.6929 112.052L38.1151 115.328L42.6665 116.236L41.7585 120.787C40.5045 127.073 39.8462 133.576 39.8462 140.237C39.8462 146.897 40.5045 153.4 41.7585 159.686L42.6665 164.237L38.1151 165.145L19.4088 168.877C21.9871 182.668 26.8345 195.973 33.7966 208.208L56.3349 194.831C47.8379 179.898 43.3443 162.942 43.3069 145.67C43.2695 128.399 47.6896 111.423 56.1218 96.4516C64.554 81.4805 76.7005 69.0436 91.3375 60.3937C105.975 51.7439 122.585 47.1867 139.496 47.1812C156.407 47.1758 173.02 51.7223 187.662 60.3627C202.305 69.0031 214.459 81.4322 222.9 96.3978C231.342 111.363 235.772 128.337 235.746 145.608C235.719 162.88 231.236 179.839 222.748 194.777L245.295 208.14C252.255 195.89 257.096 182.571 259.665 168.766L241.517 165.145L236.965 164.237Z" fill="#30D9F5"/>
<path fill-rule="evenodd" clip-rule="evenodd" d="M248 213L139.5 13L118.343 51.1942L137.757 85.3383L137.764 85.326L162.192 128.152L117.041 144.862L90.0027 191.708L179.542 158.57L210.588 213H248ZM31 213L111.979 62.9837L131.213 96.8111L64.9395 213H31Z" fill="white"/>
<path fill-rule="evenodd" clip-rule="evenodd" d="M246.976 161.502L242.425 160.594L242.425 160.594C243.738 154.011 244.427 147.204 244.427 140.237C244.427 133.27 243.738 126.463 242.425 119.879L246.976 118.971L253.804 117.61L258.522 116.668L265.182 115.34C266.792 123.41 267.633 131.737 267.633 140.237C267.633 148.737 266.792 157.064 265.182 165.134L260.43 164.186L253.804 162.864L246.976 161.502ZM226.732 82.3245L236.349 75.8325L245.966 69.3405C236.613 55.487 224.604 43.5767 210.664 34.3215L206.334 40.8431C206.334 40.843 206.334 40.843 206.334 40.8429L200.395 49.7873L197.828 53.6539C197.828 53.6539 197.828 53.6539 197.828 53.654C199.395 54.6942 200.932 55.7754 202.438 56.8959C211.904 63.9417 220.13 72.5452 226.732 82.3241L226.732 82.3243L226.732 82.3242C226.732 82.3243 226.732 82.3244 226.732 82.3245ZM160.178 38.175L162.412 26.7893L164.646 15.4036C156.595 13.8242 148.291 13 139.816 13C131.342 13 123.037 13.8242 114.987 15.4036L116.439 22.8034C116.439 22.8035 116.439 22.8035 116.439 22.8035L118.561 33.6206L119.454 38.1749C119.454 38.1749 119.454 38.1748 119.455 38.1748L119.455 38.175C126.041 36.8829 132.849 36.2056 139.816 36.2056C146.784 36.2056 153.592 36.8829 160.178 38.175ZM81.8043 53.654L75.3865 43.9877L68.9688 34.3215C55.0289 43.5767 43.0195 55.487 33.6672 69.3406L39.6532 73.3816C39.6532 73.3816 39.6532 73.3816 39.6532 73.3816L49.0534 79.7275L52.9 82.3243C52.9 82.3243 52.9 82.3243 52.9 82.3242L52.9004 82.3245C60.552 70.9901 70.3862 61.2349 81.8043 53.654ZM37.2075 119.88C35.8942 126.463 35.2056 133.27 35.2056 140.237C35.2056 147.204 35.8942 154.011 37.2075 160.594L32.6557 161.502L25.829 162.864L19.024 164.221L18.6389 164.298L14.4504 165.134C12.8405 157.064 12 148.737 12 140.237C12 131.737 12.8405 123.41 14.4504 115.34L20.5565 116.558L25.829 117.61L32.6557 118.971L37.2071 119.879L37.2075 119.88ZM236.965 164.237L237.873 159.686C239.127 153.4 239.786 146.897 239.786 140.237C239.786 133.576 239.127 127.073 237.873 120.787L236.965 116.236L241.517 115.328L257.389 112.162C254.65 102.046 250.662 92.2801 245.488 83.1077C244.419 81.2128 243.304 79.3498 242.143 77.5205L229.329 86.171L225.482 88.7678L222.885 84.9211C215.574 74.0906 206.175 64.7664 195.261 57.5204L191.394 54.9532L193.962 51.0867L202.422 38.3434C201.852 37.9943 201.279 37.6498 200.704 37.31C190.356 31.2041 179.235 26.7069 167.704 23.9183L164.732 39.0684L163.839 43.6227L159.284 42.7292C152.991 41.4945 146.482 40.8465 139.816 40.8465C133.15 40.8465 126.641 41.4945 120.348 42.7292L115.793 43.6227L114.9 39.0684L111.902 23.7858C100.149 26.5695 88.8134 31.126 78.2822 37.3495C77.8674 37.5946 77.4543 37.8421 77.0427 38.0919L85.6704 51.0867L88.2375 54.9532L84.371 57.5204C73.4572 64.7664 64.0581 74.0906 56.7466 84.9211L54.1498 88.7678L50.3032 86.171L37.084 77.2469C35.8463 79.186 34.6596 81.163 33.5257 83.1761C28.3893 92.2957 24.4242 102.001 21.6929 112.052L38.1151 115.328L42.6665 116.236L41.7585 120.787C40.5045 127.073 39.8462 133.576 39.8462 140.237C39.8462 146.897 40.5045 153.4 41.7585 159.686L42.6665 164.237L38.1151 165.145L19.4088 168.877C21.9871 182.668 26.8345 195.973 33.7966 208.208L56.3349 194.831C47.8379 179.898 43.3443 162.942 43.3069 145.67C43.2695 128.399 47.6896 111.423 56.1218 96.4516C64.554 81.4805 76.7005 69.0436 91.3375 60.3937C105.975 51.7439 122.585 47.1867 139.496 47.1812C156.407 47.1758 173.02 51.7223 187.662 60.3627C202.305 69.0031 214.459 81.4322 222.9 96.3978C231.342 111.363 235.772 128.337 235.746 145.608C235.719 162.88 231.236 179.839 222.748 194.777L245.295 208.14C252.255 195.89 257.096 182.571 259.665 168.766L241.517 165.145L236.965 164.237Z" fill="#30D9F5"/>
<path fill-rule="evenodd" clip-rule="evenodd" d="M248 213L139.5 13L118.343 51.1942L137.757 85.3383L137.764 85.326L162.192 128.152L117.041 144.862L90.0027 191.708L179.542 158.57L210.588 213H248ZM31 213L111.979 62.9837L131.213 96.8111L64.9395 213H31Z" fill="white"/>
</g>
<defs>
<clipPath id="clip0_723_188">
<rect width="280" height="280" fill="white"/>
</clipPath>
</defs>
</svg>
