<svg width="108" height="90" viewBox="0 0 108 90" fill="none" xmlns="http://www.w3.org/2000/svg">
<path fill-rule="evenodd" clip-rule="evenodd" d="M98.6217 64.264L96.7116 63.883L96.7114 63.8829C97.2626 61.1198 97.5517 58.2629 97.5517 55.3388C97.5517 52.4147 97.2626 49.5578 96.7114 46.7947L98.6217 46.4136L101.487 45.842L103.467 45.4469L106.263 44.8893C106.939 48.2763 107.291 51.7714 107.291 55.3389C107.291 58.9063 106.939 62.4014 106.263 65.7884L104.269 65.3905L101.487 64.8357L98.6217 64.264ZM90.1251 31.0325L94.1613 28.3078L98.1975 25.583C94.2722 19.7686 89.2318 14.7697 83.3811 10.8852L81.5638 13.6224C81.5637 13.6224 81.5637 13.6223 81.5636 13.6223L79.0712 17.3764L77.9937 18.9992C77.9938 18.9992 77.9939 18.9992 77.9939 18.9993C78.6515 19.4358 79.2965 19.8896 79.9284 20.3599C83.9016 23.3171 87.3541 26.9281 90.1249 31.0323L90.1249 31.0325L90.125 31.0324C90.1251 31.0324 90.1251 31.0325 90.1251 31.0325ZM62.1917 12.5026L63.1292 7.72389L64.0668 2.94519C60.688 2.28234 57.2026 1.9364 53.6457 1.9364C50.0888 1.9364 46.6034 2.28234 43.2246 2.9452L43.834 6.051C43.8339 6.05101 43.8338 6.05102 43.8338 6.05103L44.7245 10.5911L45.0995 12.5025C45.0995 12.5025 45.0996 12.5025 45.0996 12.5025L45.0997 12.5026C47.864 11.9603 50.7214 11.676 53.6457 11.676C56.57 11.676 59.4274 11.9603 62.1917 12.5026ZM29.2975 18.9993L26.6039 14.9422L23.9103 10.8852C18.0596 14.7697 13.0192 19.7686 9.09394 25.583L11.6063 27.2791C11.6063 27.2791 11.6063 27.2791 11.6063 27.2791L15.5516 29.9426L17.1661 31.0325C17.1661 31.0324 17.1661 31.0324 17.1661 31.0324L17.1663 31.0325C20.3777 26.2754 24.5052 22.181 29.2975 18.9993ZM10.5798 46.7948C10.0286 49.5578 9.73958 52.4148 9.73958 55.3389C9.73958 58.2629 10.0286 61.1199 10.5798 63.883L8.66937 64.264L5.80414 64.8357L2.94805 65.4053L2.78639 65.4376L1.02845 65.7884C0.352781 62.4014 0 58.9063 0 55.3389C0 51.7714 0.352781 48.2763 1.02845 44.8893L3.59125 45.4006L5.80414 45.842L8.66937 46.4136L10.5797 46.7947L10.5798 46.7948ZM94.42 65.4121L94.8011 63.5018C95.3274 60.8635 95.6037 58.1342 95.6037 55.3388C95.6037 52.5434 95.3274 49.8141 94.8011 47.1758L94.42 45.2655L96.3303 44.8844L102.992 43.5554C101.843 39.3098 100.169 35.211 97.9972 31.3613C97.5486 30.5659 97.0803 29.784 96.593 29.0162L91.2149 32.6469L89.6004 33.7368L88.5105 32.1224C85.4418 27.5767 81.4969 23.6632 76.9163 20.622L75.2935 19.5446L76.3709 17.9218L79.922 12.5733C79.6828 12.4268 79.4423 12.2822 79.2006 12.1395C74.8578 9.57685 70.1899 7.68931 65.3505 6.51891L64.103 12.8775L63.728 14.789L61.8166 14.414C59.1752 13.8958 56.4432 13.6238 53.6455 13.6238C50.8478 13.6238 48.1159 13.8958 45.4745 14.414L43.563 14.789L43.188 12.8775L41.9296 6.46332C36.9967 7.63163 32.2393 9.54403 27.8192 12.1561C27.6452 12.259 27.4717 12.3628 27.299 12.4677L30.9201 17.9218L31.9976 19.5446L30.3748 20.622C25.7941 23.6632 21.8493 27.5767 18.7806 32.1223L17.6907 33.7368L16.0762 32.6469L10.528 28.9014C10.0085 29.7153 9.51043 30.545 9.03455 31.39C6.87873 35.2175 5.21456 39.2908 4.06819 43.5094L10.9607 44.8844L12.871 45.2655L12.4899 47.1758C11.9636 49.8141 11.6873 52.5434 11.6873 55.3388C11.6873 58.1342 11.9636 60.8635 12.4899 63.5018L12.871 65.4121L10.9607 65.7932L3.10953 67.3594C4.1917 73.1478 6.22616 78.7317 9.14822 83.867L18.6077 78.2524C15.0415 71.9849 13.1555 64.8683 13.1398 57.6193C13.1241 50.3704 14.9792 43.2453 18.5183 36.9618C22.0574 30.6783 27.1554 25.4584 33.2987 21.828C39.442 18.1976 46.4136 16.2849 53.5112 16.2826C60.6088 16.2803 67.5816 18.1885 73.7271 21.8149C79.8727 25.4414 84.9739 30.658 88.5168 36.9392C92.0598 43.2204 93.9193 50.3443 93.9081 57.5933C93.8969 64.8422 92.0153 71.9601 88.4529 78.2298L97.9159 83.8384C100.837 78.697 102.869 73.1068 103.947 67.3127L96.3303 65.7932L94.42 65.4121Z" fill="#30D9F5" fill-opacity="0.73"/>
<path fill-rule="evenodd" clip-rule="evenodd" d="M101.569 89.3643L53.2846 0L43.8693 17.4257L52.5089 32.6061L52.512 32.6006L63.3829 51.6412L43.29 59.0704L31.2573 79.898L71.1041 65.165L84.9203 89.3643H101.569ZM5 89.3643L41.0372 22.6673L49.5967 37.7069L20.1037 89.3643H5Z" fill="white"/>
</svg>
