<svg width="1997" height="1186" viewBox="0 0 1997 1186" fill="none" xmlns="http://www.w3.org/2000/svg">
<path d="M464.787 16C465.953 18.9918 465.273 36.1948 464.787 44.4223L540.526 121.462V140.908L477.896 205.981C471.342 207.476 458.087 209.571 457.505 205.981C456.777 201.493 398.516 140.908 395.603 140.908C393.273 140.908 348.024 140.908 325.691 140.908L308.213 121.462V71.3487L362.832 16M553.634 219.444L586.406 254.598V273.296L531.787 330.889H514.309L501.2 345.1V459.537M520.863 233.655L488.82 268.061V295.735L469.157 315.182V416.904M544.895 173.818L488.82 233.655V247.866L474.983 259.833H450.222L391.962 318.174V351.084L436.385 397.457M363.342 1184.7L319.213 1141M319.213 1141H229.213L170.213 1082L146.713 1058.5V1036.5M319.213 1141L339.713 1120.5V1087.5L310.713 1058.5L288.713 1036.5H249.213L221.213 1064.5M1026.21 814.5V890L972.213 944V966.5L905.713 1033L842.963 1033M842.963 1033H790.213L737.713 1085.5H661.713L648.713 1098.5H581.713H406.213L393.213 1085.5V1070L355.713 1032.5L325.713 1002.5H294.713L285.213 993H265.713H217.713L199.713 1011L187.713 1023L183.713 1027M842.963 1033L883.713 992.25V922L910.713 895H945.713M1486.21 707V752.5L1515.21 781.5V806L1562.71 853.5H1597.71L1620.71 876.5M1736.71 944L1708.21 915.5H1659.71L1620.71 876.5M1617.21 960.5L1667.21 1005.5H1693.71L1708.21 991H1747.71L1762.21 1005.5M1531.71 675L1543.21 686.5H1576.71L1604.71 714.5V739L1629.21 763.5V769.5V791L1617.21 803V815.5L1640.71 839V856.5L1620.71 876.5M1736.71 751L1757.21 730.5H1800.21L1829.21 701.5L1842.71 688M1842.71 688V656M1842.71 688V712L1852.71 722V742.5M1842.71 656L1829.21 642.5V604.5L1856.21 577.5H1895.71L1935.21 617H1963.71M1842.71 656L1861.71 675M1907.71 1086L1938.21 1055.5V996L1892.71 950.5M1892.71 950.5V885.5L1852.71 845.5H1804.71L1770.21 880M1892.71 950.5L1877.21 935H1846.71L1821.71 910V880M1861.71 675H1897.21L1917.71 695.5M1861.71 675L1872.71 686V701.5L1883.21 712V730.5L1875.21 738.5H1856.71L1852.71 742.5M1852.71 742.5L1842.71 752.5L1812.21 783V806L1789.71 828.5M1961.21 885.5L1938.21 862.5V815.5L1910.71 788" stroke="#07001B" stroke-opacity="0.5" stroke-width="3"/>
<g opacity="0.07">
<path d="M164.96 1143.21L163.624 1098.21L108.124 1042.71L108.124 1018.71L158.961 967.874L367.46 967.874L442.297 1042.71L626.961 1042.71L758.961 1042.71L812.461 989.211L856.461 945.211L856.46 882.71L894.46 844.711L955.96 783.21L998.96 783.211L1014.96 767.211H1053.46L1062.96 776.71V901.642L914.461 1050.14L800.96 1050.14L743.961 1107.14V1170.21L193.461 1170.71L164.96 1143.21Z" fill="#6F27D4" fill-opacity="0.75"/>
<path d="M1890.46 1127.71L1782.46 1019.71H1642.46L1592.96 970.21L1592.96 896.711L1541.96 845.711L1467.96 771.711L1467.96 687.961L1526.71 629.211L1614.96 629.211L1666.96 681.211V794.211L1755.46 882.711L1755.46 844.711L1693.96 783.211L1693.96 732.211L1782.46 643.711L1782.46 563.711L1851.96 494.211L1908.46 494.211L1977.96 563.711L1977.96 882.71H1994.46L1994.46 1127.71L1890.46 1127.71Z" fill="#6F27D4" fill-opacity="0.75"/>
<path d="M579.263 43.5596L616.664 4.02557L617.397 3.27965H602.73L568.996 37.5922V95.7743L660.666 189.761L662.132 231.533H616.664L568.996 181.556L568.996 109.201L555.795 95.7744L555.795 25.6574L579.263 3.27967H340.921L296.186 45.0514L297.653 118.152L322.587 145.005H370.989L403.99 177.826V204.679L424.558 225.6L431.124 232.279L431.124 254.656L370.989 314.33L323.32 314.33L323.32 285.985L276.706 239.854L269.052 232.279H244.117L226.278 214.508L172.981 161.416L172.981 130.833L159.781 115.914L159.781 3.27967H145.847V161.416L310.853 330.741L368.788 330.741L481.964 445.277L514.727 478.434L516.194 629.857L574.862 690.277L662.132 691.768L711.277 741.364L756.002 786.501V755.918L662.132 661.185L580.729 661.185L537.461 618.668V513.401V340.438L616.664 258.386L660.666 258.386L684.867 231.533V194.982L579.263 86.0773V43.5596Z" fill="#6F27D4" fill-opacity="0.75"/>
<path d="M108.124 1042.71L163.624 1098.21L164.96 1143.21L193.461 1170.71L743.961 1170.21V1107.14L800.96 1050.14L914.461 1050.14L1062.96 901.642V776.71M108.124 1042.71L67.4604 1042.71L38.9605 1071.21M108.124 1042.71L108.124 1018.71L158.961 967.874M158.961 967.874L367.46 967.874L442.297 1042.71L626.961 1042.71L758.961 1042.71L812.461 989.211L856.461 945.211L856.46 882.71L894.46 844.711L955.96 783.21L998.96 783.211L1014.96 767.211H1053.46L1062.96 776.71M158.961 967.874L193.46 933.374H399.461L450.124 882.711H554.461M1062.96 776.71L1114.96 724.711H1165.96M704.461 846.711L609.961 941.211V972.211L626.961 989.211L686.461 989.211L715.961 1018.71M1467.96 687.961L1467.96 771.711L1541.96 845.711L1592.96 896.711L1592.96 970.21L1642.46 1019.71H1782.46L1890.46 1127.71L1994.46 1127.71L1994.46 882.71H1977.96L1977.96 563.711L1908.46 494.211L1851.96 494.211L1782.46 563.711L1782.46 643.711L1693.96 732.211L1693.96 783.211L1755.46 844.711L1755.46 882.711L1666.96 794.211V681.211L1614.96 629.211L1526.71 629.211L1467.96 687.961ZM1467.96 687.961L1467.96 604.211L1526.71 545.461M1693.96 1050.14L1614.96 1050.14L1526.71 961.892L1526.71 919.211M424.558 225.6L431.124 232.279L431.124 254.656L370.989 314.33L323.32 314.33L323.32 285.985L276.706 239.854M424.558 225.6L403.99 204.679V177.826L370.989 145.005H322.587L297.653 118.152L296.186 45.0514L340.921 3.27967H579.263L555.795 25.6574L555.795 95.7744L568.996 109.201L568.996 181.556L616.664 231.533H662.132L660.666 189.761L568.996 95.7743V37.5922L602.73 3.27965H617.397L616.664 4.02557L579.263 43.5596V86.0773L684.867 194.982V231.533L660.666 258.386L616.664 258.386L537.461 340.438V513.401M424.558 225.6L407.225 244.359H330.1L307.853 223.626L292.032 223.626L276.706 239.854M276.706 239.854L269.052 232.279H244.117L226.278 214.508M226.278 214.508L172.981 161.416L172.981 130.833L159.781 115.914L159.781 3.27967H145.847V161.416L310.853 330.741L368.788 330.741L481.964 445.277M226.278 214.508L226.278 94.7818L190.187 57.7577V35.0495L222.323 3.27967M673.703 3.27967L648.983 24.6828V42.948L637.118 51.8338V79.9721L699.411 143.16H758.244L758.244 230.043L722.648 266.08V289.282L682.602 328.774H648.983L589.162 387.519V428.492M777.031 641.258L723.637 584.981L723.637 558.817L682.602 513.401L537.461 513.401M537.461 513.401V618.668L580.729 661.185L662.132 661.185L756.002 755.918V786.501L711.277 741.364M32.9703 3.27967V143.654L2.81243 178.209M109.107 357.406H226.278L310.853 445.277H481.964M481.964 445.277L514.727 478.434L516.194 629.857L574.862 690.277L662.132 691.768L711.277 741.364M248.031 515.376L319.224 593.867H407.225L437.383 627.929L437.383 749.862L479.407 795.278L666.287 795.278L711.277 741.364M59.6675 900.627L59.6676 745.913" stroke="#6F27D4" stroke-opacity="0.75" stroke-width="5"/>
</g>
</svg>
