<svg width="666" height="668" viewBox="0 0 666 668" fill="none" xmlns="http://www.w3.org/2000/svg">
<path d="M657.742 101.013L650.404 92.3438L347.677 90.4174L332.082 72.1167H266.95L256.859 59.5951H242.182L251.355 72.1167H233.926L224.752 59.5951H212.826L221.083 72.1167H198.149L189.893 59.5951H177.05L183.471 72.1167H165.124L158.703 59.5951H144.025L149.529 72.1167H130.265L124.761 59.5951H111L115.587 72.1167H93.5707H74.168L16.5131 131.835L15.5952 631.399L41.2811 659.331H451.338L459.594 648.736H571.511L645.816 571.68V510.999L657.742 495.588L657.742 101.013Z" fill="#07001B"/>
<path fill-rule="evenodd" clip-rule="evenodd" d="M665.999 101.013L650.404 83.675H364.19L332.082 49H84.3971L0.000732422 136.651L0.000183105 627.546L38.529 668H577.015L665.998 576.497L665.999 101.013ZM650.404 92.3438L657.742 101.013L657.742 495.588L645.816 510.999V571.68L571.511 648.736H459.594L451.338 659.331H41.2811L15.5952 631.399L16.5131 131.835L74.168 72.1167H93.5707H115.587L111 59.5951H124.761L130.265 72.1167H149.529L144.025 59.5951H158.703L165.124 72.1167H183.471L177.05 59.5951H189.893L198.149 72.1167H221.083L212.826 59.5951H224.752L233.926 72.1167H251.355L242.182 59.5951H256.859L266.95 72.1167H332.082L347.677 90.4174L650.404 92.3438Z" fill="#41009C"/>
<g filter="url(#filter0_f_581_105)">
<path d="M165.191 175.142H169.087V152.818H165.191V144.556H185.933V152.818H182.037V175.142H185.933V183.433H165.191V175.142ZM191.822 183.433V152.32H204.888V183.433H191.822ZM212.564 160.084H206.997V156.685L211.333 152.32H218.54L225.542 159.322V183.433H212.564V160.084ZM231.548 183.433V152.32H244.615V183.433H231.548ZM252.29 160.084H246.724V156.685L251.06 152.32H258.267L265.269 159.322V183.433H252.29V160.084ZM305.962 175.67L298.199 183.433H289.527V176.168H292.749V160.084H289.527V152.32H298.199L305.962 160.084V175.67ZM284.107 176.168H287.476V183.433H278.775L271.011 175.67V160.084L278.775 152.32H287.476V160.084H284.107V176.168ZM308.365 152.32H321.226L332.3 183.433H319.996L308.365 152.32ZM333.619 181.705L327.818 165.24L332.007 152.32H344.107L333.619 181.705ZM367.251 183.433V160.084H348.824V156.217L352.72 152.32H372.144L379.908 160.084V183.433H367.251ZM365.201 165.328V170.719H358.521V176.168H365.201V179.595L361.333 183.433H351.431L346.216 178.306V170.513L351.431 165.328H365.201ZM399.068 175.67H407.622V183.433H393.912L386.119 175.67V160.084H383.54V152.32H386.119V148.951L399.068 144.556V175.67ZM401.119 160.084V152.32H408.091V160.084H401.119ZM412.632 152.32H425.611V183.433H412.632V152.32ZM412.632 140.191H425.611V148.453H412.632V140.191ZM428.306 152.32H441.167L452.242 183.433H439.937L428.306 152.32ZM453.56 181.705L447.759 165.24L451.949 152.32H464.048L453.56 181.705ZM479.371 183.433H474.185L466.421 175.67V160.084L474.185 152.32H479.371V183.433ZM481.421 170.953V165.533H488.247V160.084H481.421V152.32H492.408L500.171 160.084V170.953H481.421ZM481.421 183.433V176.168H498.824V179.537L494.956 183.433H481.421ZM261.607 196.455V239.433H248.658V196.455H261.607ZM240.367 232.168H246.607V236.357L243.531 239.433H234.419L227.417 232.431V215.322L234.419 208.32H246.607V216.084H240.367V232.168ZM280.386 239.433H275.201L267.437 231.67V216.084L275.201 208.32H280.386V239.433ZM282.437 226.953V221.533H289.263V216.084H282.437V208.32H293.423L301.187 216.084V226.953H282.437ZM282.437 239.433V232.168H299.839V235.537L295.972 239.433H282.437ZM313.492 208.32H318.677V219.306H333.443L340.181 226.103V232.168L332.945 239.433H327.232V227.685H313.228L306.49 221.211V215.293L313.492 208.32ZM319.439 233.72H325.181V239.433L311.851 239.404L306.46 233.017V230.527H319.439V233.72ZM327.232 214.033H320.728V208.32H334.497L339.126 212.949V216.465H327.232V214.033ZM345.308 208.32H358.287V239.433H345.308V208.32ZM345.308 196.191H358.287V204.453H345.308V196.191ZM384.917 216.084H379.175V208.32H390.103L397.867 216.084V242.51L390.103 250.332H373.023L369.126 246.406V243.535H384.917V216.084ZM382.867 232.168V235.595L378.999 239.433H371.939L364.175 231.67V216.084L371.939 208.32H377.124V232.168H382.867ZM403.697 239.433V208.32H416.763V239.433H403.697ZM424.439 216.084H418.872V212.685L423.208 208.32H430.415L437.417 215.322V239.433H424.439V216.084Z" fill="white" fill-opacity="0.3"/>
</g>
<path d="M165.191 175.142H169.087V152.818H165.191V144.556H185.933V152.818H182.037V175.142H185.933V183.433H165.191V175.142ZM191.822 183.433V152.32H204.888V183.433H191.822ZM212.564 160.084H206.997V156.685L211.333 152.32H218.54L225.542 159.322V183.433H212.564V160.084ZM231.548 183.433V152.32H244.615V183.433H231.548ZM252.29 160.084H246.724V156.685L251.06 152.32H258.267L265.269 159.322V183.433H252.29V160.084ZM305.962 175.67L298.199 183.433H289.527V176.168H292.749V160.084H289.527V152.32H298.199L305.962 160.084V175.67ZM284.107 176.168H287.476V183.433H278.775L271.011 175.67V160.084L278.775 152.32H287.476V160.084H284.107V176.168ZM308.365 152.32H321.226L332.3 183.433H319.996L308.365 152.32ZM333.619 181.705L327.818 165.24L332.007 152.32H344.107L333.619 181.705ZM367.251 183.433V160.084H348.824V156.217L352.72 152.32H372.144L379.908 160.084V183.433H367.251ZM365.201 165.328V170.719H358.521V176.168H365.201V179.595L361.333 183.433H351.431L346.216 178.306V170.513L351.431 165.328H365.201ZM399.068 175.67H407.622V183.433H393.912L386.119 175.67V160.084H383.54V152.32H386.119V148.951L399.068 144.556V175.67ZM401.119 160.084V152.32H408.091V160.084H401.119ZM412.632 152.32H425.611V183.433H412.632V152.32ZM412.632 140.191H425.611V148.453H412.632V140.191ZM428.306 152.32H441.167L452.242 183.433H439.937L428.306 152.32ZM453.56 181.705L447.759 165.24L451.949 152.32H464.048L453.56 181.705ZM479.371 183.433H474.185L466.421 175.67V160.084L474.185 152.32H479.371V183.433ZM481.421 170.953V165.533H488.247V160.084H481.421V152.32H492.408L500.171 160.084V170.953H481.421ZM481.421 183.433V176.168H498.824V179.537L494.956 183.433H481.421ZM261.607 196.455V239.433H248.658V196.455H261.607ZM240.367 232.168H246.607V236.357L243.531 239.433H234.419L227.417 232.431V215.322L234.419 208.32H246.607V216.084H240.367V232.168ZM280.386 239.433H275.201L267.437 231.67V216.084L275.201 208.32H280.386V239.433ZM282.437 226.953V221.533H289.263V216.084H282.437V208.32H293.423L301.187 216.084V226.953H282.437ZM282.437 239.433V232.168H299.839V235.537L295.972 239.433H282.437ZM313.492 208.32H318.677V219.306H333.443L340.181 226.103V232.168L332.945 239.433H327.232V227.685H313.228L306.49 221.211V215.293L313.492 208.32ZM319.439 233.72H325.181V239.433L311.851 239.404L306.46 233.017V230.527H319.439V233.72ZM327.232 214.033H320.728V208.32H334.497L339.126 212.949V216.465H327.232V214.033ZM345.308 208.32H358.287V239.433H345.308V208.32ZM345.308 196.191H358.287V204.453H345.308V196.191ZM384.917 216.084H379.175V208.32H390.103L397.867 216.084V242.51L390.103 250.332H373.023L369.126 246.406V243.535H384.917V216.084ZM382.867 232.168V235.595L378.999 239.433H371.939L364.175 231.67V216.084L371.939 208.32H377.124V232.168H382.867ZM403.697 239.433V208.32H416.763V239.433H403.697ZM424.439 216.084H418.872V212.685L423.208 208.32H430.415L437.417 215.322V239.433H424.439V216.084Z" fill="white"/>
<path d="M169.354 601.678H129.337V581.926M129.337 571.47H144.343M241.886 591.221V571.47H226.879M241.886 601.678H181.86M144.343 571.47L145.594 559.851M144.343 571.47H226.879M153.353 491.3L146.845 550.556M226.879 571.47L221.877 522.67M217.869 491.3L220.627 515.699M170.605 485.491C167.539 475.913 175.455 465.414 185.611 465.739C194.246 466.015 200.618 472.816 200.618 480.843C200.618 488.871 194.251 495.948 185.611 495.948C179.359 495.948 174.357 491.3 174.357 491.3M218.687 475.667C219.139 477.714 219.376 479.834 219.376 482.005C219.376 499.331 204.259 513.376 185.611 513.376C166.964 513.376 151.847 499.331 151.847 482.005C151.847 464.68 166.964 450.635 185.611 450.635C190.132 450.635 194.446 451.46 198.387 452.958M218.687 475.667L264.656 415.333M218.687 475.667C216.406 465.34 208.664 456.863 198.387 452.958M264.656 415.333C265.049 415.394 265.447 415.441 265.85 415.474C266.884 415.558 267.904 415.542 268.897 415.436C274.227 414.863 278.799 411.666 280.913 407.167M264.656 415.333C257.013 414.14 251.521 407.666 252.208 400.369C252.282 399.59 252.422 398.832 252.625 398.099M198.387 452.958L252.625 398.099M252.625 398.099C254.419 391.611 261.048 387.092 268.466 387.695C272.999 388.063 276.884 390.268 279.347 393.452M279.347 393.452C281.37 396.066 282.433 399.34 282.107 402.8C281.961 404.349 281.548 405.816 280.913 407.167M279.347 393.452H318.922M318.922 393.452C316.606 394.748 314.966 397.019 314.712 399.713C314.425 402.763 315.988 405.567 318.538 407.167M318.922 393.452C320.452 392.595 322.278 392.165 324.195 392.321C326.84 392.536 329.107 393.822 330.543 395.68M280.913 407.167H298.421M308.425 407.167H318.538M318.538 407.167C319.729 407.914 321.135 408.399 322.669 408.524C323.272 408.573 323.867 408.564 324.446 408.502C325.862 408.35 327.185 407.88 328.323 407.167C329.754 406.27 330.893 404.986 331.553 403.462C331.868 402.734 332.074 401.952 332.152 401.131C332.342 399.114 331.722 397.205 330.543 395.68M318.538 407.167C318.538 407.167 355.359 429.343 355.898 428.841C356.437 428.338 330.543 395.68 330.543 395.68M258.894 397.27C258.263 398.431 257.882 399.74 257.816 401.131C257.573 406.283 261.985 410.753 267.517 410.753C273.048 410.753 277.46 406.283 277.217 401.131C276.984 396.205 272.805 392.321 267.517 392.321C265.959 392.321 264.498 392.658 263.205 393.259" stroke="#FFB904" stroke-width="3" stroke-linecap="round"/>
<path d="M311.488 542.394L291.009 542.391M311.488 542.394V545.406M311.488 542.394V530.333M439.748 466.022L435.437 466.024M320.11 466.022C320.11 466.022 320.11 466.021 319.033 466.022C317.955 466.022 315.208 467.275 313.643 469.038C311.947 470.95 311.488 475.067 311.488 475.067V476.07M320.11 466.022V449.943M320.11 466.022L335.2 466.022M335.2 466.022V449.943M335.2 466.022L350.289 466.022M350.289 466.022V449.943M350.289 466.022L363.223 466.022M363.223 466.022V449.943M363.223 466.022L378.313 466.023M378.313 466.023V449.943M378.313 466.023L393.402 466.023M393.402 466.023V449.943M393.402 466.023L406.336 466.023M406.336 466.023V449.943M406.336 466.023L421.964 466.024M421.964 466.024V449.943M421.964 466.024L435.437 466.024M435.437 466.024V449.943M445.137 472.05V476.07M445.137 520.284V516.265M445.137 476.07H464.538M445.137 476.07V490.138M445.137 490.138H464.538M445.137 490.138V502.196M445.137 502.196H464.538M445.137 502.196V516.265M445.137 516.265H464.538M445.137 527.318V530.333M445.137 578.566V570.528M445.137 530.333H464.538M445.137 530.333V542.391M445.137 542.391H464.538M445.137 542.391V556.459M445.137 556.459H464.538M445.137 556.459V570.528M445.137 570.528H464.538M464.538 582.586H446.215C444.059 582.586 445.137 586.605 444.059 588.615C442.797 590.97 439.748 592.635 438.67 592.635C437.593 592.635 393.402 592.635 393.402 592.635M393.402 592.635V610.722M393.402 592.635H391.246M335.2 592.635H329.811M335.2 592.635V610.722M335.2 592.635H350.289M350.289 592.635V610.722M350.289 592.635H363.223M363.223 592.635V610.722M363.223 592.635H378.313M385.857 592.635H378.313M378.313 592.635V610.722M406.336 592.635V610.722M421.425 592.635V610.722M320.11 610.722V592.635M320.11 592.635C317.955 592.635 315.485 591.615 313.643 589.62C311.644 587.455 311.488 584.596 311.488 582.586M320.11 592.635H323.344M311.488 582.586H291.009M311.488 582.586V570.528M311.488 548.42V556.459M311.488 570.528H291.009M311.488 570.528V556.459M311.488 556.459H291.009M311.488 530.333H291.009M311.488 530.333V516.265M311.488 516.265H291.009M311.488 516.265V502.196M311.488 502.196H291.009M311.488 502.196V490.138M311.488 490.138H291.009M311.488 490.138V476.07M311.488 476.07H291.009M328.733 508.226V482.099H345.978M382.624 482.099H378.313M389.091 482.099H410.647M427.892 500.187V482.099H410.647M427.892 505.211V557.464M427.892 563.493V576.557H421.425M388.013 576.557H393.402M381.546 576.557H363.223M328.733 572.537V576.557H335.2M328.733 568.518V515.26M335.2 576.557V544.401L344.759 530.597M335.2 576.557H363.223M363.223 576.557V549.425M363.223 549.425C367.39 549.425 370.768 546.276 370.768 542.391C370.768 538.506 367.39 535.357 363.223 535.357C359.056 535.357 355.678 538.506 355.678 542.391C355.678 546.276 359.056 549.425 363.223 549.425ZM393.402 576.557V551.435M393.402 576.557H421.425M393.402 551.435C397.569 551.435 400.947 548.286 400.947 544.401C400.947 540.516 397.569 537.367 393.402 537.367C389.235 537.367 385.857 540.516 385.857 544.401C385.857 548.286 389.235 551.435 393.402 551.435ZM421.425 576.557V545.406L411.265 530.847M410.647 482.099V495.162M410.647 495.162C406.48 495.162 403.102 498.312 403.102 502.196C403.102 506.081 406.48 509.23 410.647 509.23C414.814 509.23 418.192 506.081 418.192 502.196C418.192 498.312 414.814 495.162 410.647 495.162ZM378.313 482.099L378.313 505.211M378.313 482.099H345.978M378.313 505.211C374.146 505.211 370.768 508.36 370.768 512.245C370.768 516.13 374.146 519.279 378.313 519.279C382.479 519.279 385.857 516.13 385.857 512.245C385.857 508.36 382.479 505.211 378.313 505.211ZM345.978 482.099V495.162M345.978 495.162C341.811 495.162 338.433 498.312 338.433 502.196C338.433 506.081 341.811 509.23 345.978 509.23C350.145 509.23 353.523 506.081 353.523 502.196C353.523 498.312 350.145 495.162 345.978 495.162ZM411.265 530.847C414.059 529.817 416.036 527.275 416.036 524.303C416.036 520.419 412.658 517.269 408.491 517.269C404.325 517.269 400.947 520.419 400.947 524.303C400.947 528.188 404.325 531.338 408.491 531.338C409.471 531.338 410.407 531.164 411.265 530.847ZM344.759 530.597C345.775 531.071 346.921 531.338 348.134 531.338C352.3 531.338 355.678 528.188 355.678 524.303C355.678 520.419 352.3 517.269 348.134 517.269C343.967 517.269 340.589 520.419 340.589 524.303C340.589 527.057 342.286 529.442 344.759 530.597Z" stroke="#FFB904" stroke-width="3" stroke-linecap="round"/>
<path d="M398.088 311.853H390.091C389.539 311.853 389.091 311.406 389.091 310.853V290.164C389.091 289.612 389.539 289.164 390.091 289.164H438.077M445.075 289.164H497.06H526.052C526.604 289.164 527.052 289.612 527.052 290.164V310.853C527.052 311.406 526.604 311.853 526.052 311.853H523.053M514.055 311.853H412.084M406.086 311.853H412.084M412.084 311.853V322.705M412.084 328.624V322.705M412.084 322.705H462.07M473.067 322.705H486.063M504.058 319.745V332.556C504.058 333.109 503.61 333.556 503.058 333.556H470.068M417.083 333.556H446.075M446.075 333.556V364.402M446.075 333.556H470.068M470.068 333.556V364.402M477.066 378.935C477.066 389.287 468.562 397.679 458.071 397.679C447.581 397.679 439.077 389.287 439.077 378.935C439.077 368.583 447.581 360.192 458.071 360.192C460.614 360.192 463.041 360.685 465.258 361.58C471.039 363.913 475.395 368.978 476.678 375.148C476.932 376.371 477.066 377.638 477.066 378.935ZM477.066 378.935L497.467 403.835C498.02 404.526 498.041 405.496 497.519 406.21L474.44 437.817C474.253 438.073 474.007 438.281 473.722 438.424L459.163 445.71C458.665 445.959 458.084 445.992 457.561 445.8L453.525 444.319C452.014 443.764 451.755 441.762 453.078 440.852L462.7 434.226C462.84 434.13 462.968 434.015 463.079 433.887L484.694 408.808C485.264 408.146 485.329 407.194 484.853 406.463L482.952 403.544M451.073 383.868C453.43 386.444 454.554 387.266 458.071 387.266C462.932 387.266 466.513 383.037 466.513 378.241C466.513 373.445 462.929 369.381 458.071 369.216C454.343 369.09 450.865 371.603 449.862 375.148M479.312 399.051L473.067 390.441M442.582 368.084L412.728 372.746C411.856 372.913 411.2 373.626 411.117 374.499L407.329 414.193C407.296 414.538 407.355 414.885 407.501 415.199L413.997 429.198C414.218 429.673 414.621 430.043 415.118 430.226L421.999 432.75C423.625 433.347 425.173 431.763 424.566 430.203C424.534 430.12 424.484 430.045 424.427 429.977L420.924 425.826M419.111 420.114L420.924 385.413C420.969 384.553 421.573 383.822 422.417 383.605L439.086 379.521" stroke="#FFB904" stroke-width="3" stroke-linecap="round"/>
<defs>
<filter id="filter0_f_581_105" x="25.1909" y="0.191162" width="614.98" height="390.141" filterUnits="userSpaceOnUse" color-interpolation-filters="sRGB">
<feFlood flood-opacity="0" result="BackgroundImageFix"/>
<feBlend mode="normal" in="SourceGraphic" in2="BackgroundImageFix" result="shape"/>
<feGaussianBlur stdDeviation="70" result="effect1_foregroundBlur_581_105"/>
</filter>
</defs>
</svg>
