<svg width="52" height="51" viewBox="0 0 52 51" fill="none" xmlns="http://www.w3.org/2000/svg">
<path d="M12.1349 0.0971375C10.4714 0.296394 8.50913 0.943981 7.01499 1.79082C3.15015 4.01255 0.600146 7.87815 0.112061 12.2718C-0.0373535 13.5968 -0.0373535 37.3882 0.112061 38.7133C0.819287 45.1194 5.87944 50.1806 12.2843 50.8879C13.6091 51.0374 37.3958 51.0374 38.7207 50.8879C45.1255 50.1806 50.1857 45.1194 50.8929 38.7133C51.0423 37.3882 51.0423 13.5968 50.8929 12.2718C50.1857 5.86565 45.1255 0.804501 38.7207 0.0971375C37.5453 -0.032383 13.2804 -0.032383 12.1349 0.0971375ZM39.7566 3.29522C41.8285 3.86311 43.4222 4.76973 44.8167 6.1745C46.2212 7.5693 47.1277 9.16336 47.7054 11.2356L47.9644 12.1921V25.4925V38.793L47.7054 39.7494C47.1277 41.8217 46.2212 43.4158 44.8167 44.8106C43.4222 46.2153 41.8285 47.1219 39.7566 47.6998L38.8003 47.9588H25.5025H12.2046L11.2484 47.6998C9.17651 47.1219 7.58276 46.2153 6.18823 44.8106C4.78374 43.4158 3.87729 41.8217 3.29956 39.7494L3.04058 38.793V25.4925V12.1921L3.29956 11.2356C3.87729 9.16336 4.78374 7.5693 6.17827 6.1745C7.83179 4.52066 10.0132 3.42474 12.3042 3.086C12.633 3.03619 18.7291 3.0063 25.8511 3.01626L38.8003 3.02622L39.7566 3.29522Z" fill="#FFB904"/>
<path d="M39.2985 6.63269C36.868 6.97142 35.2145 9.33263 35.8022 11.6241C36.2106 13.248 37.2466 14.2742 38.8602 14.6927C41.5995 15.3901 44.2889 12.9093 43.8307 10.1097C43.5817 8.54556 42.4362 7.23046 40.9421 6.78213C40.5038 6.65261 39.6969 6.58287 39.2985 6.63269ZM40.4141 9.81085C40.952 10.1496 41.0417 10.9765 40.5934 11.4448C40.2249 11.8233 39.7766 11.913 39.3184 11.6938C38.6212 11.3651 38.4717 10.4485 39.0296 9.9304C39.438 9.54185 39.9161 9.502 40.4141 9.81085Z" fill="#FFB904"/>
<path d="M23.5798 11.6941C18.0714 12.4513 13.4197 16.5958 12.0152 22.0256C10.78 26.7779 12.1646 31.7992 15.6808 35.3161C21.1593 40.7957 29.8452 40.7957 35.3238 35.3161C40.8023 29.8365 40.8023 21.1489 35.3238 15.6693C32.1761 12.531 27.9626 11.0963 23.5798 11.6941ZM27.096 14.683C29.4866 15.0416 31.5187 16.0678 33.222 17.7715C37.5152 22.0555 37.5152 28.9299 33.222 33.2139C28.9388 37.5079 22.0657 37.5079 17.7825 33.2139C13.4894 28.9299 13.4894 22.0555 17.7825 17.7715C20.2628 15.2907 23.6695 14.1549 27.096 14.683Z" fill="#FFB904"/>
</svg>
