<svg width="97" height="99" viewBox="0 0 97 99" fill="none" xmlns="http://www.w3.org/2000/svg">
<g filter="url(#filter0_f_1074_639)">
<path d="M51.0921 75.6858H66.2977L72.8903 69.0894M51.0921 75.6858L53.8568 78.452H68.1053L72.8903 73.6643V69.0894M51.0921 75.6858H35.6739M72.8903 69.0894L75.8676 66.1104V35.5112M71.0826 25.7877L66.2977 21L32.5903 21M71.0826 25.7877L75.8676 30.5753V35.5112M71.0826 25.7877V30.7235L75.8676 35.5112M21 61.0036V66.1104L30.5699 75.6858H35.6739M21 61.0036L35.6739 75.6858M21 61.0036L21 32.5968M32.5903 21H28.2192L25.7376 23.4874V25.9748L24.0456 27.6708L21 30.7235V32.5968M32.5903 21L21 32.5968" stroke="#FFB904"/>
</g>
<g filter="url(#filter1_f_1074_639)">
<path d="M51.0921 75.6858H66.2977L72.8903 69.0894M51.0921 75.6858L53.8568 78.452H68.1053L72.8903 73.6643V69.0894M51.0921 75.6858H35.6739M72.8903 69.0894L75.8676 66.1104V35.5112M71.0826 25.7877L66.2977 21L32.5903 21M71.0826 25.7877L75.8676 30.5753V35.5112M71.0826 25.7877V30.7235L75.8676 35.5112M21 61.0036V66.1104L30.5699 75.6858H35.6739M21 61.0036L35.6739 75.6858M21 61.0036L21 32.5968M32.5903 21H28.2192L25.7376 23.4874V25.9748L24.0456 27.6708L21 30.7235V32.5968M32.5903 21L21 32.5968" stroke="#FFB904"/>
</g>
<path fill-rule="evenodd" clip-rule="evenodd" d="M66.2977 75.6858H51.0921H35.6739L21 61.0036L21 32.5968V30.7235L24.0456 27.6708L25.7376 25.9748V23.4874L28.2192 21H32.5903L66.2977 21L71.0826 25.7877V30.7235L75.8676 35.5112V66.1104L72.8903 69.0894L66.2977 75.6858Z" fill="#41009C" fill-opacity="0.4"/>
<path d="M21 66.1104L30.5699 75.6858H35.6739L21 61.0036V66.1104Z" fill="#FFB904" fill-opacity="0.4"/>
<path d="M66.2977 75.6858H51.0921L53.8568 78.452H68.1053L72.8903 73.6643V69.0894L66.2977 75.6858Z" fill="#FFB904" fill-opacity="0.4"/>
<path d="M75.8676 30.5753L71.0826 25.7877V30.7235L75.8676 35.5112V30.5753Z" fill="#FFB904" fill-opacity="0.4"/>
<path d="M51.0921 75.6858H66.2977L72.8903 69.0894M51.0921 75.6858L53.8568 78.452H68.1053L72.8903 73.6643V69.0894M51.0921 75.6858H35.6739M72.8903 69.0894L75.8676 66.1104V35.5112M71.0826 25.7877L66.2977 21L32.5903 21M71.0826 25.7877L75.8676 30.5753V35.5112M71.0826 25.7877V30.7235L75.8676 35.5112M21 61.0036V66.1104L30.5699 75.6858H35.6739M21 61.0036L35.6739 75.6858M21 61.0036L21 32.5968M32.5903 21H28.2192L25.7376 23.4874V25.9748L24.0456 27.6708L21 30.7235V32.5968M32.5903 21L21 32.5968" stroke="#FFB904"/>
<path d="M47.473 25.1858C44.1108 25.3446 41.0236 26.1427 38.0883 27.6092C34.4355 29.4379 31.3595 32.1518 29.0748 35.5655C26.9712 38.7088 25.659 42.3728 25.2879 46.1398C25.1493 47.5303 25.1381 48.9722 25.2543 50.3762C25.6143 54.8048 27.2954 59.1127 30.0405 62.6539C31.0108 63.9058 32.1464 65.0951 33.3804 66.1525C37.6614 69.8188 43.2412 71.8219 48.8478 71.7057C51.5751 71.6498 54.0945 71.1691 56.6162 70.2235C62.3927 68.0572 67.1655 63.5593 69.6961 57.8944C72.5419 51.5252 72.3653 44.1814 69.2132 37.9688C68.0552 35.6863 66.6111 33.7145 64.7601 31.8881C63.6177 30.7591 62.5894 29.9208 61.266 29.0399C57.7831 26.7217 53.8017 25.4139 49.5632 25.1925C49.1787 25.1724 47.8351 25.1679 47.473 25.1858ZM49.476 26.1762C54.5863 26.431 59.263 28.3246 63.1438 31.7092C63.6312 32.134 64.7511 33.254 65.1714 33.7369C66.895 35.7153 68.2408 37.9107 69.1797 40.2826C71.1894 45.3596 71.243 51.0893 69.3317 56.1998C67.9546 59.8751 65.6073 63.1569 62.5626 65.6607C60.231 67.5766 57.5014 69.0185 54.6355 69.8479C50.3255 71.0953 45.7025 71.0104 41.4595 69.602C38.8238 68.7279 36.3022 67.3217 34.1717 65.5355C33.4497 64.9297 32.4258 63.9415 31.8535 63.2977C28.6612 59.7007 26.7409 55.3615 26.2715 50.678C26.1865 49.8486 26.1687 49.4506 26.1687 48.4424C26.1687 47.4364 26.1865 47.0407 26.2715 46.2068C26.6314 42.5964 27.8498 39.1939 29.8796 36.1334C31.5115 33.6743 33.6509 31.5348 36.1099 29.8939C39.4788 27.6472 43.3194 26.3774 47.3388 26.1784C47.8754 26.1516 48.9596 26.1516 49.476 26.1762Z" fill="white"/>
<path d="M47.7301 26.5473C46.8247 26.5898 46.1205 26.6501 45.4163 26.7485C40.154 27.484 35.3208 30.1331 31.8357 34.1884C27.2015 39.5806 25.4757 46.8596 27.1992 53.7451C28.3192 58.2252 30.8543 62.2537 34.4333 65.2494C37.8492 68.1042 42.0608 69.8524 46.4782 70.2481C47.7077 70.3598 49.172 70.3598 50.4015 70.2503C54.0051 69.9284 57.4992 68.6988 60.5171 66.6891C61.3666 66.1257 62.0842 65.5757 62.9091 64.8559C63.2757 64.5362 64.4002 63.4229 64.731 63.0518C66.7944 60.7358 68.3101 58.1179 69.2535 55.2385C69.8548 53.4053 70.1879 51.637 70.3108 49.6496C70.3421 49.1175 70.3421 47.7673 70.3108 47.2352C70.1208 44.1434 69.363 41.3087 68.0061 38.6171C66.2937 35.228 63.7497 32.353 60.582 30.2315C57.3964 28.0965 53.7994 26.867 49.9432 26.5898C49.4872 26.5585 48.0922 26.5294 47.7301 26.5473ZM50.1109 26.9899C51.3672 27.0972 52.5342 27.2873 53.6407 27.5645C61.342 29.4938 67.4159 35.579 69.325 43.2782C70.17 46.6919 70.1588 50.318 69.2915 53.7295C68.2408 57.8631 65.9427 61.6344 62.7392 64.487C60.1349 66.8053 57.061 68.4417 53.7212 69.2912C51.4276 69.8747 48.9708 70.0737 46.59 69.8703C42.3336 69.5036 38.2806 67.865 34.9363 65.1577C33.8342 64.2657 32.6315 63.063 31.7306 61.9519C29.0413 58.6388 27.4027 54.6081 27.0204 50.365C26.9265 49.3456 26.9153 47.7114 26.9958 46.7769C27.2372 43.9087 27.9392 41.378 29.1888 38.8742C30.0271 37.1975 31.0264 35.7086 32.2805 34.2712C32.7008 33.7905 33.8007 32.6906 34.2746 32.277C35.6852 31.0475 37.1629 30.0504 38.7881 29.2277C41.4371 27.8909 44.1734 27.1554 47.2383 26.9586C47.7278 26.9273 49.6191 26.9497 50.1109 26.9899Z" fill="white"/>
<path d="M36.8745 59.3408C36.8253 59.381 36.7359 59.4727 36.6778 59.5397L36.5704 59.6649L36.6532 59.8169C36.8789 60.2305 37.2254 60.691 37.572 61.0375C37.8111 61.2768 38.3052 61.6993 38.3432 61.6993C38.4103 61.6993 39.0273 61.6031 39.0519 61.5897C39.0742 61.5786 39.0094 61.5204 38.8551 61.4087C38.0392 60.8274 37.4959 60.2305 37.0846 59.4704C37.0243 59.3564 36.9728 59.2625 36.9706 59.2625C36.9684 59.2625 36.9259 59.2983 36.8745 59.3408Z" fill="white"/>
<path d="M35.9378 49.6876C35.864 49.7681 35.7456 49.9112 35.6763 50.005L35.5466 50.1749V50.9462V51.7175L35.7321 51.8986C35.902 52.064 36.063 52.1981 36.0921 52.1981C36.0988 52.1981 36.1055 51.599 36.1055 50.868C36.1055 50.1369 36.0988 49.5378 36.0898 49.54C36.0786 49.54 36.0116 49.6071 35.9378 49.6876Z" fill="white"/>
<path d="M35.9155 42.545C35.835 42.6322 35.7187 42.7708 35.6561 42.8512L35.5466 42.9988V45.0019V47.0049L35.721 47.1726C35.8171 47.2642 35.9423 47.3716 36.0004 47.4096L36.1055 47.4833V44.9326C36.1055 43.4235 36.0965 42.384 36.0853 42.384C36.0742 42.384 35.9982 42.4556 35.9155 42.545Z" fill="white"/>
<path d="M60.8547 49.7323L60.8524 51.3911L60.9776 51.4291C61.1028 51.4649 61.2123 51.4604 61.3308 51.4157L61.3889 51.3933V50.5818V49.7703L61.3241 49.6474C61.1989 49.4171 61.0983 49.0773 60.8793 48.1629C60.8636 48.1026 60.8569 48.6212 60.8547 49.7323Z" fill="white"/>
<path d="M47.54 28.2776C45.8612 28.3581 44.1957 28.6442 42.6331 29.1182C42.4051 29.1875 42.1994 29.2501 42.1771 29.2568C42.1391 29.2657 42.1368 29.259 42.148 29.192C42.1681 29.0869 42.1368 28.9885 42.072 28.9505C42.0206 28.9215 42.0027 28.9237 41.8887 28.9773C41.8194 29.0086 41.6652 29.1048 41.5444 29.1897C41.2426 29.4021 41.0079 29.534 40.7374 29.6413C40.4535 29.7531 40.4155 29.7777 40.3395 29.8962C40.2903 29.9722 40.2478 30.0035 40.0869 30.075C38.9334 30.5981 37.5429 31.4186 36.4944 32.1966L36.1994 32.4134H35.873H35.5466V32.675V32.9388L35.294 33.1534C34.7508 33.6184 33.9303 34.4209 33.434 34.9731C33.1501 35.2906 32.7299 35.7958 32.4638 36.1423C32.3476 36.2921 32.2448 36.4151 32.2381 36.4151C32.2291 36.4151 32.2112 36.3592 32.1956 36.2899C32.1509 36.0954 31.9787 35.9389 31.8983 36.0216C31.8759 36.0417 31.8603 36.1267 31.8491 36.263C31.8312 36.5336 31.744 36.9136 31.6658 37.0656C31.6322 37.1327 31.5585 37.2556 31.5003 37.3428C31.3662 37.5418 31.3081 37.658 31.2746 37.7877C31.2611 37.8458 31.1807 38.0046 31.098 38.1432C31.0175 38.2818 30.9012 38.4807 30.8409 38.5903L30.7313 38.7848L30.662 38.7177C30.5346 38.5925 30.5123 38.6305 30.5055 38.9748L30.5011 39.2207L30.3915 39.4375L30.282 39.6566H30.197C30.016 39.6566 29.9824 39.7215 29.9578 40.1261C29.9422 40.4011 29.94 40.41 29.8148 40.7029C29.7455 40.8661 29.6382 41.0807 29.5778 41.1835C29.4839 41.3355 29.466 41.3847 29.466 41.4764C29.466 41.5479 29.428 41.6932 29.352 41.9123C29.0189 42.8758 28.7395 43.9713 28.5629 44.9929L28.4914 45.4132L28.1851 45.4199C27.9705 45.4244 27.8364 45.4154 27.7335 45.3909C27.51 45.3394 27.4183 45.3461 27.3736 45.4132C27.3065 45.516 27.3468 45.6055 27.5547 45.8245C27.7782 46.0615 27.814 46.1264 27.8811 46.4282C27.9548 46.7635 28.0308 46.8551 28.2343 46.8551H28.3326L28.317 46.9714C28.3103 47.0362 28.3036 47.1189 28.3036 47.1547C28.3036 47.1994 28.2946 47.2151 28.27 47.2061C28.2522 47.1972 28.1314 47.1771 27.9995 47.1569C27.8185 47.1301 27.7559 47.1279 27.7425 47.148C27.7134 47.1949 27.7671 47.3291 28.0085 47.8276L28.2477 48.3194L28.2745 49.0125C28.3036 49.8173 28.3282 50.1526 28.4064 50.8121C28.7239 53.5238 29.6315 56.2356 31.0063 58.5784C31.1807 58.8758 31.1874 58.8936 31.1874 59.0255C31.1874 59.1396 31.1762 59.1776 31.1315 59.2402C31.051 59.3475 31.089 59.3765 31.3282 59.3944L31.516 59.4078L31.7127 59.6985C34.1047 63.2217 37.5049 65.8977 41.4483 67.362C43.3284 68.0595 45.2263 68.4574 47.283 68.587C47.7971 68.6183 49.087 68.6183 49.6079 68.5848C52.3933 68.4104 54.953 67.7286 57.4098 66.5035C61.0067 64.7106 63.971 61.9049 65.9919 58.3795C66.2534 57.9256 66.7407 56.9487 66.9531 56.4614C67.8943 54.2884 68.4375 52.0126 68.5873 49.6272C68.5985 49.4238 68.6096 49.1242 68.6096 48.961C68.6096 48.6704 68.6119 48.6615 68.6722 48.5698C68.7751 48.4178 68.7751 48.42 68.7035 48.4335L68.6387 48.4469L68.6253 48.2926C68.6163 48.2099 68.6096 48.0378 68.6096 47.9103C68.6096 47.7069 68.6163 47.6667 68.6678 47.5661C68.7415 47.4207 68.7326 47.2933 68.6365 47.0966C68.5806 46.9781 68.5649 46.911 68.5448 46.683C68.509 46.2761 68.5023 46.303 68.6275 46.2851C68.8578 46.2515 68.9114 46.2024 69.0903 45.8804C69.3116 45.4825 69.4658 45.0309 69.4144 44.9348C69.3742 44.8566 69.3317 44.8811 69.2065 45.0488C69.0523 45.2545 68.9718 45.3305 68.8757 45.3573C68.7527 45.3931 68.661 45.3841 68.509 45.3193L68.3682 45.2567L68.3414 45.089C68.2564 44.5413 68.0306 43.551 67.8473 42.9094C67.6506 42.2298 67.3041 41.2349 67.0716 40.6962L66.9844 40.4927L67.0247 40.3541L67.0649 40.2133L67.0157 40.2289C66.895 40.2692 66.8905 40.2647 66.7072 39.8802L66.5328 39.5113L66.5463 39.2431C66.5574 39.0083 66.5552 38.9703 66.5217 38.9435C66.4837 38.9122 66.4658 38.9167 66.3071 39.0016C66.3004 39.0061 66.2288 38.8228 66.1506 38.5925L66.0053 38.1789L65.9762 38.2683C65.9583 38.3198 65.9382 38.36 65.9293 38.36C65.9203 38.36 65.8734 38.2929 65.8264 38.2102C65.7772 38.1275 65.6588 37.933 65.5626 37.7788C65.395 37.5127 65.3883 37.4948 65.4017 37.4032C65.4218 37.2735 65.3771 37.2065 65.2564 37.1863C65.1714 37.1729 65.1558 37.1573 64.9881 36.9114C64.8875 36.766 64.778 36.6096 64.74 36.5604L64.6729 36.4687L64.7422 36.2496C64.845 35.9143 64.8383 35.8897 64.6103 35.6237C64.4963 35.4895 64.4292 35.3755 64.4292 35.3129C64.4292 35.2637 64.3823 35.2414 64.3599 35.2772C64.3488 35.295 64.2996 35.4113 64.2482 35.5365C64.1968 35.6639 64.1498 35.7668 64.1409 35.7668C64.1319 35.7668 64.0693 35.6997 64.0023 35.617C63.3875 34.8569 62.3949 33.8419 61.6438 33.2026L61.389 32.9835V32.6973V32.4134H61.0358H60.6825L60.3495 32.1653C59.1758 31.2934 57.7518 30.4796 56.3591 29.8828C56.1199 29.7799 55.8628 29.6592 55.789 29.6145C55.6281 29.5184 55.3978 29.4043 55.1899 29.3172C54.991 29.2344 54.9015 29.1294 54.83 28.9036C54.7585 28.6823 54.7294 28.6778 54.5483 28.8611L54.412 29.0019L54.1839 28.7627C53.9537 28.5235 53.8777 28.4766 53.7927 28.5213C53.7413 28.5481 53.719 28.6755 53.7368 28.8544C53.7503 28.9684 53.748 28.9773 53.7078 28.9617C53.6854 28.9528 53.4842 28.9013 53.2629 28.8455C52.1452 28.5682 50.9693 28.3872 49.7197 28.3C49.2591 28.2687 48.014 28.2553 47.54 28.2776ZM49.5699 28.68C50.2338 28.7203 51.1616 28.8231 51.7294 28.9215L51.8277 28.9371L51.8568 29.0735C51.8926 29.2479 51.9686 29.4245 52.0602 29.5452L52.134 29.6413H52.0714C51.9999 29.6413 51.7629 29.5631 51.3315 29.3976C51.1481 29.3283 51.0162 29.2881 50.9894 29.297C50.9402 29.3127 50.8821 29.4312 50.8821 29.5139C50.8821 29.5675 50.8799 29.5698 50.6094 29.5787C50.3724 29.5899 50.3076 29.6011 50.1332 29.6637C49.8247 29.7732 49.6638 29.8693 49.3977 30.0974L49.1518 30.3075L48.8836 30.0705C48.7338 29.9409 48.5818 29.8067 48.5438 29.771L48.4745 29.7061L46.9253 31.0609C45.7986 32.0423 45.3582 32.4134 45.3202 32.4134C45.2777 32.4134 45.3291 32.362 45.5505 32.1809L45.8321 31.9462L45.7584 31.935C45.7181 31.9283 45.6242 31.9171 45.5505 31.9082C45.3873 31.8925 45.271 31.8456 45.271 31.7986C45.271 31.745 45.3873 31.6869 45.7226 31.5728C46.1339 31.4342 46.1652 31.3985 46.1652 31.0922C46.1652 30.8284 46.2032 30.8083 46.581 30.8575C46.7554 30.882 46.8537 30.8843 46.9096 30.8686C47.0393 30.8329 47.0371 30.7882 46.9007 30.587C46.8001 30.4416 46.8113 30.4036 47.0102 30.2293C47.2785 29.9945 47.4171 29.847 47.4171 29.8C47.4171 29.7196 47.3657 29.7061 47.0304 29.7017C46.6481 29.6972 46.6302 29.6883 46.4916 29.4602C46.315 29.1651 46.2122 29.0847 46.0221 29.0824C45.888 29.0824 45.5728 29.1987 45.0832 29.4312C44.3723 29.771 44.198 29.8447 44.0996 29.8492C44.0281 29.8537 44.008 29.8447 44.0013 29.8134C43.9901 29.7598 44.0638 29.6838 44.312 29.4826C44.5199 29.3127 44.5802 29.2434 44.6428 29.0981L44.6853 29.0019L45.1838 28.9192C45.9238 28.7985 46.6816 28.7136 47.4171 28.6733C47.739 28.6554 49.2278 28.6599 49.5699 28.68ZM53.3859 29.2724C53.8754 29.4021 53.8173 29.3619 53.9693 29.6681C54.0409 29.8179 54.1012 29.9655 54.1012 29.999C54.1012 30.1309 53.9939 30.1398 53.824 30.0236C53.7234 29.9543 53.4462 29.6704 53.3099 29.496C53.2607 29.4334 53.1802 29.3417 53.131 29.2881C53.0819 29.2367 53.0506 29.1942 53.0617 29.1942C53.0751 29.1942 53.2204 29.23 53.3859 29.2724ZM42.5661 29.6994C42.3492 29.9185 42.186 30.0437 42.1145 30.0437C42.0653 30.0437 42.0474 29.9766 42.0564 29.8202L42.0631 29.6994L42.3872 29.5944C42.5661 29.5362 42.727 29.4893 42.7449 29.4871C42.7628 29.4848 42.6823 29.581 42.5661 29.6994ZM45.7315 30.2695C45.7561 30.312 45.6265 30.4193 45.4297 30.5221C45.1615 30.6585 44.692 30.8642 44.6071 30.882C44.5132 30.8999 44.4439 30.8619 44.4439 30.7904C44.4439 30.7479 44.4752 30.7166 44.5959 30.6384C44.6786 30.5847 44.806 30.5154 44.8798 30.4841C45.1034 30.3902 45.5482 30.2606 45.6891 30.2471C45.7025 30.2449 45.7226 30.2561 45.7315 30.2695ZM51.7093 30.3254C51.8255 30.3455 52.0982 30.4059 52.3128 30.4595C52.5274 30.5132 52.8739 30.5937 53.0841 30.6384C53.4731 30.7188 53.6206 30.768 53.6743 30.8351C53.7011 30.8664 53.6988 30.8776 53.6653 30.9156C53.6027 30.9849 53.4462 31.0475 52.9969 31.1749C52.7622 31.2442 52.4961 31.3269 52.4067 31.3627C52.1116 31.4812 51.7651 31.5058 51.5975 31.4186C51.4566 31.3448 51.5595 31.2643 51.9753 31.1123C52.3061 30.9938 52.3553 30.9335 52.1832 30.8642C52.0848 30.8262 52.0267 30.815 51.6757 30.7703C51.2264 30.7121 51.0721 30.6451 51.0028 30.4752C50.9514 30.3567 50.9626 30.2941 51.0341 30.2829C51.1325 30.265 51.479 30.2874 51.7093 30.3254ZM56.6989 30.4595C57.1102 30.6473 57.8301 31.0162 58.2146 31.2375C58.5409 31.4253 59.1781 31.8165 59.1691 31.8232C59.1669 31.8277 59.064 31.8143 58.9411 31.7986C58.8181 31.7807 58.5007 31.7517 58.2369 31.7316C57.9731 31.7137 57.6601 31.6824 57.5439 31.6645C57.4277 31.6466 57.1348 31.6108 56.8956 31.5862C56.1311 31.5035 55.903 31.4588 55.8561 31.385C55.8203 31.3269 55.9589 31.1235 56.1803 30.9066C56.3032 30.7882 56.4105 30.6652 56.4172 30.6384C56.4284 30.5937 56.4127 30.5087 56.368 30.35C56.3613 30.3299 56.3613 30.312 56.368 30.312C56.3747 30.312 56.5245 30.379 56.6989 30.4595ZM40.1405 30.663C40.1405 30.891 40.183 30.9692 40.4557 31.2532C40.5698 31.3739 40.6704 31.4991 40.6793 31.5304C40.7195 31.6936 40.3373 31.8702 39.604 32.0244C39.2575 32.0982 38.6875 32.2502 38.4639 32.3307C38.4147 32.3486 38.3767 32.3754 38.379 32.3888C38.3834 32.4067 38.1688 32.4134 37.6234 32.4134C36.8767 32.4134 36.8611 32.4134 36.9125 32.3732C37.221 32.134 38.0347 31.6086 38.5981 31.2822C38.9759 31.0631 40.0757 30.4931 40.1182 30.4908C40.1316 30.4908 40.1428 30.5601 40.1405 30.663ZM42.7762 30.5713C42.7963 30.5892 42.812 30.6227 42.812 30.6428C42.8097 30.6965 42.736 30.853 42.66 30.9648C42.5035 31.1928 42.4409 31.394 42.5079 31.4499C42.575 31.5058 42.9416 31.4141 43.1562 31.2867C43.2881 31.2084 43.5296 30.9558 43.6793 30.7434C43.8023 30.5691 43.8537 30.5177 43.8828 30.549C43.8895 30.5557 43.8962 30.6585 43.8962 30.777V30.9938L44.0929 30.9871C44.2002 30.9827 44.2874 30.9894 44.2874 31.0005C44.2874 31.0274 43.9632 31.3023 43.7442 31.4611C43.5318 31.6108 43.2747 31.745 43.1003 31.7964C42.9193 31.85 42.5415 31.8791 42.2799 31.8635L42.0497 31.8478L42.0631 31.745C42.0899 31.5482 42.1883 31.2174 42.2643 31.0609C42.3984 30.7904 42.6175 30.5355 42.7158 30.5355C42.7293 30.5355 42.7583 30.5512 42.7762 30.5713ZM49.8493 30.6093C50.0058 30.6943 50.1712 30.8463 50.1623 30.9022C50.1466 31.005 49.8314 31.0408 49.6526 30.9581C49.5296 30.9022 49.4156 30.8172 49.3821 30.7569C49.3508 30.6987 49.3866 30.654 49.5073 30.6004C49.628 30.5445 49.7353 30.5467 49.8493 30.6093ZM48.195 31.271C48.1548 31.3068 47.5892 31.7986 46.9387 32.3665L45.7539 33.3971H44.5735H43.3932V33.3233C43.3932 33.2853 43.3865 33.1869 43.3798 33.1064L43.3664 32.9611L44.4774 32.9544L45.5885 32.9477L46.9208 31.7852L48.2554 30.6227L48.2621 30.9156L48.2688 31.2062L48.195 31.271ZM48.8188 30.7412C48.859 30.7814 48.9395 30.9066 48.9954 31.0162C49.0535 31.128 49.1183 31.2442 49.1407 31.2755C49.1966 31.3538 49.3441 31.4208 49.5319 31.4521C49.6168 31.4678 49.9589 31.5751 50.2942 31.6936L50.9 31.9082L50.9358 32.0423C51.0274 32.3799 50.9805 32.4 50.7077 32.1362C50.5378 31.9752 50.4909 31.9417 50.3791 31.9104C50.2405 31.8702 50.0282 31.8724 49.9834 31.9171C49.9477 31.9529 50.0639 32.0893 50.321 32.3195C50.6496 32.6101 50.8083 32.713 51.0162 32.7689L51.1951 32.818L51.2554 32.7733C51.2912 32.7443 51.3449 32.7264 51.403 32.7264H51.4924L51.479 32.8382L51.4656 32.9499H51.8836C52.1161 32.9499 52.3128 32.941 52.3263 32.9298C52.3374 32.9186 52.4246 32.8941 52.5207 32.8762C52.7465 32.8292 53.0014 32.704 53.2942 32.4917C53.4239 32.4 53.5424 32.324 53.558 32.324C53.6094 32.324 53.6161 32.3866 53.5915 32.5744C53.5625 32.7778 53.5737 32.8158 53.6832 32.8829C53.7234 32.9075 53.7458 32.9276 53.7324 32.9298C53.6832 32.9321 54.0297 33.017 54.1459 33.0304C54.2465 33.0416 54.3024 33.0327 54.4321 32.9879C54.6065 32.9276 54.9574 32.7063 54.9977 32.6347C55.0357 32.561 55.1899 32.5028 55.3486 32.5028C55.4805 32.5028 55.4872 32.5051 55.4872 32.5565C55.4872 32.6124 55.3956 32.713 55.2659 32.7979C55.2033 32.8404 55.1787 32.8762 55.1474 32.9879C55.0938 33.1668 55.0267 33.2227 54.7652 33.3054C54.289 33.4529 54.2533 33.4887 54.0677 33.994C53.9202 34.4031 53.8531 34.4679 53.5267 34.526C53.3054 34.564 53.2585 34.5819 53.0886 34.6982C52.8002 34.8949 52.6795 35.0536 52.7376 35.1609C52.8181 35.3129 53.0796 35.2749 53.4552 35.0581C53.5982 34.9754 53.6519 34.9575 53.8106 34.9396C54.0811 34.9083 54.1929 34.8658 54.3002 34.7496C54.3963 34.6467 54.517 34.4165 54.6355 34.1191C54.6758 34.0185 54.7205 33.9269 54.7339 33.9157C54.7495 33.9023 54.8367 33.8911 54.9306 33.8844C55.1497 33.8755 55.1855 33.8464 55.5297 33.4328C55.7019 33.2272 55.8226 33.102 55.874 33.0774C55.9835 33.026 56.1557 33.0304 56.5558 33.0953C56.9895 33.1668 57.0812 33.1668 57.222 33.0953C57.3651 33.0215 57.4075 32.9835 57.4947 32.8449C57.535 32.7823 57.6132 32.6884 57.6691 32.637C57.7786 32.5364 57.9888 32.4268 58.0536 32.4402C58.114 32.4514 58.152 32.6034 58.1408 32.7868L58.1318 32.9499H59.3591C60.032 32.9499 60.5842 32.9566 60.5842 32.9656C60.5842 32.9745 60.4903 33.0751 60.3785 33.1892L60.1706 33.3971H57.9687H55.7644L55.6482 33.6027L55.5342 33.8106L57.7585 33.8173L59.9806 33.8218V44.7828C59.9806 54.3957 59.9761 55.7885 59.9471 56.1014C59.8018 57.6373 59.2787 59.0211 58.5231 59.8818C58.0804 60.387 57.45 60.8542 56.7168 61.2209C55.9433 61.6076 55.1944 61.8602 53.7413 62.2246C52.5207 62.5309 51.6958 62.7858 51.0073 63.0742C50.0885 63.4564 49.3597 63.8946 48.6734 64.4758L48.4655 64.6525L48.3269 64.5273C47.7591 64.0109 46.8493 63.443 45.9976 63.0742C45.3358 62.7858 44.929 62.6606 43.4603 62.2917C41.654 61.8401 41.0504 61.6456 40.3306 61.2857C38.949 60.5927 38.0481 59.6582 37.5384 58.3906C37.4758 58.2364 37.4244 58.1268 37.4244 58.1447C37.4199 58.3079 37.3551 58.8176 37.335 58.8646C37.3104 58.9182 37.3171 58.9428 37.4222 59.1396C38.0124 60.2439 39.0273 61.1493 40.3596 61.7596C41.0303 62.0659 41.6428 62.2582 43.2144 62.6494C44.6495 63.0071 45.1548 63.1613 45.7606 63.4207C46.704 63.8231 47.4372 64.2791 48.1257 64.8939L48.2666 65.0191V65.341V65.6629L47.9715 65.3745C47.245 64.6659 46.315 64.0936 45.2352 63.6889C44.815 63.5302 44.2539 63.3737 43.0467 63.0742C42.4811 62.9333 41.8976 62.7835 41.7501 62.741C41.6026 62.6986 41.4796 62.665 41.4774 62.6673C41.4751 62.6717 41.5087 62.7835 41.5489 62.9154C41.5914 63.0496 41.6272 63.1748 41.6272 63.1949C41.6272 63.215 41.6361 63.2441 41.645 63.2597C41.6562 63.2731 42.2553 63.4363 42.9819 63.6196C43.7062 63.8029 44.4148 63.9885 44.5557 64.031C45.698 64.382 46.7241 64.9543 47.5244 65.692C47.7256 65.8798 47.7614 65.9245 47.6988 65.9245C47.6831 65.9245 47.6138 65.9536 47.5445 65.9916C47.3187 66.1123 47.2852 66.0944 47.0214 65.7188C46.9521 65.6182 46.7889 65.4282 46.657 65.2941C46.4335 65.066 46.4156 65.0526 46.3329 65.0526C46.2837 65.0526 46.201 65.0727 46.1473 65.0973C46.0937 65.1219 46.0087 65.1532 45.9595 65.1666C45.9081 65.1801 45.8299 65.2158 45.7874 65.2449C45.5728 65.3902 45.4051 65.2784 44.9826 64.7128C44.8955 64.5943 44.8016 64.4893 44.7747 64.4803C44.7256 64.4647 44.701 64.4848 44.6205 64.6033C44.5914 64.6502 44.5802 64.6525 44.5378 64.6301C44.5109 64.6167 44.4126 64.5049 44.3209 64.382C44.1443 64.1495 44.0706 64.0913 43.9476 64.0913C43.8649 64.0913 43.733 64.1629 43.7173 64.2143C43.7106 64.2322 43.7017 64.2635 43.695 64.2836C43.686 64.3127 43.6704 64.3059 43.6056 64.2501C43.4714 64.1338 43.4021 64.107 43.2613 64.1226C43.192 64.1316 43.0422 64.1427 42.9304 64.1517C42.727 64.1629 42.7225 64.1629 42.6152 64.0936C42.4498 63.9885 42.376 64.0019 42.1883 64.1673C42.0564 64.2836 41.9759 64.2992 41.8574 64.2255C41.7859 64.183 41.7814 64.1763 41.7501 63.9393C41.7278 63.7716 41.654 63.6666 41.3231 63.3312C40.9967 63.0004 40.8313 62.8104 40.5675 62.4728C40.4826 62.3655 40.3954 62.2761 40.3686 62.2693C40.3417 62.2649 40.183 62.2559 40.0176 62.2537L39.7158 62.247L39.4811 62.1196C39.0876 61.9094 38.3611 61.7283 38.2135 61.8066C38.1465 61.8424 38.1398 61.9161 38.1666 62.2805C38.1934 62.6382 38.1845 62.7276 38.1197 62.7276C38.0571 62.7276 37.9833 62.6293 37.8268 62.3319L37.686 62.0681L37.7016 61.6725L37.715 61.2768L37.6502 61.2007C37.5876 61.1292 37.4222 61.0264 37.3216 60.9973C37.2903 60.9884 37.259 60.9951 37.2344 61.0197C37.2031 61.051 37.1852 61.0554 37.136 61.0353C37.1047 61.0219 37.0131 60.9839 36.9348 60.9504C36.8029 60.8945 36.7806 60.8922 36.6778 60.9146C36.5414 60.9437 36.4967 60.9325 36.2441 60.8073C35.94 60.6553 35.607 60.3088 35.2269 59.7499C35.0749 59.5285 35.0548 59.4637 35.0816 59.3296C35.1062 59.2022 35.1733 59.1664 35.3432 59.182C35.4952 59.1954 35.5466 59.22 35.6897 59.3519C35.8171 59.4682 35.9154 59.4972 36.0719 59.4637C36.2418 59.4279 36.5213 59.2849 36.6398 59.1709C36.7806 59.0345 36.8052 58.9607 36.8074 58.6477C36.8119 58.3258 36.8186 58.3057 37.069 58.0106C37.4222 57.5925 37.5831 57.3265 37.5854 57.1521C37.5876 57.0135 37.5004 56.8481 37.3261 56.6558C37.1673 56.4837 37.1517 56.4435 37.0779 56.0433C37.0354 55.8265 36.9974 55.7527 36.9259 55.7527C36.8968 55.7527 36.7605 55.813 36.6196 55.8868C36.2195 56.097 36.0786 56.1596 35.978 56.173C35.8998 56.1819 35.8819 56.1752 35.8596 56.1327C35.7813 55.9852 35.8931 55.7102 36.1994 55.2989C36.4453 54.9725 36.49 54.8741 36.5548 54.5589C36.595 54.351 36.5995 54.2996 36.5772 54.199C36.528 53.9799 36.4251 53.8346 36.1703 53.6177C35.9713 53.4501 35.9445 53.4009 35.8283 53.0074C35.7277 52.6654 35.6673 52.5357 35.5958 52.5044C35.5198 52.4686 35.4885 52.5178 35.4706 52.7056C35.4549 52.8621 35.3991 53.0164 35.3409 53.0633C35.2985 53.0991 35.0436 53.1594 34.9296 53.1594H34.8402L34.7999 52.8845C34.7776 52.7347 34.7195 52.415 34.6725 52.1758C34.5943 51.7868 34.5719 51.7153 34.4736 51.5163C34.4132 51.3933 34.2522 51.1228 34.1159 50.9149C33.9549 50.669 33.87 50.517 33.87 50.4768C33.87 50.4432 33.9057 50.3449 33.9482 50.2577C34.0533 50.0498 34.0779 50.0408 34.5272 50.0609L34.8648 50.0766L35.0034 50.0095C35.1934 49.9179 35.4616 49.6585 35.598 49.4305C35.8462 49.0214 35.9579 48.4603 35.8707 48.0556C35.8037 47.7404 35.6382 47.5169 35.2895 47.2821C35.1621 47.1927 35.0436 47.0988 35.028 47.072C34.9922 47.0049 34.9944 46.7121 35.0324 46.4483C35.0481 46.3276 35.0548 46.2225 35.0458 46.2135C35.0369 46.2046 34.9832 46.2158 34.9251 46.2381C34.7776 46.294 34.6815 46.3074 34.639 46.2717C34.6189 46.256 34.5697 46.1733 34.5272 46.0906C34.4847 46.0056 34.4087 45.8693 34.3573 45.7865L34.2657 45.6368L34.2813 45.3573C34.2992 45.0197 34.3282 44.8007 34.3618 44.7671C34.3752 44.7537 34.478 44.7403 34.592 44.7358C34.8491 44.7291 34.8916 44.7202 34.9207 44.6643C34.9564 44.5972 34.8983 44.5056 34.7552 44.4072C34.6859 44.3603 34.63 44.3155 34.63 44.3111C34.63 44.2664 34.8581 43.9489 34.9743 43.8327C35.1084 43.6963 35.1151 43.6851 35.1733 43.4683C35.2068 43.3453 35.2739 43.0748 35.323 42.8669C35.4236 42.4399 35.4684 42.3438 35.7321 41.9704C35.8305 41.8363 35.9333 41.6776 35.9624 41.6195C36.0362 41.4741 36.063 41.264 36.0563 40.875L36.0496 40.5397H35.949C35.8931 40.5397 35.8171 40.5486 35.7769 40.5576L35.7076 40.5754L35.7478 40.4436C35.8081 40.2468 35.8439 39.9629 35.8305 39.7796C35.8171 39.5918 35.7098 39.2542 35.607 39.0754C35.4728 38.8429 35.2716 38.6909 35.1956 38.7669C35.18 38.7848 35.1554 38.8809 35.1442 38.9815C35.1196 39.205 34.9967 39.4599 34.8379 39.6209C34.6904 39.7706 34.5853 39.7863 34.5384 39.6633C34.5093 39.5873 34.5227 39.4845 34.6122 39.1089C34.6792 38.8339 34.6815 38.7915 34.6837 38.3578L34.6859 37.8972L34.6144 37.781L34.5406 37.6647L34.6054 37.4032C34.6993 37.0298 34.706 36.965 34.6636 36.7772C34.6435 36.6878 34.6323 36.5872 34.6412 36.5537C34.6479 36.5201 34.7038 36.4061 34.7642 36.3011C34.9274 36.0104 34.943 35.9501 34.9654 35.4672C34.99 34.8904 35.0458 34.7362 35.2515 34.6445C35.3253 34.611 35.3745 34.6043 35.4482 34.6154L35.5466 34.6289V36.6699V38.711L35.6852 38.8451C35.7634 38.9189 35.8663 39.0038 35.9155 39.0351C35.9646 39.0664 36.0183 39.1179 36.0362 39.1514C36.0541 39.1827 36.0764 39.2095 36.0876 39.2095C36.0965 39.2095 36.1055 37.8391 36.1055 36.1647V33.1176L36.329 33.3412L36.5526 33.5647V43.5689V53.573L36.6889 53.6848C36.7649 53.7451 36.8544 53.8301 36.8901 53.8703L36.955 53.9441V43.8818V33.8218H39.1234C40.3171 33.8218 41.2918 33.8151 41.2918 33.8062C41.2918 33.7972 41.2561 33.7011 41.2114 33.5938L41.1286 33.3971H38.9356H36.7426L36.5369 33.1914C36.4229 33.0774 36.329 32.9768 36.329 32.9656C36.329 32.9566 37.373 32.9522 38.6495 32.9544C40.9476 32.9611 40.9699 32.9634 41.1376 33.0103C41.4461 33.0975 41.7836 33.2987 41.7836 33.3971C41.7836 33.4172 41.7523 33.5446 41.7143 33.6787C41.6316 33.9671 41.6316 34.1683 41.7166 34.3919C41.7926 34.5909 41.8753 34.6557 42.148 34.7406C42.5459 34.8614 42.5661 34.8703 42.5661 34.9284C42.5661 34.9597 42.5057 35.0581 42.4275 35.1632C42.1257 35.5544 42.1055 35.617 42.2419 35.7556C42.3246 35.8361 42.4856 35.9277 42.5951 35.9545C42.7024 35.9791 42.736 35.9411 42.7538 35.7757C42.7628 35.693 42.7807 35.6058 42.7941 35.579C42.8075 35.5521 42.9416 35.4068 43.0914 35.2526C43.3865 34.9508 43.4603 34.839 43.4603 34.6892C43.4603 34.488 43.382 34.4567 42.964 34.4902C42.6622 34.5148 42.5415 34.4992 42.4699 34.4277C42.4029 34.3628 42.4431 34.2958 42.6175 34.1706C42.8276 34.0208 42.8298 33.9984 42.6398 33.8173C42.5795 33.7615 42.4833 33.634 42.4275 33.5379C42.233 33.2026 42.0385 33.0394 41.6629 32.8941C41.4349 32.8069 41.3768 32.7577 41.2784 32.5721C41.2046 32.4335 41.0906 32.3307 40.8894 32.2167L40.7464 32.1362L41.0012 32.0155C41.3365 31.859 41.531 31.7942 41.5802 31.8255C41.6003 31.8366 41.6249 31.897 41.6339 31.9574C41.6629 32.1317 41.7143 32.2167 41.8261 32.2726C41.8999 32.3106 41.9334 32.3441 41.9513 32.4C42.0787 32.7666 42.4856 33.1042 43.1026 33.3501L43.2255 33.3993L43.2904 33.6094L43.3552 33.8218H44.625H45.897L47.1712 32.7085C47.8731 32.0982 48.4544 31.5952 48.4655 31.5907C48.4745 31.5885 49.0602 32.087 49.7644 32.704L51.0453 33.8218H52.324H53.605L53.672 33.6228C53.71 33.5133 53.7346 33.4172 53.7257 33.4105C53.719 33.4038 53.1444 33.3971 52.4492 33.3971L51.1839 33.3948L49.9276 32.2994L48.669 31.2017V30.9133C48.669 30.5892 48.6712 30.587 48.8188 30.7412ZM54.3673 31.3761C54.5774 31.4298 54.6109 31.4409 54.5886 31.4633C54.5528 31.4991 53.9112 31.7204 53.8419 31.7204C53.7436 31.7204 53.5491 31.6198 53.5289 31.5594C53.4954 31.4543 53.5848 31.3582 53.7525 31.3157C53.8576 31.2889 54.1325 31.3157 54.3673 31.3761ZM55.3755 31.8948C55.5588 31.9506 55.5789 31.9529 56.0126 31.9439C56.8978 31.9261 57.032 31.9305 57.1303 31.9775C57.2086 32.0177 57.2198 32.0311 57.2198 32.1004C57.2198 32.1675 57.2086 32.1831 57.1236 32.2301C56.9783 32.3106 56.7414 32.3419 56.0238 32.3665C55.3665 32.3911 55.1653 32.3821 55.0938 32.3218C55.0401 32.277 54.9284 32.0647 54.9284 32.0065C54.9284 31.9193 55.0759 31.7986 55.1519 31.8255C55.1698 31.8299 55.2704 31.8612 55.3755 31.8948ZM56.5513 32.59C56.7436 32.6124 56.8509 32.6504 56.8509 32.6951C56.8509 32.7376 56.719 32.8382 56.6609 32.8382C56.6318 32.8382 56.5804 32.827 56.5446 32.8136C56.5111 32.8002 56.3747 32.7823 56.2406 32.7733C55.988 32.7555 55.9276 32.7331 55.9701 32.6638C56.0305 32.5699 56.1892 32.5498 56.5513 32.59ZM61.1073 46.4684C61.2414 46.0548 61.3599 45.7217 61.3711 45.7284C61.38 45.7351 61.389 44.7336 61.389 43.5018V41.264L61.5454 41.3467C61.8092 41.4831 61.9702 41.653 61.9702 41.7894C61.9702 41.8207 61.9232 41.9123 61.8651 41.9973C61.807 42.08 61.7422 42.1985 61.7198 42.2611C61.6103 42.5718 61.7377 42.9921 62.0127 43.2358C62.1066 43.3207 62.3525 43.4571 62.462 43.4862C62.4911 43.4929 62.5067 43.5152 62.5067 43.551C62.5089 43.7455 62.5559 44.1389 62.5805 44.1546C62.5939 44.1613 62.7549 44.2753 62.9382 44.4027L63.269 44.6375L63.117 44.7448C62.9002 44.899 62.6095 45.1852 62.4978 45.3551C62.3882 45.5183 62.1893 45.8961 62.0976 46.1107L62.0395 46.2493L61.8048 46.1845C61.6751 46.1487 61.5678 46.1308 61.5678 46.142C61.5678 46.2359 61.4314 47.0452 61.3308 47.5437C61.266 47.879 61.2101 48.1965 61.2101 48.2501C61.2101 48.7554 61.8294 49.2114 62.8197 49.435C62.9583 49.4663 63.0745 49.4953 63.0812 49.4998C63.0857 49.5065 63.0254 49.6407 62.9471 49.7971C62.69 50.3091 62.4352 50.8635 62.3815 51.0222C62.3033 51.248 62.2385 51.6147 62.2228 51.9008L62.2094 52.1534H62.1289C61.7578 52.1467 61.1632 52.1087 61.1229 52.0864C61.0961 52.0729 61.0179 52.0103 60.9508 51.9522C60.7675 51.7846 60.6758 51.7756 60.6155 51.9209C60.5484 52.0797 60.5328 52.3993 60.5596 52.918C60.5931 53.4948 60.6311 53.7004 60.7809 54.0894C60.962 54.5567 60.9754 54.7467 60.8592 55.2161C60.8033 55.4352 60.8033 55.4598 60.8279 55.6454C60.8591 55.8823 60.8524 55.898 60.5976 56.2333C60.2734 56.6581 60.1997 56.8816 60.2891 57.1767C60.4076 57.5657 60.772 57.9167 61.1677 58.0218C61.4203 58.0911 61.7735 58.0553 61.9993 57.9391C62.301 57.787 62.6967 57.8787 62.8174 58.1291L62.8666 58.2319L62.8242 58.328C62.7996 58.3817 62.728 58.4845 62.6632 58.5583C62.5022 58.7416 62.4553 58.8534 62.4441 59.0792C62.4352 59.2513 62.4307 59.267 62.3748 59.2938C62.2809 59.3408 62.1557 59.3564 62.0998 59.3273C62.0708 59.3139 62.0082 59.258 61.9568 59.2044C61.8808 59.1239 61.8517 59.106 61.7846 59.106C61.6751 59.106 61.4471 59.2156 61.2772 59.3519C61.2012 59.4123 61.0715 59.4928 60.991 59.533C60.772 59.6336 60.7049 59.694 60.6311 59.8505C60.5305 60.0651 60.4702 60.311 60.4478 60.6173C60.4165 61.0286 60.4009 61.0487 59.9918 61.1985C59.8688 61.2432 59.7414 61.2991 59.7079 61.3215C59.6341 61.3751 59.5849 61.5093 59.567 61.7105C59.5603 61.7954 59.5424 61.905 59.529 61.9497C59.4977 62.0547 59.5313 62.1442 59.6542 62.2761C59.7347 62.3632 59.7392 62.3744 59.7079 62.408C59.6565 62.4571 59.5872 62.4348 59.4105 62.3029C59.3278 62.2425 59.2474 62.1911 59.2339 62.1911C59.2183 62.1911 59.1691 62.2425 59.1244 62.3029C59.0238 62.437 58.8718 62.5533 58.807 62.5443C58.7667 62.5376 58.7623 62.5197 58.7555 62.3543C58.7511 62.2269 58.7399 62.1687 58.7175 62.162C58.6751 62.1442 58.5566 62.209 58.333 62.3767C57.9351 62.6695 57.8278 62.7075 57.2399 62.7612C56.7145 62.8081 56.6944 62.8059 56.8621 62.7343C57.1482 62.6092 57.725 62.3029 57.991 62.1352C58.7399 61.659 59.4284 61.0487 59.8576 60.4809C60.1348 60.1098 60.4724 59.5107 60.6513 59.0635L60.7273 58.8735L60.5618 58.5538C60.4724 58.3772 60.3919 58.2386 60.383 58.2498C60.3741 58.2587 60.3338 58.3638 60.2936 58.4801C60.1192 58.9831 59.8174 59.5867 59.538 59.9891C59.0931 60.6307 58.3889 61.2589 57.5551 61.7596C56.7257 62.2582 55.8628 62.5823 54.3471 62.9624C53.9716 63.0563 53.6273 63.1435 53.5781 63.1546L53.4909 63.177L53.7301 63.2865C53.862 63.3469 54.0364 63.4162 54.1191 63.4453C54.2018 63.4721 54.2756 63.5011 54.2868 63.5078C54.2957 63.5168 54.2287 63.5637 54.1392 63.6107C53.938 63.7158 53.8866 63.709 53.7368 63.5503L53.6295 63.4363L53.2942 63.4497C52.9298 63.4654 52.9544 63.4698 52.8427 63.3335C52.8069 63.2888 52.8002 63.2865 52.7197 63.3201C52.675 63.3402 52.514 63.4363 52.3643 63.5347C52.0982 63.7091 52.0848 63.7135 51.8523 63.7582C51.3985 63.8454 51.2554 63.9348 51.2197 64.1606C51.1996 64.2791 51.2152 64.5071 51.2599 64.7665C51.289 64.9386 51.2599 65.0325 51.1325 65.1711C50.8955 65.4215 50.5021 65.6383 50.2539 65.6518C50.1399 65.6585 50.0997 65.6518 50.0706 65.6227C50.008 65.5623 50.0013 65.4863 50.0483 65.3947C50.1042 65.2851 50.4104 65.0191 50.6854 64.838C50.8039 64.762 50.9112 64.677 50.9246 64.6525C50.9581 64.5921 50.9559 64.2411 50.9246 64.2098C50.9045 64.1897 50.9045 64.1651 50.9268 64.1137C50.9425 64.0757 50.9492 64.0399 50.9425 64.0332C50.9291 64.0176 50.634 64.1651 50.3747 64.3171C49.8359 64.6368 49.4134 64.9543 49.0021 65.3589C48.8366 65.5221 48.6936 65.6562 48.6846 65.6562C48.6757 65.6562 48.669 65.5154 48.669 65.3455V65.0347L48.8098 64.9051C49.2681 64.4803 49.8761 64.069 50.5468 63.7336C51.3806 63.3156 52.2189 63.0317 53.7883 62.6382C54.6713 62.4169 55.1519 62.2805 55.6683 62.1039C57.2354 61.5674 58.342 60.8319 59.1043 59.8214C59.4128 59.4101 59.7302 58.7528 59.9717 58.0285L60.079 57.7088L60.0723 57.2282L60.0678 56.7475L60.2287 56.2892L60.3897 55.8309L60.4009 55.0418L60.4098 54.2526L60.3428 54.1252C60.2332 53.9173 60.146 53.6065 60.0901 53.2176C60.07 53.0655 60.07 53.0655 60.2377 52.5201L60.4053 51.9768V42.7484V33.52L60.6244 33.3009L60.8413 33.0841L60.8524 40.1507L60.8636 47.2195L61.1073 46.4684ZM35.5399 33.8375C35.5332 33.8419 35.4371 33.8419 35.3208 33.8397L35.1129 33.833L35.323 33.643L35.5354 33.4529L35.5421 33.6407C35.5466 33.7436 35.5444 33.8308 35.5399 33.8375ZM61.693 33.7592C61.921 33.9649 61.9702 34.0208 61.9568 34.0565C61.9031 34.2265 61.9277 34.3092 62.1557 34.6959C62.2698 34.8904 62.2832 34.9262 62.3055 35.1095C62.3703 35.6371 62.5 35.8808 62.8018 36.0529C62.9471 36.1334 62.9762 36.1759 62.9762 36.2988C62.9762 36.4374 62.9024 36.5201 62.5961 36.7213C62.2452 36.9516 62.1423 37.0611 62.0797 37.2668C62.0283 37.439 62.0328 37.5016 62.1155 37.6089C62.2094 37.7341 62.2362 37.9867 62.158 38.018C62.1401 38.0247 62.0618 38.0113 61.9836 37.9911C61.8607 37.9576 61.8338 37.9576 61.7779 37.9822C61.6706 38.0336 61.646 38.1163 61.6505 38.3935C61.6528 38.6059 61.6952 38.8988 61.7578 39.1469L61.7735 39.205L61.5812 39.1134L61.3912 39.0195L61.389 36.263C61.389 34.7496 61.3957 33.5088 61.4024 33.5088C61.4091 33.5088 61.541 33.6228 61.693 33.7592ZM34.867 34.2376C34.8871 34.3047 34.8961 34.3874 34.8894 34.4165C34.8804 34.4478 34.8223 34.5305 34.7575 34.5998C34.6926 34.6691 34.6054 34.7786 34.563 34.839C34.5205 34.9016 34.449 35 34.402 35.0581C34.3551 35.1184 34.3059 35.2034 34.2925 35.2503C34.2701 35.3263 34.2746 35.3509 34.3394 35.4962C34.4221 35.6885 34.4177 35.7332 34.2947 35.8182C34.1919 35.8875 34.1159 35.9993 34.1159 36.0775C34.1159 36.1066 34.1405 36.158 34.1718 36.196C34.2142 36.2452 34.2277 36.2876 34.2277 36.3637C34.2277 36.5023 34.1762 36.5961 34.0332 36.728L33.9124 36.8398L34.0488 37.0746L34.1874 37.3093L34.1226 37.3987C34.089 37.4479 34.0354 37.4948 34.0063 37.5038C33.9773 37.5105 33.8476 37.4926 33.7157 37.4591C33.5861 37.4278 33.3983 37.3965 33.2999 37.392C33.1054 37.3786 32.8193 37.2936 32.6852 37.2087C32.6002 37.1528 32.5197 37.0701 32.4415 36.9561L32.3901 36.8823L32.6807 36.4978C33.0227 36.0462 33.2686 35.7489 33.6822 35.2816C33.9862 34.9396 34.7865 34.1124 34.8156 34.1124C34.8223 34.1124 34.8469 34.1683 34.867 34.2376ZM63.421 35.5298C63.9263 36.12 63.9151 36.0999 63.7675 36.1468C63.6312 36.1937 63.5932 36.1669 63.4926 35.9568C63.3719 35.7109 63.1863 35.5097 62.9449 35.3666C62.8443 35.3085 62.7437 35.2302 62.7169 35.1922C62.6923 35.1542 62.6587 35.0514 62.6453 34.9664C62.6297 34.8792 62.5984 34.763 62.5738 34.7049C62.5492 34.6467 62.5291 34.5931 62.5291 34.5864C62.5313 34.5551 63.1036 35.1609 63.421 35.5298ZM64.0738 37.6536C64.0939 37.6983 64.0895 37.7385 64.0425 37.8727C64.0112 37.9621 63.9732 38.0984 63.9598 38.1745C63.9285 38.3265 63.8659 38.4494 63.8167 38.4494C63.7027 38.4494 63.6379 38.3399 63.6401 38.1409C63.6423 37.9442 63.7295 37.7721 63.8793 37.6715C64.009 37.5865 64.0425 37.582 64.0738 37.6536ZM65.433 38.3108C65.5939 38.5813 65.6141 38.6283 65.5649 38.6283C65.5492 38.6283 65.4732 38.6573 65.3972 38.6931C65.2989 38.7401 65.1893 38.825 65.0217 38.986C64.8115 39.1894 64.7802 39.2118 64.7154 39.205C64.6662 39.2006 64.6327 39.1805 64.6103 39.1402C64.5813 39.0888 64.5835 39.0709 64.6371 38.9547C64.6684 38.8854 64.7914 38.7043 64.9076 38.5523C65.0239 38.4002 65.1468 38.2214 65.1804 38.1521C65.2139 38.0828 65.2497 38.0314 65.2564 38.0359C65.2653 38.0426 65.3436 38.1655 65.433 38.3108ZM31.25 38.986C31.241 39.2162 31.212 39.3213 31.1605 39.3213C31.127 39.3213 30.9862 39.1872 30.9862 39.1559C30.9862 39.1447 31.0443 39.0284 31.1158 38.901C31.2008 38.7423 31.2455 38.6797 31.2522 38.7088C31.2567 38.7311 31.2544 38.8563 31.25 38.986ZM63.9911 38.901C63.9956 38.9547 64.0112 39.1134 64.0246 39.2542C64.038 39.4018 64.0671 39.5672 64.0939 39.6432C64.1207 39.7148 64.1699 39.907 64.2079 40.068C64.2437 40.2289 64.3041 40.4503 64.3376 40.562C64.3734 40.6716 64.4248 40.8817 64.4516 41.0248C64.503 41.2931 64.5365 41.3758 64.5835 41.3445C64.5991 41.3355 64.6841 41.1746 64.7757 40.9868C64.8652 40.799 64.9702 40.5978 65.0082 40.5419C65.0731 40.448 65.0887 40.4391 65.1692 40.4391C65.281 40.4391 65.3682 40.5173 65.3682 40.6135C65.3682 40.6917 65.1893 41.2238 65.1111 41.3803C65.0798 41.4406 64.9837 41.5971 64.8965 41.7312C64.7087 42.0129 64.6483 42.1292 64.6014 42.2901C64.5656 42.4064 64.5656 42.4108 64.655 42.7596C64.7042 42.9519 64.7802 43.2872 64.8249 43.5018C64.9009 43.8774 64.9032 43.9064 64.892 44.2395C64.8741 44.7224 64.8205 44.899 64.5991 45.1941C64.4672 45.3685 64.3152 45.4736 64.2057 45.4646C64.1297 45.4579 64.1275 45.4557 64.1207 45.3528C64.1163 45.2835 64.1409 45.1494 64.1945 44.9572C64.2839 44.633 64.2884 44.5682 64.2124 44.557C64.1744 44.5503 64.123 44.5883 64.009 44.7068C63.857 44.8655 63.7787 44.9035 63.7497 44.8297C63.7429 44.8096 63.7362 44.6308 63.7362 44.4296C63.7362 44.2284 63.7273 44.0383 63.7139 44.007C63.6826 43.9221 63.5619 43.9266 63.421 44.0182C63.2131 44.1501 63.1818 44.1076 63.0298 43.5085C62.9091 43.0346 62.9002 43.0212 62.5492 42.8468C62.3502 42.7462 62.31 42.7171 62.2697 42.6411C62.2049 42.5182 62.1848 42.4041 62.2228 42.3505C62.2541 42.3125 62.263 42.3125 62.4978 42.4019C63.0745 42.6165 63.1371 42.5964 63.582 42.0666C63.7027 41.9235 63.8279 41.7849 63.8614 41.7603C63.9397 41.6977 64.0246 41.6999 64.1185 41.7692C64.161 41.7983 64.2169 41.8408 64.2437 41.8609C64.3085 41.9078 64.351 41.89 64.3979 41.7983C64.4561 41.6888 64.4471 41.5345 64.3756 41.4138C64.3421 41.3579 64.2459 41.1008 64.161 40.8415C63.9844 40.3005 63.8927 40.097 63.7474 39.9249C63.5887 39.7349 63.573 39.6946 63.5865 39.5113C63.5976 39.3638 63.7116 38.9927 63.7675 38.9211C63.7988 38.8809 63.9173 38.8071 63.9531 38.8071C63.9665 38.8071 63.9844 38.8496 63.9911 38.901ZM32.7701 38.9815C32.8662 39.2073 33.0451 39.954 33.1591 40.6067C33.1993 40.846 33.2083 40.9779 33.2083 41.3557C33.206 42.0509 33.1546 42.2409 32.9266 42.3863C32.8171 42.4556 32.8126 42.4578 32.7835 42.4176C32.741 42.3594 32.7433 42.2499 32.7947 42.0152C32.9109 41.4809 32.9087 41.2618 32.7858 40.1485C32.6963 39.3548 32.665 38.8742 32.7008 38.8742C32.7142 38.8742 32.7455 38.9234 32.7701 38.9815ZM62.9851 40.0814C63.3495 40.3139 63.81 40.7163 63.8391 40.8303C63.8592 40.9153 63.8324 40.9309 63.658 40.9309C63.5037 40.9309 63.4792 40.9242 63.2467 40.8079C62.9002 40.6336 62.7191 40.4413 62.6386 40.1619C62.5939 40.0054 62.7929 39.9607 62.9851 40.0814ZM61.5589 40.3586C61.8405 40.4525 61.9031 40.5017 61.9031 40.6246C61.9031 40.7163 61.8495 40.7386 61.6103 40.7476L61.389 40.7565V40.5307C61.389 40.4078 61.3912 40.3049 61.3957 40.3049C61.4001 40.3049 61.4739 40.3295 61.5589 40.3586ZM66.9844 41.5345C67.3622 42.5584 67.6439 43.5443 67.8473 44.5637C67.8965 44.8096 67.9435 45.06 67.9524 45.1181L67.9658 45.2254L67.8809 45.1896C67.7803 45.1494 67.7937 45.1606 67.6752 44.9952C67.5522 44.8297 67.4539 44.7895 67.1968 44.8029C67.056 44.8118 66.9352 44.8387 66.6893 44.9191C66.5016 44.9817 66.3473 45.0197 66.3182 45.013C66.2422 44.9929 66.2087 44.8878 66.2266 44.7202C66.2355 44.6397 66.2467 44.5592 66.2556 44.5391C66.2668 44.51 66.2601 44.5056 66.2154 44.519C66.0992 44.5525 65.8421 44.6889 65.7258 44.7761C65.623 44.8566 65.5917 44.8677 65.5269 44.8566C65.4844 44.8498 65.4173 44.8208 65.3749 44.794L65.2989 44.7425L65.2921 44.1836C65.2854 43.6538 65.281 43.6024 65.205 43.1665C65.1603 42.9139 65.1222 42.6746 65.1222 42.6322V42.5562L65.2653 42.5718C65.3436 42.5785 65.5023 42.5763 65.6185 42.5629C65.9784 42.5226 66.1483 42.4511 66.3249 42.2722C66.5083 42.0867 66.6089 41.8564 66.7564 41.2931C66.7832 41.1902 66.8123 41.1142 66.8212 41.1254C66.8324 41.1343 66.9039 41.3199 66.9844 41.5345ZM31.6322 41.7134C31.6792 41.7804 31.7395 41.8788 31.7664 41.9302C31.7954 41.9883 31.8938 42.0934 32.0212 42.2052C32.2336 42.3863 32.3275 42.498 32.4147 42.6679C32.4705 42.7797 32.4773 42.925 32.4258 42.9675C32.3968 42.9921 32.3632 42.9675 32.1866 42.782C32.0726 42.6635 31.8871 42.4891 31.7731 42.3952C31.5249 42.1895 31.4243 42.0643 31.3886 41.9101C31.3617 41.7983 31.3684 41.568 31.402 41.4809C31.4176 41.4406 31.4243 41.4451 31.4847 41.5144C31.5205 41.5569 31.5875 41.6463 31.6322 41.7134ZM33.9773 41.7692C33.9817 41.8207 33.9572 41.881 33.8744 42.004C33.7045 42.2633 33.3536 42.5696 33.2954 42.5092C33.2396 42.4556 33.358 42.1001 33.4922 41.9123C33.5503 41.8296 33.832 41.6865 33.9147 41.6955C33.9594 41.6999 33.9728 41.7156 33.9773 41.7692ZM29.9243 42.1918L30.1032 42.2678L30.1166 42.4444C30.1344 42.6925 30.1725 42.8378 30.2731 43.048C30.4251 43.3699 30.6889 43.5823 30.9638 43.6069C31.1114 43.6203 31.3953 43.5555 31.6009 43.4593C31.6747 43.4258 31.8066 43.3364 31.8916 43.2626C32.0816 43.1016 32.1375 43.0681 32.2068 43.086C32.2448 43.0972 32.2649 43.124 32.2828 43.1911C32.3074 43.2782 32.3029 43.2961 32.1755 43.5756C32.0324 43.8908 31.9072 44.2127 31.8446 44.4296C31.8133 44.5413 31.8088 44.6196 31.82 44.8923C31.8357 45.2567 31.8401 45.2455 31.6814 45.2455C31.5853 45.2455 31.4981 45.1673 31.3506 44.9437C31.2455 44.7873 31.1784 44.7202 31.1427 44.7425C31.1292 44.7492 31.0845 44.8275 31.0421 44.9124C30.9862 45.022 30.9504 45.0667 30.9213 45.0667C30.8789 45.0667 30.8431 45.0421 30.4295 44.7157C30.2619 44.5838 30.2038 44.5503 30.0987 44.5302C29.9176 44.4922 29.4906 44.5257 29.0815 44.6106C29.0323 44.6196 29.0234 44.6151 29.0323 44.5816C29.0368 44.5592 29.086 44.3334 29.1419 44.0808C29.3118 43.3073 29.6605 42.1158 29.7186 42.1158C29.7343 42.118 29.826 42.1515 29.9243 42.1918ZM33.1255 43.6516C33.3603 43.9243 33.3826 43.94 33.5615 43.9802C33.8342 44.045 33.8163 44.0272 33.8364 44.2731L33.8521 44.4877L33.7604 44.6285C33.6956 44.7269 33.6688 44.7917 33.6688 44.8476C33.6688 44.9348 33.5883 45.2992 33.5548 45.3618C33.5436 45.3819 33.4519 45.44 33.3491 45.4892C33.139 45.5898 33.0898 45.6301 32.9422 45.8156C32.8841 45.8894 32.8215 45.9587 32.8059 45.9676C32.7835 45.9788 32.7522 45.9408 32.6941 45.8223C32.6494 45.7351 32.589 45.6233 32.56 45.5764C32.5063 45.4937 32.5063 45.4825 32.5063 44.984C32.5063 44.4117 32.5309 44.1278 32.598 43.8796C32.6673 43.6203 32.7701 43.5018 32.9244 43.5018C32.9847 43.5018 33.016 43.5242 33.1255 43.6516ZM29.2045 44.908C29.2492 44.9884 29.2872 45.0801 29.2917 45.1114C29.2984 45.1651 29.2939 45.1673 29.1419 45.174C28.9206 45.1807 28.9206 45.1807 28.9631 44.9415C29.0167 44.6419 29.0122 44.6509 29.0748 44.709C29.1039 44.7358 29.162 44.8253 29.2045 44.908ZM66.0701 46.7925C66.1282 46.8887 65.8756 47.1793 65.2631 47.7181C64.6081 48.2904 64.3286 48.467 64.2325 48.3709C64.1923 48.3306 64.2012 48.2054 64.2504 48.1093C64.3622 47.8857 64.8562 47.3693 65.2005 47.11C65.5872 46.8194 65.9941 46.6718 66.0701 46.7925ZM31.7641 47.5325C31.8468 47.6085 31.9877 47.7203 32.0793 47.7807C32.2828 47.917 32.475 48.1026 32.5175 48.2054C32.5376 48.2546 32.551 48.3574 32.551 48.4782V48.6704L32.8036 48.9968C33.4296 49.8083 33.4743 49.8888 33.4855 50.2353C33.4899 50.3694 33.4855 50.4768 33.4765 50.4768C33.4475 50.4745 33.1479 50.0855 32.9311 49.7726C32.6963 49.4327 32.5443 49.2405 32.3074 48.9946C32.095 48.7755 32.0682 48.7621 31.668 48.6995C31.5451 48.6794 31.3997 48.6436 31.3439 48.6168C31.1673 48.5318 30.6956 48.0243 30.5905 47.8053C30.5525 47.7248 30.5525 47.7225 30.595 47.6912C30.6263 47.6689 30.7112 47.6599 30.9169 47.6599C31.1941 47.6622 31.2008 47.6622 31.3416 47.7382C31.5361 47.841 31.5518 47.8321 31.5316 47.6108C31.5205 47.4699 31.5227 47.4274 31.5473 47.4118C31.5987 47.3805 31.6076 47.385 31.7641 47.5325ZM63.0678 47.5839C63.0879 47.6354 63.2042 47.8298 63.3227 48.0154C63.5842 48.4245 63.6736 48.6078 63.6535 48.6861C63.6334 48.7688 63.582 48.8403 63.5328 48.856C63.459 48.8806 63.3942 48.8157 63.2914 48.619C63.2377 48.5162 63.1483 48.3641 63.0969 48.2814C62.9449 48.0445 62.9113 47.9685 62.8756 47.7605C62.8398 47.5571 62.8487 47.5035 62.927 47.461C62.9762 47.4319 63.0164 47.4677 63.0678 47.5839ZM33.7761 47.6957C33.8856 47.7717 34.0443 48.2099 34.0645 48.4871C34.0756 48.6548 33.9817 49.6362 33.9393 49.7726C33.9013 49.9022 33.861 49.9648 33.8096 49.976C33.7291 49.9983 33.6755 49.9313 33.6084 49.7301L33.5481 49.549L33.5391 48.6257L33.5302 47.7047L33.5838 47.6845C33.6621 47.6532 33.7202 47.6555 33.7761 47.6957ZM68.2296 48.2077V48.5095H68.0016C67.6841 48.5072 67.5142 48.4402 67.5142 48.3172C67.5142 48.2434 67.6282 48.1652 67.9434 48.0266C68.0955 47.9617 68.2206 47.9059 68.2251 47.9059C68.2274 47.9059 68.2296 48.0422 68.2296 48.2077ZM66.2176 48.6615L66.2959 48.6794L66.24 48.7174C66.2087 48.7375 66.0433 48.8202 65.8711 48.9007C65.2452 49.1958 65.0172 49.3187 64.778 49.4953C64.4561 49.7301 64.2012 49.8553 64.0269 49.8687C63.8547 49.8821 63.7988 49.8664 63.7161 49.7815C63.5641 49.6295 63.6736 49.4439 63.9956 49.3008C64.076 49.2651 64.1811 49.1913 64.2661 49.1108C64.4181 48.9655 64.541 48.9007 64.9211 48.7665C65.3033 48.6324 65.3816 48.6212 65.7817 48.6324C65.9784 48.6369 66.1752 48.6503 66.2176 48.6615ZM29.6091 48.7889C29.7678 48.8448 29.9109 48.9007 29.9266 48.9141C29.9713 48.9499 29.9646 49.0415 29.9176 49.0661C29.8953 49.0795 29.7656 49.1108 29.6315 49.1377C29.4973 49.1622 29.3297 49.2092 29.2604 49.2383C29.1888 49.2673 29.1262 49.2919 29.1195 49.2919C29.0927 49.2919 28.925 49.122 28.8937 49.0661C28.811 48.9029 28.8848 48.7442 29.0569 48.7107C29.2313 48.6771 29.323 48.6883 29.6091 48.7889ZM68.1849 49.7837C67.9323 53.573 66.5597 57.2483 64.2616 60.3021C63.6647 61.0979 63.1908 61.6412 62.4508 62.3834C61.5857 63.2508 60.8279 63.8968 59.8733 64.5764L59.5492 64.8067H59.4128C59.2362 64.8067 59.1311 64.7486 59.1311 64.6525C59.1311 64.5496 59.2026 64.5027 59.4329 64.449C59.5469 64.4222 59.6565 64.3842 59.6743 64.3641C59.6945 64.3439 59.7302 64.2702 59.7548 64.2009C59.8062 64.0645 59.9001 63.9639 60.0387 63.8946C60.1639 63.832 60.2712 63.7381 60.298 63.6688C60.3115 63.6375 60.3271 63.4184 60.336 63.1837L60.3517 62.7589L60.4545 62.5466C60.5663 62.3163 60.7854 61.972 60.9262 61.8044C60.9754 61.744 61.1766 61.5629 61.3733 61.4019C61.8539 61.004 61.8316 61.0264 62.0373 60.7514C62.2474 60.4675 62.2608 60.4429 62.3234 60.235C62.3547 60.1299 62.424 59.998 62.5291 59.8393C62.614 59.7074 62.6856 59.5755 62.6856 59.5464C62.6856 59.5017 62.6967 59.4928 62.7593 59.4928C62.851 59.4928 63.2668 59.3631 63.4054 59.2938C63.5306 59.229 63.6714 59.0546 63.7944 58.8042L63.8748 58.641L64.0358 58.6008C64.5813 58.4689 64.8719 58.3079 64.9568 58.0866C64.9926 57.9949 64.9926 57.9815 64.9546 57.8854C64.9345 57.8295 64.9188 57.7803 64.9233 57.7781C64.9278 57.7736 64.9836 57.7446 65.0462 57.711C65.3324 57.5568 65.5112 57.3511 65.7348 56.9152L65.8778 56.6357L65.8153 56.553C65.7214 56.4256 65.5783 56.1372 65.5358 55.9897C65.5135 55.9159 65.4956 55.7862 65.4956 55.699C65.4933 55.4106 65.6141 55.2318 66.0634 54.8674C66.3741 54.6148 66.4591 54.5142 66.4144 54.4605C66.3786 54.4181 66.2847 54.4359 65.9427 54.5432C65.5805 54.6595 65.4218 54.6863 65.2184 54.6684C64.8763 54.6349 64.7199 54.4672 64.7199 54.1297C64.7199 53.9799 64.778 53.8949 64.9658 53.7697C65.196 53.6155 65.2743 53.5462 65.3391 53.4344C65.3905 53.345 65.4017 53.298 65.4129 53.0968C65.4263 52.8084 65.4307 52.804 65.7951 52.7146C65.936 52.6788 66.0835 52.6341 66.1193 52.6162C66.278 52.5335 66.4546 52.2518 66.506 51.9947C66.5507 51.7734 66.477 51.5923 66.3249 51.561C66.2288 51.5386 66.0567 51.5878 65.965 51.6638C65.8488 51.76 65.8398 51.836 65.9248 51.9992C66.0053 52.1534 66.0097 52.216 65.9494 52.292C65.8577 52.4105 65.7728 52.4284 65.4151 52.4128C65.0306 52.3949 64.8965 52.4217 64.7981 52.5379C64.7467 52.5983 64.7422 52.6184 64.7579 52.6989C64.7668 52.7503 64.7757 52.8867 64.7757 53.0029C64.7757 53.1997 64.769 53.2287 64.702 53.3651C64.626 53.5194 64.5656 53.5663 64.5052 53.5149C64.4449 53.4657 64.3644 53.2801 64.3085 53.0655C64.2571 52.871 64.2526 52.8621 64.2303 52.9202C64.2169 52.956 64.2057 52.994 64.2057 53.0052C64.2057 53.0477 64.047 53.4188 63.9933 53.4992C63.8458 53.7206 63.7072 53.6915 63.62 53.4188C63.6066 53.3808 63.5887 53.0968 63.5798 52.7906C63.5641 52.3211 63.5552 52.2048 63.5127 52.064C63.4344 51.7913 63.2735 51.5051 63.1997 51.5051C63.1528 51.5051 63.1103 51.6191 63.0544 51.8963C62.9873 52.2205 62.927 52.3613 62.8443 52.3725C62.8152 52.377 62.7817 52.368 62.7727 52.3502C62.7168 52.263 62.7794 51.751 62.9113 51.2324C62.9918 50.9127 63.0544 50.7562 63.1192 50.7115C63.1796 50.669 63.4054 50.6668 63.4859 50.7093C63.5194 50.7271 63.6401 50.8434 63.7541 50.9663C63.9195 51.1452 63.9911 51.2055 64.1096 51.2637C64.2482 51.3307 64.275 51.3352 64.4605 51.333C64.5969 51.3307 64.8003 51.3039 65.0775 51.2458C65.5224 51.1564 65.7057 51.1452 66.0969 51.1787C66.3004 51.1966 66.3384 51.1944 66.4881 51.1497C66.8615 51.0356 67.2952 50.7562 67.512 50.4946C67.6461 50.3292 67.778 50.0833 67.8496 49.862C67.9166 49.6563 67.9904 49.5088 68.1044 49.359L68.1961 49.236L68.2028 49.3143C68.2072 49.3567 68.2005 49.5691 68.1849 49.7837ZM29.0704 49.7077C29.2783 49.8441 29.3274 49.8888 29.3789 49.9894C29.4459 50.1191 29.437 50.1638 29.3431 50.1638H29.2648V50.3516C29.2648 50.6601 29.2917 50.7048 29.6382 50.9842C29.864 51.1631 29.9154 51.2279 29.855 51.2525C29.8349 51.2592 29.7745 51.2547 29.7209 51.2436C29.6248 51.2212 29.6225 51.2212 29.6225 51.2748C29.6225 51.3643 29.7321 51.6571 29.8528 51.8941C29.94 52.0662 30.0026 52.1512 30.1277 52.2786C30.2909 52.4418 30.5234 52.5961 30.6799 52.6452C30.7738 52.6743 30.8677 52.7861 30.9772 53.0007C31.0376 53.1147 31.0421 53.1438 31.0376 53.3338C31.0354 53.4478 31.0421 53.5641 31.0532 53.5954C31.0667 53.6334 31.1203 53.6736 31.2209 53.7206C31.3752 53.7921 31.3975 53.8144 31.5026 54.0045C31.6144 54.2012 31.7373 54.2258 32.019 54.1073C32.1866 54.0358 32.3029 54.0358 32.3699 54.1073C32.4258 54.1677 32.513 54.4203 32.5533 54.6416C32.5801 54.7869 32.5801 54.7892 32.5108 54.8965C32.4728 54.9546 32.3141 55.12 32.1553 55.2609C31.8044 55.5783 31.6591 55.7661 31.5674 56.0165C31.4445 56.354 31.4377 56.4211 31.4668 56.9979C31.4825 57.2975 31.4802 57.3623 31.4556 57.3623C31.4377 57.3623 31.288 57.3086 31.1225 57.2416C30.9549 57.1745 30.7805 57.1119 30.7313 57.103C30.6486 57.0895 30.6441 57.0828 30.5346 56.8503C29.5107 54.6662 28.9116 52.406 28.7171 50.0006C28.6993 49.7681 28.6836 49.5378 28.6836 49.4886V49.3992L28.7976 49.5021C28.8602 49.5579 28.9832 49.6518 29.0704 49.7077ZM32.2716 49.8396C32.4974 49.9 32.6628 50.0386 32.6293 50.1414C32.5935 50.251 32.2828 50.2957 31.782 50.2644C31.5451 50.251 31.5093 50.242 31.4623 50.1951C31.3975 50.1302 31.3975 50.0542 31.4579 49.976C31.5696 49.8329 31.981 49.7658 32.2716 49.8396ZM33.9147 51.2391C33.9907 51.3442 34.1583 51.7622 34.3014 52.2093C34.3998 52.5111 34.4557 52.7682 34.4825 53.0253L34.4959 53.1483L34.3372 53.1527C34.2522 53.155 34.1248 53.1728 34.0578 53.193C33.8946 53.2399 33.7448 53.3942 33.557 53.7071C33.4765 53.8413 33.3737 54 33.3267 54.0581C33.253 54.1543 33.1457 54.2325 33.092 54.2325C33.0808 54.2325 33.0652 54.1788 33.0585 54.114C33.025 53.8323 32.9355 53.6937 32.7433 53.6423C32.5846 53.5976 32.5041 53.5887 32.0838 53.5618C31.6255 53.535 31.6121 53.5283 31.6121 53.3293C31.6121 53.2064 31.6032 53.1751 31.554 53.1147C31.5205 53.0767 31.4579 53.0275 31.4109 53.0029C31.3148 52.9538 31.2991 52.9158 31.2991 52.7056C31.2991 52.5625 31.3014 52.5536 31.3617 52.5312C31.3953 52.5178 31.6859 52.4977 32.01 52.4865C32.3319 52.4776 32.6583 52.4575 32.7366 52.444C33.0853 52.3815 33.1814 52.2786 33.557 51.5722C33.7381 51.2301 33.7917 51.1474 33.8275 51.1474C33.8387 51.1474 33.8767 51.1877 33.9147 51.2391ZM62.3368 53.4501C62.4598 53.5328 62.661 53.7519 62.8242 53.9799C63.2042 54.5052 63.3294 54.9658 63.383 56.0321C63.4255 56.8213 63.421 57.1834 63.3719 57.2572C63.3227 57.3332 63.2802 57.3332 63.2131 57.2617C63.1349 57.179 63.0723 56.9554 63.0209 56.5865C62.8867 55.6253 62.7906 55.1536 62.6431 54.7467C62.576 54.5656 62.5246 54.465 62.196 53.8793C62.0484 53.6177 62.0171 53.4948 62.0797 53.4188C62.1267 53.3629 62.2317 53.3763 62.3368 53.4501ZM35.1151 54.4605C35.1576 54.5008 35.1666 54.5321 35.1666 54.6438C35.1666 54.8562 34.9452 55.4889 34.706 55.9651C34.5496 56.278 34.5093 56.3786 34.4825 56.5351C34.4624 56.6402 34.411 56.8615 34.3663 57.027C34.288 57.3176 34.2858 57.3466 34.2791 57.7535C34.2701 58.223 34.2634 58.2789 34.2165 58.2789C34.174 58.2789 34.1449 58.1671 34.1025 57.834C34.051 57.4316 34.0309 57.3802 33.9303 57.3466C33.8856 57.331 33.823 57.3019 33.7917 57.2818C33.7135 57.2304 33.5704 57.0046 33.3759 56.629C33.2172 56.3205 33.2127 56.3049 33.2552 56.2758C33.3111 56.2333 33.4318 56.2356 33.5279 56.2825C33.6352 56.3339 33.7113 56.4457 33.8275 56.7252C33.9259 56.9666 33.9952 57.0717 34.06 57.0717C34.0868 57.0717 34.0935 57.0426 34.0935 56.9241C34.0935 56.7877 34.1025 56.7609 34.2142 56.562C34.3752 56.2758 34.4043 56.1663 34.4288 55.7415C34.4579 55.2653 34.5853 54.7601 34.7351 54.5298C34.8156 54.4091 35.019 54.3711 35.1151 54.4605ZM62.3145 55.7013C62.3636 55.8019 62.462 56.1283 62.462 56.202C62.462 56.2624 62.4553 56.2669 62.3793 56.2669C62.2317 56.2669 62.2027 56.2177 62.1803 55.9382C62.1647 55.7303 62.1848 55.6409 62.2496 55.6409C62.2675 55.6409 62.2966 55.6677 62.3145 55.7013ZM64.6014 55.8019C64.6886 55.898 64.7266 56.0053 64.7266 56.1439C64.7288 56.2758 64.7221 56.287 64.4762 56.6983C64.2459 57.0828 64.2057 57.1365 63.9956 57.3422C63.8704 57.4629 63.7251 57.5948 63.6759 57.6306L63.5842 57.6976L63.5373 57.6395C63.4724 57.5568 63.4792 57.5054 63.5708 57.3511C63.6669 57.1924 63.696 57.1141 63.772 56.8168C63.8368 56.5642 63.8793 56.4703 63.9933 56.3339C64.038 56.2803 64.1342 56.1484 64.2102 56.0388C64.4069 55.7504 64.5008 55.6946 64.6014 55.8019ZM62.073 57.0493C62.2496 57.1834 62.6252 57.5568 62.6095 57.5814C62.5872 57.6194 62.4084 57.6149 62.31 57.5747C62.2653 57.5545 62.1826 57.5098 62.1267 57.4741C62.0708 57.4405 61.9657 57.3936 61.892 57.3735C61.7064 57.322 61.6572 57.2863 61.6572 57.208C61.6572 57.103 61.6796 57.0694 61.7779 57.0247C61.9054 56.9666 61.9724 56.9711 62.073 57.0493ZM35.2426 57.4115C35.3298 57.5188 35.2381 57.7803 34.8804 58.4331L34.791 58.5986L34.7999 58.2431C34.8066 58.0486 34.8201 57.8228 34.8335 57.7423C34.8603 57.5657 34.9475 57.3779 35.0145 57.3466C35.0816 57.3176 35.1889 57.3489 35.2426 57.4115ZM33.7962 58.071C33.9907 58.3549 34.0533 58.4868 34.0443 58.5963C34.0332 58.7595 33.9124 58.7685 33.7582 58.6142C33.6241 58.4801 33.5749 58.3661 33.5749 58.1917C33.5749 58.0285 33.6151 57.8452 33.6442 57.8653C33.6554 57.8698 33.7247 57.9637 33.7962 58.071ZM63.3562 58.6142C63.4367 58.6947 63.3964 58.8713 63.2713 58.9764C63.1394 59.0859 62.9493 59.0792 62.9359 58.9629C62.927 58.8959 63.0164 58.7282 63.1125 58.6298C63.1863 58.5561 63.2914 58.5494 63.3562 58.6142ZM34.3417 59.1038C34.3841 59.1396 34.449 59.2223 34.4825 59.2871C34.5183 59.3542 34.6859 59.618 34.8536 59.8773C35.0213 60.1344 35.1777 60.3803 35.1979 60.4183C35.2336 60.4921 35.2336 60.4921 35.1822 60.4921C35.0682 60.4921 34.7463 60.4429 34.6479 60.4116C34.5809 60.3892 34.5138 60.3445 34.4601 60.2864C34.3752 60.1903 34.2522 59.9511 34.2031 59.7767C34.1874 59.7208 34.1494 59.6426 34.1203 59.6023C34.0712 59.5375 34.0667 59.5151 34.0779 59.3855C34.0958 59.1977 34.1673 59.0524 34.25 59.0412C34.2567 59.039 34.297 59.068 34.3417 59.1038ZM32.4012 59.3788C32.4393 59.4078 32.5734 59.5196 32.6963 59.6291C32.9668 59.8684 33.1211 59.9757 33.2261 59.9913C33.32 60.007 33.5369 59.9555 33.7045 59.8751L33.8297 59.8169L33.9303 59.9131C34.0667 60.0472 34.0935 60.1076 34.0935 60.2842C34.0958 60.5591 34.2008 60.691 34.63 60.9571C34.9497 61.156 34.9721 61.1627 35.4438 61.1717C35.6673 61.1762 35.8864 61.1918 35.9311 61.2052C36.0541 61.2432 36.1055 61.3215 36.1055 61.469C36.1055 61.6479 36.1658 61.7462 36.4654 62.0346C36.6286 62.1933 36.7426 62.323 36.7649 62.3744C36.7873 62.4303 36.7985 62.5264 36.7962 62.6673C36.794 62.9825 36.8186 63.0451 37.0153 63.2373C37.2031 63.4229 37.2299 63.4721 37.2903 63.7627C37.3417 64.022 37.3685 64.0869 37.4423 64.1651C37.5429 64.2724 37.6323 64.297 37.9766 64.3127C38.3499 64.3283 38.3924 64.3484 38.2493 64.4378C38.1085 64.525 38.0504 64.5832 38.0504 64.639C38.0504 64.8112 38.6629 65.4036 39.0139 65.5735C39.1547 65.6428 39.5772 65.7725 39.8209 65.8217C40.1003 65.8798 40.2322 65.8708 40.4133 65.7792C40.5943 65.6875 40.8224 65.4908 40.9028 65.3522C40.9789 65.2248 40.9654 65.1443 40.8447 64.999C40.7955 64.9386 40.7486 64.8648 40.7419 64.8313C40.7195 64.7374 40.6413 64.6122 40.5876 64.5832C40.5072 64.5407 40.4535 64.5742 40.3082 64.7508C40.1562 64.9386 40.0981 64.9856 40.0243 64.9856C39.9595 64.9856 39.9595 64.952 40.0288 64.7329C40.0958 64.5206 40.0981 64.4714 40.0377 64.3954C39.9595 64.2948 39.9125 64.2836 39.5593 64.2702C39.1927 64.2568 39.0988 64.2277 39.0519 64.1226C39.0094 64.031 39.0854 63.9103 39.2083 63.8678C39.2955 63.8387 39.3291 63.8387 39.5996 63.8857C39.9259 63.9393 40.0444 63.946 40.1092 63.9125C40.2188 63.8521 40.1092 63.7314 39.68 63.4251C39.3939 63.2217 39.0899 62.9266 39.0653 62.8305C39.0474 62.7589 39.1055 62.6829 39.1793 62.6829C39.2732 62.6829 39.5146 62.8685 39.8611 63.206C40.1808 63.5213 40.2255 63.557 40.4423 63.6688C40.8403 63.8722 40.9811 64.0556 40.9453 64.3194C40.9341 64.3887 40.9386 64.4535 40.9565 64.496C41.0102 64.6234 41.1979 64.6681 41.3254 64.5832C41.3991 64.534 41.5221 64.525 41.616 64.5608C41.6473 64.572 41.8283 64.5921 42.0184 64.6055C42.4878 64.6346 42.5884 64.677 42.5884 64.8537C42.5884 64.9051 42.5661 64.9453 42.499 65.0124C42.3895 65.1219 42.3582 65.1219 42.0452 64.9878C41.7971 64.8827 41.7345 64.876 41.6607 64.9498C41.6137 64.999 41.6093 65.0124 41.6294 65.0727C41.6808 65.2158 42.148 65.5936 42.6219 65.8708C43.0109 66.0966 43.0758 66.1838 43.1696 66.6019C43.2479 66.9484 43.3239 67.0043 43.5765 66.9081L43.6928 66.8634L43.7509 66.9171C43.8537 67.0132 43.9074 67.0289 44.1197 67.0266C44.5177 67.0177 44.9133 66.8947 45.1123 66.7159C45.242 66.5974 45.309 66.4566 45.3537 66.1928C45.3716 66.0877 45.3895 66.0005 45.394 65.996C45.3962 65.9916 45.5281 66.1324 45.6846 66.3045C45.8478 66.4856 46.0065 66.6376 46.0534 66.6622C46.1652 66.7204 46.3754 66.7517 46.6414 66.7517C46.9476 66.7517 47.1466 66.6846 47.4104 66.4923C47.4551 66.461 47.5065 66.4588 47.8061 66.4722L48.1503 66.4879L48.2331 66.6891C48.356 66.9864 48.4365 67.0624 48.5594 66.9976C48.6131 66.9685 48.6757 66.8455 48.7249 66.6756C48.745 66.6041 48.783 66.5013 48.8053 66.4476C48.8456 66.3604 48.859 66.3493 48.9238 66.3493C48.9641 66.3493 49.0602 66.3761 49.1407 66.4074C49.2614 66.4588 49.3262 66.47 49.5721 66.4789C49.7599 66.4856 49.9007 66.4789 49.9857 66.461C50.0997 66.4364 50.1288 66.4163 50.3098 66.233C50.5736 65.967 50.5893 65.9603 50.9045 65.9603C51.2622 65.958 51.3046 65.9692 51.4701 66.1235C51.6556 66.2934 51.7271 66.3425 51.8792 66.3962C52.0379 66.4498 52.2905 66.4767 52.3486 66.4431C52.3821 66.423 52.4067 66.4364 52.485 66.508C52.628 66.6399 52.7398 66.622 52.9924 66.4275C53.0528 66.3828 53.1109 66.3515 53.1243 66.3582C53.14 66.3649 53.2227 66.4275 53.3076 66.4946C53.5267 66.6689 53.643 66.7069 53.9425 66.7069C54.2801 66.7069 54.3695 66.6689 54.3695 66.5192C54.3695 66.4879 54.3851 66.423 54.403 66.3761L54.4388 66.2911L54.6109 66.318C54.8099 66.3515 55.0379 66.356 55.0804 66.3291C55.1005 66.318 55.1072 66.271 55.1027 66.1793L55.096 66.0474L55.2525 66.0542C55.4202 66.0609 55.5968 66.0989 55.8069 66.1749C55.9299 66.2196 55.9388 66.2196 56.0349 66.1816C56.14 66.1436 56.2071 66.0564 56.1847 65.9916C56.1803 65.9737 56.1445 65.9245 56.1065 65.8865C56.0416 65.8172 55.9522 65.7792 55.6773 65.7032C55.4828 65.6495 55.1966 65.3432 55.1609 65.151C55.1407 65.0437 55.172 65.0258 55.3665 65.037C55.5856 65.0482 55.7063 65.1107 55.7756 65.2426C55.8427 65.3701 56.1333 65.6473 56.2831 65.7255C56.4105 65.7948 56.5648 65.8239 56.985 65.8597C57.3114 65.8865 57.5484 65.8731 57.6266 65.8217C57.678 65.7904 57.7227 65.6674 57.7227 65.5601C57.7227 65.5266 57.7384 65.4684 57.7563 65.4327C57.7988 65.3477 57.8301 65.3477 58.19 65.4304L58.4694 65.493L58.1453 65.6763C57.7384 65.9088 56.9046 66.3291 56.4753 66.5192C53.169 67.9879 49.5632 68.52 45.9528 68.0684C42.9506 67.6951 40.0534 66.6108 37.5027 64.9118C36.3223 64.1249 35.3722 63.3379 34.3394 62.2872C33.5212 61.4578 32.9288 60.7492 32.2492 59.7879L31.9653 59.3855L32.095 59.3609C32.2895 59.3229 32.3252 59.3251 32.4012 59.3788ZM61.7534 59.7029C61.9143 59.7521 61.9925 59.8281 61.9925 59.9309C61.9925 60.0226 61.9545 60.0897 61.7869 60.2953C61.731 60.3624 61.6036 60.548 61.5052 60.7067C61.2615 61.0912 61.1811 61.194 61.0089 61.3371C60.9285 61.4042 60.8122 61.5025 60.7496 61.5562C60.6848 61.6099 60.5462 61.7686 60.4411 61.9094C60.1483 62.3006 60.0074 62.399 59.9225 62.2693C59.8353 62.1374 59.8644 61.9407 60.0074 61.7082C60.0834 61.5808 60.1706 61.5227 60.3606 61.4668C60.6155 61.393 60.6602 61.3394 60.7831 60.9504C60.8681 60.6843 60.9597 60.539 61.1408 60.3781C61.266 60.2685 61.2861 60.2395 61.3644 60.0338C61.4113 59.9108 61.4627 59.7722 61.4784 59.7253C61.503 59.6448 61.5097 59.6403 61.5745 59.6537C61.6147 59.6627 61.6952 59.6828 61.7534 59.7029ZM37.0623 61.5853C37.2053 61.659 37.4021 61.8893 37.4021 61.9832C37.4021 62.0681 37.3395 62.1084 37.2187 62.0972C37.0712 62.0816 36.8298 61.9586 36.7873 61.8781C36.7538 61.8133 36.7404 61.5853 36.7694 61.5584C36.7985 61.5271 36.9818 61.545 37.0623 61.5853ZM55.789 63.168C55.7801 63.1904 55.7667 63.3156 55.7577 63.4475C55.7488 63.5839 55.7309 63.7001 55.713 63.718C55.6616 63.7828 55.57 63.7828 55.3777 63.7225C55.1072 63.6375 55.096 63.642 54.8322 63.9907C54.5819 64.3216 54.5126 64.3551 54.3784 64.2121C54.2913 64.1226 54.2756 64.0086 54.3427 63.9527C54.3628 63.9326 54.4567 63.8834 54.5506 63.8409C54.7629 63.7426 54.8166 63.6778 54.8166 63.5213V63.405L55.1251 63.3223C55.2928 63.2776 55.5074 63.2172 55.599 63.1859C55.8047 63.1211 55.8092 63.1211 55.789 63.168ZM58.3442 63.6263C58.3375 63.642 58.3152 63.7068 58.295 63.7694C58.2213 63.9952 58.0469 64.1338 57.6154 64.3149C57.2466 64.4669 57.1415 64.5608 57.0275 64.8313C56.9381 65.0414 56.9157 65.0638 56.804 65.0593C56.6899 65.0549 56.605 64.9766 56.605 64.876C56.605 64.677 56.9895 64.2389 57.4075 63.9639C57.7227 63.756 57.8435 63.7001 58.0849 63.6442C58.3107 63.595 58.3576 63.5906 58.3442 63.6263ZM56.6251 64.0623C56.6072 64.0846 56.5312 64.1718 56.4575 64.259C56.2764 64.4691 56.2384 64.5295 56.1937 64.6681C56.1512 64.7978 56.111 64.8291 55.9925 64.8291C55.9008 64.8291 55.8785 64.7844 55.9008 64.6435C55.9232 64.5049 55.9858 64.42 56.1534 64.2925C56.3032 64.1808 56.6296 63.9974 56.6475 64.0153C56.6519 64.0198 56.643 64.0421 56.6251 64.0623ZM55.029 64.297C55.0603 64.3104 55.0849 64.3372 55.0849 64.3574C55.0849 64.4311 55.0379 64.5563 54.9954 64.5943C54.9552 64.6301 54.9507 64.6301 54.8948 64.5697C54.8613 64.534 54.8188 64.4758 54.8009 64.4401C54.7696 64.382 54.7719 64.373 54.8188 64.3238C54.8747 64.2657 54.9395 64.2568 55.029 64.297ZM53.0103 64.4222C53.0215 64.4334 53.0193 64.487 53.0058 64.5496C52.9567 64.7665 52.9924 64.7978 53.4529 64.952C53.871 65.0929 54.2018 65.2471 54.2018 65.2985C54.2018 65.3477 54.1079 65.3611 53.6988 65.3634C53.2629 65.3656 52.9678 65.341 52.3866 65.2538C51.8747 65.1756 51.7987 65.151 51.7987 65.0549C51.7987 64.9565 51.8769 64.8872 52.0871 64.7978C52.1899 64.7553 52.3732 64.6569 52.4961 64.5809C52.6191 64.5049 52.7465 64.4289 52.7801 64.411C52.8382 64.3797 52.9745 64.3864 53.0103 64.4222ZM44.7949 65.5221C44.8776 65.5534 44.9648 65.6763 44.9536 65.7501C44.9469 65.7971 44.9357 65.8015 44.8127 65.7993C44.6384 65.7971 44.2852 65.7456 44.2494 65.7166C44.1779 65.6607 44.236 65.5221 44.3433 65.493C44.4126 65.4729 44.7144 65.493 44.7949 65.5221ZM45.9864 65.7456C46.0646 65.7769 46.1786 65.7948 46.3619 65.8038C46.6727 65.8217 46.7621 65.853 46.9208 66.005C47.084 66.1637 47.0997 66.2799 46.9566 66.2822C46.932 66.2822 46.8515 66.2464 46.7777 66.2017C46.5095 66.0363 46.5363 66.0407 46.3552 66.1369C46.2166 66.2106 46.1809 66.2196 46.0914 66.2106C45.9685 66.1972 45.7896 66.0899 45.7338 65.996C45.6823 65.9066 45.6846 65.8105 45.7405 65.7501C45.7986 65.6898 45.8411 65.6875 45.9864 65.7456Z" fill="white"/>
<path d="M47.6116 47.6666L46.7241 48.543L47.6183 49.4372L48.5125 50.3314L49.4 49.4417L50.2897 48.5542L49.4067 47.6711C48.9216 47.186 48.5192 46.7881 48.5125 46.7903C48.5058 46.7903 48.1011 47.1838 47.6116 47.6666ZM49.5453 48.1115L49.8135 48.3977H49.163H48.5125V47.7337V47.0675L48.8947 47.4476C49.1049 47.6577 49.3977 47.955 49.5453 48.1115ZM49.8538 48.695C49.8538 48.6972 49.552 49.0013 49.1831 49.3701L48.5125 50.0408V49.3634V48.6883H49.1831C49.552 48.6883 49.8538 48.6905 49.8538 48.695Z" fill="white"/>
<path d="M47.2472 33.0639L46.0199 34.1325L44.6697 34.1348H43.3217L43.3351 34.184C43.3418 34.213 43.3485 34.2421 43.3485 34.251C43.3485 34.2622 43.9632 34.2689 44.7121 34.2689H46.078L46.932 33.5245C47.4014 33.1154 47.7994 32.7733 47.815 32.7621C47.8351 32.7487 47.8418 33.3099 47.8418 35.5342V38.322L47.6921 38.3063C47.6071 38.2974 47.5266 38.2773 47.511 38.2616C47.4953 38.246 47.4372 38.0716 47.3836 37.8726C47.2695 37.4568 47.236 37.3831 47.1533 37.3518C47.0728 37.3205 46.6056 37.3339 46.5631 37.3696C46.5452 37.3853 46.4715 37.6133 46.3999 37.8771L46.2703 38.3578L46.1563 38.3846C46.0937 38.398 45.9506 38.4137 45.8388 38.4204L45.6354 38.4338L45.318 37.9934C45.1436 37.7519 44.9871 37.5552 44.9737 37.5552C44.9133 37.5552 44.2807 37.8123 44.2695 37.8414C44.2628 37.8592 44.2852 38.0627 44.3187 38.2907C44.3969 38.8205 44.3947 38.8429 44.265 38.9301C44.2091 38.9681 44.0907 39.0217 44.0012 39.053L43.8381 39.1089L43.4871 38.7468C43.2948 38.5478 43.1115 38.3689 43.0802 38.3511C43.0288 38.3198 43.0132 38.322 42.8969 38.3689C42.7538 38.4271 42.5705 38.5388 42.461 38.6372C42.4096 38.6797 42.3872 38.7199 42.3872 38.7624C42.3872 38.7959 42.4431 39.0173 42.5102 39.2542C42.5772 39.4912 42.6331 39.7125 42.6331 39.746C42.6331 39.8221 42.4342 40.0166 42.2687 40.1037L42.1637 40.1596L42.0228 40.0859C41.9446 40.0478 41.7233 39.8981 41.531 39.7595C41.3365 39.6186 41.1599 39.4957 41.1353 39.489C41.0795 39.4711 40.999 39.5158 40.8224 39.6611C40.6435 39.8109 40.5429 39.9472 40.5608 40.0188C40.5698 40.0478 40.6905 40.2669 40.8335 40.5061C40.9766 40.7453 41.0973 40.9644 41.104 40.989C41.113 41.027 41.0772 41.0762 40.9297 41.2193C40.7665 41.3802 40.7352 41.4004 40.6771 41.3914C40.6413 41.387 40.4155 41.3109 40.1763 41.2238C39.9393 41.1343 39.6957 41.0516 39.6376 41.0382C39.5034 41.0069 39.461 41.0315 39.3156 41.2171C39.1815 41.3914 39.1144 41.5367 39.1301 41.606C39.139 41.6373 39.2933 41.8207 39.4744 42.0129C39.6577 42.2052 39.8455 42.4108 39.8946 42.4645L39.9841 42.5673L39.841 42.8445L39.6979 43.1217H39.0586H38.417L38.3477 43.238C38.2583 43.3923 38.1621 43.6382 38.1621 43.7186C38.1621 43.7991 38.2717 43.9087 38.7657 44.3111C38.9691 44.4787 39.148 44.6285 39.1614 44.6464C39.1815 44.671 39.1681 44.7448 39.0943 44.9996L39.0004 45.3238L38.4863 45.3372C38.2024 45.3439 37.9453 45.3618 37.914 45.3752C37.8782 45.3886 37.8424 45.4311 37.8201 45.487C37.7843 45.5786 37.715 45.8849 37.715 45.9587C37.715 46.0369 38.1577 46.3946 38.56 46.6428C38.6383 46.6897 38.7098 46.7456 38.7232 46.768C38.7344 46.7903 38.7434 46.8842 38.7434 46.9759V47.1458H38.0727H37.4021V40.7073V34.2689H39.3916H41.3812V34.2019V34.1348H39.3246H37.2679V40.8571C37.2657 44.557 37.2657 49.3277 37.2679 51.4604L37.2702 55.3391L37.3305 55.3883C37.364 55.4151 37.3953 55.4375 37.4021 55.4397C37.4088 55.4397 37.411 54.1565 37.4065 52.5894L37.4021 49.739H41.9692H46.5385L46.5989 49.8709C46.6324 49.9492 46.657 50.0408 46.657 50.1012C46.657 50.2979 46.4491 50.5908 46.2882 50.6198C46.2435 50.6288 46.125 50.6288 46.0244 50.6221C45.7941 50.6042 45.6399 50.6422 45.575 50.7294C45.537 50.7808 45.5281 50.8389 45.5147 51.1049C45.4901 51.5386 45.5169 51.5118 45.0631 51.5968C44.8083 51.6437 44.7255 51.7868 44.7233 52.1758V52.3882L44.6361 52.4217C44.5646 52.4485 44.5445 52.4709 44.5244 52.5379L44.4998 52.6207L44.2539 52.5201C43.9029 52.377 43.2881 52.0662 43.0132 51.8941C42.812 51.7667 42.7673 51.7488 42.7024 51.76C42.5951 51.7756 42.5281 51.8494 42.499 51.9835C42.4588 52.1557 42.2889 52.5581 42.1368 52.8464C41.3567 54.3152 39.6621 56.4614 38.6003 57.3288C38.3857 57.5054 38.3678 57.5478 38.4773 57.6395C38.5153 57.6708 38.5533 57.6976 38.5623 57.6976C38.5869 57.6976 39.3335 57.2103 39.6711 56.9711C40.7732 56.1931 41.7345 55.3928 42.6801 54.4628C43.0713 54.0782 43.1003 54.0536 43.2054 54.0335C43.353 54.0045 43.5229 54.038 43.5944 54.1095C43.6413 54.1587 43.6503 54.1855 43.648 54.2929C43.6436 54.4002 43.6234 54.4561 43.5161 54.6662C43.2188 55.2385 42.6711 56.0902 41.8529 57.2594C41.1644 58.2431 40.8894 58.6924 40.8894 58.8445C40.8894 59.03 41.1465 58.8847 41.607 58.4421C41.9267 58.1336 42.3805 57.6395 43.2702 56.6357C43.9498 55.8689 44.3656 55.4196 44.4886 55.3145C44.6205 55.2027 44.8597 55.1424 45.0139 55.1804C45.1235 55.2072 45.1659 55.4106 45.1101 55.6364C45.0922 55.7147 45.0273 55.8153 44.8574 56.0321C43.7822 57.4048 43.0646 58.5896 42.6041 59.7543C42.4476 60.1523 42.2822 60.6486 42.2173 60.9258C42.1816 61.0823 42.1816 61.1001 42.2129 61.1314C42.2374 61.156 42.2598 61.1605 42.2822 61.1471C42.3023 61.1382 42.4208 60.9772 42.5459 60.7939C43.6235 59.2066 45.1458 57.4919 46.7867 56.0142L47.1041 55.7259V55.6253C47.1041 55.5314 47.0929 55.5135 46.9298 55.3369C46.5765 54.9591 46.2479 54.4695 45.926 53.839C45.7293 53.4523 45.7293 53.4523 45.7673 53.3875C45.7896 53.3517 45.8008 53.3025 45.7919 53.2757C45.7807 53.231 45.7896 53.2265 45.8679 53.2265C46.002 53.2265 46.2099 53.1818 46.3038 53.1348C46.4357 53.0678 46.4625 52.994 46.4782 52.6296C46.4961 52.1937 46.5139 52.178 46.8985 52.2518C47.2628 52.3211 47.3858 52.1914 47.3143 51.8069C47.2494 51.476 47.2494 51.3844 47.3076 51.2883C47.4462 51.0602 47.6049 50.9239 47.7703 50.8926L47.8418 50.8792V57.1946V63.5101L47.6921 63.4117C46.6503 62.741 45.3448 62.2403 43.2255 61.6993C42.1055 61.4131 41.5198 61.232 40.9476 60.9906C39.8231 60.5167 38.958 59.8594 38.4907 59.1217C38.265 58.7662 38.0258 58.2476 37.8357 57.6999C37.8223 57.6596 37.6949 57.825 37.6927 57.8832C37.6927 57.9525 37.9363 58.5471 38.0772 58.8154C38.2583 59.1641 38.4572 59.4615 38.6584 59.6783C39.3604 60.4474 40.2389 60.9884 41.4975 61.4198C41.9558 61.5786 42.2978 61.6747 43.1361 61.8893C44.806 62.3163 45.7427 62.6337 46.6682 63.0831C47.3098 63.3961 47.8396 63.7225 48.2889 64.0824L48.47 64.2255L48.7316 64.0198C49.1898 63.6621 49.7755 63.2932 50.3255 63.016C51.1235 62.6159 51.7584 62.4035 53.2741 62.0234C54.4813 61.7216 55.0692 61.5584 55.5118 61.4019C56.6475 60.9973 57.3092 60.5971 57.9686 59.9175C58.9344 58.9227 59.4977 57.597 59.6453 55.9651C59.6587 55.8041 59.6676 51.9455 59.6676 44.9258V34.1348H57.4903H55.3106L55.2637 34.2019L55.2167 34.2689H57.374H59.5335V40.6067V46.9446H55.0245H50.5155L50.5736 46.882C50.625 46.8261 53.0818 44.054 53.1579 43.9668C53.1869 43.9333 53.1869 43.8975 53.1646 43.7209C53.1511 43.6069 53.1333 43.4906 53.1266 43.4616C53.1176 43.4191 53.1355 43.4034 53.2383 43.352L53.359 43.2939L53.5558 43.3431C53.8039 43.4057 54.0163 43.4929 54.2644 43.6359C54.4299 43.7298 54.4768 43.7477 54.5774 43.7477C54.64 43.7477 54.7607 43.7544 54.8457 43.7634L54.9954 43.7768L55.0088 43.8617C55.02 43.9198 55.058 43.9869 55.1296 44.0696C55.5968 44.6039 56.0864 45.2679 56.3569 45.7329C56.4105 45.8245 56.4597 45.8894 56.4709 45.8782C56.643 45.6859 57.611 44.4072 58.1162 43.703C58.5566 43.0905 59.2205 42.1426 59.2339 42.109C59.2407 42.0889 59.1892 42.0733 59.0484 42.0509C58.7064 41.9995 57.7697 41.805 57.421 41.7156C57.0342 41.615 56.7168 41.5032 56.2965 41.3244C55.9433 41.1746 55.599 41.0047 55.599 40.9801C55.6013 40.9711 55.6258 40.8482 55.6549 40.7073C55.6951 40.5106 55.7019 40.4435 55.6817 40.4234C55.6571 40.4011 54.3315 39.4666 54.2622 39.4241C54.2443 39.4129 54.1929 39.442 54.1169 39.5046C54.0521 39.5605 53.9895 39.6097 53.976 39.6186C53.9626 39.6276 53.8553 39.5672 53.7413 39.489C53.6251 39.4085 53.5245 39.3436 53.5155 39.3436C53.5044 39.3436 52.438 40.5553 51.935 41.1388C51.9015 41.179 51.9149 41.1947 52.1519 41.4182L52.4023 41.6575L51.7227 42.4511L51.0431 43.2447L51.0274 43.6784L51.0095 44.1121L50.1355 45.0622L49.2614 46.0101L49.2547 39.4532C49.2524 35.8472 49.2547 32.894 49.2591 32.8896C49.2636 32.8829 49.628 33.1914 50.0662 33.5737L50.8642 34.2689H52.1675H53.4708L53.4842 34.2175C53.4909 34.1907 53.4976 34.1616 53.4976 34.1504C53.4976 34.1415 52.9187 34.1348 52.2122 34.1348H50.9268L49.6995 33.0639L48.4722 31.9931L47.2472 33.0639ZM48.7472 32.4179L48.9596 32.6034V39.4442V46.2851L48.736 46.0615L48.5125 45.838V39.0374C48.5125 35.295 48.517 32.2346 48.5237 32.2346C48.5304 32.2346 48.631 32.3173 48.7472 32.4179ZM47.8418 39.1536V39.3884H47.6921C47.312 39.3884 46.6861 39.4644 46.2099 39.5694C42.7605 40.3161 40.1718 43.2894 40.0243 46.6696L40.0109 46.9893H39.7672H39.5235L39.5347 46.8484C39.5414 46.7724 39.5526 46.5913 39.5593 46.4483C39.5906 45.8245 39.7694 44.9795 40.0109 44.3334C40.9565 41.7938 43.2054 39.8109 45.8813 39.1536C46.4692 39.0083 47.0594 38.9278 47.5691 38.9211L47.8418 38.9189V39.1536ZM54.877 40.2066C55.1586 40.4122 55.3889 40.5821 55.3934 40.5844C55.3956 40.5866 55.3554 40.6358 55.3039 40.6917L55.2078 40.7945L54.6936 40.4368C54.412 40.2401 54.1795 40.0702 54.1795 40.059C54.1795 40.0389 54.3427 39.8355 54.3583 39.8355C54.365 39.8355 54.5975 40.0031 54.877 40.2066ZM53.7368 40.1887L53.8307 40.2647L53.4798 40.685C53.2875 40.9175 53.1221 41.1075 53.1109 41.1075C53.102 41.1097 53.0394 41.074 52.9723 41.0293L52.8516 40.9488L52.9008 40.8862C53.1087 40.6269 53.6005 40.0881 53.6206 40.0993C53.6318 40.106 53.6854 40.1462 53.7368 40.1887ZM47.7927 40.2625L47.8418 40.2826V42.4399V44.5972H47.7658C47.6921 44.5972 47.6876 44.5928 47.6317 44.4452C47.5624 44.2619 46.4894 41.3467 46.429 41.1813C46.3731 41.0248 46.353 40.7409 46.3865 40.6336C46.4536 40.4324 46.7621 40.2803 47.1935 40.2379C47.3769 40.2178 47.7122 40.2334 47.7927 40.2625ZM44.9156 41.065C45.1749 41.1142 45.3761 41.2662 45.499 41.5054C45.5773 41.6552 46.847 44.9303 46.8314 44.9415C46.8292 44.9437 46.7397 44.9996 46.6369 45.0667C46.4201 45.2075 46.1719 45.44 46.0288 45.639L45.9305 45.7754L44.2315 45.1002C43.2971 44.7314 42.5079 44.4139 42.4766 44.396C42.2822 44.2932 42.1055 44.0652 42.0295 43.8215C41.9737 43.6404 41.9714 43.399 42.0251 43.2447C42.1704 42.8244 43.0132 41.9414 43.7442 41.4428C44.227 41.1142 44.578 41.0024 44.9156 41.065ZM54.7473 41.1455C54.7965 41.1813 54.7987 41.1947 54.7898 41.3422C54.7741 41.5792 54.6959 41.6932 54.5282 41.7268C54.479 41.7379 54.4522 41.729 54.4142 41.691C54.3695 41.6463 54.365 41.6239 54.374 41.4808C54.3851 41.302 54.4276 41.2171 54.5372 41.1522C54.6199 41.1008 54.6802 41.0986 54.7473 41.1455ZM53.7033 42.5763C53.7413 42.6568 53.7726 42.7618 53.7749 42.8065C53.7771 42.8825 53.7749 42.887 53.71 42.8781C53.6206 42.8691 53.3836 42.7529 53.3367 42.6948C53.2965 42.6478 53.2808 42.4757 53.3121 42.4444C53.3188 42.4354 53.3948 42.4287 53.4798 42.4287H53.634L53.7033 42.5763ZM52.134 42.9586C52.134 42.9742 52.011 43.1307 51.8613 43.3028L51.5863 43.618L51.5707 43.5331C51.5371 43.3475 51.5416 43.3386 51.7785 43.0659L52.0066 42.8065L52.0692 42.8669C52.1049 42.9004 52.134 42.9429 52.134 42.9586ZM51.0341 44.8007C51.0297 44.8096 50.8218 45.06 50.5714 45.3573L50.1153 45.8961L50.0304 45.8C49.9834 45.7463 49.9454 45.6971 49.9432 45.6904C49.9432 45.6815 50.1511 45.4378 50.4037 45.1449L50.8642 44.6151L50.9514 44.7001C51.0006 44.747 51.0364 44.7917 51.0341 44.8007ZM41.9133 45.2455C42.0452 45.2634 42.376 45.3841 43.6346 45.8804C44.4908 46.2158 45.2352 46.5042 45.2889 46.5198C45.3403 46.5355 45.3828 46.5556 45.3828 46.5623C45.3828 46.569 45.3627 46.6405 45.3381 46.7165C45.3135 46.7948 45.2934 46.9043 45.2934 46.958V47.0563H43.0713C41.0325 47.0563 40.847 47.0541 40.8201 47.0183C40.7732 46.9624 40.7844 46.5779 40.8425 46.303C40.9319 45.8715 41.0593 45.5898 41.2382 45.4266C41.3544 45.3171 41.4573 45.2701 41.616 45.2455C41.6786 45.2366 41.7322 45.2276 41.7389 45.2276C41.7456 45.2254 41.8239 45.2344 41.9133 45.2455ZM47.9648 46.104C48.0117 46.1241 48.0721 46.1576 48.0944 46.1778C48.1325 46.2135 48.1123 46.2381 47.6697 46.6808L47.2047 47.1458H47.0214H46.8403L46.8247 46.9982C46.8023 46.8082 46.818 46.7121 46.8917 46.5466C46.9856 46.3365 47.1891 46.1599 47.4283 46.0794C47.5445 46.0414 47.8463 46.0548 47.9648 46.104ZM49.3173 47.0005L50.1109 47.7941H54.8211H59.5335V48.6659V49.5378H54.868H50.2003L50.283 49.4573L50.3635 49.3746L50.2718 49.2986L50.1802 49.2226L49.3486 50.0542L48.5147 50.8859L47.6697 50.0431C47.2047 49.5781 46.7911 49.1712 46.7509 49.1399L46.6771 49.084L46.5989 49.16L46.5229 49.2338L46.6727 49.3858L46.8224 49.5378H42.1123H37.4021V48.6659V47.7941H42.1592H46.9141L47.7077 47.0005C48.1436 46.5645 48.5058 46.2068 48.5125 46.2068C48.5192 46.2068 48.8813 46.5645 49.3173 47.0005ZM49.6951 46.6204L50.0572 46.9334L49.8404 46.9401L49.6213 46.9468L49.4357 46.7612L49.2502 46.5757V46.4125C49.2502 46.218 49.201 46.1934 49.6951 46.6204ZM59.5335 47.3358V47.5705H54.8881H50.245L50.0103 47.3358L49.7755 47.1011H54.6556H59.5335V47.3358ZM46.9029 47.4476L46.7822 47.5705H42.0921H37.4021V47.4476V47.3246H42.2129H47.0236L46.9029 47.4476ZM50.0304 49.9134C49.789 50.1839 49.3061 50.6779 49.286 50.6712C49.2726 50.6668 49.2569 50.6399 49.248 50.6086C49.2368 50.5617 49.2837 50.5036 49.6392 50.1459C50.0282 49.7547 50.0438 49.7412 50.0639 49.7971C50.0773 49.8419 50.0706 49.8664 50.0304 49.9134ZM59.5268 52.7615C59.5179 56.0098 59.5201 55.9494 59.3994 56.6134C59.1624 57.9189 58.6326 59.0032 57.8233 59.8415C57.4008 60.2775 57.0342 60.548 56.5223 60.805C55.7287 61.2007 55.1698 61.3818 53.2674 61.858C52.0088 62.171 51.4343 62.3476 50.8262 62.6069C50.3903 62.7902 49.8381 63.0697 49.5095 63.2709C49.3776 63.3536 49.2636 63.4207 49.2591 63.4207C49.2547 63.4207 49.2502 61.4377 49.2502 59.0144V54.6103L49.3128 54.6528C49.4134 54.7266 49.6861 55.0038 49.7934 55.1424C49.903 55.2854 49.9723 55.4151 49.9969 55.5179C50.0438 55.708 50.2808 55.9561 50.7748 56.325C51.0051 56.4971 51.1683 56.5977 51.3829 56.7006C51.5438 56.7788 51.6936 56.8615 51.7137 56.8839C51.7338 56.9085 51.7808 57.0493 51.8188 57.2013C51.9306 57.6641 51.9753 57.7021 52.3933 57.7155L52.666 57.7244L52.8516 57.9413C53.1824 58.3191 53.947 59.1798 54.1035 59.3452C54.1862 59.4346 54.2711 59.5375 54.2913 59.5733C54.3807 59.7499 54.3449 59.9891 54.1996 60.1858C54.0588 60.3781 53.8352 60.4295 53.6228 60.3199C53.5468 60.2819 52.9634 59.6828 52.7756 59.4481C52.7242 59.3855 52.6347 59.305 52.5766 59.2715C52.5006 59.2267 52.4693 59.1932 52.4693 59.1597C52.4693 59.0479 52.2592 58.84 52.0893 58.7908C52.011 58.7662 51.9909 58.7707 51.8613 58.831C51.678 58.9182 51.4902 59.068 51.4499 59.1619C51.3985 59.2849 51.4991 59.5263 51.6221 59.58C51.8657 59.6806 51.9775 59.7812 51.9775 59.8974C51.9775 59.9309 52.1854 60.1523 52.6437 60.6083C53.2316 61.1963 53.3255 61.279 53.4529 61.3394C53.7033 61.4556 54.0252 61.4847 54.2421 61.4109C54.564 61.2991 55.1072 60.8319 55.219 60.5703C55.3486 60.2685 55.3285 59.685 55.181 59.3497C55.1407 59.2603 54.7428 58.802 53.6877 57.6283C53.3434 57.2483 53.3076 57.1745 53.3747 56.9889C53.4418 56.7989 53.4462 56.7497 53.4261 56.4882C53.3948 56.0791 53.3903 56.0701 53.0662 55.9427C52.7935 55.8332 52.7577 55.7259 52.9365 55.547C53.017 55.4688 53.0327 55.4621 53.1467 55.4621C53.2741 55.4621 53.5737 55.5448 53.7257 55.6208C53.7793 55.6476 53.8442 55.7169 53.909 55.8153C54.0029 55.9539 54.0118 55.9785 54.0118 56.1014C54.0118 56.3272 54.0655 56.3675 54.555 56.5083C54.7249 56.5575 54.8971 56.6201 54.9395 56.6491C55.1005 56.7587 56.3636 58.2386 56.4083 58.3683C56.4239 58.4175 56.4373 58.6343 56.4396 58.9495C56.4418 59.2267 56.4463 59.4659 56.4463 59.4794C56.4507 59.5263 56.5782 59.5777 56.7078 59.58C56.8174 59.5822 56.8375 59.5755 56.8934 59.5174C57.07 59.334 58.2414 58.0754 58.342 57.9637C58.4739 57.8139 58.4985 57.7312 58.4605 57.5836C58.4314 57.4718 58.3822 57.407 58.3263 57.407C58.3062 57.407 58.2146 57.4316 58.1251 57.4629C58.0357 57.4942 57.9217 57.5188 57.8725 57.5188C57.725 57.5188 57.4031 57.4316 57.2287 57.3444C57.0767 57.2684 57.0454 57.2393 56.833 56.9822C56.7078 56.828 56.4485 56.5374 56.2585 56.3339C55.8717 55.9203 55.6884 55.699 55.6884 55.6476C55.6884 55.6275 55.7443 55.4799 55.8159 55.319C55.8852 55.158 55.9455 54.9792 55.9522 54.9233C55.9612 54.8316 55.9545 54.8137 55.9098 54.7847C55.8785 54.7646 55.7779 54.7467 55.6616 54.74C55.4157 54.7266 55.3419 54.6863 55.257 54.5209C55.2235 54.4561 55.1743 54.2996 55.1497 54.1766C55.0893 53.8927 55.1005 53.696 55.2078 53.1482C55.3397 52.4753 55.3665 52.2451 55.333 52.0238C55.2972 51.7734 55.2011 51.476 55.0334 51.0915C54.9217 50.8344 54.877 50.7584 54.7831 50.6645C54.5998 50.4812 54.1124 50.2174 53.6877 50.0721C53.5468 50.0229 53.4954 50.0185 53.1735 50.0207C52.6169 50.0229 52.2368 50.0855 52.1273 50.1951C52.0513 50.2688 52.011 50.2688 51.9194 50.1861C51.8188 50.0989 51.7249 50.0855 51.4186 50.1124C51.2756 50.1235 51.1325 50.1258 51.0967 50.1168C51.0274 50.0967 50.8821 49.967 50.7659 49.8217L50.6988 49.739H55.1184H59.5357L59.5268 52.7615ZM47.4059 50.1638C47.6965 50.4566 47.7144 50.4767 47.6518 50.4767C47.5982 50.4767 47.5289 50.4253 47.3165 50.2398C47.0281 49.9872 46.9923 49.9402 47.0371 49.8843C47.0527 49.8664 47.0706 49.8508 47.0795 49.8508C47.0862 49.8508 47.2338 49.9916 47.4059 50.1638ZM48.9596 57.2326V63.633L48.736 63.8052L48.5125 63.9773V57.6238V51.2704L48.7293 51.0535C48.85 50.9328 48.9506 50.8344 48.9529 50.8344C48.9574 50.8344 48.9596 53.7138 48.9596 57.2326ZM52.8203 51.1362C53.1377 51.2413 53.4328 51.3978 53.5781 51.5364C53.6564 51.6102 53.8061 51.8181 54.0073 52.1311C54.5461 52.9672 54.555 52.9895 54.3583 53.0968C54.2935 53.1326 54.2108 53.1594 54.1638 53.1594H54.0789V53.0387C54.0789 52.9739 54.0677 52.8867 54.0543 52.8464C54.0252 52.766 53.7033 52.3256 53.5312 52.1311C53.3121 51.8829 52.7465 51.3598 52.6392 51.3061C52.5386 51.2525 52.4716 51.1832 52.4403 51.096C52.4179 51.0334 52.5565 51.0468 52.8203 51.1362ZM46.4759 51.3397C46.6481 51.4693 46.7934 51.5901 46.8001 51.6079C46.8336 51.6951 46.7196 51.7734 46.6302 51.7264C46.5117 51.6638 46.0087 51.2547 46.0087 51.2212C46.0087 51.1698 46.0736 51.1027 46.1227 51.1027C46.1451 51.1027 46.3038 51.2078 46.4759 51.3397ZM45.5616 52.3211C45.8478 52.5268 45.8902 52.5827 45.8075 52.6497C45.7248 52.7168 45.7382 52.7213 45.3425 52.4351C45.1369 52.2876 45.1056 52.2339 45.1816 52.1713C45.2084 52.149 45.2464 52.1311 45.2643 52.1311C45.2822 52.1311 45.4163 52.216 45.5616 52.3211ZM55.3084 55.4375C55.4112 55.6297 55.1474 56.0433 54.9217 56.0433C54.8546 56.0433 54.7495 55.9628 54.7495 55.9114C54.7495 55.8399 55.0424 55.5001 55.1519 55.4442C55.2726 55.3838 55.2793 55.3838 55.3084 55.4375ZM53.026 56.6C53.0997 56.6469 52.9187 56.904 52.7733 56.9599C52.7175 56.98 52.6973 56.9778 52.6504 56.942C52.5386 56.8593 52.5722 56.7319 52.7264 56.6514C52.8583 56.5843 52.9701 56.5642 53.026 56.6Z" fill="white"/>
<defs>
<filter id="filter0_f_1074_639" x="10.5" y="10.5" width="75.8677" height="78.4519" filterUnits="userSpaceOnUse" color-interpolation-filters="sRGB">
<feFlood flood-opacity="0" result="BackgroundImageFix"/>
<feBlend mode="normal" in="SourceGraphic" in2="BackgroundImageFix" result="shape"/>
<feGaussianBlur stdDeviation="5" result="effect1_foregroundBlur_1074_639"/>
</filter>
<filter id="filter1_f_1074_639" x="0.5" y="0.5" width="95.8677" height="98.4519" filterUnits="userSpaceOnUse" color-interpolation-filters="sRGB">
<feFlood flood-opacity="0" result="BackgroundImageFix"/>
<feBlend mode="normal" in="SourceGraphic" in2="BackgroundImageFix" result="shape"/>
<feGaussianBlur stdDeviation="10" result="effect1_foregroundBlur_1074_639"/>
</filter>
</defs>
</svg>
