<svg width="187" height="99" viewBox="0 0 187 99" fill="none" xmlns="http://www.w3.org/2000/svg">
<g filter="url(#filter0_f_1074_602)">
<path d="M61.3444 23.1075L59.087 20.8455H25.9024L20 26.76V56.5358M61.3444 23.1075L64.9894 26.76L99.4235 26.76L104.932 32.2803H109.979M61.3444 23.1075H100.806L109.979 32.2803M109.979 32.2803H137.199L142.708 26.76H148.301M63.2256 74.0039L64.9894 72.2364L68.7514 68.4744H72.2035H76.6772H83.9741M63.2256 74.0039L59.087 78.151H29.5509M63.2256 74.0039L82.2067 74.0039L83.9741 72.2364V68.4744M83.9741 68.4744H138.13M138.13 68.4744H156.542L161.002 64.0148V60.5388V31.2288L156.542 26.76L148.301 26.76M138.13 68.4744L141.892 72.2364H158.865L165.903 65.1989V29.391L158.865 22.3535H152.708L148.301 26.76M20 56.5358V72.2364L25.9024 78.151H29.5509M20 56.5358L22.0107 58.5465V70.6108L29.5509 78.151" stroke="#FFB904"/>
</g>
<g filter="url(#filter1_f_1074_602)">
<path d="M61.3444 23.1075L59.087 20.8455H25.9024L20 26.76V56.5358M61.3444 23.1075L64.9894 26.76L99.4235 26.76L104.932 32.2803H109.979M61.3444 23.1075H100.806L109.979 32.2803M109.979 32.2803H137.199L142.708 26.76H148.301M63.2256 74.0039L64.9894 72.2364L68.7514 68.4744H72.2035H76.6772H83.9741M63.2256 74.0039L59.087 78.151H29.5509M63.2256 74.0039L82.2067 74.0039L83.9741 72.2364V68.4744M83.9741 68.4744H138.13M138.13 68.4744H156.542L161.002 64.0148V60.5388V31.2288L156.542 26.76L148.301 26.76M138.13 68.4744L141.892 72.2364H158.865L165.903 65.1989V29.391L158.865 22.3535H152.708L148.301 26.76M20 56.5358V72.2364L25.9024 78.151H29.5509M20 56.5358L22.0107 58.5465V70.6108L29.5509 78.151" stroke="#FFB904"/>
</g>
<path fill-rule="evenodd" clip-rule="evenodd" d="M59.087 78.151L63.2256 74.0039L64.9894 72.2364L68.7514 68.4744H72.2035H76.6772H83.9741H138.13H156.542L161.002 64.0148V60.5387V31.2288L156.542 26.76L148.301 26.76H142.708L137.199 32.2803H109.979H104.932L99.4235 26.76L64.9894 26.76L61.3444 23.1075L59.087 20.8455H25.9024L20 26.76V56.5358V72.2364L25.9024 78.151H29.5509H59.087Z" fill="#41009C" fill-opacity="0.4"/>
<path d="M64.9894 26.76L99.4235 26.76L104.932 32.2803H109.979L100.806 23.1075H61.3444L64.9894 26.76Z" fill="#FFB904" fill-opacity="0.4"/>
<path d="M68.7514 68.4744L64.9894 72.2364L63.2256 74.0039L82.2067 74.0039L83.9741 72.2364V68.4744H76.6772H72.2035H68.7514Z" fill="#FFB904" fill-opacity="0.4"/>
<path d="M156.542 26.76L161.002 31.2288V60.5387V64.0148L156.542 68.4744H138.13L141.892 72.2364H158.865L165.903 65.1989V29.391L158.865 22.3535H152.708L148.301 26.76L156.542 26.76Z" fill="#FFB904" fill-opacity="0.4"/>
<path d="M61.3444 23.1075L59.087 20.8455H25.9024L20 26.76V56.5358M61.3444 23.1075L64.9894 26.76L99.4235 26.76L104.932 32.2803H109.979M61.3444 23.1075H100.806L109.979 32.2803M109.979 32.2803H137.199L142.708 26.76H148.301M63.2256 74.0039L64.9894 72.2364L68.7514 68.4744H72.2035H76.6772H83.9741M63.2256 74.0039L59.087 78.151H29.5509M63.2256 74.0039L82.2067 74.0039L83.9741 72.2364V68.4744M83.9741 68.4744H138.13M138.13 68.4744H156.542L161.002 64.0148V60.5388V31.2288L156.542 26.76L148.301 26.76M138.13 68.4744L141.892 72.2364H158.865L165.903 65.1989V29.391L158.865 22.3535H152.708L148.301 26.76M20 56.5358V72.2364L25.9024 78.151H29.5509M20 56.5358L22.0107 58.5465V70.6108L29.5509 78.151" stroke="#FFB904"/>
<path d="M82.2544 59.9369V39.7319H78.4275V57.4314C78.4275 59.2514 79.6679 59.9369 81.1459 59.9369H82.2544Z" fill="white"/>
<path d="M85.184 45.4558H89.2748V59.9369H85.184V45.4558Z" fill="white"/>
<path d="M85.184 39.7319H89.2748V42.5807H85.184V39.7319Z" fill="white"/>
<path d="M93.1017 42.3697V45.4558H96.7967V43.6885C96.7967 43.0027 97.1398 42.5807 97.6412 42.5807H100.228V39.7319H96.5591C94.87 39.6528 93.1017 40.2861 93.1017 42.3697Z" fill="white"/>
<path d="M99.2776 48.4101V45.4558H96.7967H93.1017H91.439V48.4101H92.917H96.7967H99.2776Z" fill="white"/>
<path d="M92.917 48.4101V59.9369H96.7967V48.4101H92.917Z" fill="white"/>
<path fill-rule="evenodd" clip-rule="evenodd" d="M104.239 53.7385H113.45V50.0457C112.738 43.6885 100.993 43.6885 100.624 50.0457V54.8464C100.624 60.544 110.6 61.6782 113.45 57.5632L110.917 55.4794C108.832 57.3259 104.424 57.4314 104.239 53.7385ZM104.239 51.2591C104.239 46.8805 109.782 46.986 109.782 51.2591H104.239Z" fill="white"/>
<path d="M115.166 50.0457V54.8464C115.166 60.7814 123.9 61.2562 127.093 57.1941L124.56 55.1103C123.295 57.5633 119.362 57.4314 119.178 53.7385V51.2591C119.178 48.1203 122.529 47.2762 124.034 50.0457L127.093 48.1203C124.746 42.7657 115.166 44.7968 115.166 50.0457Z" fill="white"/>
<path d="M152.564 59.9369V39.7319H148.737V57.4314C148.737 59.2514 149.978 59.9369 151.456 59.9369H152.564Z" fill="white"/>
<path d="M146.837 59.9371V39.7321H143.01V57.4315C143.01 59.2515 144.25 59.9371 145.728 59.9371H146.837Z" fill="white"/>
<path fill-rule="evenodd" clip-rule="evenodd" d="M127.808 53.7385V50.0457C127.808 44.5066 138.523 42.1591 140.635 50.0457V53.7385H131.424C131.608 57.4314 136.016 57.3259 138.101 55.4794L140.635 57.5632C137.705 61.731 127.808 60.755 127.808 54.8464V53.7385ZM131.424 51.2591C131.424 46.8805 136.966 46.986 136.966 51.2591H131.424Z" fill="white"/>
<path d="M48.2873 69.3541C59.1902 69.3541 68.0288 60.5206 68.0288 49.6239C68.0288 38.7272 59.1902 29.8937 48.2873 29.8937C37.3843 29.8937 28.5457 38.7272 28.5457 49.6239C28.5457 49.7518 28.712 49.7979 28.7825 49.6912C32.0671 44.7179 34.5325 42.7323 39.6711 40.8376C40.0254 40.707 40.2375 40.3475 40.2375 39.9698C40.2375 37.435 42.2936 35.3801 44.8298 35.3801C47.3661 35.3801 49.4221 37.435 49.4221 39.9698C49.4221 42.5046 47.3661 44.5594 44.8298 44.5594C44.6579 44.5578 44.4919 44.5481 44.3316 44.5311C42.4456 44.3314 40.2966 43.8038 38.8845 45.0699C35.0755 48.485 32.4708 53.5332 32.047 59.9152C32.0097 60.4769 32.1716 61.0364 32.5105 61.4858C33.5842 62.9101 35.7063 62.4943 36.663 60.989C39.8054 56.0448 44.8923 51.3957 51.3244 48.9124C53.0174 48.2588 54.1173 46.53 55.2466 45.1094C56.0878 44.0511 57.3867 43.3725 58.8443 43.3725C61.3805 43.3725 63.4366 45.4273 63.4366 47.9621C63.4366 50.4969 61.3805 52.5518 58.8443 52.5518C58.4356 52.5177 58.0767 52.4785 57.7544 52.422C56.0743 52.1273 54.2832 51.3326 52.8271 52.221C49.3863 54.3202 45.0018 58.5967 42.9155 65.0109C42.3021 66.8968 43.4781 68.8673 45.441 69.1505C46.3704 69.2847 47.3207 69.3541 48.2873 69.3541Z" fill="white"/>
<defs>
<filter id="filter0_f_1074_602" x="9.5" y="10.3455" width="166.903" height="78.3057" filterUnits="userSpaceOnUse" color-interpolation-filters="sRGB">
<feFlood flood-opacity="0" result="BackgroundImageFix"/>
<feBlend mode="normal" in="SourceGraphic" in2="BackgroundImageFix" result="shape"/>
<feGaussianBlur stdDeviation="5" result="effect1_foregroundBlur_1074_602"/>
</filter>
<filter id="filter1_f_1074_602" x="-0.5" y="0.345459" width="186.903" height="98.3057" filterUnits="userSpaceOnUse" color-interpolation-filters="sRGB">
<feFlood flood-opacity="0" result="BackgroundImageFix"/>
<feBlend mode="normal" in="SourceGraphic" in2="BackgroundImageFix" result="shape"/>
<feGaussianBlur stdDeviation="10" result="effect1_foregroundBlur_1074_602"/>
</filter>
</defs>
</svg>
