<svg width="48" height="51" viewBox="0 0 48 51" fill="none" xmlns="http://www.w3.org/2000/svg">
<path d="M5.43064 0.0677471C3.14314 0.496499 1.36189 2.042 0.490019 4.33533C0.0962694 5.37231 -0.0443556 6.34946 0.0118944 7.68557C0.0775194 9.09148 0.227519 9.77948 0.761894 10.9261C1.26814 12.0429 2.42127 13.2992 3.42439 13.8476C5.91814 15.2236 9.19002 14.8946 11.2994 13.05C12.1431 12.3121 13.0994 10.627 13.3806 9.38064C13.7463 7.80522 13.6806 6.12013 13.2119 4.66437C12.8369 3.51771 12.4244 2.81974 11.6088 1.95226C10.39 0.646064 9.04002 0.0777187 7.06189 0.00792217C6.44314 -0.0120201 5.71189 0.00792217 5.43064 0.0677471ZM7.68064 3.24849C10.5963 3.83678 11.6744 7.99467 9.52752 10.3478C8.12127 11.8834 5.47752 11.8834 4.06189 10.3478C2.86189 9.0516 2.59939 6.98761 3.41502 5.24268C4.17439 3.63736 5.81502 2.87956 7.68064 3.24849Z" fill="#FFB904"/>
<path d="M34.2025 15.1235C32.1119 15.273 30.1432 15.981 28.4275 17.2074L27.7525 17.686L27.7057 17.2373C27.6494 16.6889 27.415 16.3399 26.9275 16.0707C26.5713 15.8613 26.4682 15.8613 21.6869 15.9012C17.0838 15.9311 16.7932 15.9411 16.5213 16.1206C16.3525 16.2303 16.1463 16.4396 16.0525 16.5792C15.9025 16.8385 15.8838 17.5963 15.8463 29.4717C15.7713 51.5973 15.7619 49.3937 15.9682 50.002C16.315 51.019 15.9213 50.9592 21.8557 50.9891C27.6588 51.019 27.49 51.029 27.8463 50.3011C28.2025 49.5632 28.2307 48.9151 28.0994 43.6604C27.9682 38.0468 28.0807 32.1439 28.3432 30.5984C28.6807 28.6142 29.4494 27.5174 30.7619 27.1584C31.0338 27.0886 31.6994 27.0288 32.2432 27.0288C33.1619 27.0288 33.2838 27.0587 33.79 27.328C34.465 27.6969 34.8494 28.2253 35.1213 29.1327C35.44 30.2096 35.5057 30.9674 35.6088 35.1253C35.6838 37.967 35.6838 40.1307 35.5994 43.2815C35.4682 48.4864 35.4963 49.5233 35.8057 50.1814C36.2088 51.0489 35.9463 51.019 41.815 50.9891C46.8213 50.9592 46.9432 50.9592 47.1963 50.7498C47.3369 50.6401 47.5432 50.4307 47.6369 50.2911C47.815 50.0319 47.8244 49.7626 47.8338 39.672C47.8432 30.2694 47.8244 29.1925 47.6744 27.8764C47.0557 22.5818 45.7432 19.4609 43.2869 17.4467C41.6744 16.1305 39.265 15.273 36.7994 15.1534C36.2182 15.1334 35.6275 15.0936 35.4682 15.0836C35.3182 15.0637 34.7463 15.0836 34.2025 15.1235ZM37.7088 18.4538C41.29 19.0321 43.3713 21.1659 44.2807 25.2041C44.815 27.6071 44.8244 27.7168 44.8619 38.1764L44.8994 47.8183H41.7494H38.5994L38.6275 40.4198C38.6463 34.6965 38.6275 32.7222 38.5244 31.7252C38.0275 26.62 36.6869 24.4862 33.64 23.9279C32.6088 23.7384 31.0713 23.7883 30.0775 24.0375C28.3807 24.4763 27.0775 25.593 26.2994 27.2781C25.1744 29.711 24.8744 32.802 25.0244 40.2404C25.0619 42.3542 25.0994 44.9168 25.0994 45.9438L25.1088 47.8183H21.9682H18.8275V33.4601V19.1019H21.7807H24.7338V20.5676C24.7338 21.824 24.7619 22.0832 24.9213 22.4322C25.1744 22.9806 25.6525 23.3097 26.2619 23.3595C26.9744 23.4193 27.3025 23.2 27.9025 22.2428C28.5588 21.1958 29.2057 20.5078 30.1432 19.8398C32.14 18.4139 34.615 17.9652 37.7088 18.4538Z" fill="#FFB904"/>
<path d="M4.88674 15.9016L1.40862 15.9614L1.15549 16.2107C0.658619 16.7092 0.592994 17.2377 0.602369 20.7474C0.611744 22.5023 0.639869 29.8111 0.667994 36.9902C0.705495 49.6832 0.71487 50.0422 0.892995 50.2914C0.99612 50.431 1.19299 50.6404 1.33362 50.7501C1.58674 50.9595 1.70862 50.9595 6.74299 50.9894C12.4242 51.0193 12.2742 51.0293 12.6399 50.3912C13.0149 49.7231 13.043 49.0052 12.9586 42.7334C12.9117 39.4729 12.8742 32.2938 12.8742 26.7799C12.8742 15.5725 12.9305 16.4799 12.1711 16.081C11.7867 15.8816 11.5992 15.8617 10.0617 15.8517C9.13362 15.8517 6.80862 15.8716 4.88674 15.9016ZM9.92112 33.4604V47.8186H6.78049H3.63987V33.4604V19.1022H6.78049H9.92112V33.4604Z" fill="#FFB904"/>
</svg>
