<svg width="592" height="302" viewBox="0 0 592 302" fill="none" xmlns="http://www.w3.org/2000/svg">
<rect x="21.7122" y="47" width="558.997" height="244" fill="#FFB904" fill-opacity="0.05"/>
<g filter="url(#filter0_f_44_36)">
<path d="M570.805 127.954V102.897L553.093 64.4769V89.5335L570.805 127.954Z" fill="#CB0707"/>
<path d="M560.965 61.136H566.213H570.805V82.8517L560.965 61.136Z" fill="#CB0707"/>
<path d="M570.805 174.726V149.669L553.093 111.249V136.306L570.805 174.726Z" fill="#CB0707"/>
<path d="M570.805 221.498V196.442L553.093 158.022V183.078L570.805 221.498Z" fill="#CB0707"/>
<path d="M570.805 268.271V243.214L553.093 204.794V229.851L570.805 268.271Z" fill="#CB0707"/>
<path d="M564.644 274.953L553.093 249.896V274.953H564.644Z" fill="#CB0707"/>
<path d="M48.4586 240.112L31.2383 202.346V225.908L48.4586 250.055V240.112Z" fill="#CB0707"/>
<path d="M48.4586 218.766V194.137L31.2383 156.371V181.001L48.4586 218.766Z" fill="#CB0707"/>
<path d="M48.4586 172.791V148.161L31.2383 110.395V135.025L48.4586 172.791Z" fill="#CB0707"/>
<path d="M48.4586 126.815V102.186L31.2383 64.4199V89.0497L48.4586 126.815Z" fill="#CB0707"/>
<path d="M38.8918 61.136H43.9941H48.4586V82.4817L38.8918 61.136Z" fill="#CB0707"/>
</g>
<g filter="url(#filter1_f_44_36)">
<path fill-rule="evenodd" clip-rule="evenodd" d="M10 148.714V58.2951L19.6227 43.1238L377.309 42.2286L400.321 10H554.179L581.137 44.9143V292H59.0733L19.6227 245.448V163.981L10 148.714ZM23.5677 243.657V50.2857V46.7048H577.192V286.629H61.0459L23.5677 243.657Z" fill="#CB0707"/>
<path d="M20.7707 268.724V292H42.7184L20.7707 268.724Z" fill="#CB0707"/>
</g>
<path fill-rule="evenodd" clip-rule="evenodd" d="M10 148.714V58.2951L19.6227 43.1238L377.309 42.2286L400.321 10H554.179L581.137 44.9143V292H59.0733L19.6227 245.448V163.981L10 148.714ZM23.5677 243.657V50.2857V46.7048H577.192V286.629H61.0459L23.5677 243.657Z" fill="#CB0707"/>
<path d="M20.7707 268.724V292H42.7184L20.7707 268.724Z" fill="#CB0707"/>
<path d="M570.805 127.954V102.897L553.093 64.4769V89.5335L570.805 127.954Z" fill="#CB0707"/>
<path d="M560.965 61.136H566.213H570.805V82.8517L560.965 61.136Z" fill="#CB0707"/>
<path d="M570.805 174.726V149.669L553.093 111.249V136.306L570.805 174.726Z" fill="#CB0707"/>
<path d="M570.805 221.498V196.442L553.093 158.022V183.078L570.805 221.498Z" fill="#CB0707"/>
<path d="M570.805 268.271V243.214L553.093 204.794V229.851L570.805 268.271Z" fill="#CB0707"/>
<path d="M564.644 274.953L553.093 249.896V274.953H564.644Z" fill="#CB0707"/>
<path d="M48.4586 240.112L31.2383 202.346V225.908L48.4586 250.055V240.112Z" fill="#CB0707"/>
<path d="M48.4586 218.766V194.137L31.2383 156.371V181.001L48.4586 218.766Z" fill="#CB0707"/>
<path d="M48.4586 172.791V148.161L31.2383 110.395V135.025L48.4586 172.791Z" fill="#CB0707"/>
<path d="M48.4586 126.815V102.186L31.2383 64.4199V89.0497L48.4586 126.815Z" fill="#CB0707"/>
<path d="M38.8918 61.136H43.9941H48.4586V82.4817L38.8918 61.136Z" fill="#CB0707"/>
<path d="M516.964 75.5H75.1124V80.5572H516.964V75.5Z" fill="#940000"/>
<path d="M504.271 98.1206V103.012H95.6248V98.1206H504.271Z" fill="#940000"/>
<path d="M516.964 75.5H75.1124V80.5572H516.964V75.5Z" fill="#940000"/>
<path d="M504.271 98.1206V103.012H95.6248V98.1206H504.271Z" fill="#940000"/>
<path d="M75.2048 79.8571V75H60.0485V92H63.6147V79.8571H75.2048Z" fill="white" stroke="white" stroke-width="3"/>
<path d="M516.518 80.8571V76H531.675V93H528.108V80.8571H516.518Z" fill="white" stroke="white" stroke-width="3"/>
<path d="M516.964 257.233L75.2048 257.033V262.123H516.964V257.233Z" fill="#940000"/>
<path d="M504.271 234.012V238.903H95.6248V234.012H504.271Z" fill="#940000"/>
<path d="M516.964 257.233L75.2048 257.033V262.123H516.964V257.233Z" fill="#940000"/>
<path d="M504.271 234.012V238.903H95.6248V234.012H504.271Z" fill="#940000"/>
<path d="M516.518 257.266V262.124H531.675V245.124H528.108V257.266H516.518Z" fill="white" stroke="white" stroke-width="3"/>
<path d="M75.2048 257.266V262.123H60.0485V245.123H63.6147V257.266H75.2048Z" fill="white" stroke="white" stroke-width="3"/>
<path d="M166.055 197V132.205H187.637V197H166.055ZM191.055 197V184.061H201.748V175.857H221.328V197H191.055ZM240.492 183.182H246.987V145.975H240.492V132.205H275.063V145.975H268.569V183.182H275.063V197H240.492V183.182ZM336.463 197H315.467L292.03 132.205H314.051L336.463 197ZM339.832 132.205H361.512L339.1 195.047L329.383 166.531L339.832 132.205ZM401.086 170.389V197H379.504V132.205H401.086V157.889H421.74V170.389H401.086ZM404.504 144.754V132.205H438.244V150.955H417.932V144.754H404.504ZM404.504 197V184.061H416.662V177.566H438.244V197H404.504Z" fill="#940000" fill-opacity="0.5"/>
<path d="M166.055 197V132.205H187.637V197H166.055ZM191.055 197V184.061H201.748V175.857H221.328V197H191.055ZM240.492 183.182H246.987V145.975H240.492V132.205H275.063V145.975H268.569V183.182H275.063V197H240.492V183.182ZM336.463 197H315.467L292.03 132.205H314.051L336.463 197ZM339.832 132.205H361.512L339.1 195.047L329.383 166.531L339.832 132.205ZM401.086 170.389V197H379.504V132.205H401.086V157.889H421.74V170.389H401.086ZM404.504 144.754V132.205H438.244V150.955H417.932V144.754H404.504ZM404.504 197V184.061H416.662V177.566H438.244V197H404.504Z" fill="white"/>
<defs>
<filter id="filter0_f_44_36" x="27.2383" y="57.136" width="547.566" height="221.817" filterUnits="userSpaceOnUse" color-interpolation-filters="sRGB">
<feFlood flood-opacity="0" result="BackgroundImageFix"/>
<feBlend mode="normal" in="SourceGraphic" in2="BackgroundImageFix" result="shape"/>
<feGaussianBlur stdDeviation="2" result="effect1_foregroundBlur_44_36"/>
</filter>
<filter id="filter1_f_44_36" x="0" y="0" width="591.137" height="302" filterUnits="userSpaceOnUse" color-interpolation-filters="sRGB">
<feFlood flood-opacity="0" result="BackgroundImageFix"/>
<feBlend mode="normal" in="SourceGraphic" in2="BackgroundImageFix" result="shape"/>
<feGaussianBlur stdDeviation="5" result="effect1_foregroundBlur_44_36"/>
</filter>
</defs>
</svg>
