<svg width="180" height="93" viewBox="0 0 180 93" fill="none" xmlns="http://www.w3.org/2000/svg">
<g filter="url(#filter0_f_1074_611)">
<path d="M131.521 66.309L125.83 72H20V35.5558L24.9249 30.6309H72.8605M131.521 66.309L134.367 63.4635H148.923M131.521 66.309H146.077L148.923 63.4635M148.923 63.4635H153.082L159.101 57.4442V29.2082H157.35M95.7339 27.676L102.41 21H137.869L141.426 24.5569M95.7339 27.676L92.779 30.6309H72.8605M95.7339 27.676H75.8155L72.8605 30.6309M141.426 24.5569L143.478 22.5048H154.586L156.091 24.0097L158.444 26.3627V27.0193H155.161M141.426 24.5569L142.466 25.5966M157.35 29.2082H146.077L143.478 26.6089L142.466 25.5966M157.35 29.2082L155.161 27.0193M155.161 27.0193L153.848 25.5966H142.466" stroke="#FFB904"/>
</g>
<g filter="url(#filter1_f_1074_611)">
<path d="M131.521 66.309L125.83 72H20V35.5558L24.9249 30.6309H72.8605M131.521 66.309L134.367 63.4635H148.923M131.521 66.309H146.077L148.923 63.4635M148.923 63.4635H153.082L159.101 57.4442V29.2082H157.35M95.7339 27.676L102.41 21H137.869L141.426 24.5569M95.7339 27.676L92.779 30.6309H72.8605M95.7339 27.676H75.8155L72.8605 30.6309M141.426 24.5569L143.478 22.5048H154.586L156.091 24.0097L158.444 26.3627V27.0193H155.161M141.426 24.5569L142.466 25.5966M157.35 29.2082H146.077L143.478 26.6089L142.466 25.5966M157.35 29.2082L155.161 27.0193M155.161 27.0193L153.848 25.5966H142.466" stroke="#FFB904"/>
</g>
<path d="M20 72H125.83L131.521 66.309L134.367 63.4635H148.923H153.082L159.101 57.4442V29.2082H157.35H146.077L143.478 26.6089L142.466 25.5966L141.426 24.5569L137.869 21H102.41L95.7339 27.676L92.779 30.6309H72.8605H24.9249L20 35.5558V72Z" fill="#41009C" fill-opacity="0.4"/>
<path d="M92.779 30.6309L95.7339 27.676H75.8154L72.8605 30.6309H92.779Z" fill="#FFB904" fill-opacity="0.4"/>
<path d="M134.367 63.4635L131.521 66.309H146.077L148.923 63.4635H134.367Z" fill="#FFB904" fill-opacity="0.4"/>
<path d="M143.478 26.6089L146.077 29.2082H157.35L155.161 27.0193L153.848 25.5966H142.466L143.478 26.6089Z" fill="#41009C" fill-opacity="0.4"/>
<path fill-rule="evenodd" clip-rule="evenodd" d="M158.444 27.0193V26.3627L156.091 24.0097L154.586 22.5048H143.478L141.426 24.5569L142.466 25.5966H153.848L155.161 27.0193H158.444Z" fill="#FFB904" fill-opacity="0.4"/>
<path d="M131.521 66.309L125.83 72H20V35.5558L24.9249 30.6309H72.8605M131.521 66.309L134.367 63.4635H148.923M131.521 66.309H146.077L148.923 63.4635M148.923 63.4635H153.082L159.101 57.4442V29.2082H157.35M95.7339 27.676L102.41 21H137.869L141.426 24.5569M95.7339 27.676L92.779 30.6309H72.8605M95.7339 27.676H75.8154L72.8605 30.6309M141.426 24.5569L143.478 22.5048H154.586L156.091 24.0097L158.444 26.3627V27.0193H155.161M141.426 24.5569L142.466 25.5966M157.35 29.2082H146.077L143.478 26.6089L142.466 25.5966M157.35 29.2082L155.161 27.0193M155.161 27.0193L153.848 25.5966H142.466" stroke="#FFB904"/>
<path d="M122.047 30.8975L122.138 32.5079L123.901 32.599L125.634 32.6902V30.9887V29.3175H123.78H121.956L122.047 30.8975Z" fill="white"/>
<path d="M113.23 33.7841L113.321 35.5464H114.841H116.361L116.452 33.7841L116.543 32.0522H114.841H113.139L113.23 33.7841Z" fill="white"/>
<path d="M132.323 34.4831V35.6985H133.539H134.755V34.4831V33.2677H133.539H132.323V34.4831Z" fill="white"/>
<path d="M125.938 37.0354V38.4331H127.489H129.009L128.917 37.1266L128.826 35.8504L127.397 35.7593L125.938 35.6681V37.0354Z" fill="white"/>
<path d="M106.908 36.4278C106.817 36.6709 106.787 37.1874 106.848 37.5824C106.908 38.1293 107.121 38.2812 107.851 38.2812C108.672 38.2812 108.763 38.1901 108.854 37.1266C108.945 36.0632 108.915 36.0024 108.003 36.0024C107.486 36.0024 107 36.1847 106.908 36.4278Z" fill="white"/>
<path d="M119.555 39.5266V41.1978L121.166 41.1066L122.747 41.0154L122.838 39.4051L122.929 37.8251H121.257H119.555V39.5266Z" fill="white"/>
<path d="M138.097 39.8003C138.097 40.7726 138.158 40.8638 139.009 40.8638C139.861 40.8638 139.921 40.7726 139.921 39.8003C139.921 38.828 139.861 38.7369 139.009 38.7369C138.158 38.7369 138.097 38.828 138.097 39.8003Z" fill="white"/>
<path d="M30.2389 50.9517C28.6885 56.8463 27.4421 61.7685 27.4421 61.8901C27.4421 62.042 28.1717 62.1331 29.0533 62.1331H30.6341L32.1542 56.3297C32.975 53.1394 33.735 50.4959 33.8566 50.4352C34.0694 50.2832 35.7718 54.0813 38.0822 59.7632C38.8118 61.5862 39.511 63.0447 39.6326 63.0447C39.7542 63.0447 41.0614 60.1885 42.551 56.664C44.0102 53.1698 45.287 50.3136 45.3782 50.2832C45.4694 50.2832 46.2294 52.8051 47.0502 55.9043C47.871 59.0036 48.631 61.6774 48.7526 61.8597C48.8438 62.042 49.6038 62.1331 50.455 62.0724L51.975 61.9812L49.1782 51.2555C47.6278 45.361 46.2598 40.4387 46.1686 40.3475C45.9862 40.1348 45.743 40.6514 43.007 47.2448C42.0038 49.6755 40.8486 52.4101 40.423 53.3217L39.663 54.9928L38.7814 53.0178C38.295 51.924 36.8966 48.6121 35.6502 45.6344C34.4038 42.6871 33.3094 40.2564 33.2182 40.2564C33.127 40.2564 31.7589 45.0875 30.2389 50.9517Z" fill="white"/>
<path d="M101.313 41.3195C101.313 41.9272 101.465 42.0791 102.073 42.0791C102.681 42.0791 102.833 41.9272 102.833 41.3195C102.833 40.7118 102.681 40.5599 102.073 40.5599C101.465 40.5599 101.313 40.7118 101.313 41.3195Z" fill="white"/>
<path d="M147.583 41.0769C147.644 41.3807 147.887 41.6238 148.13 41.6238C148.373 41.6238 148.616 41.3807 148.677 41.0769C148.738 40.7122 148.586 40.5603 148.13 40.5603C147.674 40.5603 147.522 40.7122 147.583 41.0769Z" fill="white"/>
<path d="M132.382 42.1401C132.473 43.0517 132.564 43.1428 133.537 43.1428C134.51 43.1428 134.601 43.0821 134.601 42.2313C134.601 41.3805 134.51 41.3198 133.446 41.2286C132.291 41.1375 132.291 41.1375 132.382 42.1401Z" fill="white"/>
<path d="M70.9136 51.8024V62.1331H72.5856H74.2576V51.8024V41.4717H72.5856H70.9136V51.8024Z" fill="white"/>
<path d="M110.344 41.6841C110.223 41.7753 110.131 42.5349 110.131 43.3553V44.8137H111.803H113.475V43.1426V41.4714H112.016C111.195 41.4714 110.435 41.5626 110.344 41.6841Z" fill="white"/>
<path d="M126.851 44.6618C126.851 45.2998 127.003 45.4214 127.763 45.4214C128.523 45.4214 128.675 45.2998 128.675 44.6618C128.675 44.0237 128.523 43.9022 127.763 43.9022C127.003 43.9022 126.851 44.0237 126.851 44.6618Z" fill="white"/>
<path d="M142.565 44.0845C142.444 44.206 142.353 44.5706 142.353 44.8745C142.353 45.2695 142.565 45.4214 143.143 45.4214C143.781 45.4214 143.903 45.2998 143.812 44.7529C143.721 44.0541 142.991 43.6895 142.565 44.0845Z" fill="white"/>
<path d="M136.487 46.8501C136.365 46.9412 136.274 47.3666 136.274 47.7616C136.274 48.3693 136.426 48.4604 137.338 48.4604C138.311 48.4604 138.402 48.3997 138.402 47.5489C138.402 46.7589 138.281 46.6374 137.551 46.6374C137.065 46.6374 136.578 46.7285 136.487 46.8501Z" fill="white"/>
<path d="M57.8424 48.6121C56.4744 49.2502 54.8936 50.739 54.164 52.1671C52.4008 55.6309 53.86 60.1278 57.3256 61.799C58.7848 62.4978 61.46 62.6497 63.3448 62.1332C64.4088 61.8293 66.9624 59.9151 66.9624 59.3986C66.9624 59.2467 66.476 58.7605 65.8984 58.3047L64.804 57.4844L64.1352 58.0921C63.0712 59.0644 62.2504 59.3986 60.8824 59.3986C58.9368 59.3986 57.2648 58.3047 56.8088 56.7248L56.596 56.0563H62.2808H67.9656L67.8136 54.5371C67.6312 52.5925 66.2936 50.4352 64.5912 49.2198C63.4664 48.4602 62.9496 48.3083 61.0952 48.2475C59.6056 48.1867 58.572 48.3083 57.8424 48.6121ZM62.98 52.0152C64.4696 53.1698 64.196 53.3217 60.6088 53.3217C58.7544 53.3217 57.2344 53.2002 57.2344 53.0786C57.2344 52.6836 58.1768 51.8936 59.0584 51.529C60.092 51.0733 62.0376 51.3467 62.98 52.0152Z" fill="white"/>
<path d="M81.6749 48.5812C76.2333 51.0424 75.6253 58.3954 80.6413 61.4338C82.0701 62.315 82.5565 62.4365 84.3501 62.4365C86.6301 62.4365 87.9677 62.0111 89.6093 60.735C90.9469 59.7323 90.9469 59.1246 89.6093 58.2131L88.5149 57.4839L87.8461 58.0916C86.2653 59.55 83.9549 59.8538 82.2525 58.7904C81.2797 58.2131 80.2157 56.6027 80.5501 56.2381C80.6717 56.147 83.1949 56.0558 86.2045 56.0558H91.6765L91.5245 54.5366C91.3421 52.592 90.0045 50.4347 88.3021 49.2193C87.1773 48.4597 86.6605 48.3078 84.8061 48.247C83.4077 48.1862 82.2829 48.3078 81.6749 48.5812ZM86.6909 52.0147C88.1805 53.1693 87.9069 53.3212 84.3197 53.3212C82.4653 53.3212 80.9453 53.1997 80.9453 53.0781C80.9453 52.6831 81.8877 51.8931 82.7693 51.5285C83.8029 51.0728 85.7485 51.3462 86.6909 52.0147Z" fill="white"/>
<path d="M118.611 48.7943C117.274 49.5843 116.514 50.7996 116.514 52.1669C116.514 53.8381 117.456 54.9927 119.766 56.0561C121.834 57.0588 122.898 57.7577 122.898 58.2134C122.898 58.335 122.685 58.6692 122.411 58.9123C121.803 59.5503 120.344 59.52 119.28 58.9123C118.49 58.4565 118.368 58.4565 117.122 59.0946L115.784 59.763L117.03 60.948C117.699 61.5861 118.824 62.2545 119.523 62.4369C123.779 63.5611 127.427 59.368 125.178 55.9346C124.874 55.4788 123.688 54.6584 122.442 54.0811C119.736 52.7746 119.189 52.2277 120.01 51.62C120.739 51.0731 121.317 51.0731 122.411 51.6504C123.627 52.2885 123.87 52.2277 124.904 51.1642C125.786 50.2527 125.786 50.2223 125.178 49.7666C123.05 48.1258 120.435 47.7612 118.611 48.7943Z" fill="white"/>
<path d="M93.4103 48.6728C93.4103 48.7943 94.4135 50.192 95.6599 51.8024L97.9095 54.7193L95.2039 58.1831C93.7447 60.0973 92.5287 61.7684 92.4983 61.89C92.4983 62.0419 93.3495 62.1331 94.4135 62.1331L96.2983 62.1027L98.0615 59.8542C99.0343 58.6085 99.9463 57.5754 100.038 57.5754C100.159 57.6058 101.01 58.6085 101.922 59.8542L103.594 62.1331H105.662H107.729L104.871 58.3958L102.014 54.6585L103.807 52.3797C104.81 51.1643 105.905 49.7666 106.239 49.2805L106.817 48.4601H104.719H102.591L101.466 50.1312C100.828 51.0428 100.19 51.8024 100.068 51.8024C99.9463 51.8024 99.2471 51.0428 98.5175 50.1312L97.2103 48.4601H95.3255C94.2615 48.4601 93.4103 48.5512 93.4103 48.6728Z" fill="white"/>
<path d="M110.131 55.2966V62.1331H111.803H113.475V55.2966V48.4601H111.803H110.131V55.2966Z" fill="white"/>
<path d="M131.714 48.9161C131.714 49.1591 131.927 49.3718 132.17 49.3718C132.414 49.3718 132.626 49.1591 132.626 48.9161C132.626 48.673 132.414 48.4603 132.17 48.4603C131.927 48.4603 131.714 48.673 131.714 48.9161Z" fill="white"/>
<defs>
<filter id="filter0_f_1074_611" x="9.5" y="10.5" width="160.101" height="72" filterUnits="userSpaceOnUse" color-interpolation-filters="sRGB">
<feFlood flood-opacity="0" result="BackgroundImageFix"/>
<feBlend mode="normal" in="SourceGraphic" in2="BackgroundImageFix" result="shape"/>
<feGaussianBlur stdDeviation="5" result="effect1_foregroundBlur_1074_611"/>
</filter>
<filter id="filter1_f_1074_611" x="-0.5" y="0.5" width="180.101" height="92" filterUnits="userSpaceOnUse" color-interpolation-filters="sRGB">
<feFlood flood-opacity="0" result="BackgroundImageFix"/>
<feBlend mode="normal" in="SourceGraphic" in2="BackgroundImageFix" result="shape"/>
<feGaussianBlur stdDeviation="10" result="effect1_foregroundBlur_1074_611"/>
</filter>
</defs>
</svg>
