<svg width="261" height="393.95" viewBox="0 0 261 393.95" fill="none" xmlns="http://www.w3.org/2000/svg">
<path d="M47.9234 315.952C47.9234 307.548 47.9234 299.184 47.9234 290.78C47.9234 287.492 47.9234 287.492 51.1308 287.492C52.7549 287.492 54.3789 287.654 56.0029 287.451C59.0073 287.126 60.9155 288.628 62.7425 290.74C67.6552 296.545 72.6896 302.311 77.6835 308.076C80.3631 311.202 83.0427 314.328 85.6818 317.495C86.2502 318.185 86.778 319.079 87.7524 318.835C88.8892 318.551 88.5238 317.414 88.5238 316.602C88.5644 307.792 88.5238 299.022 88.5644 290.212C88.5644 287.573 88.6862 287.451 91.3252 287.492C93.3552 287.532 95.3852 287.248 97.3747 287.735C99.2423 288.182 100.298 289.237 100.298 291.267C100.298 308.32 100.298 325.372 100.298 342.424C100.298 343.804 99.8513 344.373 98.4303 344.332C95.7912 344.251 93.1522 344.291 90.5132 344.332C89.1734 344.332 88.4832 343.845 88.5238 342.424C88.5644 341.043 87.793 340.11 86.8998 339.095C82.1089 333.817 77.3993 328.417 72.649 323.098C69.1574 319.16 65.6658 315.222 62.1335 311.283C61.6869 310.796 61.1591 310.512 60.5095 310.756C59.6163 311.08 59.6975 311.933 59.6975 312.664C59.6975 318.429 59.6975 324.154 59.6975 329.919C59.6975 334.06 59.6569 338.161 59.6975 342.302C59.7381 343.764 59.2103 344.413 57.7081 344.332C55.1909 344.251 52.7143 344.251 50.197 344.332C48.37 344.413 47.8828 343.601 47.8828 341.896C47.964 333.289 47.964 324.641 47.9234 315.952Z" fill="#191A37"/>
<path d="M200.946 317.13C203.382 317.13 205.818 317.089 208.254 317.13C211.259 317.17 212.761 318.673 212.761 321.636C212.721 324.113 212.883 326.63 212.558 329.107C212.071 332.599 210.244 335.278 207.605 337.43C199.85 343.682 191.202 345.753 181.418 343.358C174.759 341.734 169.4 338.12 165.665 332.761C159.696 324.235 158.357 314.572 162.457 304.868C167.329 293.338 179.063 286.111 191.974 287.776C197.455 288.507 202.449 290.212 206.752 293.744C207.93 294.718 208.051 295.409 206.915 296.464C204.885 298.372 202.976 300.321 201.028 302.311C200.297 303.041 199.688 303.244 198.754 302.595C193.354 298.616 187.426 298.129 181.58 300.971C176.627 303.407 173.135 307.508 172.323 313.232C171.674 318.145 172.892 322.611 175.977 326.549C179.956 331.624 188.076 334.06 194.694 331.462C196.886 330.609 198.795 329.513 200.337 327.726C200.54 327.483 200.865 327.239 200.703 326.833C200.54 326.468 200.175 326.549 199.81 326.549C198.47 326.508 197.13 326.549 195.79 326.427C193.232 326.265 191.73 324.803 191.73 322.286C191.73 315.993 190.959 317.211 196.562 317.089C197.983 317.089 199.444 317.089 200.946 317.13Z" fill="#191A37"/>
<path d="M110.854 331.665C110.854 328.336 110.854 325.047 110.854 321.718C110.895 318.023 112.234 316.683 115.848 316.683C120.842 316.683 125.876 316.724 130.87 316.643C133.184 316.602 135.498 316.318 137.325 314.735C140.33 312.096 141.345 308.645 140.086 305.275C138.787 301.742 135.458 299.347 131.479 299.306C125.389 299.266 119.299 299.225 113.209 299.306C111.341 299.347 110.651 298.738 110.773 296.87C110.895 294.394 110.854 291.877 110.813 289.359C110.813 288.101 111.341 287.492 112.64 287.492C120.273 287.614 127.947 286.883 135.539 287.979C143.619 289.116 151.657 296.505 152.307 305.802C152.957 314.897 149.262 321.434 141.507 325.9C140.005 326.752 140.005 327.483 141.183 328.661C145.811 333.208 150.399 337.836 154.946 342.424C155.352 342.83 156.123 343.236 155.92 343.845C155.677 344.657 154.743 344.332 154.134 344.332C150.196 344.373 146.298 344.292 142.36 344.373C140.817 344.413 139.68 343.804 138.625 342.708C134.362 338.364 130.058 334.101 125.714 329.838C125.105 329.229 124.536 328.254 123.562 328.701C122.547 329.148 122.994 330.244 122.994 331.097C122.953 334.832 122.912 338.526 122.994 342.262C123.034 343.804 122.506 344.454 120.923 344.413C118.365 344.332 115.767 344.292 113.209 344.413C111.301 344.495 110.732 343.683 110.773 341.856C110.935 338.445 110.854 335.075 110.854 331.665Z" fill="#191A37"/>
<path d="M186.736 374.336C186.736 368.855 186.817 363.373 186.695 357.892C186.654 355.903 187.182 355.132 189.293 355.213C195.262 355.335 202.123 355.294 208.091 355.294C211.015 355.294 211.299 356.309 211.786 359.192C211.827 359.313 211.827 359.476 211.867 359.598C212.436 364.267 212.192 364.551 207.523 364.551C204.397 364.551 201.311 364.632 198.185 364.551C195.789 364.47 196.155 366.094 196.074 367.596C195.993 369.139 196.358 369.991 198.185 369.951C201.758 369.829 205.371 369.91 208.944 369.91C211.502 369.951 211.867 370.357 211.908 372.874C211.908 374.092 211.908 375.31 211.908 376.528C211.867 378.842 211.502 379.208 209.147 379.208C205.574 379.208 201.961 379.248 198.388 379.208C197.007 379.208 196.074 379.37 196.074 381.156C196.074 384.201 196.236 384.77 198.226 384.851C201.961 384.973 205.655 384.973 209.391 384.892C211.258 384.851 211.989 385.541 211.948 387.368C211.786 395.123 213.085 393.783 205.655 393.864C200.174 393.946 194.693 393.824 189.212 393.905C187.385 393.946 186.695 393.296 186.736 391.428C186.817 385.704 186.736 380.02 186.736 374.336Z" fill="#181934"/>
<path d="M146.947 376.163C146.988 369.504 149.14 364.348 153.484 360.45C160.873 353.873 171.551 353.67 179.346 359.638C180.402 360.45 180.443 361.425 179.387 362.359C178.291 363.333 177.195 364.348 176.058 365.322C175.002 366.256 173.784 366.378 172.444 365.85C170.333 365.079 168.262 364.389 165.948 364.51C162.132 364.673 159.452 366.5 157.706 369.829C156.042 373.036 156.245 376.284 158.072 379.289C161.32 384.567 165.42 386.069 171.064 383.593C174.312 382.131 176.139 383.633 178.128 385.623C180.686 388.221 180.564 388.83 177.398 390.779C167.856 396.625 155.311 393.783 149.749 384.729C148.003 381.928 146.744 378.883 146.947 376.163Z" fill="#191A38"/>
<path d="M80.4441 384.364C80.4441 382.009 80.4847 379.614 80.4441 377.259C80.4035 375.31 81.3779 374.255 83.2049 373.889C86.0875 373.28 89.0107 373.727 91.8934 373.605C92.9084 373.564 93.9234 373.646 94.9384 373.564C97.2526 373.402 98.9984 371.656 99.0796 369.383C99.1608 367.028 97.7804 365.16 95.385 364.795C93.9234 364.592 92.4212 364.673 90.919 364.673C88.1987 364.673 85.5191 364.592 82.7989 364.713C80.8907 364.795 80.2411 364.023 80.3629 362.196C80.4847 360.572 80.4035 358.948 80.3629 357.324C80.3223 355.984 80.8095 355.294 82.2305 355.335C86.6965 355.375 91.1626 355.091 95.6286 355.416C102.449 355.984 108.986 361.668 108.458 370.113C108.052 376.894 102.287 382.74 95.182 382.943C94.0452 382.984 92.8678 383.024 91.731 382.943C90.107 382.821 89.6198 383.552 89.6604 385.095C89.7416 387.409 89.6198 389.683 89.701 391.997C89.7416 393.337 89.2949 393.986 87.8333 393.946C85.9251 393.865 84.0575 393.905 82.1493 393.946C80.8501 393.986 80.3223 393.459 80.3223 392.159C80.4441 389.48 80.4035 386.922 80.4441 384.364Z" fill="#191A37"/>
<path d="M64.7321 364.591C63.1081 364.591 61.484 364.55 59.86 364.591C57.3428 364.672 56.0842 365.85 56.0436 368.083C56.003 370.235 57.1398 371.209 59.657 371.493C62.9457 371.859 66.1937 372.062 68.7921 374.701C73.6236 379.613 72.7709 387.977 66.7215 391.875C64.0825 393.58 61.3622 393.905 58.439 393.823C56.206 393.783 53.973 393.864 51.74 393.783C49.1415 393.661 48.0047 392.565 47.9641 390.007C47.8829 384.282 47.3957 385.378 52.4302 385.257C55.0692 385.216 57.7082 385.338 60.3472 385.216C63.2705 385.054 64.8945 382.699 63.5547 380.628C62.7021 379.288 61.3216 378.72 59.7382 378.801C57.5052 378.923 55.3534 378.598 53.2828 377.543C49.1415 375.391 47.7611 370.6 48.0047 366.337C48.3701 360.328 54.379 354.928 60.7532 355.212C63.7171 355.334 66.7215 355.294 69.6853 355.212C71.1875 355.172 71.9589 355.7 71.8777 357.324C71.7965 359.069 71.8371 360.856 71.8777 362.602C71.9183 363.982 71.3499 364.591 69.9695 364.55C68.2237 364.55 66.4779 364.591 64.7321 364.591Z" fill="#191A38"/>
<path d="M51.577 208.362C58.5197 208.321 64.082 213.843 64.1226 220.785C64.1632 227.769 58.5197 233.493 51.577 233.453C44.8374 233.412 38.9909 227.566 39.0721 220.866C39.1127 213.964 44.675 208.362 51.577 208.362Z" fill="#6CCACE"/>
<path d="M235.619 153.225C235.578 146.283 241.1 140.68 248.043 140.639C254.904 140.599 260.629 146.242 260.669 153.022C260.669 159.925 255.107 165.649 248.327 165.69C241.262 165.73 235.659 160.249 235.619 153.225Z" fill="#6CCACE"/>
<path d="M27.2981 51.4409C27.3387 44.4982 32.9009 39.0578 39.8842 39.0984C46.9486 39.139 52.3891 44.7012 52.3485 51.8063C52.3079 58.4647 46.5426 64.1082 39.8436 64.1488C32.8197 64.1488 27.2575 58.4647 27.2981 51.4409Z" fill="#6CCACE"/>
<path d="M94.9789 247.946C95.0601 241.004 100.663 235.482 107.524 235.523C114.345 235.563 119.989 241.247 119.989 248.109C119.989 255.011 114.142 260.817 107.281 260.654C100.338 260.451 94.8977 254.848 94.9789 247.946Z" fill="#6CCACE"/>
<path d="M208.823 52.1716C201.677 52.0092 196.399 46.4063 196.521 39.1388C196.642 32.3992 202.489 27.0399 209.553 27.2023C216.334 27.3647 221.774 33.2112 221.571 40.1538C221.409 46.9341 215.684 52.334 208.823 52.1716Z" fill="#6CCACE"/>
<path d="M181.904 243.765C181.904 250.788 176.342 256.27 169.237 256.27C162.376 256.27 156.935 250.667 156.935 243.643C156.976 236.741 162.497 231.26 169.481 231.219C176.261 231.138 181.945 236.863 181.904 243.765Z" fill="#6CCACE"/>
<path d="M91.1624 29.3138C84.2603 29.3138 78.7793 23.7516 78.7793 16.7683C78.7793 9.94746 84.3416 4.30401 91.0406 4.26341C98.1051 4.22281 103.708 9.74446 103.708 16.7683C103.708 23.914 98.2675 29.3544 91.1624 29.3138Z" fill="#6CCACE"/>
<path d="M256.203 91.473C256.163 98.375 250.6 103.734 243.577 103.694C236.593 103.612 231.275 98.1314 231.356 91.067C231.396 84.0837 236.878 78.6839 243.901 78.7651C250.966 78.7651 256.285 84.2867 256.203 91.473Z" fill="#FE9904"/>
<path d="M12.7228 119.853C5.69892 119.893 0.0960684 114.453 0.0148677 107.551C-0.0257327 100.527 5.57712 94.8429 12.601 94.8835C19.5436 94.9241 24.9841 100.365 25.0653 107.429C25.1465 114.209 19.5436 119.853 12.7228 119.853Z" fill="#6CCACE"/>
<path d="M220.922 221.435C213.898 221.394 208.336 215.994 208.376 209.052C208.417 201.987 214.02 196.425 221.003 196.547C227.986 196.669 233.386 202.069 233.427 209.052C233.427 215.954 227.905 221.476 220.922 221.435Z" fill="#FE9904"/>
<path d="M4.44017 169.466C4.39957 162.442 9.84002 156.88 16.7827 156.839C23.6441 156.798 29.45 162.28 29.3688 169.425C29.2876 176.327 23.9689 181.768 17.0263 181.808C9.96182 181.89 4.48077 176.49 4.44017 169.466Z" fill="#FE9904"/>
<path d="M153.2 0.000220855C160.265 0.0408212 165.746 5.60308 165.665 12.6675C165.584 19.6102 160.021 25.0507 153.079 25.0101C146.136 24.9694 140.655 19.4072 140.696 12.4645C140.736 5.52188 146.339 -0.0403795 153.2 0.000220855Z" fill="#6CCACE"/>
<path d="M174.434 50.385C168.791 50.385 164.122 45.716 164.081 40.1131C164.081 34.3479 168.71 29.7194 174.515 29.76C180.159 29.76 184.747 34.4291 184.747 40.1131C184.706 45.7566 180.078 50.385 174.434 50.385Z" fill="#6CCACE"/>
<path d="M186.452 203.083C192.217 203.124 196.764 207.671 196.724 213.396C196.683 219.283 192.095 223.749 186.249 223.708C180.565 223.668 176.139 218.999 176.22 213.193C176.261 207.509 180.808 203.043 186.452 203.083Z" fill="#FE9904"/>
<path d="M36.9614 186.194C36.9614 180.469 41.5493 175.922 47.2739 175.922C52.9986 175.922 57.5052 180.51 57.4646 186.316C57.424 192.081 52.8362 196.628 47.1521 196.587C41.4275 196.506 36.9614 191.959 36.9614 186.194Z" fill="#FE9904"/>
<path d="M223.845 74.0957C223.885 79.8609 219.501 84.327 213.817 84.3676C207.808 84.4082 203.342 80.064 203.301 74.1363C203.26 68.4116 207.808 63.8238 213.532 63.7832C219.257 63.7832 223.804 68.3304 223.845 74.0957Z" fill="#FE9904"/>
<path d="M86.4124 230.651C80.6471 230.651 76.1405 226.144 76.0999 220.379C76.0593 214.695 80.6471 210.026 86.3718 210.026C92.0558 210.026 96.6437 214.614 96.6437 220.338C96.6437 226.063 92.0964 230.651 86.4124 230.651Z" fill="#6CCACE"/>
<path d="M30.1403 147.461C24.6187 147.42 19.9902 142.751 19.9902 137.148C19.9902 131.505 24.6999 126.755 30.3027 126.795C36.1086 126.836 40.6964 131.505 40.6152 137.311C40.5746 142.995 35.9462 147.461 30.1403 147.461Z" fill="#FE9904"/>
<path d="M84.5859 47.137C84.5047 53.0241 79.9168 57.4089 73.9892 57.3277C68.4675 57.2465 63.9609 52.4963 64.0421 46.8934C64.1233 41.1688 68.7923 36.6215 74.4358 36.7027C80.201 36.7433 84.7077 41.3718 84.5859 47.137Z" fill="#6CCACE"/>
<path d="M240.775 123.303C240.735 128.987 236.147 133.575 230.463 133.575C224.738 133.575 220.272 129.028 220.313 123.222C220.313 117.416 224.86 112.869 230.544 112.95C236.188 112.95 240.775 117.579 240.775 123.303Z" fill="#FE9904"/>
<path d="M220.475 184.448C214.669 184.448 210.284 180.022 210.284 174.176C210.284 168.411 214.831 163.904 220.556 163.945C226.281 163.985 230.828 168.573 230.828 174.298C230.828 179.982 226.281 184.448 220.475 184.448Z" fill="#6CCACE"/>
<path d="M137.447 219.973C143.131 220.014 147.719 224.683 147.638 230.367C147.557 236.132 143.05 240.557 137.244 240.517C131.56 240.517 127.053 235.888 127.094 230.123C127.135 224.358 131.641 219.932 137.447 219.973Z" fill="#6CCACE"/>
<path d="M30.0186 86.1542C30.0186 80.3077 34.444 75.9229 40.2904 75.9229C46.0557 75.9229 50.6029 80.4701 50.5623 86.1948C50.5217 91.9194 45.9745 96.4666 40.2499 96.4666C34.444 96.426 30.0186 91.96 30.0186 86.1542Z" fill="#6CCACE"/>
<path d="M113.209 29.8822C113.249 24.1981 117.837 19.7727 123.643 19.8133C129.246 19.8539 133.712 24.4823 133.671 30.1258C133.631 35.9316 129.124 40.4789 123.399 40.3977C117.512 40.3165 113.168 35.8504 113.209 29.8822Z" fill="#FE9904"/>
<path d="M69.1572 111.042C73.339 111.124 76.4652 114.453 76.384 118.635C76.3028 122.654 72.933 125.862 68.873 125.74C64.8129 125.618 61.4837 122.289 61.5243 118.351C61.5649 114.29 65.0565 110.961 69.1572 111.042Z" fill="#FB9907"/>
<path d="M81.2562 194.07C77.1556 194.07 73.9888 190.862 73.9888 186.761C73.9888 182.539 77.2368 179.25 81.378 179.332C85.4381 179.413 88.6861 182.661 88.7673 186.68C88.8079 190.781 85.4787 194.07 81.2562 194.07Z" fill="#FD9905"/>
<path d="M107.119 70.4424C103.018 70.483 99.8106 67.3162 99.77 63.1749C99.6888 59.1149 103.099 55.7045 107.2 55.7045C111.179 55.6639 114.508 58.9931 114.549 63.0531C114.549 67.2756 111.382 70.4424 107.119 70.4424Z" fill="#FD9905"/>
<path d="M179.347 81.2414C175.368 81.2414 171.917 77.8716 171.876 73.974C171.836 69.8733 175.246 66.4629 179.306 66.4629C183.488 66.4629 186.736 69.7921 186.695 73.9334C186.655 78.034 183.407 81.282 179.347 81.2414Z" fill="#FB980B"/>
<path d="M191.77 134.834C195.871 134.915 199.038 138.123 199.038 142.183C199.038 146.446 195.749 149.572 191.324 149.491C187.426 149.41 184.259 146.121 184.259 142.142C184.3 137.96 187.589 134.753 191.77 134.834Z" fill="#FD9905"/>
<path d="M65.8687 155.134C65.7875 159.235 62.5801 162.442 58.52 162.402C54.3382 162.361 51.1308 159.072 51.212 154.891C51.2526 150.79 54.5412 147.582 58.6012 147.664C62.8237 147.745 65.9499 150.912 65.8687 155.134Z" fill="#FD9905"/>
<path d="M160.874 197.481C160.833 201.663 157.463 204.951 153.363 204.829C149.221 204.708 146.014 201.338 146.095 197.196C146.176 193.177 149.587 189.97 153.647 190.051C157.788 190.173 160.955 193.38 160.874 197.481Z" fill="#FC9905"/>
<path d="M209.472 105.561C209.472 109.702 206.305 112.869 202.164 112.869C197.982 112.869 194.815 109.743 194.775 105.602C194.734 101.379 197.982 98.1717 202.245 98.2123C206.427 98.2935 209.472 101.339 209.472 105.561Z" fill="#FD9905"/>
<path d="M67.3712 81.729C63.7984 81.729 61.2812 79.1711 61.3218 75.5983C61.3218 72.2285 64.0014 69.5489 67.29 69.5083C70.7817 69.4677 73.5831 72.2285 73.5425 75.7607C73.5425 79.2523 70.9847 81.7696 67.3712 81.729Z" fill="#FB9909"/>
<path d="M120.152 214.533C120.152 218.024 117.513 220.623 113.98 220.623C110.61 220.623 107.768 217.781 107.809 214.411C107.85 211 110.651 208.28 114.061 208.321C117.513 208.321 120.152 211 120.152 214.533Z" fill="#F9980A"/>
<path d="M193.191 178.764C196.683 178.805 199.363 181.484 199.363 184.895C199.363 188.468 196.643 191.147 193.029 191.066C189.7 191.025 186.98 188.102 187.061 184.732C187.142 181.363 189.862 178.724 193.191 178.764Z" fill="#FA9909"/>
<path d="M146.582 52.172C143.09 52.1314 140.451 49.4518 140.492 46.0007C140.532 42.7527 143.334 39.9107 146.541 39.8701C150.033 39.8295 152.794 42.6309 152.753 46.1631C152.753 49.6954 150.155 52.2126 146.582 52.172Z" fill="#6CCACE"/>
<path d="M132.047 312.502C129.449 312.461 127.135 310.35 127.175 308.076C127.216 305.315 129.287 303.245 131.926 303.366C134.28 303.488 136.432 305.884 136.351 308.279C136.27 310.634 134.321 312.542 132.047 312.502Z" fill="#1A1938"/>
<path fill-rule="evenodd" clip-rule="evenodd" d="M134.605 389.885C135.498 393.052 137.447 393.824 140.37 393.824H144.227C145.73 393.824 145.973 393.012 145.405 391.834C144.126 389.195 142.837 386.566 141.548 383.937C140.259 381.309 138.97 378.68 137.691 376.041C136.775 374.146 135.905 372.23 135.032 370.308C134.24 368.564 133.446 366.817 132.616 365.079C132.489 364.812 132.362 364.546 132.235 364.279C131.108 361.908 129.987 359.55 128.637 357.324C126.972 354.563 123.765 354.766 122.344 357.567C120.354 361.546 118.446 365.566 116.538 369.585C115.133 372.525 113.734 375.478 112.333 378.433C110.214 382.906 108.092 387.385 105.941 391.834C105.332 393.133 105.576 393.783 107.037 393.824H108.661C112.41 393.722 113.828 394.08 114.71 393.549C115.586 393.022 115.935 391.618 117.512 388.018C118.202 386.475 119.177 385.582 121.085 385.704C123.399 385.866 125.673 385.825 127.987 385.744C131.154 385.622 133.631 386.475 134.605 389.885ZM125.673 372.346C127.094 372.346 129.327 377.218 127.906 377.218H123.44C122.222 377.218 124.252 372.346 125.673 372.346Z" fill="#191A38"/>
</svg>
