<svg width="319" height="41" viewBox="0 0 319 41" fill="none" xmlns="http://www.w3.org/2000/svg">
<path d="M310.848 41L319 41L319 31.3216L314.435 25.6562L205.944 25.6589L204.096 22L191.801 22L185.823 26.9572L132.892 26.9572L125.066 22L114.306 22L112.567 25.6589L2.60852 25.6562L3.55867e-07 30.1413L8.30516e-07 41L7.1734 41L11.6296 31.3216L120.284 31.3243L122.784 37.6979L131.153 37.6979L132.892 34.5111L185.823 34.5111L188.106 37.6979L195.822 37.6979L198.54 31.3243L303.458 31.3216L310.848 41Z" fill="#6F27D4" fill-opacity="0.5"/>
<path d="M303.458 30.8216L303.705 30.8216L303.855 31.0181L311.096 40.5L318.5 40.5L318.5 31.498L314.196 26.1562L205.944 26.1589L205.636 26.1589L205.497 25.8843L203.788 22.5L191.981 22.5L186.142 27.3421L186.003 27.4572L185.823 27.4572L132.892 27.4572L132.747 27.4572L132.624 27.3796L124.921 22.5L114.622 22.5L113.019 25.8735L112.883 26.1589L112.567 26.1589L2.89615 26.1562L0.5 30.2761L0.500001 40.5L6.85318 40.5L11.1755 31.1125L11.3094 30.8216L11.6296 30.8216L120.284 30.8243L120.625 30.8243L120.75 31.1418L123.125 37.1979L130.856 37.1979L132.453 34.2716L132.595 34.0111L132.892 34.0111L185.823 34.0111L186.08 34.0111L186.23 34.22L188.362 37.1979L195.492 37.1979L198.08 31.1282L198.209 30.8243L198.54 30.8243L303.458 30.8216Z" stroke="#6F27D4" stroke-opacity="0.5"/>
<path d="M51.7336 1.98501e-06L59.7832 7L73.4674 7L65.4178 3.1156e-05L51.7336 1.98501e-06Z" fill="#FFB904"/>
<path d="M138.668 1.98501e-06L146.718 7L160.402 7L152.352 3.1156e-05L138.668 1.98501e-06Z" fill="#FFB904"/>
<path d="M159.597 1.98501e-06L167.647 7L181.331 7L173.282 3.1156e-05L159.597 1.98501e-06Z" fill="#FFB904"/>
<path d="M268.266 1.98501e-06L276.316 7L290 7L281.951 3.1156e-05L268.266 1.98501e-06Z" fill="#FFB904"/>
<path d="M30 1.98501e-06L38.0495 7L51.7338 7L43.6842 3.1156e-05L30 1.98501e-06Z" fill="#FFB904"/>
<path d="M181.331 1.98501e-06L189.381 7L203.065 7L195.015 3.1156e-05L181.331 1.98501e-06Z" fill="#FFB904"/>
<path d="M203.065 1.98501e-06L211.114 7L224.798 7L216.749 3.1156e-05L203.065 1.98501e-06Z" fill="#FFB904"/>
<path d="M224.799 1.98501e-06L232.848 7L246.533 7L238.483 3.1156e-05L224.799 1.98501e-06Z" fill="#FFB904"/>
<path d="M246.532 1.98501e-06L254.582 7L268.266 7L260.216 3.1156e-05L246.532 1.98501e-06Z" fill="#FFB904"/>
<path d="M116.935 1.98501e-06L124.985 7L138.669 7L130.619 3.1156e-05L116.935 1.98501e-06Z" fill="#FFB904"/>
<path d="M95.2017 1.98501e-06L103.251 7L116.935 7L108.886 3.1156e-05L95.2017 1.98501e-06Z" fill="#FFB904"/>
<path d="M73.468 1.98501e-06L81.5175 7L95.2018 7L87.1522 3.1156e-05L73.468 1.98501e-06Z" fill="#FFB904"/>
</svg>
