<svg width="236" height="303" viewBox="0 0 236 303" fill="none" xmlns="http://www.w3.org/2000/svg">
<path fill-rule="evenodd" clip-rule="evenodd" d="M1 24.0354L7.30428 16.5236H87.7765L100.756 1.5H200.883L235 39.4764V283.972L219.425 301.5H36.9715L1 261.854V24.0354ZM7.30428 20.2795L4.33756 24.0354V226.799L9.15848 233.476V259.768L39.1965 293.154H84.439L87.7765 297.744H218.312L228.696 285.642L228.325 37.3897L200.883 6.92519V11.5157H197.174H188.274H182.341H174.553H168.249H160.832H154.899H145.628H140.436H133.39H127.086H100.756L94.4517 19.4449L7.30428 20.2795Z" fill="#41009C"/>
<path d="M4.33756 24.0354L7.30428 20.2795L94.4517 19.4449L100.756 11.5157H127.086H133.39H140.436H145.628H154.899H160.832H168.249H174.553H182.341H188.274H197.174H200.883V6.92519L228.325 37.3897L228.696 285.642L218.312 297.744H87.7765L84.439 293.154H39.1965L9.15848 259.768V233.476L4.33756 226.799V24.0354Z" fill="#41009C" fill-opacity="0.2"/>
<path fill-rule="evenodd" clip-rule="evenodd" d="M1 24.0354L7.30428 16.5236H87.7765L100.756 1.5H200.883L235 39.4764V283.972L219.425 301.5H36.9715L1 261.854V24.0354ZM7.30428 20.2795L4.33756 24.0354V226.799L9.15848 233.476V259.768L39.1965 293.154H84.439L87.7765 297.744H218.312L228.696 285.642L228.325 37.3897L200.883 6.92519V11.5157H197.174H188.274H182.341H174.553H168.249H160.832H154.899H145.628H140.436H133.39H127.086H100.756L94.4517 19.4449L7.30428 20.2795Z" stroke="#41009C" stroke-width="2"/>
<path d="M4.33756 24.0354L7.30428 20.2795L94.4517 19.4449L100.756 11.5157H127.086H133.39H140.436H145.628H154.899H160.832H168.249H174.553H182.341H188.274H197.174H200.883V6.92519L228.325 37.3897L228.696 285.642L218.312 297.744H87.7765L84.439 293.154H39.1965L9.15848 259.768V233.476L4.33756 226.799V24.0354Z" stroke="#41009C" stroke-width="2"/>
</svg>
