<svg width="101" height="129" viewBox="0 0 101 129" fill="none" xmlns="http://www.w3.org/2000/svg">
<path fill-rule="evenodd" clip-rule="evenodd" d="M1 10.5763L3.65662 7.41079H37.5677L43.0372 1.07983H85.2306L99.6077 17.0831V120.114L93.0442 127.5H16.1584L1 110.793V10.5763ZM3.65662 8.99353L2.40645 10.5763V96.021L2.10765 110L17.1077 126.5L37.6077 127L38.1077 125.917L92.5754 125.917L96.951 120.817L96.7947 16.2038L87.3276 5.5L85.2306 5.5L83.6079 5.5V3L80.6077 3L78.1077 5.5H77.1077L79.6077 3H74.1077L71.6077 5.5L70.6077 5.5L73.1077 3H67.6077L65.1077 5.5H64.1077L66.6077 3H61.1077L58.6077 5.5H57.6077L60.1077 3H54.6077L52.1077 5.5H43.0372L40.3806 8.64181L3.65662 8.99353Z" fill="#41009C" stroke="#41009C" stroke-width="2"/>
<path d="M4.96752 99.5244L3.03564 96.541V109.878L17.3545 126.024H37.8093L36.5799 124.269H17.4369L4.96752 110.273V99.5244Z" stroke="#FFB904"/>
</svg>
