<svg width="102" height="129" viewBox="0 0 102 129" fill="none" xmlns="http://www.w3.org/2000/svg">
<path fill-rule="evenodd" clip-rule="evenodd" d="M1.60791 10.4964L4.26453 7.33095H38.1756L43.6451 1H85.8385L100.216 17.0032V120.034L93.6521 127.42H16.7663L1.60791 110.713V10.4964ZM4.26453 8.91369L3.01436 10.4964V95.9411L2.71556 109.92L17.7156 126.42L38.2156 126.92L38.7156 125.837L93.1833 125.837L97.5589 120.737L97.4027 16.1239L87.9355 5.42017L85.8385 5.42017L84.2158 5.42017V2.92017L81.2156 2.92017L78.7156 5.42017H77.7156L80.2156 2.92017H74.7156L72.2156 5.42017L71.2156 5.42017L73.7156 2.92017H68.2156L65.7156 5.42017H64.7156L67.2156 2.92017H61.7156L59.2156 5.42017H58.2156L60.7156 2.92017H55.2156L52.7156 5.42017H43.6451L40.9885 8.56197L4.26453 8.91369Z" fill="#C823F0" stroke="#C823F0" stroke-width="2"/>
<path d="M3.64355 96.4612L5.57543 99.4445V110.193L18.0448 124.189H37.1879L38.4172 125.944H17.9624L3.64355 109.799V96.4612Z" fill="#FFB904" stroke="#FFB904"/>
</svg>
