<svg width="1993" height="1667" viewBox="0 0 1993 1667" fill="none" xmlns="http://www.w3.org/2000/svg">
<g opacity="0.07">
<path d="M622.5 1511.5L665 1469L665 1388.12L748.5 1304.62L1009 1304.62L1073.88 1369.5H1263L1286 1346.5V1312L1154 1180H1030.5L962.5 1248H859L791 1180H727L665 1242V1284.5L637.5 1312H542.5L475.5 1233.5H332L253.5 1312L253.5 1410.5L312 1469L388.5 1469L468.5 1549H548.5H585L622.5 1511.5Z" fill="#6F27D4" fill-opacity="0.75"/>
<path d="M10 761.5L122 873.5L122 936.5L93.9998 964.5H81.5L28 911H3L10 761.5Z" fill="#6F27D4" fill-opacity="0.75"/>
<path d="M989.5 1176.5H999.5L1023.5 1152.5V1142.5L989.5 1176.5Z" fill="#6F27D4" fill-opacity="0.75"/>
<path d="M1204.5 578H1157.5L1112 623.5V698.5L1062.5 748H960.5L899 809.5V857.001L859 897.001V968.501L935 1044.5L1246 1044.5L1322 968.501H1366L1442 1044.5H1497.19L1554.69 987L1645.38 1077.69H1730L1820.69 987L1820.69 912.122L1893.81 839V778L1800 684.19L1684.81 684.19L1580.5 788.5H1501.5L1452 739L1362.5 739L1322 698.5L1267 643.5V637.501V626.5V594.5L1250.5 578H1204.5Z" fill="#6F27D4" fill-opacity="0.75"/>
<path d="M1965 624L1859.5 518.5L1523.5 518.5L1419.5 414.5L1228.5 414.5L1154 489L916 489L776.5 349.5V256.5L670.5 150.5H638.5L598 110L517 110L476 110L458.5 127.5H444L480.5 91.0005L500 71.5005L521.5 71.5005L546.5 71.5005L605 13L638.5 13L605 46.4995L625.001 66.5H652L704 118.5L718.5 118.5L750.5 150.5L817 150.5L880.5 214H893L940 261L965 261.5L974 252.5H989.5L1000 263L1024.5 287.5L1085 287.5L1117.5 320H1193.5L1381.5 132L1450.5 132L1488.5 170H1523.5L1575 118.5L1698 118.5L1775.72 196.218L1859.5 196.218L1928.04 127.674L1965 127.674L1965 624Z" fill="#6F27D4" fill-opacity="0.75"/>
<path d="M5.49988 353.883L5.49988 271.085L5.49988 130.001L5.49988 125L18 137.501L45.5 137.501L55.5 147.501L55.5 171.118L87.3823 203.001H107.5L127 222.501L143.5 239.001V253.001L154 263.501H186.382L230.882 308.001V318.001V327.383L189.5 286.001H150L131.5 304.501H87.3823L64.4999 327.383L37.9999 353.883H5.49988Z" fill="#6F27D4" fill-opacity="0.75"/>
<path d="M5.49988 670.371L36.4999 693.219H69.9999L113.218 650.001L143.5 619.719L143.5 587.501L116 560.001L116 511.501L208.5 419.001V367.501L178.5 337.501H156.5L129.5 364.501L129.5 390.433L100.933 419.001L69.9999 419.001L41.1736 390.174C31.1989 390.144 19.0756 390.124 5.49988 390.114L5.49988 670.371Z" fill="#6F27D4" fill-opacity="0.75"/>
<path d="M1154 489L1228.5 414.5L1419.5 414.5L1523.5 518.5L1859.5 518.5L1965 624L1965 127.674L1928.04 127.674L1859.5 196.218L1775.72 196.218L1698 118.5L1575 118.5L1523.5 170H1488.5L1450.5 132L1381.5 132L1193.5 320H1117.5L1085 287.5L1024.5 287.5L1000 263L989.5 252.5H974L965 261.5L940 261L893 214H880.5L817 150.5L750.5 150.5L718.5 118.5L704 118.5L652 66.5H625.001L605 46.4995L638.5 13L605 13L546.5 71.5005L521.5 71.5005L500 71.5005L480.5 91.0005L444 127.5H458.5L476 110L517 110L598 110L638.5 150.5H670.5L776.5 256.5V349.5L916 489L1154 489ZM1154 489L1089.5 553.5H1042.5L1025.5 536.5H972.5L951.75 557.25L931 578M1965 1369.5H1882L1826.37 1425.13H1793L1755.99 1388.12H1698L1647.5 1337.62V1284.5L1575 1212M776.5 1149.5H886.5L930.5 1193.5L972.5 1193.5L989.5 1176.5M989.5 1176.5H999.5L1023.5 1152.5V1142.5L989.5 1176.5ZM1488.5 115.5L1349.5 115.5L1300 165V189L1267.5 221.5L1243.5 221.5L1239.5 225.5L995 225.5L974 204.5L939.5 170L906.5 170L872 135.5V96.5001M1055.19 75.1895L1113.31 75.1895L1122 66.5L1146.31 66.5L1155 75.1895H1183L1236.69 21.5L1249.19 9L1293 9L1300 2M1295 1566H1180L1120.5 1558.38L1079 1537.08L960.002 1540.95M960.002 1540.95V1509.45L981.502 1487.95C996.002 1470.45 1026.8 1435.45 1034 1435.45H1142L1190 1387.45M960.002 1540.95H914.502L883.002 1509.45H816L767.5 1557.95M48 964.5L70.5 987H150.5L173 964.5H199.75M226.5 964.5H199.75M150.5 736.5L216.63 670.371M216.63 670.371L216.63 587.501L186.38 557.25L186.38 498L276 408.38M216.63 670.371H240.5L276 705.871H350L388 743.871M199.75 964.5L221.5 942.75L221.5 897.001L261.5 857.001M622.5 1511.5L665 1469L665 1388.12L748.5 1304.62L1009 1304.62L1073.88 1369.5H1263L1286 1346.5V1312L1154 1180H1030.5L962.5 1248H859L791 1180H727L665 1242V1284.5L637.5 1312H542.5L475.5 1233.5H332L253.5 1312L253.5 1410.5L312 1469L388.5 1469L468.5 1549H548.5H585L622.5 1511.5ZM1204.5 578H1157.5L1112 623.5V698.5L1062.5 748H960.5L899 809.5V857.001L859 897.001V968.501L935 1044.5L1246 1044.5L1322 968.501H1366L1442 1044.5H1497.19L1554.69 987L1645.38 1077.69H1730L1820.69 987L1820.69 912.122L1893.81 839V778L1800 684.19L1684.81 684.19L1580.5 788.5H1501.5L1452 739L1362.5 739L1322 698.5L1267 643.5V637.501V626.5V594.5L1250.5 578H1204.5ZM10 761.5L122 873.5L122 936.5L93.9998 964.5H81.5L28 911H3L10 761.5ZM36.4999 693.219L5.49988 670.371L5.49988 390.114C19.0756 390.124 31.1989 390.144 41.1736 390.174L69.9999 419.001L100.933 419.001L129.5 390.433L129.5 364.501L156.5 337.501H178.5L208.5 367.501V419.001L116 511.501L116 560.001L143.5 587.501L143.5 619.719L113.218 650.001L69.9999 693.219H36.4999ZM5.49988 271.085L5.49988 353.883H37.9999L64.4999 327.383L87.3823 304.501H131.5L150 286.001H189.5L230.882 327.383V318.001V308.001L186.382 263.501H154L143.5 253.001V239.001L127 222.501L107.5 203.001H87.3823L55.5 171.118L55.5 147.501L45.5 137.501L18 137.501L5.49988 125L5.49988 130.001L5.49988 271.085Z" stroke="#6F27D4" stroke-opacity="0.75" stroke-width="5"/>
</g>
<path d="M1747 1021L1747 991.111V977L1756.5 967.5V948L1728.5 920H1714L1699.5 934.5H1657.5L1632.5 959.5V973.5M1418.5 993L1393 1018.5V1044.5L1357 1080.5V1114.5M1843 889L1773 889L1723.5 839.5H1637L1612 814.5L1383.5 814.5L1362 836H1304.5L1269 871.5M1793.5 814.5L1753 774H1683.5M934 861L977 904H1024L1109 989M1109 989L1180 989L1225 944V920L1256 889M1109 989H1090.5L1071.5 1008M1030.5 814L1096.5 880L1180 880L1206 854M1991.5 550.5L1940 499M1940 499V481.5L1929.5 471V445L1900.5 416M1940 499L1932.5 491.5H1921L1913 483.5H1897L1891 489.5H1889L1879.5 499L1871.5 507L1863.5 515H1791M1700 471L1744 515H1791M1899.5 251L1929.5 221V204L1942 191.5L1958 175.5M1899.5 251H1837L1812.5 275.5H1782.5L1750 243L1735 243M1899.5 251L1887.5 239H1876.5L1860.5 223L1823.5 223M1595.5 148H1625L1720 243H1735M1695 405L1720 380H1750L1763.5 366.5H1804L1824.5 387L1871.5 387L1900.5 416M1746.5 278L1769 300.5H1799L1823.5 276L1837.5 276L1845.5 268H1897.5L1905.5 276H1916.5H1926L1934.5 284.5H1958M1735 243L1727.5 235.5V223L1708.5 204H1698L1682.5 188.5V171.5M1900.5 416H1887.5L1870.5 399L1854 399M1777 455.5H1793.5L1802 447H1816L1843 474H1861.5L1871.5 464H1889L1897 472H1917L1922.5 466.5V451M1791 515L1783 507H1750.5L1740.5 497M1458 154.5L1488 184.5L1522 184.5L1558.5 221H1578.5L1601 198.5H1625M1103.91 450.903L1068.4 484.937L1049.52 484.937L991.342 428.213V410.061L976.988 396.448L861.394 396.448M1089.56 416.868L1054.81 383.59H1026.85L1007.21 363.17H904.458L882.5 341.211V326L871 314.5H852.5H836.5M1150 441.827L1089.56 383.59H1075.2L1063.12 369.22V343.505L1004.19 283H987.5L967.5 303H932.5L873.5 244V221M989 764V804L957.5 835.5M22 558.5L87 623.5L87 636.5V664M1244 343.505L1278 309.505V284.5L1347.5 215H1392.5M1269 366.5H1304.5L1329.79 341.211L1407 341.211L1488 422.211M1377 320.5L1402.5 320.5L1422 340H1451.5L1493 298.5L1556 298.5L1578.5 276M1601 232V253.5L1578.5 276M1578.5 276H1608L1637 305H1698L1712 291M132.321 245L30.0108 347.311L30.0108 431.081L54.0432 455.016L54.0432 606.851M22 692.118H64.2387L87.5429 668.183L87.5429 490.17L123.956 450.528L123.956 347.311L167.651 303.181M112.303 606.851L112.303 508.121L141.434 477.455M530.5 108L578 108L603 83M603 83L643 123L688.5 123L769 203.5L769 221L792 244H812.5M603 83V70.5L611.5 62V54" stroke="#07001B" stroke-opacity="0.5" stroke-width="3"/>
<path d="M707.5 1665.5L656 1614M656 1614V1596.5L645.5 1586V1560L616.5 1531M656 1614L648.5 1606.5H637L629 1598.5H613L607 1604.5H605L595.5 1614L587.5 1622L579.5 1630H507M416 1586L460 1630H507M615.5 1366L645.5 1336V1319L658 1306.5L674 1290.5M615.5 1366H553L528.5 1390.5H498.5L466 1358H451M615.5 1366L603.5 1354H592.5L576.5 1338H539.5M311.5 1263H341L436 1358H451M411 1520L436 1495H466L479.5 1481.5H520L540.5 1502H587.5L616.5 1531M462.5 1393L485 1415.5H515L539.5 1391H553.5L561.5 1383H613.5L621.5 1391H632.5H642L650.5 1399.5H674M451 1358L443.5 1350.5V1338L424.5 1319H414L398.5 1303.5V1286.5M616.5 1531H603.5L586.5 1514H570M493 1570.5H509.5L518 1562H532L559 1589H577.5L587.5 1579H605L613 1587H633L638.5 1581.5V1566M507 1630L499 1622H466.5L456.5 1612M204 1299.5L174 1269.5" stroke="#07001B" stroke-opacity="0.5" stroke-width="3"/>
</svg>
