<svg width="323" height="57" viewBox="0 0 323 57" fill="none" xmlns="http://www.w3.org/2000/svg">
<path d="M312.846 55.0002L321 55.0002L321 38.6464L316.434 29.0734L207.907 29.078L206.059 22.8955L193.76 22.8955L187.78 31.2718L134.831 31.2718L127.003 22.8955L116.24 22.8955L114.5 29.078L4.50546 29.0734L1.89609 36.652L1.89609 55.0002L9.07184 55.0002L13.5295 38.6464L122.219 38.651L124.72 49.4206L133.092 49.4206L134.831 44.0358L187.78 44.0358L190.063 49.4206L197.782 49.4206L200.5 38.651L305.453 38.6464L312.846 55.0002Z" fill="#6F27D4" fill-opacity="0.5" stroke="#6F27D4" stroke-opacity="0.5" stroke-width="3"/>
<path d="M161.967 12.0928L151.685 2.40527L135.356 2.40527L145.033 12.0928L161.967 12.0928Z" fill="#FFB904" fill-opacity="0.5" stroke="#FFB904" stroke-opacity="0.5" stroke-width="3"/>
<path d="M188.508 12.0928L178.226 2.40527L161.897 2.40527L171.574 12.0928L188.508 12.0928Z" fill="#FFB904" fill-opacity="0.5" stroke="#FFB904" stroke-opacity="0.5" stroke-width="3"/>
<path d="M135.218 12.0931L124.936 2.40552L108.607 2.40552L118.284 12.0931L135.218 12.0931Z" fill="#FFB904" fill-opacity="0.5"/>
<path d="M108.607 12.0931L98.3261 2.40551L94.9998 2.40551L94.9998 12.0931L108.607 12.0931Z" fill="#FFB904" fill-opacity="0.5"/>
<path d="M135.218 12.0931L124.936 2.40552L108.607 2.40552L118.284 12.0931L135.218 12.0931Z" stroke="#FFB904" stroke-opacity="0.5" stroke-width="3"/>
<path d="M108.607 12.0931L98.3261 2.40551L94.9998 2.40551L94.9998 12.0931L108.607 12.0931Z" stroke="#FFB904" stroke-opacity="0.5" stroke-width="3"/>
<path d="M213.122 11.7803L202.841 2.09277L186.512 2.09277L196.188 11.7803L213.122 11.7803Z" fill="#FFB904" fill-opacity="0.5" stroke="#FFB904" stroke-opacity="0.5" stroke-width="3"/>
<path d="M228 11.7803L228 2.09277L211.671 2.09277L221.347 11.7803L228 11.7803Z" fill="#FFB904" fill-opacity="0.5" stroke="#FFB904" stroke-opacity="0.5" stroke-width="3"/>
</svg>
