<svg width="1928" height="1511" viewBox="0 0 1928 1511" fill="none" xmlns="http://www.w3.org/2000/svg">
<g opacity="0.07">
<path fill-rule="evenodd" clip-rule="evenodd" d="M1701.65 795.001L1685.43 779.675L1639.29 826.289H1610.95V873.958L1670.62 934.093H1693L1699.68 927.527L1680.92 910.194V833.069L1701.65 810.822V795.001Z" fill="#6F27D4" fill-opacity="0.75"/>
<path d="M1881.72 1082.23L1921.25 1119.63L1922 1120.37V1105.7L1887.69 1071.96H1829.51L1735.52 1163.63L1693.75 1165.1V1119.63L1743.72 1071.96H1816.08L1829.51 1058.76H1899.62L1922 1082.23V843.89L1880.23 799.155L1807.13 800.622L1780.27 825.556V873.958L1747.45 906.959H1720.6L1699.68 927.527L1693 934.093H1670.62L1610.95 873.958V826.289H1639.29L1685.43 779.675L1693 772.021V747.086L1710.77 729.247L1763.86 675.951H1794.45L1809.37 662.75H1922V648.816H1763.86L1594.54 813.822V871.758L1480 984.933L1446.85 1017.7L1295.42 1019.16L1235 1077.83L1233.51 1165.1L1183.92 1214.25L1138.78 1258.97H1169.36L1264.09 1165.1V1083.7L1306.61 1040.43H1411.88H1584.84L1666.89 1119.63V1163.63L1693.75 1187.84H1730.3L1839.2 1082.23H1881.72Z" fill="#6F27D4" fill-opacity="0.75"/>
<path d="M1444.61 354.006H1502.04L1624.38 231.966L1654.21 202.2H1624.38C1590.56 236.668 1522.48 305.604 1520.69 305.604H1455.8L1323.02 435.408V407.541L1483.4 249.135V224.934L1461.76 202.2H1277.52V285.803L1305.12 312.938V370.873L1257.45 417.285L1227.54 446.409H1082.12H1011.23L970.2 404.607H853.09H724H720.121L674.814 449.915V488.21L568.892 590.147V670.084L586.794 686.951V732.419L521.899 796.221H483.111L417.469 730.219V661.283L345.861 590.147H107.165L65.3928 550.546V512.703V487.477L10.9402 436.142V545.412L68.3765 600.414H272.76L462.225 787.421V858.557L442.831 877.624V928.96L421.945 907.692V818.956L343.623 741.22V701.618L260.825 620.949H68.3765L10.9402 565.213V659.817L42.269 691.351H107.165L119.845 678.151H143.715L169.076 703.085V730.953L53.4579 844.623V863.691L10.9402 905.492V1046.3L242.923 818.956H302.597L436.118 949.494V992.758V1254L450.57 1268.45H478.118L529.547 1319.88H570.5L574.908 1324.29L558 1342L501.547 1398.45H534.547L599 1334L652.5 1279V1272.5L643 1258.95H618L603.047 1244V1225L584.5 1206.45L565 1186.95H541.5L518.915 1164.37V1151.5L606.934 1077.83H740.455L801.621 1019.16V697.218L1024.65 476.477H1266.25H1320.04L1373.2 424.207L1444.61 354.006Z" fill="#6F27D4" fill-opacity="0.75"/>
<path d="M399.567 1042.63L352.574 998.629H303.343L255.839 1044.69L194.438 1104.23V1180.5V1187.39L127.828 1254V1270.88L161.451 1304.5H226H354.519L365.019 1294L399.567 1254C399.625 1179.66 399.734 1089.77 399.567 1042.63Z" fill="#6F27D4" fill-opacity="0.75"/>
<path d="M1455.8 305.604L1323.02 435.408V407.541L1483.4 249.135V224.934L1461.76 202.2H1277.52V285.803L1305.12 312.938V370.873L1257.45 417.285M1455.8 305.604C1476.68 305.604 1518.9 305.604 1520.69 305.604M1455.8 305.604H1520.69M1520.69 305.604C1522.48 305.604 1590.56 236.668 1624.38 202.2H1654.21L1624.38 231.966M1699.68 927.527L1693 934.093H1670.62L1610.95 873.958V826.289H1639.29L1685.43 779.675M1699.68 927.527L1720.6 906.959H1747.45L1780.27 873.958V825.556L1807.13 800.622L1880.23 799.155L1922 843.89V1082.23L1899.62 1058.76H1829.51L1816.08 1071.96H1743.72L1693.75 1119.63V1165.1L1735.52 1163.63L1829.51 1071.96H1887.69L1922 1105.7V1120.37L1921.25 1119.63L1881.72 1082.23H1839.2L1730.3 1187.84H1693.75L1666.89 1163.63V1119.63L1584.84 1040.43H1411.88M1699.68 927.527L1680.92 910.194V833.069L1701.65 810.822V795.001L1685.43 779.675M1685.43 779.675L1693 772.021V747.086L1710.77 729.247M1710.77 729.247L1763.86 675.951H1794.45L1809.37 662.75H1922V648.816H1763.86L1594.54 813.822V871.758L1480 984.933M1710.77 729.247H1830.5L1867.52 693.156H1890.23L1922 725.292M1922 1176.67L1900.6 1151.95H1882.33L1873.45 1140.09H1845.31L1782.12 1202.38V1261.21H1695.24L1659.2 1225.62H1636L1596.51 1185.57V1151.95L1537.76 1092.13H1496.79M1284.02 1280L1340.3 1226.61H1366.46L1411.88 1185.57V1040.43M1411.88 1040.43H1306.61L1264.09 1083.7V1165.1L1169.36 1258.97H1138.78L1183.92 1214.25M1922 535.939H1781.63L1747.07 505.781H1674.5L1567.87 612.076V729.247L1480 813.822V984.933M1480 984.933L1446.85 1017.7L1295.42 1019.16L1235 1077.83L1233.51 1165.1L1183.92 1214.25M1409.9 751L1331.41 822.193V910.194L1297.35 940.352H1175.42L1130 982.376V1169.26L1183.92 1214.25M790.367 1169.26L911.806 1048.13V714.415L996.715 625.919V590.147L1024.65 562.637H1179.37L1266.25 476.477M1266.25 476.477H1320.04L1373.2 424.207M1266.25 476.477H1024.65L801.621 697.218V1019.16L740.455 1077.83H606.934L518.915 1151.5V1164.37L541.5 1186.95H565M1624.38 231.966L1502.04 354.006H1444.61L1373.2 424.207M1624.38 231.966V354.006L1598.48 378.723H1560.47L1514.56 424.207H1373.2M1261.81 202.2V249.135L1196.64 312.938V354.006L1257.45 417.285M1257.45 417.285L1227.54 446.409H1082.12M1196.64 202.2L1131.48 267.979H1106.31L1070.76 305.604H938.463L862.441 232.382M743.964 200L841.214 296.159V324.339L896.503 378.228H1011.23L1082.12 446.409M1082.12 446.409H1011.23L970.2 404.607H853.09H724H720.121L674.814 449.915M285.852 430.139H345.861L364 412H417.469L470 359.469M353.482 512.703C320.243 511.879 252.974 510.725 249.815 512.703C246.655 514.681 222.499 538.756 210.816 550.546H161.451L119.845 512.703H65.3928M65.3928 512.703V487.477L10.9402 436.142V545.412L68.3765 600.414H272.76L462.225 787.421V858.557L442.831 877.624V928.96L421.945 907.692V818.956L343.623 741.22V701.618L260.825 620.949H68.3765L10.9402 565.213V659.817L42.269 691.351H107.165L119.845 678.151H143.715L169.076 703.085V730.953L53.4579 844.623V863.691L10.9402 905.492V1046.3L242.923 818.956H302.597L436.118 949.494V992.758M65.3928 512.703V550.546L107.165 590.147H345.861L417.469 661.283V730.219L483.111 796.221H521.899L586.794 732.419V686.951L568.892 670.084V590.147L674.814 488.21V449.915M509.971 755.45L462.225 710.954V512.703L490.719 488.21H525.768L548.97 512.703H568.892L636.347 449.915H674.814M115.541 714.909L64.2006 764.843V792.035L10.9402 844.623M279.928 859.272H245.866L187.614 917.116V986.331L126.401 1046.3H96.7817L2 1140.58M436.118 992.758L391.987 949.494H355.951L340.647 932.442H303.343L258.207 972.488L255.839 1044.69M436.118 992.758V1254M255.839 1044.69L303.343 998.629H352.574L399.567 1042.63C399.734 1089.77 399.625 1179.66 399.567 1254L365.019 1294L354.519 1304.5H226H161.451L127.828 1270.88V1254L194.438 1187.39V1180.5V1104.23L255.839 1044.69ZM603.047 1225L584.5 1206.45L565 1186.95M603.047 1225V1244L618 1258.95H643L652.5 1272.5V1279L599 1334L534.547 1398.45H501.547M603.047 1225L565 1186.95M618 1169.26L643 1194.26L675.349 1226.61H711L731.153 1206.45H769L831 1268.45H928L947 1287.45V1316.5L986 1355.5M986 1355.5V1387L964.5 1408.5C950 1426 919.2 1461 912 1461C904.8 1461 837 1461 804 1461L756 1509M986 1355.5H1031.5L1063 1387H1130L1178.5 1338.5M436.118 1264V1282V1304.5M436.118 1264V1304.5M436.118 1264V1254M436.118 1304.5L451.5 1319.88L478.118 1346.5V1360.5L451.5 1387.12L458 1398.45H501.547M436.118 1254L450.57 1268.45H478.118L529.547 1319.88H570.5L574.908 1324.29L558 1342L501.547 1398.45" stroke="#6F27D4" stroke-opacity="0.75" stroke-width="5"/>
</g>
<path d="M1922 999.524C1919.01 1000.69 1901.81 1000.01 1893.58 999.524L1836.2 1055.6H1797.09L1732.02 1012.63C1730.52 1006.08 1728.43 992.825 1732.02 992.242C1736.51 991.514 1797.09 933.253 1797.09 930.34C1797.09 928.01 1797.09 882.761 1797.09 860.428L1816.54 842.95H1866.65L1922 897.569M1718.56 1088.37L1683.4 1121.14H1664.7L1607.11 1066.52V1049.05L1592.9 1035.94H1478.46M1704.35 1055.6L1669.94 1023.56H1642.26L1622.82 1003.89H1521.1M1764.18 1079.63L1704.35 1023.56H1690.13L1678.17 1009.72V984.959L1619.83 926.699H1586.92L1540.54 971.123M379.717 1280.63V1094.2L358.027 1073.08H343.815L307.914 1038.12M324.369 1068.71V1081.82L358.027 1116.77V1215.82C351.295 1223.58 337.084 1239.27 334.092 1239.85C331.1 1240.43 299.935 1240.09 284.727 1239.85L240.598 1285M295.946 1081.82L252.565 1124.06H232.37L210.68 1145.18V1218.73L144.111 1285L125.5 1303.61V1333.5L150 1358M236.858 1138.62V1180.86L247.329 1190.33V1239.85L198.712 1285M707.322 1089.83L745.467 1053.42V1021.37L731.256 1008.26V966.753L760.426 938.351V764.299M554.739 1038.12C574.684 1017.49 615.473 976.22 619.063 976.22C622.653 976.22 644.493 976.22 654.965 976.22L707.322 926.699V906.308L731.256 880.819V831.298M731.256 783.961L691.614 824.744V874.265L529.308 1032.3V1132.79L519.103 1143H501L488.5 1155.5L477.5 1166.5V1238.5L529.308 1290.31V1325.5L554.739 1350.93H573.5M399.164 914.319L374.482 889.558V857.515L316.141 801.44H289.215L267.524 820.374H204.696L147.851 874.993V899.754L2 1042.49V990.785L81.2833 917.96V865.526L113.445 835.667V820.374L191.981 743.179H216.663L267.524 794.157M386.449 835.667L280.239 732.255V714.049L231.622 665.984H142.616L122.421 684.191H48.3733L2.74805 641.952M219.212 220.5L359.523 361.574H443.293L467.228 337.542H619.063L704.33 419.106M811.287 419.106H756.687L704.33 369.585V327.346L680.395 304.042H502.382L462.74 267.63H359.523L315.393 223.934M675.159 223.934L619.063 279.282H520.333L489.667 250.151M1265.3 462.073L1322.14 404.541V321.52L1288.48 290.206V224.663C1311.39 224.663 1352.44 224.663 1378.98 224.663M1311.67 278.553C1315.26 279.136 1328.62 278.796 1334.86 278.553L1363.28 305.499H1381.23L1409.65 278.553V255.249L1378.98 224.663M1378.98 224.663C1397.51 224.663 1411.16 224.663 1411.89 224.663C1413.69 224.663 1432.09 245.054 1441.07 255.249V290.206L1411.89 316.423H1390.2L1363.28 343.368V366.5L1354.28 375.5M1237 1175L1160 1252" stroke="#07001B" stroke-opacity="0.5" stroke-width="3"/>
<g opacity="0.1">
<path d="M1682.99 35.5471H1719.26L1814 129L1857.5 172.5H1827.5L1802.5 197.5H1733.5L1695.5 159.5H1589.5L1563 133H1417.5L1400 150.5H1328L1317.5 161H1277.73L1235.73 119V71.8503L1191.86 27.9839H1101.19H1002.69H868.689H733.603H638.853L659.274 48.4045V129.774L670 140.5V145.351V147.774L659.274 158.5H648L517.5 289H500.5L598 191.5L605 184L597 176H568.538L542 149.462H487.5L472.662 134.625L450.753 111.179V86.2205L508.989 27.9839H478.707H412.977C411.164 27.9839 342.211 99.0778 307.961 134.625H277.74L307.961 103.927L383.904 27.9839H412.977H478.707H508.989H638.853H733.603H868.689H1002.69H1101.19H1191.86H1675.43L1682.99 35.5471Z" fill="#6F27D4" fill-opacity="0.75"/>
<path d="M638.853 27.9839L659.274 48.4045V129.774L670 140.5V145.351V147.774L659.274 158.5H648L517.5 289H500.5L598 191.5L605 184L597 176H568.538L542 149.462H487.5L472.662 134.625L450.753 111.179V86.2205L508.989 27.9839M412.977 27.9839C414.79 27.9839 457.552 27.9839 478.707 27.9839H412.977ZM412.977 27.9839C411.164 27.9839 342.211 99.0778 307.961 134.625H277.74L307.961 103.927L383.904 27.9839H508.989M675.189 134.625V86.2205L741.189 20.4207M741.189 134.625L807.189 66.7869H832.689L868.689 27.9839H1002.69L1079.69 103.498M1199.69 136.894L1101.19 37.7244V27.9839M1925.69 136.894L1822.01 35.5471V27.9839M1822.01 0V27.9839M1822.01 27.9839H1675.43M1675.43 27.9839L1682.99 35.5471H1719.26L1814 129L1857.5 172.5H1827.5L1802.5 197.5H1733.5L1695.5 159.5H1589.5L1563 133H1417.5L1400 150.5H1328L1317.5 161H1277.73L1235.73 119V71.8503L1191.86 27.9839M1675.43 27.9839H1191.86M1191.86 27.9839H1101.19M1101.19 27.9839H508.989" stroke="#6F27D4" stroke-opacity="0.75" stroke-width="5"/>
</g>
</svg>
