<svg width="108" height="97" viewBox="0 0 108 97" fill="none" xmlns="http://www.w3.org/2000/svg">
<g filter="url(#filter0_f_1074_595)">
<path d="M64.9396 24.7701L68.7125 21H79.4905L86.8511 28.3551V61.7159L84.6431 63.9223M64.9396 24.7701H78.4312L84.6431 30.982V63.9223M64.9396 24.7701L61.3519 28.3551M84.6431 63.9223L72.2613 76.2948H35.5898L21 61.7159V37.0237L27.0462 30.982H30.5509M30.5509 30.982H58.7231L61.3519 28.3551M30.5509 30.982L33.1778 28.3551H61.3519" stroke="#FFB904"/>
</g>
<g filter="url(#filter1_f_1074_595)">
<path d="M64.9396 24.7701L68.7125 21H79.4905L86.8511 28.3551V61.7159L84.6431 63.9223M64.9396 24.7701H78.4312L84.6431 30.982V63.9223M64.9396 24.7701L61.3519 28.3551M84.6431 63.9223L72.2613 76.2948H35.5898L21 61.7159V37.0237L27.0462 30.982H30.5509M30.5509 30.982H58.7231L61.3519 28.3551M30.5509 30.982L33.1778 28.3551H61.3519" stroke="#FFB904"/>
</g>
<path fill-rule="evenodd" clip-rule="evenodd" d="M35.5898 76.2948L21 61.7159V37.0237L27.0462 30.982H30.5509H58.7231L61.3519 28.3551L64.9396 24.7701H78.4312L84.6431 30.982V63.9223L72.2613 76.2948H35.5898Z" fill="#41009C" fill-opacity="0.4"/>
<path d="M86.8511 61.7159V28.3551L79.4905 21H68.7125L64.9396 24.7701H78.4312L84.6431 30.982V63.9223L86.8511 61.7159Z" fill="#FFB904" fill-opacity="0.8"/>
<path d="M30.5509 30.982H58.7231L61.3519 28.3551H33.1778L30.5509 30.982Z" fill="#FFB904" fill-opacity="0.8"/>
<path d="M64.9396 24.7701L68.7125 21H79.4905L86.8511 28.3551V61.7159L84.6431 63.9223M64.9396 24.7701H78.4312L84.6431 30.982V63.9223M64.9396 24.7701L61.3519 28.3551M84.6431 63.9223L72.2613 76.2948H35.5898L21 61.7159V37.0237L27.0462 30.982H30.5509M30.5509 30.982H58.7231L61.3519 28.3551M30.5509 30.982L33.1778 28.3551H61.3519" stroke="#FFB904"/>
<path d="M30.8022 58.0843V39.4884H33.7539V43.589C35.9438 39.6791 38.6098 39.0116 40.6093 39.2023V39.4884V42.3493C36.6246 42.6082 35.2773 43.1122 33.7539 48.7863V58.0843H30.8022Z" fill="white"/>
<path fill-rule="evenodd" clip-rule="evenodd" d="M74.315 58.0843H77.2667V32.8129H74.315V42.0632V47.2235V48.7863V55.5094V58.0843Z" fill="white"/>
<path d="M74.315 42.0632C70.5065 38.344 64.7936 38.1532 61.842 42.0632C58.8904 45.9731 59.2712 52.1717 61.842 55.5094C64.8172 59.3723 71.0777 59.6101 74.315 55.5094V48.7863C74.315 58.6564 62.6565 58.275 62.9846 48.7863C63.3384 38.5522 73.5563 40.7086 74.315 47.2235V42.0632Z" fill="white"/>
<path d="M40.7045 60.7545V62.471H58.3191V60.7545H40.7045Z" fill="white"/>
<path fill-rule="evenodd" clip-rule="evenodd" d="M74.1374 32.8129H77.2667V58.1123H74.1374V55.7247C70.8297 59.6326 64.6839 59.3368 61.735 55.517C60.44 53.8396 59.7006 51.4498 59.6529 48.994C59.6051 46.5377 60.2492 44.0046 61.7345 42.0417C64.6764 38.1537 70.3166 38.3026 74.1374 41.8772V32.8129ZM74.1374 42.1389C70.3733 38.4983 64.7741 38.3388 61.8858 42.1559C60.4314 44.078 59.7954 46.5669 59.8425 48.9903C59.8896 51.4144 60.6199 53.7624 61.8852 55.4013C64.8052 59.1837 70.9466 59.4244 74.1374 55.4261V50.842C73.8522 52.3022 73.2632 53.4558 72.4934 54.3058C71.3915 55.5225 69.9241 56.111 68.466 56.0869C65.5426 56.0385 62.6884 53.5338 62.8533 48.7757C62.9419 46.2183 63.6487 44.4219 64.6831 43.2728C65.7185 42.1225 67.0747 41.6295 68.4415 41.6671C70.8914 41.7344 73.3784 43.5061 74.1374 46.2465V42.1389ZM74.3271 47.2206V33.0024H77.077V57.9228H74.3271V48.7843C74.3875 48.2407 74.3847 47.7183 74.3271 47.2206ZM74.1374 47.2316C73.7628 44.0467 71.0722 41.929 68.4363 41.8565C67.1206 41.8204 65.8195 42.2938 64.8241 43.3995C63.8278 44.5063 63.1304 46.2553 63.0428 48.7823C62.881 53.4522 65.6688 55.8511 68.4692 55.8974C69.8731 55.9207 71.2879 55.3544 72.3528 54.1786C73.4176 53.0029 74.1374 51.2119 74.1374 48.779V47.2316ZM37.2771 39.8239C38.4818 39.1859 39.6626 39.0657 40.6731 39.1619L40.7589 39.1701V42.4719L40.6702 42.4777C38.6827 42.6065 37.3865 42.7964 36.3923 43.6357C35.3973 44.4757 34.6889 45.9803 33.9315 48.7916V58.1123H30.8022V39.4457H33.9315V43.2611C34.9823 41.4916 36.1371 40.4276 37.2771 39.8239ZM33.9315 43.6397V48.0848C34.6242 45.6835 35.31 44.3013 36.27 43.4909C37.3024 42.6193 38.6363 42.4228 40.5693 42.2944V39.3429C39.6079 39.2644 38.498 39.3918 37.3659 39.9914C36.2041 40.6066 35.0118 41.7229 33.9315 43.6397ZM30.9919 39.6352V57.9228H33.7418V39.6352H30.9919ZM40.6641 60.5759H58.3964V62.471H40.6641V60.5759ZM40.8537 60.7654V62.2815H58.2068V60.7654H40.8537Z" fill="white"/>
<defs>
<filter id="filter0_f_1074_595" x="10.5" y="10.5" width="86.8511" height="76.2948" filterUnits="userSpaceOnUse" color-interpolation-filters="sRGB">
<feFlood flood-opacity="0" result="BackgroundImageFix"/>
<feBlend mode="normal" in="SourceGraphic" in2="BackgroundImageFix" result="shape"/>
<feGaussianBlur stdDeviation="5" result="effect1_foregroundBlur_1074_595"/>
</filter>
<filter id="filter1_f_1074_595" x="0.5" y="0.5" width="106.851" height="96.2948" filterUnits="userSpaceOnUse" color-interpolation-filters="sRGB">
<feFlood flood-opacity="0" result="BackgroundImageFix"/>
<feBlend mode="normal" in="SourceGraphic" in2="BackgroundImageFix" result="shape"/>
<feGaussianBlur stdDeviation="10" result="effect1_foregroundBlur_1074_595"/>
</filter>
</defs>
</svg>
