<svg width="498" height="100" viewBox="0 0 498 100" fill="none" xmlns="http://www.w3.org/2000/svg">
<path d="M488.5 41.52V32.7L473.071 19.176V27.996L488.5 41.52Z" stroke="black"/>
<path d="M479.928 18H484.5H488.5V25.644L479.928 18Z" stroke="black"/>
<path d="M488.5 57.984V49.164L473.071 35.64V44.46L488.5 57.984Z" stroke="black"/>
<path d="M488.5 74.448V65.628L473.071 52.104V60.924L488.5 74.448Z" stroke="black"/>
<path d="M488.5 90.912V82.092L473.071 68.568V77.388L488.5 90.912Z" stroke="black"/>
<path d="M483.133 93.264L473.071 84.444V93.264H483.133Z" stroke="black"/>
<path d="M33.5 81L18.5 67.7064V76L33.5 84.5V81Z" stroke="black" stroke-miterlimit="5.75877"/>
<path d="M33.5 73.4862V64.8165L18.5 51.5229V60.1927L33.5 73.4862Z" stroke="black" stroke-miterlimit="5.75877"/>
<path d="M33.5 57.3028V48.633L18.5 35.3394V44.0092L33.5 57.3028Z" stroke="black" stroke-miterlimit="5.75877"/>
<path d="M33.5 41.1193V32.4495L18.5 19.156V27.8257L33.5 41.1193Z" stroke="black" stroke-miterlimit="5.75877"/>
<path d="M25.1667 18H29.6111H33.5V25.5138L25.1667 18Z" stroke="black" stroke-miterlimit="5.75877"/>
<path fill-rule="evenodd" clip-rule="evenodd" d="M0 48.8277V17L8.38201 11.6597L319.951 11.3445L339.997 0H474.018L497.5 12.2899V99.2647H42.7463L8.38201 82.8782V54.2017L0 48.8277ZM11.8184 82.2479V14.1807V12.9202H494.064V97.374H44.4645L11.8184 82.2479Z" fill="#FFB904"/>
<path d="M9.38201 91.0714V99.2647H28.5L9.38201 91.0714Z" fill="#FFB904"/>
<path fill-rule="evenodd" clip-rule="evenodd" d="M0 48.8277V17L8.38201 11.6597L319.951 11.3445L339.997 0H474.018L497.5 12.2899V99.2647H42.7463L8.38201 82.8782V54.2017L0 48.8277ZM11.8184 82.2479V14.1807V12.9202H494.064V97.374H44.4645L11.8184 82.2479Z" fill="#FFB904"/>
<path d="M9.38201 91.0714V99.2647H28.5L9.38201 91.0714Z" fill="#FFB904"/>
<path d="M488.5 41.52V32.7L473.071 19.176V27.996L488.5 41.52Z" fill="#FFB904"/>
<path d="M479.928 18H484.5H488.5V25.644L479.928 18Z" fill="#FFB904"/>
<path d="M488.5 57.984V49.164L473.071 35.64V44.46L488.5 57.984Z" fill="#FFB904"/>
<path d="M488.5 74.448V65.628L473.071 52.104V60.924L488.5 74.448Z" fill="#FFB904"/>
<path d="M488.5 90.912V82.092L473.071 68.568V77.388L488.5 90.912Z" fill="#FFB904"/>
<path d="M483.133 93.264L473.071 84.444V93.264H483.133Z" fill="#FFB904"/>
<path d="M33.5 81L18.5 67.7064V76L33.5 84.5V81Z" fill="#FFB904"/>
<path d="M33.5 73.4862V64.8165L18.5 51.5229V60.1927L33.5 73.4862Z" fill="#FFB904"/>
<path d="M33.5 57.3028V48.633L18.5 35.3394V44.0092L33.5 57.3028Z" fill="#FFB904"/>
<path d="M33.5 41.1193V32.4495L18.5 19.156V27.8257L33.5 41.1193Z" fill="#FFB904"/>
<path d="M25.1667 18H29.6111H33.5V25.5138L25.1667 18Z" fill="#FFB904"/>
<path d="M70.5986 72V39.6025H81.3896V72H70.5986ZM83.0986 46.0723V39.6025H95.4277L101.922 46.0723V55.7891L96.9414 60.7695L96.5996 60.0859L86.4678 61.4287L86.8584 62.2832H83.0986V56.0088H91.2041V46.0723H83.0986ZM103.021 72H91.4971L86.8584 62.2832H95.4277L96.9414 60.7695L103.021 72ZM117.169 58.6943V72H106.378V39.6025H117.169V52.4443H127.496V58.6943H117.169ZM118.878 45.877V39.6025H135.748V48.9775H125.592V45.877H118.878ZM118.878 72V65.5303H124.957V62.2832H135.748V72H118.878ZM151.19 65.5303H160.443V72H146.869L140.399 65.5303V46.0723L146.869 39.6025H151.19V65.5303ZM156.903 54.0312H171.723V72H162.152V60.4521H156.903V54.0312ZM152.899 46.0723V39.6025H166.059L171.723 46.0723V49.3193H160.932V46.0723H152.899ZM175.983 65.0908H179.23V46.4873H175.983V39.6025H193.269V46.4873H190.021V65.0908H193.269V72H175.983V65.0908ZM218.013 72V59.8662H203.999L197.505 53.3721V46.0723L203.999 39.6025H207.661V51.1016H222.554L228.828 57.5957V65.5303L222.358 72H218.013ZM209.37 45.4375V39.6025H222.334L227.949 45.2422V48.6846H218.013V45.4375H209.37ZM197.505 62.2832H208.296V66.1406H216.304V72H202.949L197.505 65.5303V62.2832ZM240.438 48.3428H251.668V72H240.438V48.3428ZM231.99 39.6025H260.115V46.6582H231.99V39.6025ZM263.741 72V39.6025H274.532V72H263.741ZM276.241 46.0723V39.6025H288.57L295.064 46.0723V55.7891L290.084 60.7695L289.742 60.0859L279.61 61.4287L280.001 62.2832H276.241V56.0088H284.347V46.0723H276.241ZM296.163 72H284.64L280.001 62.2832H288.57L290.084 60.7695L296.163 72ZM320.785 68.46H310.189L312.436 62.0391H318.295L309.628 39.6025H320.15L333.065 72H322.152L320.785 68.46ZM307.309 72H296.884L308.456 41.0674L313.241 53.9336L307.309 72ZM339.23 48.3428H350.461V72H339.23V48.3428ZM330.783 39.6025H358.908V46.6582H330.783V39.6025ZM362.046 65.0908H365.293V46.4873H362.046V39.6025H379.331V46.4873H376.084V65.0908H379.331V72H362.046V65.0908ZM394.114 65.4082H398.167V72H389.866L383.299 65.5303V46.0723L389.866 39.6025H398.167V46.1699H394.114V65.4082ZM404.002 46.1699H399.876V39.6025H408.25L414.793 46.0723V65.5303L408.25 72H399.876V65.4082H404.002V46.1699ZM450.401 72H438.927L419.298 39.6025H430.699L450.401 72ZM419.298 72V42.6787L428.697 58.084V72H419.298ZM450.401 39.6025V68.9238L441.002 53.4453V39.6025H450.401Z" fill="white"/>
</svg>
