<svg width="185" height="81" viewBox="0 0 185 81" fill="none" xmlns="http://www.w3.org/2000/svg">
<g filter="url(#filter0_f_1074_584)">
<path d="M49.1501 25.7755H112.739L117.515 30.5509H119.777M49.1501 25.7755H35.7034L21 40.4789M49.1501 25.7755L46.7624 23.3877L45.2543 21.8797M21 40.4789V36.5831V32.1846L32.1846 21H44.3746L45.2543 21.8797M21 40.4789V54.3026L22.7594 56.062H24.5188M45.2543 21.8797H108.843H111.105L119.777 30.5509M119.777 30.5509H157.855L164.138 36.8344V56.062L159.865 60.3347H32.1846L27.9119 56.062H24.5188M24.5188 56.062L28.5402 60.3347" stroke="#FFB904"/>
</g>
<g filter="url(#filter1_f_1074_584)">
<path d="M32.1846 60.3347L27.9119 56.062H24.3931M32.1846 60.3347H159.865L164.138 56.062V36.8344L157.855 30.5509H119.777M32.1846 60.3347H28.6659L24.3931 56.062M49.1501 25.7755H112.739L117.515 30.5509H119.777M49.1501 25.7755H35.7034L21 40.4789M49.1501 25.7755L46.7624 23.3877L45.2543 21.8797M21 40.4789V36.5831V32.1846L32.1846 21H44.3746L45.2543 21.8797M21 40.4789V54.3026L22.7594 56.062H24.3931M45.2543 21.8797H108.843H111.105L119.777 30.5509" stroke="#FFB904"/>
</g>
<path d="M27.9119 56.062L32.1846 60.3347H159.865L164.138 56.062V36.8344L157.855 30.5509H119.777H117.515L112.739 25.7755H49.1501H35.7034L21 40.4789V54.3026L22.7594 56.062H24.2674H27.9119Z" fill="#41009C" fill-opacity="0.4"/>
<path d="M32.1846 21L21 32.1846V36.5831V40.4789L35.7034 25.7755H49.1501L46.7624 23.3877L45.2543 21.8797L44.3746 21H32.1846Z" fill="#41009C" fill-opacity="0.6"/>
<path d="M112.739 25.7755L117.515 30.5509H119.777L111.105 21.8797H108.843H45.2543L46.7624 23.3877L49.1501 25.7755H112.739Z" fill="#FFB904" fill-opacity="0.6"/>
<path d="M32.1846 60.3347L27.9119 56.062H24.2674M32.1846 60.3347H159.865L164.138 56.062V36.8344L157.855 30.5509H119.777M32.1846 60.3347H28.5402L24.2674 56.062M49.1501 25.7755H112.739L117.515 30.5509H119.777M49.1501 25.7755H35.7034L21 40.4789M49.1501 25.7755L46.7624 23.3877L45.2543 21.8797M21 40.4789V36.5831V32.1846L32.1846 21H44.3746L45.2543 21.8797M21 40.4789V54.3026L22.7594 56.062H24.2674M45.2543 21.8797H108.843H111.105L119.777 30.5509" stroke="#FFB904"/>
<path d="M102.481 30.7884C102.388 31.0463 102.357 34.9422 102.419 39.4683C102.543 46.1429 102.667 48.0049 103.101 49.2081C103.907 51.4998 105.302 53.018 107.75 54.1639C109.672 55.0806 110.137 55.1665 112.4 55.1665C115.407 55.1665 117.67 54.3358 119.53 52.5597C121.607 50.6117 122.04 49.5232 122.04 46.4294C122.04 43.135 121.545 42.0751 119.003 39.9266C116.802 38.0933 114.663 37.4058 111.594 37.6063C110.416 37.6922 109.3 37.8927 109.145 38.036C108.959 38.2079 108.866 39.2105 108.928 40.299C109.021 42.1038 109.083 42.2756 109.641 42.1324C109.982 42.0465 111.098 41.9892 112.152 41.9892C113.733 41.9892 114.198 42.1038 115.159 42.7913C116.616 43.8225 117.236 44.9397 117.236 46.5153C117.236 48.9502 115.004 50.8409 112.183 50.8123C110.54 50.7836 109.548 50.268 108.432 48.8929C107.812 48.1481 107.781 47.6325 107.626 39.3251L107.471 30.5306L105.054 30.4447C103.132 30.3874 102.636 30.4447 102.481 30.7884Z" fill="white"/>
<path d="M56.0108 38.0362C48.7882 40.4425 47.1763 49.151 53.1899 53.3334C58.3666 56.9429 65.5582 55.4532 68.627 50.0964C69.6499 48.3203 69.6499 44.539 68.627 42.7629C66.7671 39.5259 63.8533 37.8071 59.9165 37.6352C58.2116 37.5493 57.1267 37.6638 56.0108 38.0362ZM61.9004 42.5051C65.1862 44.2239 65.3722 48.1198 62.2414 50.2682C61.0324 51.099 58.1186 51.099 56.8787 50.2682C54.1199 48.3776 53.8099 45.1405 56.2277 43.078C57.7776 41.7316 59.9785 41.5025 61.9004 42.5051Z" fill="white"/>
<path d="M76.7821 37.9788C75.2012 38.5517 73.3413 40.2132 72.8454 41.5309C72.5664 42.2471 72.4424 44.4815 72.4424 48.7212V54.8801L75.0152 54.9661L77.5571 55.052V49.2941V43.5075L78.456 42.6768C79.4789 41.7601 80.2539 41.6455 81.5558 42.2471C82.9817 42.9346 83.1367 43.708 83.1367 49.5805V55.0234H85.6165H88.0964V49.9243C88.0964 44.1091 88.3444 42.9059 89.6463 42.2757C90.7622 41.7314 91.3202 41.7314 92.4051 42.2757C93.769 42.9059 93.986 43.9659 93.986 49.7811V55.052L96.4039 54.9661L98.7907 54.8801V49.0076C98.7907 42.3903 98.6357 41.3877 97.4888 40.0986C94.761 37.1194 90.0183 36.7183 86.6085 39.2392L85.4306 40.0699L84.7176 39.3824C84.2836 38.9814 83.5397 38.4658 83.0127 38.2079C81.6798 37.5777 78.332 37.4631 76.7821 37.9788Z" fill="white"/>
<path d="M144.608 37.9505C138.966 39.6406 136.021 45.4559 138.377 50.1825C140.02 53.4195 143.058 55.167 146.994 55.1383C148.265 55.1383 149.691 54.9951 150.187 54.7946C150.993 54.4795 151.024 54.3649 151.024 52.4456V50.4403L150.187 50.6408C148.513 51.0132 146.22 50.87 145.166 50.2971C143.43 49.3518 142.81 48.3491 142.81 46.4871C142.81 43.7084 144.701 42.0183 147.8 42.0183C149.66 42.0183 150.776 42.5626 151.551 43.9376C152.016 44.6824 152.14 45.7996 152.264 49.8674L152.419 54.8805L154.992 54.9664L157.534 55.0524V50.6408C157.534 48.2059 157.379 45.5418 157.224 44.6824C156.325 40.3568 153.132 37.8359 148.265 37.6354C146.839 37.5781 145.414 37.7213 144.608 37.9505Z" fill="white"/>
<path d="M38.2198 38.1222C35.895 38.6378 34.1591 40.6144 34.1591 42.6769C34.1901 44.9113 34.903 45.6275 39.0258 47.5182C41.4746 48.664 42.3736 49.5521 41.6916 50.1823C41.5676 50.2969 39.7697 50.4687 37.7239 50.4974L34.0041 50.5833L33.9111 52.8177L33.8181 55.0808L38.4058 54.9662C42.4356 54.8803 43.1485 54.7943 44.3264 54.2214C47.5192 52.6459 48.0772 48.8645 45.4114 46.7161C44.7914 46.2004 43.1175 45.2838 41.6916 44.6822C39.7077 43.8514 39.1188 43.4504 39.1188 43.0207C39.1188 42.4764 39.3358 42.4191 42.7765 42.3618L46.4033 42.2759V40.1274V37.9789L42.8385 37.9216C40.8857 37.893 38.8088 37.9789 38.2198 38.1222Z" fill="white"/>
<path d="M125.45 38.2079C125.357 38.4085 125.326 42.2184 125.357 46.7159L125.45 54.8801L127.806 54.9661L130.193 55.052L130.317 50.2394C130.472 43.9659 130.998 42.9346 134.346 42.5335L135.834 42.333V40.0986V37.8355H134.687C133.354 37.8355 131.68 38.6663 130.658 39.8121L129.976 40.5569L129.945 39.1819V37.8355H127.775C126.287 37.8355 125.543 37.9501 125.45 38.2079Z" fill="white"/>
<defs>
<filter id="filter0_f_1074_584" x="10.5" y="10.5" width="164.138" height="60.3347" filterUnits="userSpaceOnUse" color-interpolation-filters="sRGB">
<feFlood flood-opacity="0" result="BackgroundImageFix"/>
<feBlend mode="normal" in="SourceGraphic" in2="BackgroundImageFix" result="shape"/>
<feGaussianBlur stdDeviation="5" result="effect1_foregroundBlur_1074_584"/>
</filter>
<filter id="filter1_f_1074_584" x="0.5" y="0.5" width="184.138" height="80.3347" filterUnits="userSpaceOnUse" color-interpolation-filters="sRGB">
<feFlood flood-opacity="0" result="BackgroundImageFix"/>
<feBlend mode="normal" in="SourceGraphic" in2="BackgroundImageFix" result="shape"/>
<feGaussianBlur stdDeviation="10" result="effect1_foregroundBlur_1074_584"/>
</filter>
</defs>
</svg>
