<svg width="100" height="134" viewBox="0 0 100 134" fill="none" xmlns="http://www.w3.org/2000/svg">
<g filter="url(#filter0_f_1074_654)">
<path d="M79.5176 66.7717L76.3544 69.9362V76.8918V78.6884M79.5176 66.7717L82.6807 63.6073V40.6649L79.5176 37.5004M79.5176 66.7717V37.5004M79.5176 37.5004L63.0242 21H51.8403H45.4527M45.4527 21H40.6565L29.5827 32.0786M45.4527 21L34.3741 32.0786H29.5827M29.5827 32.0786L21 40.6649V63.6073L27.3262 69.9362V78.6884V81.5828V101.644M27.3262 101.644V111.074L29.4726 113.222H50.5977H62.5197M27.3262 101.644L31.3185 105.636H54.9344L62.5197 113.222M62.5197 113.222H74.208L76.3544 111.074V101.414M76.3544 78.6884V81.5828V101.414M76.3544 78.6884L79.5176 81.8515V98.2505L76.3544 101.414" stroke="#FFB904"/>
</g>
<g filter="url(#filter1_f_1074_654)">
<path d="M79.5176 66.7717L76.3544 69.9362V76.8918V78.6884M79.5176 66.7717L82.6807 63.6073V40.6649L79.5176 37.5004M79.5176 66.7717V37.5004M79.5176 37.5004L63.0242 21H51.8403H45.4527M45.4527 21H40.6565L29.5827 32.0786M45.4527 21L34.3741 32.0786H29.5827M29.5827 32.0786L21 40.6649V63.6073L27.3262 69.9362V78.6884V81.5828V101.644M27.3262 101.644V111.074L29.4726 113.222H50.5977H62.5197M27.3262 101.644L31.3185 105.636H54.9344L62.5197 113.222M62.5197 113.222H74.208L76.3544 111.074V101.414M76.3544 78.6884V81.5828V101.414M76.3544 78.6884L79.5176 81.8515V98.2505L76.3544 101.414" stroke="#FFB904"/>
</g>
<path d="M82.6807 40.6649V63.6073L79.5176 66.7717V37.5004L82.6807 40.6649Z" fill="#FFB904" fill-opacity="0.5"/>
<path d="M40.6565 21H45.4527L34.3741 32.0786H29.5827L40.6565 21Z" fill="#FFB904" fill-opacity="0.5"/>
<path d="M29.4726 113.222L27.3262 111.074V101.644L31.3185 105.636H54.9344L62.5197 113.222H50.5977H29.4726Z" fill="#FFB904" fill-opacity="0.4"/>
<path d="M76.3544 81.5828V78.6884L79.5176 81.8515V98.2505L76.3544 101.414V81.5828Z" fill="#FFB904" fill-opacity="0.3"/>
<path d="M27.3262 69.9362L21 63.6073V40.6649L29.5827 32.0786H34.3741L45.4527 21H51.8403H63.0242L79.5176 37.5004V66.7717L76.3544 69.9362V76.8918V78.6884V81.5828V101.414V111.074L74.208 113.222H62.5197L54.9344 105.636H31.3185L27.3262 101.644V81.5828V78.6884V69.9362Z" fill="#41009C" fill-opacity="0.3"/>
<path d="M79.5176 66.7717L76.3544 69.9362V76.8918V78.6884M79.5176 66.7717L82.6807 63.6073V40.6649L79.5176 37.5004M79.5176 66.7717V37.5004M79.5176 37.5004L63.0242 21H51.8403H45.4527M45.4527 21H40.6565L29.5827 32.0786M45.4527 21L34.3741 32.0786H29.5827M29.5827 32.0786L21 40.6649V63.6073L27.3262 69.9362V78.6884V81.5828V101.644M27.3262 101.644V111.074L29.4726 113.222H50.5977H62.5197M27.3262 101.644L31.3185 105.636H54.9344L62.5197 113.222M62.5197 113.222H74.208L76.3544 111.074V101.414M76.3544 78.6884V81.5828V101.414M76.3544 78.6884L79.5176 81.8515V98.2505L76.3544 101.414" stroke="#FFB904"/>
<path d="M51.5993 33.8826C51.2623 33.965 51.0439 34.3095 51.1275 34.6302C51.2011 34.9148 51.4583 35.1133 51.7516 35.1133C52.0449 35.1133 52.302 34.9148 52.3757 34.6302C52.4281 34.4318 52.3619 34.2071 52.2072 34.0524C52.0536 33.8988 51.8127 33.8314 51.5993 33.8826Z" fill="white"/>
<path d="M51.0712 37.0281C51.0712 37.0306 51.0987 37.0506 51.1324 37.0718C51.2272 37.1329 51.3171 37.2365 51.3683 37.3439L51.4145 37.4412L51.4182 39.3547L51.4207 41.2668L51.3583 44.5158C51.3233 46.3019 51.2821 48.2727 51.2647 48.8955C51.2472 49.5171 51.2285 50.3771 51.221 50.8052C51.2073 51.6864 51.196 51.8724 51.1436 52.1195C51.0388 52.6163 50.9314 52.8384 50.6718 53.0956L50.5308 53.2366L51.1449 53.2391C51.4819 53.2416 52.0335 53.2416 52.3705 53.2391L52.9846 53.2366L52.8436 53.0956C52.584 52.8384 52.4766 52.6163 52.3718 52.1195C52.3194 51.8724 52.3081 51.6864 52.2944 50.8052C52.2869 50.3771 52.2682 49.5171 52.2507 48.8955C52.2332 48.2727 52.1921 46.3019 52.1571 44.5158L52.0947 41.2668L52.0972 39.3547L52.1009 37.4412L52.1471 37.3439C52.1983 37.2365 52.2882 37.1329 52.383 37.0718C52.4167 37.0506 52.4442 37.0306 52.4442 37.0281C52.4442 37.0256 52.1359 37.0231 51.7577 37.0231C51.3808 37.0231 51.0712 37.0256 51.0712 37.0281Z" fill="white"/>
<path d="M67.4222 40.2197C67.3984 40.2259 67.3685 40.2334 67.3548 40.2372C67.2624 40.2596 67.1263 40.3582 67.054 40.4556C66.9641 40.5791 66.9429 40.649 66.9429 40.8238C66.9429 40.9499 66.9466 40.9848 66.9716 41.0447C67.0926 41.3518 67.3885 41.5178 67.7142 41.4616C67.8965 41.4304 68.0899 41.2656 68.1586 41.0834C68.1923 40.9948 68.2048 40.8263 68.1848 40.7302C68.1249 40.4394 67.8678 40.2247 67.5682 40.2134C67.512 40.2109 67.4459 40.2134 67.4222 40.2197Z" fill="white"/>
<path d="M35.9261 40.2561C35.6989 40.2973 35.5055 40.457 35.4181 40.6767C35.3931 40.7378 35.3894 40.7715 35.3894 40.8989C35.3894 41.0262 35.3931 41.0599 35.4181 41.121C35.4918 41.3058 35.6815 41.468 35.8637 41.4992C36.0047 41.5229 36.1533 41.5055 36.2706 41.4493C36.4204 41.3769 36.5427 41.2446 36.6064 41.0823C36.6313 41.0224 36.6351 40.9875 36.6351 40.8614C36.6351 40.6867 36.6138 40.6168 36.524 40.4932C36.4503 40.3934 36.308 40.2923 36.2194 40.2748C36.2044 40.2723 36.1882 40.2673 36.182 40.2623C36.1595 40.2498 35.9885 40.2448 35.9261 40.2561Z" fill="white"/>
<path d="M65.2938 42.1782C65.2976 42.1956 65.3051 42.2655 65.3088 42.3354C65.3188 42.5127 65.2876 42.6163 65.1877 42.7386C65.0966 42.8509 62.3507 45.5831 61.824 46.0849C61.6455 46.2546 60.8342 47.0347 60.3948 47.4578C60.2064 47.6401 59.9056 47.9296 59.7271 48.1006C59.5486 48.2716 59.254 48.555 59.0718 48.7297C58.6549 49.1316 57.8623 49.8917 57.73 50.0165C57.6751 50.069 57.5116 50.2237 57.3681 50.3598C57.2233 50.4971 56.9038 50.8004 56.6566 51.0338C56.1486 51.5131 56.0588 51.5992 55.4834 52.1584C55.2574 52.3793 55.0103 52.6115 54.9342 52.6739C54.7732 52.8087 54.5622 52.9472 54.3475 53.0595C54.2614 53.1045 54.0667 53.1881 54.0667 53.1806C54.0667 53.1769 54.053 53.1806 54.0367 53.1869C54.0205 53.1931 53.9831 53.2018 53.9544 53.2056C53.9257 53.2093 53.8895 53.2181 53.8745 53.223C53.8608 53.2293 53.7572 53.2318 53.6461 53.2305C53.5337 53.228 53.4426 53.2305 53.4426 53.2355C53.4426 53.2455 55.1563 54.9592 55.1676 54.9592C55.1713 54.9592 55.1763 54.8644 55.1763 54.7495C55.1776 54.445 55.2187 54.2865 55.376 54.0006C55.5395 53.7011 55.6943 53.4927 55.9564 53.2243C56.6778 52.4816 56.9687 52.1783 57.911 51.1836C58.2168 50.8603 58.5401 50.5208 58.6287 50.4284C59.4924 49.531 59.7633 49.2489 60.0703 48.9307C60.2663 48.7285 60.5696 48.4139 60.7443 48.2317C60.9191 48.0495 61.2111 47.7462 61.3934 47.5577C61.5756 47.3692 61.9326 46.9985 62.1859 46.7339C62.7351 46.1635 65.4985 43.3801 65.6283 43.2665C65.7045 43.2004 65.8205 43.1243 65.843 43.1268C65.8468 43.128 65.8705 43.1218 65.8967 43.1143C65.9553 43.098 66.1263 43.098 66.1975 43.1155C66.2274 43.1218 66.2537 43.1255 66.2562 43.123C66.2586 43.1218 66.0402 42.9008 65.7719 42.6337C65.4673 42.3292 65.2876 42.1582 65.2938 42.1782Z" fill="white"/>
<path d="M37.797 42.6798C37.4924 42.9844 37.3214 43.1641 37.3414 43.1579C37.4051 43.1404 37.6223 43.1366 37.6784 43.1516C37.7096 43.1604 37.7358 43.1666 37.7383 43.1654C37.7521 43.1591 37.8756 43.2402 37.9493 43.3039C38.0791 43.4175 40.8425 46.2009 41.3917 46.7713C41.6463 47.0359 42.002 47.4066 42.1842 47.595C42.3665 47.7835 42.6585 48.0868 42.8333 48.269C43.008 48.4513 43.3113 48.7658 43.5073 48.968C43.8143 49.2863 44.0852 49.5684 44.9489 50.4658C45.0388 50.5582 45.3608 50.8977 45.6666 51.2209C46.6089 52.2157 46.8998 52.519 47.6212 53.2617C47.8833 53.53 48.0381 53.7384 48.2016 54.038C48.3589 54.3238 48.4 54.4823 48.4013 54.7869C48.4013 54.9017 48.4063 54.9966 48.41 54.9966C48.4213 54.9966 50.135 53.2829 50.135 53.2729C50.135 53.2679 50.0439 53.2654 49.9328 53.2679C49.8204 53.2691 49.7168 53.2666 49.7031 53.2604C49.6881 53.2554 49.6519 53.2467 49.6232 53.2429C49.5945 53.2392 49.5571 53.2304 49.5409 53.2242C49.5246 53.218 49.5109 53.2142 49.5109 53.218C49.5109 53.2255 49.3162 53.1418 49.2301 53.0969C49.0154 52.9846 48.8044 52.846 48.6434 52.7112C48.5685 52.6488 48.3214 52.4167 48.0942 52.1957C47.5188 51.6366 47.429 51.5504 46.921 51.0711C46.6738 50.8377 46.3543 50.5344 46.2095 50.3971C46.066 50.2611 45.9025 50.1063 45.8476 50.0539C45.7153 49.9291 44.9227 49.169 44.5058 48.7671C44.3236 48.5923 44.029 48.309 43.8505 48.138C43.672 47.967 43.3712 47.6774 43.1828 47.4952C42.7434 47.0721 41.9321 46.292 41.7536 46.1222C41.2269 45.6205 38.481 42.8883 38.3899 42.7759C38.3349 42.7085 38.3125 42.6673 38.2913 42.5987C38.2626 42.5001 38.2563 42.3491 38.2788 42.2542C38.285 42.2242 38.2888 42.198 38.2863 42.1955C38.285 42.193 38.0641 42.4115 37.797 42.6798Z" fill="white"/>
<path d="M71.0355 55.3584C70.7946 55.6005 70.5725 55.7078 70.1044 55.8077C69.8136 55.8701 69.7225 55.8738 68.2958 55.8888C67.9488 55.8926 67.2923 55.9038 66.8355 55.9138C66.0304 55.9313 65.2279 55.9437 63.1472 55.9699C62.598 55.9762 61.7106 55.9887 61.1751 55.9962C60.6397 56.0024 59.8895 56.0099 59.5088 56.0111C58.5902 56.0149 56.2012 56.0036 55.7444 55.9949L55.3812 55.9874L55.2839 55.94C55.179 55.8888 55.0629 55.7827 55.0143 55.6941C54.998 55.6679 54.9818 55.6454 54.9768 55.6454C54.9706 55.6454 54.9668 55.9562 54.9668 56.3344L54.9656 57.0246L55.003 56.966C55.0642 56.8686 55.1678 56.775 55.2676 56.7263C55.3475 56.6864 55.375 56.6801 55.4836 56.6739C55.6346 56.6639 58.9434 56.6901 59.6773 56.7064C60.4237 56.7238 62.1225 56.7663 62.3734 56.775C62.4907 56.7787 62.92 56.79 63.3282 56.8C64.9733 56.8399 65.4413 56.8536 66.8355 56.8998C68.1835 56.9448 68.5055 56.9535 69.0322 56.9622C69.5627 56.971 69.8211 56.9909 70.0682 57.0459C70.5587 57.1519 70.8034 57.2743 71.0405 57.5276C71.1092 57.6013 71.1678 57.6574 71.1703 57.6549C71.1816 57.6425 71.194 55.2211 71.1828 55.2211C71.1778 55.2211 71.1104 55.2835 71.0355 55.3584Z" fill="white"/>
<path d="M32.3551 56.4965C32.3601 57.1643 32.3664 57.7135 32.3701 57.7172C32.3726 57.7197 32.4313 57.6635 32.4999 57.5899C32.7371 57.3365 32.9817 57.2142 33.4722 57.1081C33.7194 57.0532 33.9777 57.0332 34.5082 57.0245C35.0349 57.0157 35.3569 57.007 36.7049 56.9621C38.0991 56.9159 38.5672 56.9022 40.2122 56.8622C40.6204 56.8522 41.051 56.841 41.1671 56.8373C41.418 56.8285 43.1167 56.7861 43.8631 56.7686C44.597 56.7524 47.9059 56.7262 48.0569 56.7362C48.1655 56.7424 48.1929 56.7486 48.2728 56.7886C48.3727 56.8373 48.4763 56.9309 48.5374 57.0282L48.5749 57.0869L48.5736 56.3967C48.5736 56.0185 48.5699 55.7077 48.5636 55.7077C48.5586 55.7077 48.5424 55.7301 48.5262 55.7564C48.4775 55.845 48.3614 55.9511 48.2566 56.0022L48.1592 56.0497L47.796 56.0572C47.3392 56.0659 44.9502 56.0771 44.0316 56.0734C43.6509 56.0721 42.9008 56.0647 42.3653 56.0584C41.8299 56.0509 40.9424 56.0384 40.3932 56.0322C38.3126 56.006 37.51 55.9935 36.7049 55.976C36.2481 55.966 35.5916 55.9548 35.2446 55.9511C33.818 55.9361 33.7269 55.9323 33.436 55.8699C32.968 55.7701 32.7458 55.6627 32.5049 55.4206C32.43 55.3457 32.3626 55.2833 32.3576 55.2833C32.3514 55.2833 32.3501 55.8025 32.3551 56.4965Z" fill="white"/>
<path d="M51.5954 55.8152C51.4219 55.8614 51.2696 55.9824 51.1984 56.1322C51.1498 56.2358 51.1335 56.3032 51.1335 56.413C51.1335 56.5965 51.1922 56.7301 51.332 56.8699C51.4106 56.9473 51.4456 56.971 51.5267 57.0059C51.6128 57.0421 51.644 57.0484 51.7539 57.0533C51.9099 57.0596 52.0147 57.0321 52.1296 56.956C52.3006 56.8412 52.3942 56.6589 52.3942 56.443C52.3929 56.2608 52.3368 56.1247 52.2082 55.9962C52.0397 55.8264 51.8088 55.7578 51.5954 55.8152Z" fill="white"/>
<path d="M48.7721 57.9159C48.7771 58.0869 48.7734 58.1319 48.7496 58.2417C48.671 58.6049 48.3927 59.0705 48.0195 59.4649C47.6051 59.903 47.1033 60.4459 46.473 61.1374C46.3757 61.2435 46.2296 61.4033 46.1473 61.4931C46.0649 61.583 45.9188 61.7428 45.8227 61.8489C45.6168 62.0748 45.2798 62.4405 44.8629 62.8898C44.6969 63.0683 44.4835 63.2992 44.3874 63.4028C44.2913 63.5077 44.1115 63.7011 43.988 63.8334C43.8644 63.967 43.6847 64.1604 43.5898 64.2628C43.4937 64.3664 43.2802 64.5973 43.1155 64.7745C42.9495 64.953 42.7361 65.1839 42.6399 65.2875C42.5438 65.3911 42.3304 65.622 42.1656 65.7993C42.0009 65.9765 41.8237 66.1675 41.7725 66.2236C41.4517 66.5719 41.0935 66.9501 39.9689 68.1208C39.6332 68.4716 39.1801 68.9421 38.9641 69.168C38.7482 69.3939 38.5348 69.6086 38.4898 69.6448C38.3725 69.7434 38.3026 69.7671 38.1341 69.7684C38.0592 69.7684 37.9744 69.7634 37.9469 69.7584L37.897 69.7484L37.9781 69.8258C38.023 69.8695 38.2028 70.0417 38.3775 70.2115C38.7732 70.5934 38.8955 70.7095 38.8967 70.707C38.898 70.7057 38.8917 70.6646 38.883 70.6171C38.8668 70.5347 38.8655 70.3987 38.8805 70.3425C38.923 70.1828 38.9729 70.1154 39.2887 69.7933C39.4097 69.6698 39.8503 69.2142 40.2685 68.7823C40.6866 68.3492 41.2008 67.8188 41.4118 67.6028C41.8761 67.1248 46.0187 62.9897 47.2831 61.7403C47.7848 61.2448 48.3515 60.6818 48.5437 60.4884C49.0704 59.9579 49.2614 59.8006 49.6046 59.6134C49.8817 59.4624 50.0053 59.4275 50.3148 59.4162L50.5382 59.4087L49.8905 58.7847C49.5347 58.4414 49.1403 58.0607 49.0143 57.9384C48.8882 57.8173 48.7809 57.7175 48.7759 57.7175C48.7709 57.7175 48.7696 57.8061 48.7721 57.9159Z" fill="white"/>
<path d="M54.2228 58.2817C53.9207 58.57 53.5263 58.947 53.3466 59.1192C53.1656 59.2902 53.0183 59.435 53.0183 59.44C53.0183 59.445 53.1057 59.45 53.213 59.4512C53.5101 59.4537 53.6673 59.4974 53.9594 59.6609C54.1304 59.757 54.3401 59.9018 54.4549 60.0017C54.6571 60.1801 61.2224 66.7567 61.9676 67.528C63.1595 68.7624 64.4314 70.0917 64.4976 70.1729C64.6211 70.3239 64.6636 70.4986 64.6224 70.6921C64.6124 70.7395 64.6049 70.7807 64.6074 70.7832C64.6099 70.7857 65.4474 69.9906 65.5872 69.8533C65.6034 69.8371 65.5997 69.8359 65.5498 69.8446C65.4886 69.8558 65.3101 69.8583 65.2689 69.8483C65.0942 69.8059 65.0355 69.7622 64.7322 69.4427C64.4901 69.1856 62.8775 67.4918 62.5292 67.1286C62.2946 66.8815 62.0399 66.6081 61.5557 66.0802C61.4084 65.9192 61.1887 65.6808 61.0676 65.5497C60.8118 65.2726 60.1827 64.5899 59.958 64.3452C59.8719 64.2516 59.6809 64.0432 59.5324 63.8822C59.3851 63.7212 59.1917 63.5115 59.1018 63.4141C59.0132 63.318 58.8172 63.1046 58.6662 62.9411C58.1495 62.3794 57.8849 62.0886 57.3868 61.5381C57.3219 61.4657 57.2059 61.3397 57.131 61.2561C57.0548 61.1737 56.8901 60.9914 56.7628 60.8504C56.5431 60.6058 56.2772 60.3174 55.6894 59.6834C55.275 59.2365 55.1214 59.0306 54.9567 58.7011C54.8706 58.5288 54.8344 58.4302 54.8019 58.2817C54.7782 58.1756 54.7757 58.1344 54.7819 57.9572C54.7857 57.8461 54.7857 57.755 54.7807 57.755C54.7757 57.755 54.5248 57.9921 54.2228 58.2817Z" fill="white"/>
<path d="M51.0712 59.5699C51.0712 59.5723 51.0987 59.5923 51.1324 59.6135C51.2272 59.6747 51.3171 59.7783 51.3683 59.8856L51.4145 59.983L51.4182 61.8964L51.4207 63.8086L51.3583 67.0575C51.3233 68.8436 51.2821 70.8144 51.2647 71.4373C51.2472 72.0589 51.2285 72.9188 51.221 73.3469C51.2073 74.2281 51.196 74.4141 51.1436 74.6613C51.0388 75.158 50.9314 75.3802 50.6718 75.6373L50.5308 75.7783L51.1449 75.7808C51.4819 75.7833 52.0335 75.7833 52.3705 75.7808L52.9846 75.7783L52.8436 75.6373C52.584 75.3802 52.4766 75.158 52.3718 74.6613C52.3194 74.4141 52.3081 74.2281 52.2944 73.3469C52.2869 72.9188 52.2682 72.0589 52.2507 71.4373C52.2332 70.8144 52.1921 68.8436 52.1571 67.0575L52.0947 63.8086L52.0972 61.8964L52.1009 59.983L52.1471 59.8856C52.1983 59.7783 52.2882 59.6747 52.383 59.6135C52.4167 59.5923 52.4442 59.5723 52.4442 59.5699C52.4442 59.5674 52.1359 59.5649 51.7577 59.5649C51.3808 59.5649 51.0712 59.5674 51.0712 59.5699Z" fill="white"/>
<path d="M36.4679 71.4421C36.2944 71.4883 36.1422 71.6094 36.071 71.7592C36.0223 71.8628 36.0061 71.9302 36.0061 72.04C36.0061 72.2235 36.0648 72.357 36.2046 72.4968C36.2832 72.5742 36.3181 72.5979 36.3993 72.6329C36.4854 72.6691 36.5166 72.6753 36.6264 72.6803C36.7825 72.6865 36.8873 72.6591 37.0021 72.5829C37.1731 72.4681 37.2667 72.2859 37.2667 72.07C37.2655 71.8877 37.2093 71.7517 37.0808 71.6231C36.9123 71.4534 36.6814 71.3847 36.4679 71.4421Z" fill="white"/>
<path d="M66.7593 71.5295C66.4548 71.5819 66.2239 71.8552 66.2239 72.1635C66.2239 72.347 66.2738 72.4706 66.3986 72.5966C66.5334 72.7339 66.6832 72.7913 66.8729 72.7789C67.4808 72.7402 67.7092 71.9613 67.2124 71.6193C67.0951 71.5382 66.9166 71.5032 66.7593 71.5295Z" fill="white"/>
<path d="M42.9518 85.6324C41.8747 86.3364 40.9773 86.9242 40.9585 86.938L40.9236 86.9629V87.9265C40.9236 88.8901 40.9323 89.1447 40.9673 89.3694C41.0784 90.0583 41.4366 90.6874 41.9571 91.1043C42.0157 91.1505 42.4376 91.4301 42.8944 91.7246C43.3512 92.0179 43.7656 92.2875 43.8131 92.3225C44.0377 92.4872 44.2537 92.7157 44.4197 92.964C44.5233 93.1188 44.6718 93.4171 44.7342 93.5969C44.7879 93.7479 44.8465 93.9838 44.8752 94.1635C44.894 94.2758 44.8977 94.4144 44.9014 95.1496L44.9064 96.0045L44.3423 96.3727C44.0327 96.5749 43.7719 96.7447 43.7631 96.7497C43.7419 96.7622 43.5085 96.5824 43.3787 96.4539C43.164 96.2392 43.0192 96.0345 42.8769 95.7462C42.696 95.3792 42.5936 94.9835 42.5724 94.5742L42.5649 94.4144L41.7474 94.9536L40.9298 95.494L40.9336 95.6114C40.9598 96.4052 41.338 97.1928 41.9171 97.6596C41.9645 97.6983 42.1218 97.8094 42.2666 97.9067L42.5287 98.0852L44.532 96.7821L46.534 95.4803V94.357C46.534 93.1288 46.5353 93.1513 46.4566 92.8292C46.3094 92.2164 45.9461 91.6497 45.4793 91.2965C45.4144 91.2478 44.9963 90.9732 44.5495 90.6862C44.1039 90.3991 43.6995 90.1357 43.6508 90.1008C43.0791 89.6789 42.6835 88.9675 42.5899 88.1911C42.5736 88.0563 42.5711 87.8916 42.5736 87.2238L42.5774 86.42L43.144 86.048C43.4561 85.8433 43.7157 85.6761 43.7207 85.6761C43.7269 85.6761 43.7881 85.7198 43.8592 85.7722C44.1738 86.0081 44.4222 86.3201 44.6131 86.7183C44.7816 87.0678 44.874 87.4397 44.9027 87.8828L44.9114 88.0114L45.7227 87.4759L46.534 86.9417L46.5378 86.8668C46.544 86.7632 46.519 86.5336 46.4841 86.3563C46.3568 85.721 46.0123 85.1331 45.548 84.7624C45.4531 84.6863 44.9451 84.353 44.9239 84.353C44.9177 84.353 44.0302 84.9284 42.9518 85.6324Z" fill="white"/>
<path d="M65.4533 84.6252C65.371 84.6776 65.029 84.9098 64.6957 85.1394L64.0891 85.5576V91.8195V98.0828H64.8567H65.6243V96.2617V94.4394L65.6718 94.4457C65.7379 94.4556 65.7766 94.5006 66.1648 95.0186C66.4506 95.398 68.3927 97.9804 68.4027 97.9929C68.4127 98.0066 68.6486 97.8593 69.2315 97.4737C69.7932 97.1017 69.8868 97.0343 69.8905 97.0069C69.893 96.9819 69.8656 96.9345 69.7782 96.8121C69.6509 96.6349 69.6846 96.6748 68.1369 94.8413C67.3805 93.9451 67.0597 93.557 67.0597 93.537C67.061 93.5133 67.2569 93.376 68.2143 92.7294C68.8496 92.3013 69.375 91.9431 69.3825 91.9344C69.4025 91.9107 69.39 91.847 69.3476 91.7596C69.2877 91.6348 68.6361 90.8198 68.0982 90.1982C67.6501 89.6777 67.5652 89.5878 67.2607 89.2958C66.9274 88.9763 66.9224 88.9713 66.87 88.9713C66.8088 88.9713 66.835 88.9563 66.1136 89.4231C65.8515 89.5928 65.6331 89.7326 65.6306 89.7326C65.6268 89.7326 65.6243 88.5619 65.6243 87.1302C65.6243 85.6986 65.6206 84.5278 65.6156 84.5278C65.6094 84.5278 65.537 84.5715 65.4533 84.6252ZM65.8465 90.3367C65.9514 90.4291 66.0275 90.5265 66.7602 91.4988C67.3942 92.34 67.5577 92.5659 67.5527 92.5872C67.549 92.6021 67.5415 92.6271 67.5353 92.6433C67.5278 92.662 67.2831 92.8405 66.8575 93.1363C66.4906 93.3922 66.0899 93.6793 65.9663 93.7741L65.7429 93.9489L65.6842 93.9189L65.6243 93.889V92.0529V90.2169L65.678 90.2257C65.7204 90.2331 65.7529 90.2556 65.8465 90.3367Z" fill="white"/>
<path d="M34.8504 87.4061C34.8242 87.4248 34.4997 87.6582 34.1302 87.9266L33.46 88.4146L33.4637 92.184C33.4674 95.9547 33.4674 95.9547 33.4937 96.0795C33.5074 96.1481 33.5486 96.2992 33.5848 96.4165C33.6397 96.5937 33.6746 96.6786 33.7982 96.927C33.9542 97.239 34.0953 97.4574 34.2525 97.6309C34.3461 97.7333 34.5246 97.8743 34.7056 97.9904C34.8479 98.0815 34.8504 98.0828 34.9328 98.0828C35.0152 98.0828 35.0164 98.0815 35.1662 97.9854C35.4533 97.8019 36.5429 97.053 36.5491 97.0356C36.5591 97.0106 36.5204 96.9881 36.4393 96.9719C36.2845 96.942 35.985 96.7959 35.7753 96.6499C35.482 96.4439 35.1924 96.0558 35.0701 95.705C35.0039 95.5141 34.9977 95.4779 34.9702 95.0884C34.9465 94.7677 34.9453 94.6104 34.9453 92.6758V90.6063H35.0563H35.1674L35.2149 90.5402C35.6679 89.9111 36.0923 89.3033 36.1035 89.2708C36.1285 89.2022 36.1223 89.1722 36.0848 89.1635C36.0661 89.1585 35.8027 89.1585 35.4982 89.1622L34.9453 89.171V88.2723C34.9453 87.4048 34.944 87.3736 34.9215 87.3736C34.9091 87.3736 34.8766 87.3886 34.8504 87.4061Z" fill="white"/>
<path d="M61.8176 89.3145C61.4781 89.5704 61.3446 89.6627 61.2934 89.6815C61.2559 89.6939 61.2148 89.7089 61.2035 89.7139C61.1823 89.7226 61.1811 89.7027 61.1811 89.4019V89.0811L61.0974 89.1285C61.0388 89.161 59.8131 89.9448 59.6733 90.0397C59.6708 90.0409 59.6608 90.1033 59.6496 90.177C59.6321 90.3005 59.6308 90.6313 59.6446 93.6206C59.6521 95.4392 59.6621 97.1878 59.667 97.5049L59.6745 98.0828H60.4272H61.1811L61.1835 94.1124L61.1873 90.1433L61.372 90.313C61.5156 90.4466 61.6104 90.5514 61.8076 90.7923C62.0498 91.0881 62.1871 91.2429 62.207 91.2429C62.227 91.2429 63.5351 90.3193 63.5763 90.2768C63.6187 90.2331 63.6199 90.2319 63.6 90.192C63.5538 90.0946 62.8136 89.292 62.5653 89.0686L62.4567 88.9713H62.3655H62.2732L61.8176 89.3145Z" fill="white"/>
<path d="M55.9765 89.1112C55.9303 89.1349 54.9393 89.8101 53.6025 90.73L53.3928 90.8735V93.1627V95.4518L53.4565 95.7289C53.5326 96.0596 53.6849 96.5501 53.8022 96.841C53.8771 97.0282 53.9033 97.0756 54.0206 97.2466C54.2141 97.5287 54.3227 97.6323 54.5973 97.7908C54.7146 97.8582 54.8943 97.9518 54.9967 97.9992C55.159 98.0754 55.2114 98.0929 55.3924 98.1328C55.6245 98.184 55.6033 98.1865 55.7231 98.0978C55.9378 97.9381 56.3559 97.6548 56.5257 97.5524C56.7279 97.4313 56.8452 97.3777 56.9351 97.3677L56.9875 97.3614V97.7222V98.0829H57.6677H58.348V94.246V90.4092L58.2893 90.3718C58.2556 90.3518 57.7576 90.056 57.181 89.7165C56.457 89.2896 56.1175 89.0962 56.0826 89.0912C56.0439 89.0849 56.0202 89.0887 55.9765 89.1112ZM55.9578 90.5977L56.9813 91.0633L56.985 94.0613L56.9875 97.0594L56.9039 97.0531C56.618 97.0307 56.4708 97.0219 56.3821 97.0219C56.2611 97.0219 56.1799 96.997 55.959 96.8921C55.7918 96.8135 55.6882 96.7511 55.5521 96.6462C55.4323 96.5551 55.3874 96.5065 55.2875 96.3604C55.0579 96.0272 54.8894 95.6802 54.8582 95.4742C54.8444 95.3881 54.8407 94.8601 54.8407 92.7495V90.1321H54.8881C54.9218 90.1334 55.2064 90.257 55.9578 90.5977Z" fill="white"/>
<path d="M49.6855 89.3095C49.5145 89.4231 48.9341 89.7651 48.8705 89.7901C48.8592 89.7938 48.8368 89.7751 48.8056 89.7327L48.7581 89.6678L48.7731 89.4905C48.7819 89.3944 48.7906 89.2996 48.7943 89.2796C48.7981 89.2609 48.7956 89.2459 48.7881 89.2459C48.7819 89.2459 48.4411 89.4406 48.0317 89.679L47.2891 90.1109V96.092V102.074L47.3303 102.081C47.3515 102.084 47.4251 102.096 47.4925 102.103C47.5936 102.116 47.6173 102.116 47.6261 102.102C47.6336 102.089 47.7247 102.087 48.1116 102.092L48.5871 102.098V99.8851C48.5871 98.6669 48.5896 97.6709 48.5934 97.6709C48.5959 97.6709 48.6421 97.6884 48.6945 97.7084C48.7744 97.7408 48.8218 97.7733 48.9903 97.9143L49.1912 98.0828H49.4197H49.6481L50.9624 97.2066L52.2779 96.3291L52.2867 95.6801C52.2904 95.3231 52.3004 94.422 52.3079 93.6793L52.3204 92.3263L52.2817 91.9319C52.2467 91.5712 52.2367 91.51 52.1743 91.2404C52.0857 90.8647 51.9534 90.5028 51.8236 90.2881C51.6401 89.986 51.4716 89.7863 51.2457 89.6029C51.1146 89.498 51.0847 89.4843 50.6591 89.337C50.2597 89.1985 50.226 89.1897 50.035 89.1797L49.8915 89.1722L49.6855 89.3095ZM49.4346 90.2269L49.6393 90.2981L50.015 90.5827L50.3907 90.8672L50.5605 91.2205L50.7315 91.5737L50.8213 92.0105L50.9112 92.4474L50.9324 94.6441L50.9536 96.8409L50.9249 96.8933C50.9087 96.922 50.8775 96.9607 50.8538 96.9782C50.8151 97.0081 50.8051 97.0094 50.6516 97.0094C50.518 97.0081 50.4581 97.0019 50.2971 96.967C50.1061 96.927 50.0999 96.9245 49.8166 96.7822L49.5295 96.6374L49.3785 96.4827C49.2961 96.399 49.18 96.2667 49.1226 96.1918C49.0202 96.0595 49.014 96.0471 48.9379 95.8374C48.8642 95.6339 48.8555 95.6002 48.818 95.3444L48.7756 95.0685L48.7669 92.6508L48.7581 90.2344L48.7956 90.1857L48.8343 90.1383L49.0315 90.1471C49.2299 90.157 49.2299 90.157 49.4346 90.2269Z" fill="white"/>
<path d="M37.65 92.5995C37.6188 92.6357 36.6178 94.0648 36.5978 94.1023C36.5878 94.121 36.5803 94.141 36.5803 94.1447C36.5803 94.1485 37.1432 94.1497 37.831 94.1485L39.0816 94.1447L39.6083 93.3709C39.8992 92.9452 40.1363 92.5933 40.1363 92.587C40.1376 92.582 39.5821 92.5783 38.9044 92.5783C37.7448 92.5783 37.6687 92.5795 37.65 92.5995Z" fill="white"/>
<defs>
<filter id="filter0_f_1074_654" x="10.5" y="10.5" width="82.6807" height="113.222" filterUnits="userSpaceOnUse" color-interpolation-filters="sRGB">
<feFlood flood-opacity="0" result="BackgroundImageFix"/>
<feBlend mode="normal" in="SourceGraphic" in2="BackgroundImageFix" result="shape"/>
<feGaussianBlur stdDeviation="5" result="effect1_foregroundBlur_1074_654"/>
</filter>
<filter id="filter1_f_1074_654" x="0.5" y="0.5" width="102.681" height="133.222" filterUnits="userSpaceOnUse" color-interpolation-filters="sRGB">
<feFlood flood-opacity="0" result="BackgroundImageFix"/>
<feBlend mode="normal" in="SourceGraphic" in2="BackgroundImageFix" result="shape"/>
<feGaussianBlur stdDeviation="10" result="effect1_foregroundBlur_1074_654"/>
</filter>
</defs>
</svg>
