<svg width="58" height="49" viewBox="0 0 58 49" fill="none" xmlns="http://www.w3.org/2000/svg">
<path d="M46.542 10.3422C46.5421 10.3422 46.5421 10.3422 46.542 10.3422C46.5411 10.3423 46.5284 10.3435 46.5071 10.3412C46.4853 10.3389 46.452 10.3325 46.413 10.3156C46.3239 10.2769 46.2621 10.2087 46.2288 10.1435C46.2283 10.1424 46.2277 10.1413 46.2272 10.1402C46.2168 10.1193 46.2104 10.1009 46.2066 10.0873C46.216 10.0069 46.2426 9.95146 46.2484 9.93951L46.2489 9.93837C46.2568 9.92177 46.2643 9.90887 46.2693 9.90072L46.542 10.3422ZM46.542 10.3422C45.7111 11.2299 41.6914 14.9975 35.0115 21.1521L46.542 10.3422ZM7.89502 26.273L7.89531 26.2731C10.7333 27.2341 12.4303 27.7986 13.4463 28.1085C13.9568 28.2642 14.2797 28.3508 14.4833 28.392C14.5438 28.4042 14.5879 28.4112 14.619 28.4151C14.7133 28.3575 14.8646 28.2656 15.0615 28.146C15.7252 27.743 16.9072 27.0252 18.1713 26.244L18.1747 26.2419C19.2486 25.5901 22.0255 23.891 25.471 21.7829C28.02 20.2232 30.9349 18.4397 33.7969 16.6907L33.7969 16.6907C40.0676 12.86 43.2428 10.9243 44.8476 10.0407C45.2499 9.81913 45.5638 9.65802 45.8083 9.54851C46.0399 9.44479 46.2552 9.3656 46.444 9.34702C46.5438 9.3372 46.6764 9.33975 46.8114 9.39837C46.9606 9.46318 47.0627 9.57458 47.1226 9.69501C47.1754 9.8012 47.1906 9.90428 47.1969 9.96795C47.2033 10.0338 47.2033 10.0999 47.2033 10.1435C47.2033 10.2603 47.1621 10.3467 47.152 10.3678L47.1516 10.3686C47.1354 10.4027 47.1182 10.4298 47.1073 10.4461C47.0849 10.4798 47.0599 10.5112 47.0394 10.5359C46.9966 10.5874 46.9394 10.65 46.873 10.7201C46.7383 10.8621 46.5414 11.0596 46.2868 11.309C45.7762 11.809 45.0188 12.5316 44.028 13.4644C42.0457 15.3305 39.1212 18.0454 35.3503 21.5198L35.35 21.5201C32.134 24.4783 29.1758 27.2045 26.9991 29.2136C25.9108 30.2182 25.0179 31.0434 24.3859 31.6286C24.0699 31.9213 23.8194 32.1537 23.6423 32.3186C23.5537 32.401 23.4839 32.4662 23.4336 32.5134L23.3738 32.5698L23.3565 32.5863C23.3185 32.6277 23.3109 32.6382 23.2926 32.694C23.2603 32.7926 23.2218 32.9823 23.1752 33.3933C23.0833 34.2047 22.9747 35.7268 22.7615 38.7439C22.6133 40.9088 22.5169 42.47 22.4689 43.5193C22.4448 44.0447 22.4331 44.436 22.4328 44.7082C22.4326 44.8449 22.4352 44.9448 22.4398 45.0136C22.4418 45.0449 22.444 45.0638 22.4452 45.0732C22.4714 45.1371 22.5435 45.2253 22.6635 45.2909C22.7595 45.3433 22.8372 45.3552 22.8835 45.3541C22.8879 45.3507 22.8926 45.347 22.8977 45.343C22.9561 45.2969 23.04 45.2263 23.1493 45.1308C23.3666 44.9407 23.6667 44.6673 24.0295 44.3293C24.7541 43.6544 25.718 42.7323 26.7476 41.7285C27.7797 40.7222 28.7285 39.8056 29.4264 39.1401C29.775 38.8076 30.0625 38.5363 30.2668 38.3475C30.3685 38.2536 30.4524 38.1775 30.514 38.1237C30.544 38.0975 30.5738 38.0721 30.6 38.0516C30.612 38.0421 30.6313 38.0272 30.6537 38.0125C30.6642 38.0056 30.6853 37.9922 30.7127 37.9786L30.7137 37.9781C30.7247 37.9724 30.8156 37.9255 30.9381 37.9255C31.0159 37.9255 31.0749 37.9441 31.0918 37.9495C31.1169 37.9575 31.1366 37.9659 31.1477 37.9709C31.1701 37.9809 31.1882 37.9909 31.1979 37.9964C31.2188 38.0081 31.2394 38.021 31.2557 38.0316C31.29 38.0537 31.3337 38.0835 31.3836 38.1182C31.4845 38.1885 31.6266 38.2904 31.8037 38.419C32.1587 38.6769 32.6629 39.0488 33.2782 39.5069C34.5092 40.4233 36.1896 41.6877 38.0212 43.0807C39.8505 44.472 41.5668 45.7632 42.8558 46.7224C43.5005 47.202 44.0374 47.598 44.4277 47.8816C44.6231 48.0235 44.7803 48.1362 44.8953 48.2169C44.9936 48.2858 45.044 48.319 45.0608 48.33C45.0661 48.3335 45.0681 48.3348 45.067 48.3343C45.4205 48.5203 45.8828 48.5518 46.348 48.4185C46.8018 48.2885 47.2174 48.0124 47.4873 47.639C47.4898 47.6326 47.4933 47.6237 47.4976 47.6117C47.514 47.5668 47.5361 47.4992 47.5645 47.4035C47.621 47.2128 47.6962 46.9331 47.7935 46.5471C47.9879 45.7763 48.2656 44.6017 48.6522 42.9112C49.4251 39.5314 50.63 34.1032 52.4669 25.7498L52.467 25.7493C53.7817 19.8008 54.974 14.3488 55.8375 10.3584C56.2692 8.36311 56.6187 6.73376 56.8601 5.59069C56.9809 5.01898 57.0744 4.56994 57.1377 4.25794C57.1693 4.10166 57.1931 3.98153 57.2087 3.89821C57.2161 3.8586 57.2213 3.82961 57.2246 3.81001C57.217 3.2106 56.9812 2.68205 56.4044 2.10528L56.4022 2.10301C55.9504 1.64542 55.5322 1.41133 55.0886 1.32987C54.6367 1.2469 54.0964 1.31074 53.3818 1.56495C52.9641 1.71615 43.6702 5.27656 31.8068 9.82127C30.1762 10.4459 28.497 11.0892 26.7857 11.7448C18.8454 14.7868 12.3753 17.2808 7.86643 19.0367C5.61179 19.9147 3.84869 20.6077 2.63775 21.0922C2.03192 21.3347 1.56638 21.524 1.24727 21.658C1.0872 21.7252 0.967381 21.777 0.886317 21.8139C0.865036 21.8235 0.847665 21.8316 0.833777 21.8383C0.731361 21.9504 0.633813 22.1268 0.569854 22.3501C0.499897 22.5943 0.482084 22.8541 0.518244 23.0731C0.570519 23.3368 0.597363 23.4167 0.661858 23.4971C0.737891 23.5919 0.909131 23.7319 1.37935 23.9503C2.31903 24.3866 4.15736 25.0098 7.89502 26.273ZM14.6759 28.4192C14.6758 28.4191 14.6739 28.4191 14.6705 28.4193C14.6743 28.4194 14.676 28.4193 14.6759 28.4192ZM46.2013 10.0625C46.2013 10.0628 46.2014 10.0638 46.2016 10.0654C46.2016 10.0652 46.2016 10.0651 46.2016 10.065C46.2014 10.0629 46.2012 10.0621 46.2013 10.0625Z" fill="#FFB904" stroke="#FFB904"/>
</svg>
