<svg width="1950" height="1186" viewBox="0 0 1950 1186" fill="none" xmlns="http://www.w3.org/2000/svg">
<g opacity="0.07">
<path fill-rule="evenodd" clip-rule="evenodd" d="M44.3094 272.96L4.26723 234.387L3.51172 233.631V248.757L38.2653 283.548H97.1953L192.39 189.008L234.699 187.496V234.387L184.079 283.548H110.795L97.1953 297.162H26.1771L3.51172 272.96V518.763L45.8204 564.898L119.861 563.386L147.059 537.671V487.754L180.302 453.72H207.5L228.69 432.507L235.454 425.736H258.119L318.56 487.754V536.915H289.851L243.126 584.988L235.454 592.882V618.597L217.455 636.995L163.68 691.96H132.704L117.594 705.574H3.51172V719.944H163.68L335.182 549.772V490.023L451.19 373.304L484.773 339.516L638.142 338.003L699.339 277.497L700.85 187.496L751.083 136.813L796.8 90.6869H765.824L669.874 187.496V271.447L626.81 316.07H520.19H345.003L261.897 234.387V189.008L234.699 164.05H197.678L87.3736 272.96H44.3094Z" fill="#6F27D4" fill-opacity="0.75"/>
<path d="M487.04 1023.98H428.865L304.961 1149.84L274.741 1180.54H304.961C339.211 1144.99 408.164 1073.9 409.977 1073.9H475.707L610.188 940.032V968.772L447.753 1132.14V1157.1L469.663 1180.54H656.275V1094.32L628.321 1066.34V1006.59L676.599 958.723L706.894 928.688H854.19H925.993L967.546 971.798H1086.16L1232.73 1117.77V1182.81H1819.01L1716.26 1081.46H1679.99L1618.8 1017.93H1527.38H1476.76L1450.32 1045.92H1329.44L1266.73 983.899V925.072V885.577L1374.01 780.449V698.01L1355.88 680.615V633.723L1421.61 567.924H1460.9L1527.38 635.992V707.086L1599.91 780.449H1841.67L1883.98 821.29V860.318V886.334L1939.13 939.276V826.585L1880.96 769.861H1673.95L1482.05 577V503.637L1501.69 483.972V431.03L1522.85 452.963V544.478L1602.18 624.648V665.489L1686.04 748.684H1880.96L1939.13 806.164V708.599L1907.4 676.077H1841.67L1828.83 689.691H1804.65L1778.97 663.976V635.236L1896.07 518.007V498.342L1939.13 455.232V310.019L1704.17 544.478H1643.73L1508.49 409.853V365.234V89.1742H1453.96L1424.63 118.5V188.252L1335.48 277.497H1200.24L1138.29 338.003V670.027L912.393 897.678H667.69H613.21L559.361 951.585L487.04 1023.98Z" fill="#6F27D4" fill-opacity="0.75"/>
<path d="M1545.51 89.1742C1545.51 89.1742 1545.26 241.194 1545.51 313.801L1593.11 359.18H1642.97L1691.09 311.674L1753.28 250.27V175.07L1839.17 89.1742L1814 71H1774.5H1567.5H1563.69L1545.51 89.1742Z" fill="#6F27D4" fill-opacity="0.75"/>
<path d="M475.707 1073.9L610.188 940.032V968.772L447.753 1132.14V1157.1L469.663 1180.54H656.275V1094.32L628.321 1066.34V1006.59L676.599 958.723M475.707 1073.9C454.553 1073.9 411.791 1073.9 409.977 1073.9M475.707 1073.9H409.977M409.977 1073.9C408.164 1073.9 339.211 1144.99 304.961 1180.54H274.741L304.961 1149.84M228.69 432.507L235.454 425.736H258.119L318.56 487.754V536.915H289.851L243.126 584.988M228.69 432.507L207.5 453.72H180.302L147.059 487.754V537.671L119.861 563.386L45.8204 564.898L3.51172 518.763V272.96L26.1771 297.162H97.1953L110.795 283.548H184.079L234.699 234.387V187.496L192.39 189.008L97.1953 283.548H38.2653L3.51172 248.757V233.631L4.26723 234.387L44.3094 272.96H87.3736L197.678 164.05H234.699L261.897 189.008V234.387L345.003 316.07H520.19M228.69 432.507L247.69 450.383V529.922L226.69 552.867V569.182L243.126 584.988M243.126 584.988L235.454 592.882V618.597L217.455 636.995M217.455 636.995L163.68 691.96H132.704L117.594 705.574H3.51172V719.944H163.68L335.182 549.772V490.023L451.19 373.304M217.455 636.995H96.1899L58.6899 674.216H35.6899L3.51172 641.074M3.51172 175.563L25.1899 201.056H43.6899L52.6899 213.293H81.1899L145.19 149.05V88.3751H233.19L269.69 125.086H293.19L333.19 166.385V201.056L392.69 262.751H434.19M520.19 316.07H626.81L669.874 271.447V187.496L765.824 90.6869H796.8L751.083 136.813M520.19 316.07V166.385L566.19 124.066H592.69L649.69 69H693.5L759.69 2.81055H887.5M3.51172 836.354H145.69L180.69 867.456H254.19L362.19 757.834V636.995L451.19 549.772V373.304M451.19 373.304L484.773 339.516L638.142 338.003L699.339 277.497L700.85 187.496L751.083 136.813M522.19 614.561L601.69 541.14V450.383L636.19 419.281H759.69L805.69 375.942V183.211L751.083 136.813M1149.69 183.211L1026.69 308.129V652.291L940.69 743.558V780.449L912.393 808.821H755.69L667.69 897.678M667.69 897.678H613.21L559.361 951.585M667.69 897.678H912.393L1138.29 670.027V338.003L1200.24 277.497H1335.48L1424.63 188.252V118.5L1453.96 89.1742H1508.49V365.234M304.961 1149.84L428.865 1023.98H487.04L559.361 951.585M304.961 1149.84V1023.98L331.19 998.493H369.69L416.19 951.585H559.361M672.19 1180.54V1132.14L738.19 1066.34V1023.98L676.599 958.723M676.599 958.723L706.894 928.688H854.19M738.19 1180.54L804.19 1112.7H829.69L865.69 1073.9H999.69L1076.69 1149.41M1196.69 1182.81L1098.19 1083.64V1054.58L1042.19 999.003H925.993L854.19 928.688M854.19 928.688H925.993L967.546 971.798H1086.16L1232.73 1117.77V1182.81H1819.01L1716.26 1081.46H1679.99L1618.8 1017.93H1527.38M1922.69 1182.81L1819.01 1081.46V1045.92L1772.69 1001.55H1716.26L1660.69 945.466H1599.91L1527.38 1017.93M1527.38 1017.93H1476.76L1450.32 1045.92H1329.44L1266.73 983.899V925.072M1592.19 860.318C1625.86 861.168 1693.99 862.358 1697.19 860.318C1700.39 858.279 1724.86 833.45 1736.69 821.29H1786.69L1828.83 860.318H1883.98M1883.98 860.318V886.334L1939.13 939.276V826.585L1880.96 769.861H1673.95L1482.05 577V503.637L1501.69 483.972V431.03L1522.85 452.963V544.478L1602.18 624.648V665.489L1686.04 748.684H1880.96L1939.13 806.164V708.599L1907.4 676.077H1841.67L1828.83 689.691H1804.65L1778.97 663.976V635.236L1896.07 518.007V498.342L1939.13 455.232V310.019L1704.17 544.478H1643.73L1508.49 409.853V365.234M1883.98 860.318V821.29L1841.67 780.449H1599.91L1527.38 707.086V635.992L1460.9 567.924H1421.61L1355.88 633.723V680.615L1374.01 698.01V780.449L1266.73 885.577V925.072M1433.69 609.972L1482.05 655.86V860.318L1453.19 885.577H1417.69L1394.19 860.318H1374.01L1305.69 925.072H1266.73M1833.19 651.781L1885.19 600.284V572.242L1939.13 518.007M1666.69 502.899H1701.19L1760.19 443.244V371.863L1822.19 310.019H1852.19L1948.19 212.783M1508.49 365.234L1553.19 409.853H1589.69L1605.19 427.439H1642.97L1688.69 386.139L1691.09 311.674M1691.09 311.674L1642.97 359.18H1593.11L1545.51 313.801C1545.26 241.194 1545.51 89.1742 1545.51 89.1742L1563.69 71H1567.5H1774.5H1814L1839.17 89.1742L1753.28 175.07V250.27L1691.09 311.674Z" stroke="#6F27D4" stroke-opacity="0.75" stroke-width="5"/>
</g>
<path d="M2 377.477C5.02205 376.267 22.3988 376.973 30.7095 377.477L108.527 298.82H128.171L193.9 363.863C195.411 370.67 197.527 384.435 193.9 385.04C189.367 385.796 128.171 446.302 128.171 449.327C128.171 451.747 128.171 498.74 128.171 521.934L108.527 540.085H57.9079L2 483.361M207.499 285.206L243.008 251.172H261.896L320.071 307.895V326.047L334.426 339.661H450.019M221.854 319.24L256.608 352.518H284.562L304.205 372.939H406.955M161.413 294.282L221.854 352.518H236.209L248.297 366.888V392.603L307.227 453.109H340.47L387.311 406.973M1559.87 85.5379V279.155L1581.78 301.089H1596.13L1632.4 337.392M1615.77 305.627V292.013L1581.78 255.71V152.85C1588.58 144.783 1602.93 128.497 1605.95 127.892C1608.98 127.287 1640.45 127.64 1655.82 127.892L1700.39 81H1742.7M1644.48 292.013L1688.3 248.146H1708.7L1730.61 226.213V149.825L1797.85 81H1742.7M1704.17 233.02V189.154L1693.59 179.321V127.892L1742.7 81M1228.95 283.693L1190.42 321.509V354.787L1204.78 368.401V411.511L1175.31 441.008V621.768M1383.08 337.392C1362.93 358.821 1321.73 401.679 1318.1 401.679C1314.48 401.679 1292.42 401.679 1281.84 401.679L1228.95 453.109V474.285L1204.78 500.757V552.186M1204.78 601.347L1244.82 558.993V507.564L1408.76 343.442V239.071M1540.22 465.966L1565.16 491.681V524.959L1624.09 583.195H1651.28L1673.19 563.531H1736.66L1794.08 506.807V481.092L1941.4 332.854V386.553L1861.32 462.184V516.639L1828.83 547.648V563.531L1749.5 643.701H1724.57L1673.19 590.759M1553.07 547.648L1660.35 655.046V673.954L1709.46 723.871H1799.36L1819.76 704.963H1894.56L1940.65 748.829M1718.52 1182.96L1580.27 1040.01H1495.65L1471.47 1064.97H1318.1L1231.97 980.262M1123.94 980.262H1179.09L1231.97 1031.69V1075.56L1256.15 1099.76H1435.96L1476.01 1137.58H1580.27L1624.84 1182.96M1261.44 1182.96L1318.1 1125.48H1417.83L1448.81 1155.73M665.34 935.64L607.921 995.389V1081.61L641.919 1114.13V1182.2C618.779 1182.2 577.318 1182.2 550.502 1182.2M566.368 1030.94V1058.92L539.169 1086.9H517.26L487.795 1114.13V1150.43C496.861 1161.02 515.446 1182.2 517.26 1182.2C518.005 1182.2 531.792 1182.2 550.502 1182.2M618.498 1126.23C614.872 1125.63 601.373 1125.98 595.077 1126.23L566.368 1098.25H548.236L519.526 1126.23V1150.43L550.502 1182.2M959.5 914.62L992 882.12V849.62L1092.79 748.829H1141.5L1204.78 685.553M1057 954.62H1148.5L1208.5 894.62V838.62L1269.5 777.62V716.62L1323 663.12" stroke="#07001B" stroke-opacity="0.5" stroke-width="3"/>
</svg>
