<svg width="377" height="241" viewBox="0 0 377 241" fill="none" xmlns="http://www.w3.org/2000/svg">
<path d="M53.2328 96.2686L57.8436 76.9585L63.8412 98.7993L58.8837 117H44.9818L31.2186 70.9956H46.4725L53.2328 96.2686ZM85.7513 117H71.1214L58.5023 70.9956H73.9642L85.7513 117ZM85.89 70.9956H99.8612L87.3807 114.608L81.1405 90.0977L85.89 70.9956ZM124.703 117V89.3696H102.897V84.7935L107.508 80.1826H130.492L139.679 89.3696V117H124.703ZM122.276 95.5752V101.954H114.372V108.402H122.276V112.458L117.7 117H105.982L99.8113 110.933V101.711L105.982 95.5752H122.276ZM168.785 89.3696H162.268V85.3481L167.399 80.1826H176.69L184.143 88.7803V98.314H168.785V89.3696ZM144.483 117V80.1826H159.806V117H144.483ZM186.728 117V80.1826H202.19V117H186.728ZM211.273 89.3696H204.686V85.3481L209.817 80.1826H218.345L226.631 88.4683V117H211.273V89.3696ZM231.642 80.1826H247V117H231.642V80.1826ZM231.642 65.8301H247V75.6064H231.642V65.8301ZM252.151 117V80.1826H267.613V117H252.151ZM276.696 89.3696H270.109V85.3481L275.24 80.1826H283.768L292.053 88.4683V117H276.696V89.3696ZM321.263 89.3696H314.468V80.1826H327.4L336.587 89.3696V120.64L327.4 129.896H307.188L302.577 125.251V121.854H321.263V89.3696ZM318.837 108.402V112.458L314.26 117H305.905L296.718 107.813V89.3696L305.905 80.1826H312.042V108.402H318.837Z" fill="#FFB904"/>
<path fill-rule="evenodd" clip-rule="evenodd" d="M1 28.0566L9.78099 19.0377H170.938L189.017 1H328.479L376 46.5954V218.956L354.306 240H51.1033L1 192.4V28.0566ZM9.78099 23.5472L5.64876 28.0566V150.312L12.3636 158.329V189.895L54.2025 229.979H117.219L121.868 235.491H352.756L367.219 220.96L366.702 44.0901L334.239 13.0252L327.446 6.51153H322.281L319.182 13.0252H310.917L313.5 6.51153H303.169L300.07 13.0252H291.806L294.905 6.51153H284.574L280.959 13.0252H272.694L276.31 6.51153H265.979L261.331 13.0252H252.033L256.682 6.51153H246.351L241.186 13.0252H232.922L238.087 6.51153H227.862L222.18 13.0252H189.017L180.236 22.5451L9.78099 23.5472Z" fill="#FFB800" fill-opacity="0.98"/>
<path d="M58.3347 45.5933L51.6198 36.5744H76.9298L84.1612 45.5933H58.3347Z" fill="#FFB800" fill-opacity="0.98"/>
<path d="M58.3347 45.5933L51.6198 36.5744H76.9298L84.1612 45.5933H58.3347Z" fill="#FFB800" fill-opacity="0.98"/>
<path d="M58.3347 45.5933L51.6198 36.5744H76.9298L84.1612 45.5933H58.3347Z" fill="#FFB800" fill-opacity="0.98"/>
<path d="M51.6198 144.801L58.3347 153.82H84.1612L76.9298 144.801H51.6198Z" fill="#FFB800" fill-opacity="0.98"/>
<path d="M36.6405 144.801V153.82H50.0703L43.8719 144.801H36.6405Z" fill="#FFB800" fill-opacity="0.98"/>
<path d="M36.6405 36.5744V45.5933H50.0703L43.8719 36.5744H36.6405Z" fill="#FFB800" fill-opacity="0.98"/>
<path fill-rule="evenodd" clip-rule="evenodd" d="M188.603 0H328.881L377 46.169V219.379L354.711 241H50.704L0 192.83V27.6502L9.35893 18.0377H170.524L188.603 0ZM189.43 2L171.352 20.0377H10.2031L2 28.463V191.971L51.5026 239H353.9L375 218.533V47.0217L328.077 2H189.43ZM227.407 5.51153H240.156L234.991 12.0252H240.703L245.868 5.51153H258.624L253.975 12.0252H260.816L265.464 5.51153H278.009L274.393 12.0252H280.37L283.986 5.51153H296.488L293.389 12.0252H299.439L302.538 5.51153H314.972L312.39 12.0252H318.55L321.649 5.51153H327.848L334.93 12.3027L334.931 12.3034L367.701 43.6618L368.22 221.372L353.172 236.491H121.403L116.754 230.979H53.8008L11.3636 190.322V158.693L4.64876 150.676V27.6677L9.33862 22.5498L179.795 21.5476L188.578 12.0252H221.725L227.407 5.51153ZM228.316 7.51153L222.634 14.0252H189.455L180.676 23.5425L10.2234 24.5446L6.64876 28.4455V149.949L13.3636 157.966V189.468L54.6042 228.979H117.684L122.333 234.491H352.341L366.218 220.549L365.704 44.5185L333.548 13.7477L333.547 13.7469L327.044 7.51153H322.913L319.813 14.0252H309.445L312.028 7.51153H303.801L300.702 14.0252H290.223L293.322 7.51153H285.163L281.547 14.0252H270.995L274.611 7.51153H266.494L261.845 14.0252H250.091L254.74 7.51153H246.834L241.669 14.0252H230.852L236.018 7.51153H228.316ZM35.6405 35.5744H44.398L51.9709 46.5933H35.6405V35.5744ZM37.6405 37.5744V44.5933H48.1696L43.3458 37.5744H37.6405ZM49.6286 35.5744H77.4097L86.2447 46.5933H57.8325L49.6286 35.5744ZM53.6111 37.5744L58.8369 44.5933H82.0776L76.4498 37.5744H53.6111ZM35.6405 143.801H44.398L51.9709 154.82H35.6405V143.801ZM37.6405 145.801V152.82H48.1696L43.3458 145.801H37.6405ZM49.6286 143.801H77.4097L86.2447 154.82H57.8325L49.6286 143.801ZM53.6111 145.801L58.8369 152.82H82.0776L76.4498 145.801H53.6111Z" fill="#FFB800" fill-opacity="0.98"/>
<path d="M324.714 46L317 37H335V46H324.714Z" fill="#FFB800" fill-opacity="0.98"/>
<path fill-rule="evenodd" clip-rule="evenodd" d="M314.826 36H336V47H324.254L314.826 36ZM319.174 38L325.174 45H334V38H319.174Z" fill="#FFB800" fill-opacity="0.98"/>
<path d="M157.81 46L151 37H176.667L184 46H157.81Z" fill="#FFB800" fill-opacity="0.98"/>
<path fill-rule="evenodd" clip-rule="evenodd" d="M148.989 36H177.142L186.105 47H157.312L148.989 36ZM153.01 38L158.307 45H181.895L176.191 38H153.01Z" fill="#FFB800" fill-opacity="0.98"/>
<path d="M290.603 46L284 37H308.889L316 46H290.603Z" fill="#FFB800" fill-opacity="0.98"/>
<path fill-rule="evenodd" clip-rule="evenodd" d="M282.026 36H309.373L318.064 47H290.096L282.026 36ZM285.974 38L291.11 45H313.935L308.404 38H285.974Z" fill="#FFB800" fill-opacity="0.98"/>
<path d="M256.81 46L250 37H275.667L283 46H256.81Z" fill="#FFB800" fill-opacity="0.98"/>
<path fill-rule="evenodd" clip-rule="evenodd" d="M247.989 36H276.142L285.105 47H256.312L247.989 36ZM252.01 38L257.307 45H280.895L275.191 38H252.01Z" fill="#FFB800" fill-opacity="0.98"/>
<path d="M223.81 46L217 37H242.667L250 46H223.81Z" fill="#FFB800" fill-opacity="0.98"/>
<path fill-rule="evenodd" clip-rule="evenodd" d="M214.989 36H243.142L252.105 47H223.312L214.989 36ZM219.01 38L224.307 45H247.895L242.191 38H219.01Z" fill="#FFB800" fill-opacity="0.98"/>
<path d="M190.81 46L184 37H209.667L217 46H190.81Z" fill="#FFB800" fill-opacity="0.98"/>
<path fill-rule="evenodd" clip-rule="evenodd" d="M181.989 36H210.142L219.105 47H190.312L181.989 36ZM186.01 38L191.307 45H214.895L209.191 38H186.01Z" fill="#FFB800" fill-opacity="0.98"/>
<path d="M124.81 46L118 37H143.667L151 46H124.81Z" fill="#FFB800" fill-opacity="0.98"/>
<path fill-rule="evenodd" clip-rule="evenodd" d="M115.989 36H144.142L153.105 47H124.312L115.989 36ZM120.01 38L125.307 45H148.895L143.191 38H120.01Z" fill="#FFB800" fill-opacity="0.98"/>
<path d="M91.8095 46L85 37H110.667L118 46H91.8095Z" fill="#FFB800" fill-opacity="0.98"/>
<path fill-rule="evenodd" clip-rule="evenodd" d="M82.9893 36H111.142L120.105 47H91.312L82.9893 36ZM87.0104 38L92.3067 45H115.895L110.191 38H87.0104Z" fill="#FFB800" fill-opacity="0.98"/>
<path d="M323.714 154L316 145H334V154H323.714Z" fill="#FFB800" fill-opacity="0.98"/>
<path fill-rule="evenodd" clip-rule="evenodd" d="M313.826 144H335V155H323.254L313.826 144ZM318.174 146L324.174 153H333V146H318.174Z" fill="#FFB800" fill-opacity="0.98"/>
<path d="M156.81 154L150 145H175.667L183 154H156.81Z" fill="#FFB800" fill-opacity="0.98"/>
<path fill-rule="evenodd" clip-rule="evenodd" d="M147.989 144H176.142L185.105 155H156.312L147.989 144ZM152.01 146L157.307 153H180.895L175.191 146H152.01Z" fill="#FFB800" fill-opacity="0.98"/>
<path d="M289.603 154L283 145H307.889L315 154H289.603Z" fill="#FFB800" fill-opacity="0.98"/>
<path fill-rule="evenodd" clip-rule="evenodd" d="M281.026 144H308.373L317.064 155H289.096L281.026 144ZM284.974 146L290.11 153H312.935L307.404 146H284.974Z" fill="#FFB800" fill-opacity="0.98"/>
<path d="M255.81 154L249 145H274.667L282 154H255.81Z" fill="#FFB800" fill-opacity="0.98"/>
<path fill-rule="evenodd" clip-rule="evenodd" d="M246.989 144H275.142L284.105 155H255.312L246.989 144ZM251.01 146L256.307 153H279.895L274.191 146H251.01Z" fill="#FFB800" fill-opacity="0.98"/>
<path d="M222.81 154L216 145H241.667L249 154H222.81Z" fill="#FFB800" fill-opacity="0.98"/>
<path fill-rule="evenodd" clip-rule="evenodd" d="M213.989 144H242.142L251.105 155H222.312L213.989 144ZM218.01 146L223.307 153H246.895L241.191 146H218.01Z" fill="#FFB800" fill-opacity="0.98"/>
<path d="M189.81 154L183 145H208.667L216 154H189.81Z" fill="#FFB800" fill-opacity="0.98"/>
<path fill-rule="evenodd" clip-rule="evenodd" d="M180.989 144H209.142L218.105 155H189.312L180.989 144ZM185.01 146L190.307 153H213.895L208.191 146H185.01Z" fill="#FFB800" fill-opacity="0.98"/>
<path d="M123.81 154L117 145H142.667L150 154H123.81Z" fill="#FFB800" fill-opacity="0.98"/>
<path fill-rule="evenodd" clip-rule="evenodd" d="M114.989 144H143.142L152.105 155H123.312L114.989 144ZM119.01 146L124.307 153H147.895L142.191 146H119.01Z" fill="#FFB800" fill-opacity="0.98"/>
<path d="M90.8095 154L84 145H109.667L117 154H90.8095Z" fill="#FFB800" fill-opacity="0.98"/>
<path fill-rule="evenodd" clip-rule="evenodd" d="M81.9893 144H110.142L119.105 155H90.312L81.9893 144ZM86.0104 146L91.3067 153H114.895L109.191 146H86.0104Z" fill="#FFB800" fill-opacity="0.98"/>
<mask id="path-36-outside-1_683_2580" maskUnits="userSpaceOnUse" x="78.103" y="162.987" width="226" height="58" fill="black">
<rect fill="white" x="78.103" y="162.987" width="226" height="58"/>
<path d="M83.213 186H79.103V164.01C81.803 163.98 84.623 163.98 87.353 164.01C91.973 164.07 95.483 166.71 95.483 170.94C95.483 174.99 93.353 178.2 87.323 178.2C86.783 178.2 86.513 178.2 86.033 178.17L84.983 174.3C85.883 174.36 86.513 174.36 87.443 174.33C89.723 174.27 90.953 173.1 90.953 170.94C90.953 168.9 89.603 167.73 87.053 167.7C85.853 167.67 84.383 167.67 83.213 167.67V186Z"/>
<path d="M103.821 175.02C101.931 175.02 100.011 176.34 100.011 179.01C100.011 181.68 101.811 183 103.821 183C105.861 183 107.631 181.68 107.631 179.01C107.631 176.34 105.711 175.02 103.821 175.02ZM96.2009 179.01C96.2009 174.6 99.1109 171.54 103.821 171.54C108.531 171.54 111.471 174.6 111.471 179.01C111.471 183.45 108.591 186.51 103.821 186.51C99.0809 186.51 96.2009 183.45 96.2009 179.01Z"/>
<path d="M115.548 181.38C116.568 182.76 118.008 183.33 119.418 183.33C121.068 183.33 122.688 182.76 122.688 181.77C122.688 180.78 121.578 180.27 120.318 180.15C119.838 180.09 119.268 180.09 118.578 180.12V177.24C119.268 177.24 119.838 177.24 120.318 177.21C121.458 177.15 122.148 176.61 122.148 175.86C122.148 175.02 120.948 174.6 119.418 174.6C118.008 174.6 116.718 175.23 115.728 176.73L113.058 174.72C114.258 172.77 116.388 171.48 119.418 171.48C124.068 171.48 126.258 173.31 126.258 175.62C126.258 177.27 125.208 178.11 124.008 178.68C125.358 179.01 126.858 180.33 126.858 182.04C126.858 184.83 124.068 186.45 119.418 186.45C116.508 186.45 114.168 185.31 112.848 183.45L115.548 181.38Z"/>
<path d="M132.79 175.29V186H129.04V171.9H142.09V186H138.34V175.29H132.79Z"/>
<path d="M151.599 175.02C149.709 175.02 147.789 176.34 147.789 179.01C147.789 181.68 149.589 183 151.599 183C153.639 183 155.409 181.68 155.409 179.01C155.409 176.34 153.489 175.02 151.599 175.02ZM143.979 179.01C143.979 174.6 146.889 171.54 151.599 171.54C156.309 171.54 159.249 174.6 159.249 179.01C159.249 183.45 156.369 186.51 151.599 186.51C146.859 186.51 143.979 183.45 143.979 179.01Z"/>
<path d="M175.447 171.9V186H171.607V182.7C170.587 183.21 169.207 183.45 168.127 183.45C164.287 183.45 161.497 181.08 161.467 178.17C161.437 176.61 161.437 173.46 161.467 171.9H165.157C165.127 173.73 165.097 175.44 165.157 177.3C165.217 179.22 166.537 180.21 168.157 180.21C169.357 180.21 170.737 179.97 171.607 179.34V171.9H175.447Z"/>
<path d="M192.267 171.9V186H188.637V180.09L188.727 176.7L183.237 186H178.467V171.9H182.097V177.6L182.007 181.23L187.557 171.9H192.267Z"/>
<path d="M208.133 171.9V186H204.383V180.63H198.743V186H194.993V171.9H198.743V177.27H204.383V171.9H208.133Z"/>
<path d="M217.757 182.85C219.737 182.85 221.357 181.38 221.357 178.95C221.357 176.55 219.737 175.08 217.757 175.08C215.867 175.08 214.097 176.46 214.097 178.95C214.097 181.47 215.867 182.85 217.757 182.85ZM210.167 178.95C210.167 174.39 213.257 171.54 217.517 171.54C218.867 171.54 220.637 172.2 221.267 173.01L221.177 172.17V171.9H225.137V186H221.297V185.85L221.387 184.95C220.757 185.85 219.047 186.39 217.517 186.39C213.017 186.39 210.167 183.15 210.167 178.95Z"/>
<path d="M240.517 184.2C239.407 185.64 236.857 186.51 234.667 186.51C229.897 186.51 227.227 183.24 227.227 179.01C227.227 174.69 229.867 171.54 234.517 171.54C239.137 171.54 241.777 174.69 241.777 179.01C241.777 179.49 241.777 179.79 241.747 180.21H231.127C231.337 181.98 232.657 183.09 234.667 183.09C236.107 183.09 237.457 182.61 238.297 181.68L240.517 184.2ZM231.187 177.63H237.787C237.607 176.04 236.287 174.96 234.517 174.96C232.747 174.96 231.337 176.04 231.187 177.63Z"/>
<path d="M251.624 186H247.874V175.47H243.344V171.9H256.154V175.47H251.624V186Z"/>
<path d="M261.672 182.79C262.632 182.79 263.862 182.79 265.002 182.76C266.742 182.73 268.002 181.53 268.002 179.76C268.002 178.08 266.562 177.12 265.362 177.09C264.642 177.03 264.312 177.03 263.832 177.09L262.812 173.82C263.682 173.76 264.372 173.76 265.332 173.79C269.412 173.94 271.962 176.79 271.962 179.76C271.962 183.21 269.622 185.91 265.302 186C262.572 186.06 261.162 186.03 258.102 185.97V171.9H261.672V182.79Z"/>
<path d="M287.067 184.11C285.747 185.7 283.737 186.51 281.337 186.51C276.597 186.51 273.717 183.45 273.717 179.01C273.717 174.6 276.627 171.54 281.337 171.54C283.617 171.54 285.807 172.41 287.127 174L284.757 176.49C283.797 175.44 282.747 175.02 281.337 175.02C279.327 175.02 277.587 176.64 277.587 179.01C277.587 181.59 279.207 183.03 281.337 183.03C282.597 183.03 284.037 182.55 284.817 181.56L287.067 184.11Z"/>
<path d="M299.223 174.66C298.203 174.63 296.943 174.63 295.803 174.66C294.483 174.72 293.313 175.59 293.313 176.58C293.313 177.6 294.273 178.29 295.683 178.32C296.253 178.35 297.093 178.32 297.753 178.32L293.373 186H289.233L292.833 180.57C290.793 180.06 289.563 178.44 289.563 176.4C289.563 173.7 292.143 171.63 295.593 171.6C298.023 171.57 299.733 171.57 302.853 171.6V186H299.223V174.66Z"/>
<path d="M94.5269 205.29V216H90.7769V201.9H103.827V216H100.077V205.29H94.5269Z"/>
<path d="M113.336 205.02C111.446 205.02 109.526 206.34 109.526 209.01C109.526 211.68 111.326 213 113.336 213C115.376 213 117.146 211.68 117.146 209.01C117.146 206.34 115.226 205.02 113.336 205.02ZM105.716 209.01C105.716 204.6 108.626 201.54 113.336 201.54C118.046 201.54 120.986 204.6 120.986 209.01C120.986 213.45 118.106 216.51 113.336 216.51C108.596 216.51 105.716 213.45 105.716 209.01Z"/>
<path d="M127.583 205.11C127.613 206.49 127.613 207.63 127.583 209.19C127.553 210.63 127.283 212.01 126.503 213.09L128.603 212.97H132.143V205.11H127.583ZM122.003 219.6V213.15C123.053 212.55 123.863 211.08 123.893 209.01C123.953 206.31 123.953 204.57 123.893 201.9H135.863V212.97H137.663V219.6H133.883V216H125.753V219.6H122.003Z"/>
<path d="M146.518 212.85C148.498 212.85 150.118 211.38 150.118 208.95C150.118 206.55 148.498 205.08 146.518 205.08C144.628 205.08 142.858 206.46 142.858 208.95C142.858 211.47 144.628 212.85 146.518 212.85ZM138.928 208.95C138.928 204.39 142.018 201.54 146.278 201.54C147.628 201.54 149.398 202.2 150.028 203.01L149.938 202.17V201.9H153.898V216H150.058V215.85L150.148 214.95C149.518 215.85 147.808 216.39 146.278 216.39C141.778 216.39 138.928 213.15 138.928 208.95Z"/>
<path d="M170.598 201.9V216H166.758V212.7C165.738 213.21 164.358 213.45 163.278 213.45C159.438 213.45 156.648 211.08 156.618 208.17C156.588 206.61 156.588 203.46 156.618 201.9H160.308C160.278 203.73 160.248 205.44 160.308 207.3C160.368 209.22 161.688 210.21 163.308 210.21C164.508 210.21 165.888 209.97 166.758 209.34V201.9H170.598Z"/>
<path d="M180.519 212.85C182.499 212.85 184.119 211.38 184.119 208.95C184.119 206.55 182.499 205.08 180.519 205.08C178.629 205.08 176.859 206.46 176.859 208.95C176.859 211.47 178.629 212.85 180.519 212.85ZM172.929 208.95C172.929 204.39 176.019 201.54 180.279 201.54C181.629 201.54 183.399 202.2 184.029 203.01L183.939 202.17V201.9H187.899V216H184.059V215.85L184.149 214.95C183.519 215.85 181.809 216.39 180.279 216.39C175.779 216.39 172.929 213.15 172.929 208.95Z"/>
<path d="M197.585 211.38C198.605 212.76 200.045 213.33 201.455 213.33C203.105 213.33 204.725 212.76 204.725 211.77C204.725 210.78 203.615 210.27 202.355 210.15C201.875 210.09 201.305 210.09 200.615 210.12V207.24C201.305 207.24 201.875 207.24 202.355 207.21C203.495 207.15 204.185 206.61 204.185 205.86C204.185 205.02 202.985 204.6 201.455 204.6C200.045 204.6 198.755 205.23 197.765 206.73L195.095 204.72C196.295 202.77 198.425 201.48 201.455 201.48C206.105 201.48 208.295 203.31 208.295 205.62C208.295 207.27 207.245 208.11 206.045 208.68C207.395 209.01 208.895 210.33 208.895 212.04C208.895 214.83 206.105 216.45 201.455 216.45C198.545 216.45 196.205 215.31 194.885 213.45L197.585 211.38Z"/>
<path d="M218.307 212.85C220.287 212.85 221.907 211.38 221.907 208.95C221.907 206.55 220.287 205.08 218.307 205.08C216.417 205.08 214.647 206.46 214.647 208.95C214.647 211.47 216.417 212.85 218.307 212.85ZM210.717 208.95C210.717 204.39 213.807 201.54 218.067 201.54C219.417 201.54 221.187 202.2 221.817 203.01L221.727 202.17V201.9H225.687V216H221.847V215.85L221.937 214.95C221.307 215.85 219.597 216.39 218.067 216.39C213.567 216.39 210.717 213.15 210.717 208.95Z"/>
<path d="M238.187 204.66C237.167 204.63 235.907 204.63 234.767 204.66C233.447 204.72 232.277 205.59 232.277 206.58C232.277 207.6 233.237 208.29 234.647 208.32C235.217 208.35 236.057 208.32 236.717 208.32L232.337 216H228.197L231.797 210.57C229.757 210.06 228.527 208.44 228.527 206.4C228.527 203.7 231.107 201.63 234.557 201.6C236.987 201.57 238.697 201.57 241.817 201.6V216H238.187V204.66Z"/>
<path d="M248.242 207.57C249.262 207.57 249.892 207.57 250.942 207.54C251.962 207.54 252.772 207.03 252.772 206.04C252.772 205.41 252.172 204.84 251.062 204.81C249.982 204.78 249.322 204.78 248.242 204.78V207.57ZM244.672 216V201.9C247.162 201.87 249.232 201.87 251.752 201.9C254.572 201.93 256.972 203.31 256.972 205.5C256.972 207.06 256.312 208.41 254.842 208.62C256.342 208.77 257.902 209.94 257.902 211.95C257.902 214.65 255.412 215.97 252.682 216C249.862 216.03 247.462 216.03 244.672 216ZM248.272 213.12C249.652 213.12 250.762 213.12 252.082 213.09C253.012 213.09 253.792 212.61 253.792 211.59C253.792 210.51 252.712 210.15 251.872 210.12C250.612 210.09 249.592 210.09 248.272 210.12V213.12Z"/>
<path d="M267.344 205.02C265.454 205.02 263.534 206.34 263.534 209.01C263.534 211.68 265.334 213 267.344 213C269.384 213 271.154 211.68 271.154 209.01C271.154 206.34 269.234 205.02 267.344 205.02ZM259.724 209.01C259.724 204.6 262.634 201.54 267.344 201.54C272.054 201.54 274.994 204.6 274.994 209.01C274.994 213.45 272.114 216.51 267.344 216.51C262.604 216.51 259.724 213.45 259.724 209.01Z"/>
<path d="M277.211 201.9H280.871V216H277.211V201.9ZM281.891 208.62L286.451 201.9H290.861L286.061 208.62L291.251 216H286.841L281.891 208.62Z"/>
</mask>
<path d="M83.213 186H79.103V164.01C81.803 163.98 84.623 163.98 87.353 164.01C91.973 164.07 95.483 166.71 95.483 170.94C95.483 174.99 93.353 178.2 87.323 178.2C86.783 178.2 86.513 178.2 86.033 178.17L84.983 174.3C85.883 174.36 86.513 174.36 87.443 174.33C89.723 174.27 90.953 173.1 90.953 170.94C90.953 168.9 89.603 167.73 87.053 167.7C85.853 167.67 84.383 167.67 83.213 167.67V186Z" fill="#FFB800" fill-opacity="0.98"/>
<path d="M103.821 175.02C101.931 175.02 100.011 176.34 100.011 179.01C100.011 181.68 101.811 183 103.821 183C105.861 183 107.631 181.68 107.631 179.01C107.631 176.34 105.711 175.02 103.821 175.02ZM96.2009 179.01C96.2009 174.6 99.1109 171.54 103.821 171.54C108.531 171.54 111.471 174.6 111.471 179.01C111.471 183.45 108.591 186.51 103.821 186.51C99.0809 186.51 96.2009 183.45 96.2009 179.01Z" fill="#FFB800" fill-opacity="0.98"/>
<path d="M115.548 181.38C116.568 182.76 118.008 183.33 119.418 183.33C121.068 183.33 122.688 182.76 122.688 181.77C122.688 180.78 121.578 180.27 120.318 180.15C119.838 180.09 119.268 180.09 118.578 180.12V177.24C119.268 177.24 119.838 177.24 120.318 177.21C121.458 177.15 122.148 176.61 122.148 175.86C122.148 175.02 120.948 174.6 119.418 174.6C118.008 174.6 116.718 175.23 115.728 176.73L113.058 174.72C114.258 172.77 116.388 171.48 119.418 171.48C124.068 171.48 126.258 173.31 126.258 175.62C126.258 177.27 125.208 178.11 124.008 178.68C125.358 179.01 126.858 180.33 126.858 182.04C126.858 184.83 124.068 186.45 119.418 186.45C116.508 186.45 114.168 185.31 112.848 183.45L115.548 181.38Z" fill="#FFB800" fill-opacity="0.98"/>
<path d="M132.79 175.29V186H129.04V171.9H142.09V186H138.34V175.29H132.79Z" fill="#FFB800" fill-opacity="0.98"/>
<path d="M151.599 175.02C149.709 175.02 147.789 176.34 147.789 179.01C147.789 181.68 149.589 183 151.599 183C153.639 183 155.409 181.68 155.409 179.01C155.409 176.34 153.489 175.02 151.599 175.02ZM143.979 179.01C143.979 174.6 146.889 171.54 151.599 171.54C156.309 171.54 159.249 174.6 159.249 179.01C159.249 183.45 156.369 186.51 151.599 186.51C146.859 186.51 143.979 183.45 143.979 179.01Z" fill="#FFB800" fill-opacity="0.98"/>
<path d="M175.447 171.9V186H171.607V182.7C170.587 183.21 169.207 183.45 168.127 183.45C164.287 183.45 161.497 181.08 161.467 178.17C161.437 176.61 161.437 173.46 161.467 171.9H165.157C165.127 173.73 165.097 175.44 165.157 177.3C165.217 179.22 166.537 180.21 168.157 180.21C169.357 180.21 170.737 179.97 171.607 179.34V171.9H175.447Z" fill="#FFB800" fill-opacity="0.98"/>
<path d="M192.267 171.9V186H188.637V180.09L188.727 176.7L183.237 186H178.467V171.9H182.097V177.6L182.007 181.23L187.557 171.9H192.267Z" fill="#FFB800" fill-opacity="0.98"/>
<path d="M208.133 171.9V186H204.383V180.63H198.743V186H194.993V171.9H198.743V177.27H204.383V171.9H208.133Z" fill="#FFB800" fill-opacity="0.98"/>
<path d="M217.757 182.85C219.737 182.85 221.357 181.38 221.357 178.95C221.357 176.55 219.737 175.08 217.757 175.08C215.867 175.08 214.097 176.46 214.097 178.95C214.097 181.47 215.867 182.85 217.757 182.85ZM210.167 178.95C210.167 174.39 213.257 171.54 217.517 171.54C218.867 171.54 220.637 172.2 221.267 173.01L221.177 172.17V171.9H225.137V186H221.297V185.85L221.387 184.95C220.757 185.85 219.047 186.39 217.517 186.39C213.017 186.39 210.167 183.15 210.167 178.95Z" fill="#FFB800" fill-opacity="0.98"/>
<path d="M240.517 184.2C239.407 185.64 236.857 186.51 234.667 186.51C229.897 186.51 227.227 183.24 227.227 179.01C227.227 174.69 229.867 171.54 234.517 171.54C239.137 171.54 241.777 174.69 241.777 179.01C241.777 179.49 241.777 179.79 241.747 180.21H231.127C231.337 181.98 232.657 183.09 234.667 183.09C236.107 183.09 237.457 182.61 238.297 181.68L240.517 184.2ZM231.187 177.63H237.787C237.607 176.04 236.287 174.96 234.517 174.96C232.747 174.96 231.337 176.04 231.187 177.63Z" fill="#FFB800" fill-opacity="0.98"/>
<path d="M251.624 186H247.874V175.47H243.344V171.9H256.154V175.47H251.624V186Z" fill="#FFB800" fill-opacity="0.98"/>
<path d="M261.672 182.79C262.632 182.79 263.862 182.79 265.002 182.76C266.742 182.73 268.002 181.53 268.002 179.76C268.002 178.08 266.562 177.12 265.362 177.09C264.642 177.03 264.312 177.03 263.832 177.09L262.812 173.82C263.682 173.76 264.372 173.76 265.332 173.79C269.412 173.94 271.962 176.79 271.962 179.76C271.962 183.21 269.622 185.91 265.302 186C262.572 186.06 261.162 186.03 258.102 185.97V171.9H261.672V182.79Z" fill="#FFB800" fill-opacity="0.98"/>
<path d="M287.067 184.11C285.747 185.7 283.737 186.51 281.337 186.51C276.597 186.51 273.717 183.45 273.717 179.01C273.717 174.6 276.627 171.54 281.337 171.54C283.617 171.54 285.807 172.41 287.127 174L284.757 176.49C283.797 175.44 282.747 175.02 281.337 175.02C279.327 175.02 277.587 176.64 277.587 179.01C277.587 181.59 279.207 183.03 281.337 183.03C282.597 183.03 284.037 182.55 284.817 181.56L287.067 184.11Z" fill="#FFB800" fill-opacity="0.98"/>
<path d="M299.223 174.66C298.203 174.63 296.943 174.63 295.803 174.66C294.483 174.72 293.313 175.59 293.313 176.58C293.313 177.6 294.273 178.29 295.683 178.32C296.253 178.35 297.093 178.32 297.753 178.32L293.373 186H289.233L292.833 180.57C290.793 180.06 289.563 178.44 289.563 176.4C289.563 173.7 292.143 171.63 295.593 171.6C298.023 171.57 299.733 171.57 302.853 171.6V186H299.223V174.66Z" fill="#FFB800" fill-opacity="0.98"/>
<path d="M94.5269 205.29V216H90.7769V201.9H103.827V216H100.077V205.29H94.5269Z" fill="#FFB800" fill-opacity="0.98"/>
<path d="M113.336 205.02C111.446 205.02 109.526 206.34 109.526 209.01C109.526 211.68 111.326 213 113.336 213C115.376 213 117.146 211.68 117.146 209.01C117.146 206.34 115.226 205.02 113.336 205.02ZM105.716 209.01C105.716 204.6 108.626 201.54 113.336 201.54C118.046 201.54 120.986 204.6 120.986 209.01C120.986 213.45 118.106 216.51 113.336 216.51C108.596 216.51 105.716 213.45 105.716 209.01Z" fill="#FFB800" fill-opacity="0.98"/>
<path d="M127.583 205.11C127.613 206.49 127.613 207.63 127.583 209.19C127.553 210.63 127.283 212.01 126.503 213.09L128.603 212.97H132.143V205.11H127.583ZM122.003 219.6V213.15C123.053 212.55 123.863 211.08 123.893 209.01C123.953 206.31 123.953 204.57 123.893 201.9H135.863V212.97H137.663V219.6H133.883V216H125.753V219.6H122.003Z" fill="#FFB800" fill-opacity="0.98"/>
<path d="M146.518 212.85C148.498 212.85 150.118 211.38 150.118 208.95C150.118 206.55 148.498 205.08 146.518 205.08C144.628 205.08 142.858 206.46 142.858 208.95C142.858 211.47 144.628 212.85 146.518 212.85ZM138.928 208.95C138.928 204.39 142.018 201.54 146.278 201.54C147.628 201.54 149.398 202.2 150.028 203.01L149.938 202.17V201.9H153.898V216H150.058V215.85L150.148 214.95C149.518 215.85 147.808 216.39 146.278 216.39C141.778 216.39 138.928 213.15 138.928 208.95Z" fill="#FFB800" fill-opacity="0.98"/>
<path d="M170.598 201.9V216H166.758V212.7C165.738 213.21 164.358 213.45 163.278 213.45C159.438 213.45 156.648 211.08 156.618 208.17C156.588 206.61 156.588 203.46 156.618 201.9H160.308C160.278 203.73 160.248 205.44 160.308 207.3C160.368 209.22 161.688 210.21 163.308 210.21C164.508 210.21 165.888 209.97 166.758 209.34V201.9H170.598Z" fill="#FFB800" fill-opacity="0.98"/>
<path d="M180.519 212.85C182.499 212.85 184.119 211.38 184.119 208.95C184.119 206.55 182.499 205.08 180.519 205.08C178.629 205.08 176.859 206.46 176.859 208.95C176.859 211.47 178.629 212.85 180.519 212.85ZM172.929 208.95C172.929 204.39 176.019 201.54 180.279 201.54C181.629 201.54 183.399 202.2 184.029 203.01L183.939 202.17V201.9H187.899V216H184.059V215.85L184.149 214.95C183.519 215.85 181.809 216.39 180.279 216.39C175.779 216.39 172.929 213.15 172.929 208.95Z" fill="#FFB800" fill-opacity="0.98"/>
<path d="M197.585 211.38C198.605 212.76 200.045 213.33 201.455 213.33C203.105 213.33 204.725 212.76 204.725 211.77C204.725 210.78 203.615 210.27 202.355 210.15C201.875 210.09 201.305 210.09 200.615 210.12V207.24C201.305 207.24 201.875 207.24 202.355 207.21C203.495 207.15 204.185 206.61 204.185 205.86C204.185 205.02 202.985 204.6 201.455 204.6C200.045 204.6 198.755 205.23 197.765 206.73L195.095 204.72C196.295 202.77 198.425 201.48 201.455 201.48C206.105 201.48 208.295 203.31 208.295 205.62C208.295 207.27 207.245 208.11 206.045 208.68C207.395 209.01 208.895 210.33 208.895 212.04C208.895 214.83 206.105 216.45 201.455 216.45C198.545 216.45 196.205 215.31 194.885 213.45L197.585 211.38Z" fill="#FFB800" fill-opacity="0.98"/>
<path d="M218.307 212.85C220.287 212.85 221.907 211.38 221.907 208.95C221.907 206.55 220.287 205.08 218.307 205.08C216.417 205.08 214.647 206.46 214.647 208.95C214.647 211.47 216.417 212.85 218.307 212.85ZM210.717 208.95C210.717 204.39 213.807 201.54 218.067 201.54C219.417 201.54 221.187 202.2 221.817 203.01L221.727 202.17V201.9H225.687V216H221.847V215.85L221.937 214.95C221.307 215.85 219.597 216.39 218.067 216.39C213.567 216.39 210.717 213.15 210.717 208.95Z" fill="#FFB800" fill-opacity="0.98"/>
<path d="M238.187 204.66C237.167 204.63 235.907 204.63 234.767 204.66C233.447 204.72 232.277 205.59 232.277 206.58C232.277 207.6 233.237 208.29 234.647 208.32C235.217 208.35 236.057 208.32 236.717 208.32L232.337 216H228.197L231.797 210.57C229.757 210.06 228.527 208.44 228.527 206.4C228.527 203.7 231.107 201.63 234.557 201.6C236.987 201.57 238.697 201.57 241.817 201.6V216H238.187V204.66Z" fill="#FFB800" fill-opacity="0.98"/>
<path d="M248.242 207.57C249.262 207.57 249.892 207.57 250.942 207.54C251.962 207.54 252.772 207.03 252.772 206.04C252.772 205.41 252.172 204.84 251.062 204.81C249.982 204.78 249.322 204.78 248.242 204.78V207.57ZM244.672 216V201.9C247.162 201.87 249.232 201.87 251.752 201.9C254.572 201.93 256.972 203.31 256.972 205.5C256.972 207.06 256.312 208.41 254.842 208.62C256.342 208.77 257.902 209.94 257.902 211.95C257.902 214.65 255.412 215.97 252.682 216C249.862 216.03 247.462 216.03 244.672 216ZM248.272 213.12C249.652 213.12 250.762 213.12 252.082 213.09C253.012 213.09 253.792 212.61 253.792 211.59C253.792 210.51 252.712 210.15 251.872 210.12C250.612 210.09 249.592 210.09 248.272 210.12V213.12Z" fill="#FFB800" fill-opacity="0.98"/>
<path d="M267.344 205.02C265.454 205.02 263.534 206.34 263.534 209.01C263.534 211.68 265.334 213 267.344 213C269.384 213 271.154 211.68 271.154 209.01C271.154 206.34 269.234 205.02 267.344 205.02ZM259.724 209.01C259.724 204.6 262.634 201.54 267.344 201.54C272.054 201.54 274.994 204.6 274.994 209.01C274.994 213.45 272.114 216.51 267.344 216.51C262.604 216.51 259.724 213.45 259.724 209.01Z" fill="#FFB800" fill-opacity="0.98"/>
<path d="M277.211 201.9H280.871V216H277.211V201.9ZM281.891 208.62L286.451 201.9H290.861L286.061 208.62L291.251 216H286.841L281.891 208.62Z" fill="#FFB800" fill-opacity="0.98"/>
<path d="M83.213 186H79.103V164.01C81.803 163.98 84.623 163.98 87.353 164.01C91.973 164.07 95.483 166.71 95.483 170.94C95.483 174.99 93.353 178.2 87.323 178.2C86.783 178.2 86.513 178.2 86.033 178.17L84.983 174.3C85.883 174.36 86.513 174.36 87.443 174.33C89.723 174.27 90.953 173.1 90.953 170.94C90.953 168.9 89.603 167.73 87.053 167.7C85.853 167.67 84.383 167.67 83.213 167.67V186Z" stroke="#FFB904" mask="url(#path-36-outside-1_683_2580)"/>
<path d="M103.821 175.02C101.931 175.02 100.011 176.34 100.011 179.01C100.011 181.68 101.811 183 103.821 183C105.861 183 107.631 181.68 107.631 179.01C107.631 176.34 105.711 175.02 103.821 175.02ZM96.2009 179.01C96.2009 174.6 99.1109 171.54 103.821 171.54C108.531 171.54 111.471 174.6 111.471 179.01C111.471 183.45 108.591 186.51 103.821 186.51C99.0809 186.51 96.2009 183.45 96.2009 179.01Z" stroke="#FFB904" mask="url(#path-36-outside-1_683_2580)"/>
<path d="M115.548 181.38C116.568 182.76 118.008 183.33 119.418 183.33C121.068 183.33 122.688 182.76 122.688 181.77C122.688 180.78 121.578 180.27 120.318 180.15C119.838 180.09 119.268 180.09 118.578 180.12V177.24C119.268 177.24 119.838 177.24 120.318 177.21C121.458 177.15 122.148 176.61 122.148 175.86C122.148 175.02 120.948 174.6 119.418 174.6C118.008 174.6 116.718 175.23 115.728 176.73L113.058 174.72C114.258 172.77 116.388 171.48 119.418 171.48C124.068 171.48 126.258 173.31 126.258 175.62C126.258 177.27 125.208 178.11 124.008 178.68C125.358 179.01 126.858 180.33 126.858 182.04C126.858 184.83 124.068 186.45 119.418 186.45C116.508 186.45 114.168 185.31 112.848 183.45L115.548 181.38Z" stroke="#FFB904" mask="url(#path-36-outside-1_683_2580)"/>
<path d="M132.79 175.29V186H129.04V171.9H142.09V186H138.34V175.29H132.79Z" stroke="#FFB904" mask="url(#path-36-outside-1_683_2580)"/>
<path d="M151.599 175.02C149.709 175.02 147.789 176.34 147.789 179.01C147.789 181.68 149.589 183 151.599 183C153.639 183 155.409 181.68 155.409 179.01C155.409 176.34 153.489 175.02 151.599 175.02ZM143.979 179.01C143.979 174.6 146.889 171.54 151.599 171.54C156.309 171.54 159.249 174.6 159.249 179.01C159.249 183.45 156.369 186.51 151.599 186.51C146.859 186.51 143.979 183.45 143.979 179.01Z" stroke="#FFB904" mask="url(#path-36-outside-1_683_2580)"/>
<path d="M175.447 171.9V186H171.607V182.7C170.587 183.21 169.207 183.45 168.127 183.45C164.287 183.45 161.497 181.08 161.467 178.17C161.437 176.61 161.437 173.46 161.467 171.9H165.157C165.127 173.73 165.097 175.44 165.157 177.3C165.217 179.22 166.537 180.21 168.157 180.21C169.357 180.21 170.737 179.97 171.607 179.34V171.9H175.447Z" stroke="#FFB904" mask="url(#path-36-outside-1_683_2580)"/>
<path d="M192.267 171.9V186H188.637V180.09L188.727 176.7L183.237 186H178.467V171.9H182.097V177.6L182.007 181.23L187.557 171.9H192.267Z" stroke="#FFB904" mask="url(#path-36-outside-1_683_2580)"/>
<path d="M208.133 171.9V186H204.383V180.63H198.743V186H194.993V171.9H198.743V177.27H204.383V171.9H208.133Z" stroke="#FFB904" mask="url(#path-36-outside-1_683_2580)"/>
<path d="M217.757 182.85C219.737 182.85 221.357 181.38 221.357 178.95C221.357 176.55 219.737 175.08 217.757 175.08C215.867 175.08 214.097 176.46 214.097 178.95C214.097 181.47 215.867 182.85 217.757 182.85ZM210.167 178.95C210.167 174.39 213.257 171.54 217.517 171.54C218.867 171.54 220.637 172.2 221.267 173.01L221.177 172.17V171.9H225.137V186H221.297V185.85L221.387 184.95C220.757 185.85 219.047 186.39 217.517 186.39C213.017 186.39 210.167 183.15 210.167 178.95Z" stroke="#FFB904" mask="url(#path-36-outside-1_683_2580)"/>
<path d="M240.517 184.2C239.407 185.64 236.857 186.51 234.667 186.51C229.897 186.51 227.227 183.24 227.227 179.01C227.227 174.69 229.867 171.54 234.517 171.54C239.137 171.54 241.777 174.69 241.777 179.01C241.777 179.49 241.777 179.79 241.747 180.21H231.127C231.337 181.98 232.657 183.09 234.667 183.09C236.107 183.09 237.457 182.61 238.297 181.68L240.517 184.2ZM231.187 177.63H237.787C237.607 176.04 236.287 174.96 234.517 174.96C232.747 174.96 231.337 176.04 231.187 177.63Z" stroke="#FFB904" mask="url(#path-36-outside-1_683_2580)"/>
<path d="M251.624 186H247.874V175.47H243.344V171.9H256.154V175.47H251.624V186Z" stroke="#FFB904" mask="url(#path-36-outside-1_683_2580)"/>
<path d="M261.672 182.79C262.632 182.79 263.862 182.79 265.002 182.76C266.742 182.73 268.002 181.53 268.002 179.76C268.002 178.08 266.562 177.12 265.362 177.09C264.642 177.03 264.312 177.03 263.832 177.09L262.812 173.82C263.682 173.76 264.372 173.76 265.332 173.79C269.412 173.94 271.962 176.79 271.962 179.76C271.962 183.21 269.622 185.91 265.302 186C262.572 186.06 261.162 186.03 258.102 185.97V171.9H261.672V182.79Z" stroke="#FFB904" mask="url(#path-36-outside-1_683_2580)"/>
<path d="M287.067 184.11C285.747 185.7 283.737 186.51 281.337 186.51C276.597 186.51 273.717 183.45 273.717 179.01C273.717 174.6 276.627 171.54 281.337 171.54C283.617 171.54 285.807 172.41 287.127 174L284.757 176.49C283.797 175.44 282.747 175.02 281.337 175.02C279.327 175.02 277.587 176.64 277.587 179.01C277.587 181.59 279.207 183.03 281.337 183.03C282.597 183.03 284.037 182.55 284.817 181.56L287.067 184.11Z" stroke="#FFB904" mask="url(#path-36-outside-1_683_2580)"/>
<path d="M299.223 174.66C298.203 174.63 296.943 174.63 295.803 174.66C294.483 174.72 293.313 175.59 293.313 176.58C293.313 177.6 294.273 178.29 295.683 178.32C296.253 178.35 297.093 178.32 297.753 178.32L293.373 186H289.233L292.833 180.57C290.793 180.06 289.563 178.44 289.563 176.4C289.563 173.7 292.143 171.63 295.593 171.6C298.023 171.57 299.733 171.57 302.853 171.6V186H299.223V174.66Z" stroke="#FFB904" mask="url(#path-36-outside-1_683_2580)"/>
<path d="M94.5269 205.29V216H90.7769V201.9H103.827V216H100.077V205.29H94.5269Z" stroke="#FFB904" mask="url(#path-36-outside-1_683_2580)"/>
<path d="M113.336 205.02C111.446 205.02 109.526 206.34 109.526 209.01C109.526 211.68 111.326 213 113.336 213C115.376 213 117.146 211.68 117.146 209.01C117.146 206.34 115.226 205.02 113.336 205.02ZM105.716 209.01C105.716 204.6 108.626 201.54 113.336 201.54C118.046 201.54 120.986 204.6 120.986 209.01C120.986 213.45 118.106 216.51 113.336 216.51C108.596 216.51 105.716 213.45 105.716 209.01Z" stroke="#FFB904" mask="url(#path-36-outside-1_683_2580)"/>
<path d="M127.583 205.11C127.613 206.49 127.613 207.63 127.583 209.19C127.553 210.63 127.283 212.01 126.503 213.09L128.603 212.97H132.143V205.11H127.583ZM122.003 219.6V213.15C123.053 212.55 123.863 211.08 123.893 209.01C123.953 206.31 123.953 204.57 123.893 201.9H135.863V212.97H137.663V219.6H133.883V216H125.753V219.6H122.003Z" stroke="#FFB904" mask="url(#path-36-outside-1_683_2580)"/>
<path d="M146.518 212.85C148.498 212.85 150.118 211.38 150.118 208.95C150.118 206.55 148.498 205.08 146.518 205.08C144.628 205.08 142.858 206.46 142.858 208.95C142.858 211.47 144.628 212.85 146.518 212.85ZM138.928 208.95C138.928 204.39 142.018 201.54 146.278 201.54C147.628 201.54 149.398 202.2 150.028 203.01L149.938 202.17V201.9H153.898V216H150.058V215.85L150.148 214.95C149.518 215.85 147.808 216.39 146.278 216.39C141.778 216.39 138.928 213.15 138.928 208.95Z" stroke="#FFB904" mask="url(#path-36-outside-1_683_2580)"/>
<path d="M170.598 201.9V216H166.758V212.7C165.738 213.21 164.358 213.45 163.278 213.45C159.438 213.45 156.648 211.08 156.618 208.17C156.588 206.61 156.588 203.46 156.618 201.9H160.308C160.278 203.73 160.248 205.44 160.308 207.3C160.368 209.22 161.688 210.21 163.308 210.21C164.508 210.21 165.888 209.97 166.758 209.34V201.9H170.598Z" stroke="#FFB904" mask="url(#path-36-outside-1_683_2580)"/>
<path d="M180.519 212.85C182.499 212.85 184.119 211.38 184.119 208.95C184.119 206.55 182.499 205.08 180.519 205.08C178.629 205.08 176.859 206.46 176.859 208.95C176.859 211.47 178.629 212.85 180.519 212.85ZM172.929 208.95C172.929 204.39 176.019 201.54 180.279 201.54C181.629 201.54 183.399 202.2 184.029 203.01L183.939 202.17V201.9H187.899V216H184.059V215.85L184.149 214.95C183.519 215.85 181.809 216.39 180.279 216.39C175.779 216.39 172.929 213.15 172.929 208.95Z" stroke="#FFB904" mask="url(#path-36-outside-1_683_2580)"/>
<path d="M197.585 211.38C198.605 212.76 200.045 213.33 201.455 213.33C203.105 213.33 204.725 212.76 204.725 211.77C204.725 210.78 203.615 210.27 202.355 210.15C201.875 210.09 201.305 210.09 200.615 210.12V207.24C201.305 207.24 201.875 207.24 202.355 207.21C203.495 207.15 204.185 206.61 204.185 205.86C204.185 205.02 202.985 204.6 201.455 204.6C200.045 204.6 198.755 205.23 197.765 206.73L195.095 204.72C196.295 202.77 198.425 201.48 201.455 201.48C206.105 201.48 208.295 203.31 208.295 205.62C208.295 207.27 207.245 208.11 206.045 208.68C207.395 209.01 208.895 210.33 208.895 212.04C208.895 214.83 206.105 216.45 201.455 216.45C198.545 216.45 196.205 215.31 194.885 213.45L197.585 211.38Z" stroke="#FFB904" mask="url(#path-36-outside-1_683_2580)"/>
<path d="M218.307 212.85C220.287 212.85 221.907 211.38 221.907 208.95C221.907 206.55 220.287 205.08 218.307 205.08C216.417 205.08 214.647 206.46 214.647 208.95C214.647 211.47 216.417 212.85 218.307 212.85ZM210.717 208.95C210.717 204.39 213.807 201.54 218.067 201.54C219.417 201.54 221.187 202.2 221.817 203.01L221.727 202.17V201.9H225.687V216H221.847V215.85L221.937 214.95C221.307 215.85 219.597 216.39 218.067 216.39C213.567 216.39 210.717 213.15 210.717 208.95Z" stroke="#FFB904" mask="url(#path-36-outside-1_683_2580)"/>
<path d="M238.187 204.66C237.167 204.63 235.907 204.63 234.767 204.66C233.447 204.72 232.277 205.59 232.277 206.58C232.277 207.6 233.237 208.29 234.647 208.32C235.217 208.35 236.057 208.32 236.717 208.32L232.337 216H228.197L231.797 210.57C229.757 210.06 228.527 208.44 228.527 206.4C228.527 203.7 231.107 201.63 234.557 201.6C236.987 201.57 238.697 201.57 241.817 201.6V216H238.187V204.66Z" stroke="#FFB904" mask="url(#path-36-outside-1_683_2580)"/>
<path d="M248.242 207.57C249.262 207.57 249.892 207.57 250.942 207.54C251.962 207.54 252.772 207.03 252.772 206.04C252.772 205.41 252.172 204.84 251.062 204.81C249.982 204.78 249.322 204.78 248.242 204.78V207.57ZM244.672 216V201.9C247.162 201.87 249.232 201.87 251.752 201.9C254.572 201.93 256.972 203.31 256.972 205.5C256.972 207.06 256.312 208.41 254.842 208.62C256.342 208.77 257.902 209.94 257.902 211.95C257.902 214.65 255.412 215.97 252.682 216C249.862 216.03 247.462 216.03 244.672 216ZM248.272 213.12C249.652 213.12 250.762 213.12 252.082 213.09C253.012 213.09 253.792 212.61 253.792 211.59C253.792 210.51 252.712 210.15 251.872 210.12C250.612 210.09 249.592 210.09 248.272 210.12V213.12Z" stroke="#FFB904" mask="url(#path-36-outside-1_683_2580)"/>
<path d="M267.344 205.02C265.454 205.02 263.534 206.34 263.534 209.01C263.534 211.68 265.334 213 267.344 213C269.384 213 271.154 211.68 271.154 209.01C271.154 206.34 269.234 205.02 267.344 205.02ZM259.724 209.01C259.724 204.6 262.634 201.54 267.344 201.54C272.054 201.54 274.994 204.6 274.994 209.01C274.994 213.45 272.114 216.51 267.344 216.51C262.604 216.51 259.724 213.45 259.724 209.01Z" stroke="#FFB904" mask="url(#path-36-outside-1_683_2580)"/>
<path d="M277.211 201.9H280.871V216H277.211V201.9ZM281.891 208.62L286.451 201.9H290.861L286.061 208.62L291.251 216H286.841L281.891 208.62Z" stroke="#FFB904" mask="url(#path-36-outside-1_683_2580)"/>
</svg>
