<svg width="51" height="51" viewBox="0 0 51 51" fill="none" xmlns="http://www.w3.org/2000/svg">
<path d="M23.559 0.0447884C17.8471 0.587517 12.9542 2.62008 8.81653 6.19569C4.12574 10.2395 1.20064 15.571 0.190152 21.9241C-0.0651295 23.5949 -0.0651295 27.4259 0.200788 29.1179C0.987905 34.1408 2.9557 38.4719 6.16799 42.2072C10.2312 46.9427 15.9112 49.9863 22.2826 50.8695C23.5909 51.0504 27.367 51.0398 28.6646 50.8589C36.0784 49.8373 42.4073 45.9637 46.5237 39.9405C49.8317 35.0985 51.4166 29.1285 50.906 23.3927C49.8104 10.9738 40.1417 1.23666 27.7605 0.0873566C26.6756 -0.00841904 24.4312 -0.0297012 23.559 0.0447884ZM26.2182 3.59911C27.6116 4.31211 28.9412 6.51494 30.1006 10.0267C30.4197 10.9951 30.6856 11.8145 30.6856 11.8464C30.6856 11.8784 28.3455 11.8996 25.4736 11.8996C22.6124 11.8996 20.2616 11.8784 20.2616 11.8464C20.2616 11.8145 20.5276 10.9951 20.8467 10.0267C21.9635 6.632 23.2399 4.46109 24.5589 3.69489C25.1971 3.33307 25.6438 3.31179 26.2182 3.59911ZM19.6234 4.29082C19.6234 4.32275 19.4852 4.59943 19.3043 4.90804C18.5491 6.2489 17.5067 8.99446 17.0281 10.8887L16.7834 11.8464L12.4543 11.8784L8.12514 11.8996L8.25278 11.6655C8.50806 11.1866 11.4013 8.43045 12.3905 7.71745C14.2306 6.39788 16.3154 5.30178 18.3045 4.61008C19.3362 4.24826 19.6234 4.18441 19.6234 4.29082ZM33.0789 4.7697C35.302 5.59975 37.5569 6.87676 39.4715 8.43045C40.3331 9.12216 42.503 11.3143 42.7051 11.6974C42.8221 11.8996 42.737 11.8996 38.493 11.8784L34.1532 11.8464L33.9617 11.0483C33.5256 9.23922 32.3875 6.23825 31.6429 4.90804C31.4621 4.59943 31.3238 4.32275 31.3238 4.28018C31.3238 4.17377 31.9514 4.35468 33.0789 4.7697ZM15.9644 15.5923C15.741 16.6565 15.4113 20.0193 15.3049 22.1902L15.2305 23.8183H9.29518C5.54042 23.8183 3.34926 23.7758 3.34926 23.7119C3.34926 23.6587 3.42371 23.0734 3.51944 22.4243C3.80664 20.3172 4.45547 18.125 5.37023 16.1882L5.78506 15.305H10.9013H16.0282L15.9644 15.5923ZM31.5259 15.9648C31.845 17.7526 32.2811 22.0944 32.2811 23.4352V23.8183H25.463H18.6342L18.7087 22.4562C18.8257 20.2427 19.2724 16.1457 19.4745 15.4859C19.5277 15.3156 19.9106 15.305 25.4736 15.305H31.4089L31.5259 15.9648ZM45.6089 16.3692C46.5343 18.3379 47.3002 21.0621 47.5448 23.2011L47.6086 23.8183H41.6627H35.7168L35.5891 21.7113C35.4828 19.9128 35.3658 18.8699 34.9722 15.8051L34.9084 15.305H40.014H45.1196L45.6089 16.3692ZM15.3687 27.8835C15.3687 29.3095 15.741 33.2682 16.0708 35.322L16.1452 35.737H11.0396H5.93398L5.40214 34.5877C4.48739 32.6403 3.74282 30.0118 3.50881 27.8835L3.43435 27.2237H9.40155H15.3687V27.8835ZM32.2386 28.5752C32.1216 30.7993 31.6748 34.8963 31.4727 35.5455C31.4195 35.7264 31.0366 35.737 25.4736 35.737H19.5383L19.4213 35.0666C19.1129 33.3427 18.6661 28.9583 18.6661 27.6068V27.2237H25.4843H32.313L32.2386 28.5752ZM47.598 27.3301C47.598 27.3833 47.5235 27.9686 47.4278 28.6177C47.1406 30.7248 46.4918 32.917 45.577 34.8538L45.1622 35.737H40.0459H34.919L34.9722 35.4923C35.1743 34.6835 35.5253 31.1292 35.6423 28.7348L35.7168 27.2237H41.6521C45.4068 27.2237 47.598 27.2662 47.598 27.3301ZM17.0281 40.1533C17.5067 42.0476 18.5491 44.7931 19.315 46.1553C19.4958 46.4639 19.6128 46.7405 19.5809 46.7725C19.549 46.8044 18.9427 46.6341 18.2407 46.3894C16.1346 45.6657 13.9434 44.4951 12.0501 43.0692C11.146 42.3881 8.47615 39.7915 8.25278 39.3765L8.12514 39.1424L12.4543 39.1637L16.7834 39.1956L17.0281 40.1533ZM30.6856 39.1956C30.6856 39.4829 29.4092 43.0266 28.9944 43.8886C27.8563 46.2617 26.5586 47.6557 25.4736 47.6557C24.3887 47.6557 23.091 46.2617 21.9529 43.8886C21.538 43.0266 20.2616 39.4829 20.2616 39.1956C20.2616 39.1637 22.6124 39.1424 25.4736 39.1424C28.3455 39.1424 30.6856 39.1637 30.6856 39.1956ZM42.6945 39.3765C42.62 39.5042 41.9393 40.2385 41.1734 41.0153C39.1205 43.0798 37.057 44.5164 34.4617 45.6977C33.3873 46.1872 31.4515 46.8576 31.3664 46.7725C31.3345 46.7405 31.4515 46.4639 31.6323 46.1553C32.3662 44.8463 33.4405 42.0369 33.8873 40.2598C34.0043 39.7915 34.1213 39.3446 34.1426 39.2701C34.1745 39.1743 35.1424 39.1424 38.5036 39.1424H42.8221L42.6945 39.3765Z" fill="#FFB904"/>
</svg>
